G04 #@! TF.FileFunction,Legend,Bot*
%FSLAX46Y46*%
G04 Gerber Fmt 4.6, Leading zero omitted, Abs format (unit mm)*
G04 Created by KiCad (PCBNEW 4.0.5) date 03/05/17 18:12:25*
%MOMM*%
%LPD*%
G01*
G04 APERTURE LIST*
%ADD10C,0.100000*%
%ADD11C,0.200000*%
%ADD12C,0.150000*%
%ADD13C,0.002540*%
%ADD14C,0.127000*%
%ADD15R,2.100000X2.100000*%
%ADD16O,2.100000X2.100000*%
%ADD17R,2.599640X1.924000*%
%ADD18O,2.599640X1.924000*%
%ADD19R,1.700000X2.200000*%
%ADD20O,1.700000X2.200000*%
%ADD21R,2.200000X1.700000*%
%ADD22O,2.200000X1.700000*%
%ADD23C,2.900000*%
%ADD24R,1.400760X1.299160*%
%ADD25R,1.299160X1.400760*%
%ADD26C,0.250000*%
G04 APERTURE END LIST*
D10*
D11*
X121052382Y-136086667D02*
X120576191Y-136086667D01*
X121147620Y-136372381D02*
X120814287Y-135372381D01*
X120480953Y-136372381D01*
X120147620Y-136372381D02*
X120147620Y-135372381D01*
X119909525Y-135372381D01*
X119766667Y-135420000D01*
X119671429Y-135515238D01*
X119623810Y-135610476D01*
X119576191Y-135800952D01*
X119576191Y-135943810D01*
X119623810Y-136134286D01*
X119671429Y-136229524D01*
X119766667Y-136324762D01*
X119909525Y-136372381D01*
X120147620Y-136372381D01*
X119195239Y-136086667D02*
X118719048Y-136086667D01*
X119290477Y-136372381D02*
X118957144Y-135372381D01*
X118623810Y-136372381D01*
X118290477Y-135372381D02*
X118290477Y-136181905D01*
X118242858Y-136277143D01*
X118195239Y-136324762D01*
X118100001Y-136372381D01*
X117909524Y-136372381D01*
X117814286Y-136324762D01*
X117766667Y-136277143D01*
X117719048Y-136181905D01*
X117719048Y-135372381D01*
X116719048Y-136372381D02*
X117290477Y-136372381D01*
X117004763Y-136372381D02*
X117004763Y-135372381D01*
X117100001Y-135515238D01*
X117195239Y-135610476D01*
X117290477Y-135658095D01*
X115861905Y-135705714D02*
X115861905Y-136372381D01*
X116100001Y-135324762D02*
X116338096Y-136039048D01*
X115719048Y-136039048D01*
X114909524Y-135705714D02*
X114909524Y-136372381D01*
X115147620Y-135324762D02*
X115385715Y-136039048D01*
X114766667Y-136039048D01*
X114480953Y-136372381D02*
X113957143Y-135705714D01*
X114480953Y-135705714D02*
X113957143Y-136372381D01*
X112814286Y-136372381D02*
X112814286Y-135372381D01*
X112576191Y-135372381D01*
X112433333Y-135420000D01*
X112338095Y-135515238D01*
X112290476Y-135610476D01*
X112242857Y-135800952D01*
X112242857Y-135943810D01*
X112290476Y-136134286D01*
X112338095Y-136229524D01*
X112433333Y-136324762D01*
X112576191Y-136372381D01*
X112814286Y-136372381D01*
X111861905Y-136324762D02*
X111719048Y-136372381D01*
X111480952Y-136372381D01*
X111385714Y-136324762D01*
X111338095Y-136277143D01*
X111290476Y-136181905D01*
X111290476Y-136086667D01*
X111338095Y-135991429D01*
X111385714Y-135943810D01*
X111480952Y-135896190D01*
X111671429Y-135848571D01*
X111766667Y-135800952D01*
X111814286Y-135753333D01*
X111861905Y-135658095D01*
X111861905Y-135562857D01*
X111814286Y-135467619D01*
X111766667Y-135420000D01*
X111671429Y-135372381D01*
X111433333Y-135372381D01*
X111290476Y-135420000D01*
X110861905Y-136372381D02*
X110861905Y-135372381D01*
X110480952Y-135372381D01*
X110385714Y-135420000D01*
X110338095Y-135467619D01*
X110290476Y-135562857D01*
X110290476Y-135705714D01*
X110338095Y-135800952D01*
X110385714Y-135848571D01*
X110480952Y-135896190D01*
X110861905Y-135896190D01*
X108528571Y-136277143D02*
X108576190Y-136324762D01*
X108719047Y-136372381D01*
X108814285Y-136372381D01*
X108957143Y-136324762D01*
X109052381Y-136229524D01*
X109100000Y-136134286D01*
X109147619Y-135943810D01*
X109147619Y-135800952D01*
X109100000Y-135610476D01*
X109052381Y-135515238D01*
X108957143Y-135420000D01*
X108814285Y-135372381D01*
X108719047Y-135372381D01*
X108576190Y-135420000D01*
X108528571Y-135467619D01*
X107957143Y-136372381D02*
X108052381Y-136324762D01*
X108100000Y-136277143D01*
X108147619Y-136181905D01*
X108147619Y-135896190D01*
X108100000Y-135800952D01*
X108052381Y-135753333D01*
X107957143Y-135705714D01*
X107814285Y-135705714D01*
X107719047Y-135753333D01*
X107671428Y-135800952D01*
X107623809Y-135896190D01*
X107623809Y-136181905D01*
X107671428Y-136277143D01*
X107719047Y-136324762D01*
X107814285Y-136372381D01*
X107957143Y-136372381D01*
X107195238Y-136372381D02*
X107195238Y-135705714D01*
X107195238Y-135896190D02*
X107147619Y-135800952D01*
X107100000Y-135753333D01*
X107004762Y-135705714D01*
X106909523Y-135705714D01*
X106195237Y-136324762D02*
X106290475Y-136372381D01*
X106480952Y-136372381D01*
X106576190Y-136324762D01*
X106623809Y-136229524D01*
X106623809Y-135848571D01*
X106576190Y-135753333D01*
X106480952Y-135705714D01*
X106290475Y-135705714D01*
X106195237Y-135753333D01*
X106147618Y-135848571D01*
X106147618Y-135943810D01*
X106623809Y-136039048D01*
X121052382Y-138072381D02*
X121052382Y-137072381D01*
X121052382Y-137453333D02*
X120957144Y-137405714D01*
X120766667Y-137405714D01*
X120671429Y-137453333D01*
X120623810Y-137500952D01*
X120576191Y-137596190D01*
X120576191Y-137881905D01*
X120623810Y-137977143D01*
X120671429Y-138024762D01*
X120766667Y-138072381D01*
X120957144Y-138072381D01*
X121052382Y-138024762D01*
X120242858Y-137405714D02*
X120004763Y-138072381D01*
X119766667Y-137405714D02*
X120004763Y-138072381D01*
X120100001Y-138310476D01*
X120147620Y-138358095D01*
X120242858Y-138405714D01*
X118290476Y-137548571D02*
X118147619Y-137596190D01*
X118100000Y-137643810D01*
X118052381Y-137739048D01*
X118052381Y-137881905D01*
X118100000Y-137977143D01*
X118147619Y-138024762D01*
X118242857Y-138072381D01*
X118623810Y-138072381D01*
X118623810Y-137072381D01*
X118290476Y-137072381D01*
X118195238Y-137120000D01*
X118147619Y-137167619D01*
X118100000Y-137262857D01*
X118100000Y-137358095D01*
X118147619Y-137453333D01*
X118195238Y-137500952D01*
X118290476Y-137548571D01*
X118623810Y-137548571D01*
X117480953Y-138072381D02*
X117576191Y-138024762D01*
X117623810Y-137977143D01*
X117671429Y-137881905D01*
X117671429Y-137596190D01*
X117623810Y-137500952D01*
X117576191Y-137453333D01*
X117480953Y-137405714D01*
X117338095Y-137405714D01*
X117242857Y-137453333D01*
X117195238Y-137500952D01*
X117147619Y-137596190D01*
X117147619Y-137881905D01*
X117195238Y-137977143D01*
X117242857Y-138024762D01*
X117338095Y-138072381D01*
X117480953Y-138072381D01*
X116290476Y-137405714D02*
X116290476Y-138215238D01*
X116338095Y-138310476D01*
X116385714Y-138358095D01*
X116480953Y-138405714D01*
X116623810Y-138405714D01*
X116719048Y-138358095D01*
X116290476Y-138024762D02*
X116385714Y-138072381D01*
X116576191Y-138072381D01*
X116671429Y-138024762D01*
X116719048Y-137977143D01*
X116766667Y-137881905D01*
X116766667Y-137596190D01*
X116719048Y-137500952D01*
X116671429Y-137453333D01*
X116576191Y-137405714D01*
X116385714Y-137405714D01*
X116290476Y-137453333D01*
X115385714Y-138072381D02*
X115385714Y-137072381D01*
X115385714Y-138024762D02*
X115480952Y-138072381D01*
X115671429Y-138072381D01*
X115766667Y-138024762D01*
X115814286Y-137977143D01*
X115861905Y-137881905D01*
X115861905Y-137596190D01*
X115814286Y-137500952D01*
X115766667Y-137453333D01*
X115671429Y-137405714D01*
X115480952Y-137405714D01*
X115385714Y-137453333D01*
X114480952Y-138072381D02*
X114480952Y-137548571D01*
X114528571Y-137453333D01*
X114623809Y-137405714D01*
X114814286Y-137405714D01*
X114909524Y-137453333D01*
X114480952Y-138024762D02*
X114576190Y-138072381D01*
X114814286Y-138072381D01*
X114909524Y-138024762D01*
X114957143Y-137929524D01*
X114957143Y-137834286D01*
X114909524Y-137739048D01*
X114814286Y-137691429D01*
X114576190Y-137691429D01*
X114480952Y-137643810D01*
X114004762Y-137405714D02*
X114004762Y-138072381D01*
X114004762Y-137500952D02*
X113957143Y-137453333D01*
X113861905Y-137405714D01*
X113719047Y-137405714D01*
X113623809Y-137453333D01*
X113576190Y-137548571D01*
X113576190Y-138072381D01*
X112480952Y-137072381D02*
X111909523Y-137072381D01*
X112195238Y-138072381D02*
X112195238Y-137072381D01*
X111576190Y-137977143D02*
X111528571Y-138024762D01*
X111576190Y-138072381D01*
X111623809Y-138024762D01*
X111576190Y-137977143D01*
X111576190Y-138072381D01*
X108909523Y-137405714D02*
X108671428Y-138072381D01*
X108433332Y-137405714D01*
X107861904Y-137072381D02*
X107766665Y-137072381D01*
X107671427Y-137120000D01*
X107623808Y-137167619D01*
X107576189Y-137262857D01*
X107528570Y-137453333D01*
X107528570Y-137691429D01*
X107576189Y-137881905D01*
X107623808Y-137977143D01*
X107671427Y-138024762D01*
X107766665Y-138072381D01*
X107861904Y-138072381D01*
X107957142Y-138024762D01*
X108004761Y-137977143D01*
X108052380Y-137881905D01*
X108099999Y-137691429D01*
X108099999Y-137453333D01*
X108052380Y-137262857D01*
X108004761Y-137167619D01*
X107957142Y-137120000D01*
X107861904Y-137072381D01*
X107099999Y-137977143D02*
X107052380Y-138024762D01*
X107099999Y-138072381D01*
X107147618Y-138024762D01*
X107099999Y-137977143D01*
X107099999Y-138072381D01*
X106099999Y-138072381D02*
X106671428Y-138072381D01*
X106385714Y-138072381D02*
X106385714Y-137072381D01*
X106480952Y-137215238D01*
X106576190Y-137310476D01*
X106671428Y-137358095D01*
D12*
X101350000Y-104620000D02*
X101250000Y-104550000D01*
X101530000Y-104620000D02*
X101350000Y-104620000D01*
X101630000Y-104550000D02*
X101530000Y-104620000D01*
X101680000Y-104410000D02*
X101630000Y-104550000D01*
X101680000Y-103830000D02*
X101680000Y-104410000D01*
X101620000Y-103680000D02*
X101680000Y-103830000D01*
X101520000Y-103610000D02*
X101620000Y-103680000D01*
X101350000Y-103610000D02*
X101520000Y-103610000D01*
X101250000Y-103700000D02*
X101350000Y-103610000D01*
X101200000Y-103830000D02*
X101250000Y-103700000D01*
X101200000Y-104100000D02*
X101200000Y-103830000D01*
X101680000Y-104100000D02*
X101200000Y-104100000D01*
X102250000Y-103620000D02*
X102250000Y-104620000D01*
X102200000Y-103760000D02*
X102250000Y-103930000D01*
X102160000Y-103700000D02*
X102200000Y-103760000D01*
X102060000Y-103620000D02*
X102160000Y-103700000D01*
X101950000Y-103620000D02*
X102060000Y-103620000D01*
X104300000Y-103610000D02*
X104110000Y-104620000D01*
X104110000Y-104620000D02*
X103920000Y-103900000D01*
X103920000Y-103900000D02*
X103730000Y-104620000D01*
X103730000Y-104620000D02*
X103530000Y-103610000D01*
X104680000Y-104540000D02*
X104770000Y-104620000D01*
X104770000Y-104620000D02*
X104960000Y-104620000D01*
X104960000Y-104620000D02*
X105030000Y-104570000D01*
X105030000Y-104570000D02*
X105100000Y-104490000D01*
X105100000Y-104490000D02*
X105160000Y-104330000D01*
X105160000Y-104330000D02*
X105160000Y-103910000D01*
X105160000Y-103910000D02*
X105110000Y-103760000D01*
X105110000Y-103760000D02*
X105040000Y-103670000D01*
X105040000Y-103670000D02*
X104960000Y-103620000D01*
X104960000Y-103620000D02*
X104780000Y-103620000D01*
X104780000Y-103620000D02*
X104680000Y-103700000D01*
X104680000Y-103120000D02*
X104680000Y-104620000D01*
X105430000Y-103620000D02*
X105540000Y-103620000D01*
X105540000Y-103620000D02*
X105640000Y-103700000D01*
X105640000Y-103700000D02*
X105680000Y-103760000D01*
X105680000Y-103760000D02*
X105730000Y-103930000D01*
X105730000Y-103620000D02*
X105730000Y-104620000D01*
X102720000Y-103830000D02*
X102720000Y-104620000D01*
X102780000Y-103680000D02*
X102720000Y-103830000D01*
X102870000Y-103610000D02*
X102780000Y-103680000D01*
X103050000Y-103610000D02*
X102870000Y-103610000D01*
X103160000Y-103690000D02*
X103050000Y-103610000D01*
X103200000Y-104390000D02*
X103160000Y-104530000D01*
X103200000Y-104260000D02*
X103200000Y-104390000D01*
X103150000Y-104120000D02*
X103200000Y-104260000D01*
X103050000Y-104040000D02*
X103150000Y-104120000D01*
X102810000Y-104040000D02*
X103050000Y-104040000D01*
X102720000Y-103970000D02*
X102810000Y-104040000D01*
X102820000Y-104620000D02*
X102720000Y-104540000D01*
X103050000Y-104620000D02*
X102820000Y-104620000D01*
X103160000Y-104530000D02*
X103050000Y-104620000D01*
X106640000Y-104530000D02*
X106530000Y-104620000D01*
X106530000Y-104620000D02*
X106300000Y-104620000D01*
X106300000Y-104620000D02*
X106200000Y-104540000D01*
X106200000Y-103970000D02*
X106290000Y-104040000D01*
X106290000Y-104040000D02*
X106530000Y-104040000D01*
X106530000Y-104040000D02*
X106630000Y-104120000D01*
X106630000Y-104120000D02*
X106680000Y-104260000D01*
X106680000Y-104260000D02*
X106680000Y-104390000D01*
X106680000Y-104390000D02*
X106640000Y-104530000D01*
X106640000Y-103690000D02*
X106530000Y-103610000D01*
X106530000Y-103610000D02*
X106350000Y-103610000D01*
X106350000Y-103610000D02*
X106260000Y-103680000D01*
X106260000Y-103680000D02*
X106200000Y-103830000D01*
X106200000Y-103830000D02*
X106200000Y-104620000D01*
X107540000Y-104620000D02*
X107540000Y-103120000D01*
X107480000Y-103680000D02*
X107540000Y-103750000D01*
X107400000Y-103620000D02*
X107480000Y-103680000D01*
X107260000Y-103620000D02*
X107400000Y-103620000D01*
X107160000Y-103690000D02*
X107260000Y-103620000D01*
X107110000Y-103840000D02*
X107160000Y-103690000D01*
X107110000Y-104620000D02*
X107110000Y-103840000D01*
X108770000Y-104620000D02*
X108770000Y-103840000D01*
X108770000Y-103840000D02*
X108820000Y-103690000D01*
X108820000Y-103690000D02*
X108920000Y-103620000D01*
X108920000Y-103620000D02*
X109060000Y-103620000D01*
X109060000Y-103620000D02*
X109140000Y-103680000D01*
X109140000Y-103680000D02*
X109200000Y-103750000D01*
X109200000Y-103620000D02*
X109200000Y-104620000D01*
X110110000Y-104100000D02*
X109630000Y-104100000D01*
X109630000Y-104100000D02*
X109630000Y-103830000D01*
X109630000Y-103830000D02*
X109680000Y-103700000D01*
X109680000Y-103700000D02*
X109780000Y-103610000D01*
X109780000Y-103610000D02*
X109950000Y-103610000D01*
X109950000Y-103610000D02*
X110050000Y-103680000D01*
X110050000Y-103680000D02*
X110110000Y-103830000D01*
X110110000Y-103830000D02*
X110110000Y-104410000D01*
X110110000Y-104410000D02*
X110060000Y-104550000D01*
X110060000Y-104550000D02*
X109960000Y-104620000D01*
X109960000Y-104620000D02*
X109780000Y-104620000D01*
X109780000Y-104620000D02*
X109680000Y-104550000D01*
X110970000Y-103610000D02*
X110970000Y-105120000D01*
X110860000Y-103610000D02*
X110680000Y-103610000D01*
X110860000Y-104610000D02*
X110670000Y-104610000D01*
X110860000Y-103610000D02*
X110940000Y-103670000D01*
X110590000Y-103680000D02*
X110680000Y-103610000D01*
X110540000Y-103750000D02*
X110590000Y-103680000D01*
X110490000Y-103910000D02*
X110540000Y-103750000D01*
X110490000Y-104320000D02*
X110490000Y-103910000D01*
X110540000Y-104460000D02*
X110490000Y-104320000D01*
X110580000Y-104530000D02*
X110540000Y-104460000D01*
X110680000Y-104610000D02*
X110580000Y-104530000D01*
X110960000Y-104540000D02*
X110860000Y-104610000D01*
X111920000Y-103910000D02*
X111920000Y-104320000D01*
X111920000Y-104320000D02*
X111870000Y-104460000D01*
X111870000Y-104460000D02*
X111820000Y-104550000D01*
X111820000Y-104550000D02*
X111720000Y-104620000D01*
X111720000Y-104620000D02*
X111580000Y-104620000D01*
X111580000Y-104620000D02*
X111480000Y-104540000D01*
X111480000Y-104540000D02*
X111440000Y-104470000D01*
X111440000Y-104470000D02*
X111390000Y-104330000D01*
X111390000Y-104330000D02*
X111390000Y-103920000D01*
X111390000Y-103920000D02*
X111440000Y-103760000D01*
X111440000Y-103760000D02*
X111490000Y-103690000D01*
X111490000Y-103690000D02*
X111580000Y-103620000D01*
X111580000Y-103620000D02*
X111730000Y-103620000D01*
X111730000Y-103620000D02*
X111810000Y-103680000D01*
X111810000Y-103680000D02*
X111870000Y-103760000D01*
X111870000Y-103760000D02*
X111920000Y-103910000D01*
D13*
G36*
X110197280Y-102899880D02*
X110133780Y-102866860D01*
X109994080Y-102777960D01*
X109793420Y-102648420D01*
X109557200Y-102488400D01*
X109318440Y-102328380D01*
X109122860Y-102196300D01*
X108985700Y-102109940D01*
X108929820Y-102076920D01*
X108899340Y-102087080D01*
X108785040Y-102142960D01*
X108622480Y-102229320D01*
X108525960Y-102277580D01*
X108376100Y-102343620D01*
X108302440Y-102356320D01*
X108289740Y-102336000D01*
X108233860Y-102219160D01*
X108147500Y-102023580D01*
X108033200Y-101761960D01*
X107903660Y-101459700D01*
X107766500Y-101129500D01*
X107626800Y-100794220D01*
X107494720Y-100476720D01*
X107375340Y-100189700D01*
X107281360Y-99956020D01*
X107220400Y-99793460D01*
X107197540Y-99722340D01*
X107205160Y-99707100D01*
X107278820Y-99635980D01*
X107410900Y-99536920D01*
X107695380Y-99305780D01*
X107974780Y-98955260D01*
X108144960Y-98559020D01*
X108203380Y-98117060D01*
X108155120Y-97708120D01*
X107992560Y-97314420D01*
X107718240Y-96961360D01*
X107385500Y-96697200D01*
X106996880Y-96532100D01*
X106560000Y-96476220D01*
X106140900Y-96524480D01*
X105739580Y-96681960D01*
X105386520Y-96951200D01*
X105236660Y-97123920D01*
X105030920Y-97482060D01*
X104914080Y-97868140D01*
X104901380Y-97964660D01*
X104919160Y-98386300D01*
X105043620Y-98790160D01*
X105264600Y-99150840D01*
X105574480Y-99448020D01*
X105612580Y-99475960D01*
X105757360Y-99582640D01*
X105851340Y-99656300D01*
X105927540Y-99717260D01*
X105391600Y-101010120D01*
X105305240Y-101215860D01*
X105157920Y-101566380D01*
X105028380Y-101871180D01*
X104924240Y-102115020D01*
X104853120Y-102275040D01*
X104822640Y-102341080D01*
X104817560Y-102343620D01*
X104771840Y-102351240D01*
X104672780Y-102315680D01*
X104492440Y-102229320D01*
X104373060Y-102168360D01*
X104235900Y-102102320D01*
X104174940Y-102076920D01*
X104121600Y-102104860D01*
X103989520Y-102191220D01*
X103799020Y-102320760D01*
X103567880Y-102475700D01*
X103346900Y-102625560D01*
X103143700Y-102760180D01*
X102996380Y-102854160D01*
X102925260Y-102892260D01*
X102915100Y-102892260D01*
X102851600Y-102856700D01*
X102734760Y-102760180D01*
X102559500Y-102592540D01*
X102310580Y-102348700D01*
X102272480Y-102310600D01*
X102066740Y-102102320D01*
X101901640Y-101927060D01*
X101789880Y-101802600D01*
X101749240Y-101746720D01*
X101749240Y-101746720D01*
X101787340Y-101675600D01*
X101878780Y-101528280D01*
X102013400Y-101325080D01*
X102175960Y-101083780D01*
X102605220Y-100464020D01*
X102369000Y-99877280D01*
X102297880Y-99696940D01*
X102206440Y-99478500D01*
X102137860Y-99323560D01*
X102102300Y-99254980D01*
X102038800Y-99232120D01*
X101878780Y-99194020D01*
X101645100Y-99145760D01*
X101368240Y-99094960D01*
X101104080Y-99046700D01*
X100865320Y-99000980D01*
X100692600Y-98967960D01*
X100613860Y-98952720D01*
X100596080Y-98940020D01*
X100580840Y-98901920D01*
X100570680Y-98820640D01*
X100565600Y-98675860D01*
X100560520Y-98447260D01*
X100560520Y-98117060D01*
X100560520Y-98081500D01*
X100565600Y-97766540D01*
X100570680Y-97515080D01*
X100578300Y-97349980D01*
X100591000Y-97283940D01*
X100591000Y-97283940D01*
X100664660Y-97266160D01*
X100834840Y-97230600D01*
X101073600Y-97182340D01*
X101358080Y-97129000D01*
X101375860Y-97126460D01*
X101660340Y-97070580D01*
X101896560Y-97022320D01*
X102064200Y-96984220D01*
X102132780Y-96961360D01*
X102148020Y-96941040D01*
X102206440Y-96829280D01*
X102287720Y-96654020D01*
X102381700Y-96440660D01*
X102473140Y-96217140D01*
X102554420Y-96016480D01*
X102607760Y-95866620D01*
X102623000Y-95798040D01*
X102623000Y-95798040D01*
X102579820Y-95729460D01*
X102483300Y-95582140D01*
X102343600Y-95378940D01*
X102178500Y-95137640D01*
X102165800Y-95117320D01*
X102003240Y-94878560D01*
X101871160Y-94675360D01*
X101782260Y-94530580D01*
X101749240Y-94467080D01*
X101749240Y-94462000D01*
X101805120Y-94390880D01*
X101927040Y-94253720D01*
X102102300Y-94070840D01*
X102310580Y-93860020D01*
X102379160Y-93793980D01*
X102610300Y-93565380D01*
X102772860Y-93418060D01*
X102874460Y-93336780D01*
X102922720Y-93319000D01*
X102925260Y-93321540D01*
X102996380Y-93364720D01*
X103148780Y-93463780D01*
X103354520Y-93603480D01*
X103598360Y-93768580D01*
X103613600Y-93778740D01*
X103854900Y-93941300D01*
X104053020Y-94078460D01*
X104195260Y-94172440D01*
X104258760Y-94208000D01*
X104268920Y-94208000D01*
X104365440Y-94180060D01*
X104535620Y-94121640D01*
X104746440Y-94040360D01*
X104967420Y-93951460D01*
X105170620Y-93865100D01*
X105320480Y-93796520D01*
X105391600Y-93755880D01*
X105394140Y-93753340D01*
X105419540Y-93666980D01*
X105460180Y-93486640D01*
X105513520Y-93240260D01*
X105566860Y-92945620D01*
X105577020Y-92899900D01*
X105630360Y-92612880D01*
X105676080Y-92376660D01*
X105711640Y-92214100D01*
X105726880Y-92145520D01*
X105767520Y-92137900D01*
X105907220Y-92127740D01*
X106120580Y-92120120D01*
X106379660Y-92117580D01*
X106651440Y-92120120D01*
X106915600Y-92125200D01*
X107141660Y-92132820D01*
X107304220Y-92145520D01*
X107372800Y-92158220D01*
X107375340Y-92163300D01*
X107398200Y-92252200D01*
X107438840Y-92430000D01*
X107489640Y-92678920D01*
X107545520Y-92973560D01*
X107555680Y-93026900D01*
X107609020Y-93311380D01*
X107657280Y-93545060D01*
X107692840Y-93705080D01*
X107710620Y-93768580D01*
X107736020Y-93781280D01*
X107852860Y-93834620D01*
X108043360Y-93913360D01*
X108282120Y-94009880D01*
X108830760Y-94230860D01*
X109503860Y-93768580D01*
X109564820Y-93727940D01*
X109808660Y-93562840D01*
X110006780Y-93430760D01*
X110146480Y-93341860D01*
X110202360Y-93308840D01*
X110207440Y-93311380D01*
X110276020Y-93369800D01*
X110408100Y-93494260D01*
X110590980Y-93672060D01*
X110801800Y-93882880D01*
X110959280Y-94040360D01*
X111144700Y-94228320D01*
X111261540Y-94355320D01*
X111327580Y-94436600D01*
X111350440Y-94487400D01*
X111342820Y-94520420D01*
X111299640Y-94589000D01*
X111200580Y-94736320D01*
X111063420Y-94942060D01*
X110898320Y-95178280D01*
X110763700Y-95378940D01*
X110616380Y-95605000D01*
X110522400Y-95765020D01*
X110489380Y-95843760D01*
X110497000Y-95876780D01*
X110545260Y-96008860D01*
X110624000Y-96209520D01*
X110725600Y-96445740D01*
X110959280Y-96979140D01*
X111309800Y-97045180D01*
X111520620Y-97085820D01*
X111817800Y-97144240D01*
X112102280Y-97197580D01*
X112544240Y-97283940D01*
X112559480Y-98909540D01*
X112490900Y-98940020D01*
X112424860Y-98957800D01*
X112262300Y-98993360D01*
X112028620Y-99039080D01*
X111751760Y-99092420D01*
X111515540Y-99135600D01*
X111279320Y-99181320D01*
X111109140Y-99214340D01*
X111032940Y-99229580D01*
X111015160Y-99254980D01*
X110954200Y-99371820D01*
X110870380Y-99552160D01*
X110776400Y-99773140D01*
X110682420Y-99999200D01*
X110598600Y-100210020D01*
X110540180Y-100370040D01*
X110517320Y-100453860D01*
X110550340Y-100514820D01*
X110639240Y-100654520D01*
X110771320Y-100852640D01*
X110931340Y-101088860D01*
X111093900Y-101325080D01*
X111228520Y-101525740D01*
X111325040Y-101670520D01*
X111363140Y-101736560D01*
X111342820Y-101782280D01*
X111248840Y-101896580D01*
X111071040Y-102079460D01*
X110806880Y-102341080D01*
X110763700Y-102384260D01*
X110552880Y-102584920D01*
X110375080Y-102750020D01*
X110253160Y-102859240D01*
X110197280Y-102899880D01*
X110197280Y-102899880D01*
G37*
X110197280Y-102899880D02*
X110133780Y-102866860D01*
X109994080Y-102777960D01*
X109793420Y-102648420D01*
X109557200Y-102488400D01*
X109318440Y-102328380D01*
X109122860Y-102196300D01*
X108985700Y-102109940D01*
X108929820Y-102076920D01*
X108899340Y-102087080D01*
X108785040Y-102142960D01*
X108622480Y-102229320D01*
X108525960Y-102277580D01*
X108376100Y-102343620D01*
X108302440Y-102356320D01*
X108289740Y-102336000D01*
X108233860Y-102219160D01*
X108147500Y-102023580D01*
X108033200Y-101761960D01*
X107903660Y-101459700D01*
X107766500Y-101129500D01*
X107626800Y-100794220D01*
X107494720Y-100476720D01*
X107375340Y-100189700D01*
X107281360Y-99956020D01*
X107220400Y-99793460D01*
X107197540Y-99722340D01*
X107205160Y-99707100D01*
X107278820Y-99635980D01*
X107410900Y-99536920D01*
X107695380Y-99305780D01*
X107974780Y-98955260D01*
X108144960Y-98559020D01*
X108203380Y-98117060D01*
X108155120Y-97708120D01*
X107992560Y-97314420D01*
X107718240Y-96961360D01*
X107385500Y-96697200D01*
X106996880Y-96532100D01*
X106560000Y-96476220D01*
X106140900Y-96524480D01*
X105739580Y-96681960D01*
X105386520Y-96951200D01*
X105236660Y-97123920D01*
X105030920Y-97482060D01*
X104914080Y-97868140D01*
X104901380Y-97964660D01*
X104919160Y-98386300D01*
X105043620Y-98790160D01*
X105264600Y-99150840D01*
X105574480Y-99448020D01*
X105612580Y-99475960D01*
X105757360Y-99582640D01*
X105851340Y-99656300D01*
X105927540Y-99717260D01*
X105391600Y-101010120D01*
X105305240Y-101215860D01*
X105157920Y-101566380D01*
X105028380Y-101871180D01*
X104924240Y-102115020D01*
X104853120Y-102275040D01*
X104822640Y-102341080D01*
X104817560Y-102343620D01*
X104771840Y-102351240D01*
X104672780Y-102315680D01*
X104492440Y-102229320D01*
X104373060Y-102168360D01*
X104235900Y-102102320D01*
X104174940Y-102076920D01*
X104121600Y-102104860D01*
X103989520Y-102191220D01*
X103799020Y-102320760D01*
X103567880Y-102475700D01*
X103346900Y-102625560D01*
X103143700Y-102760180D01*
X102996380Y-102854160D01*
X102925260Y-102892260D01*
X102915100Y-102892260D01*
X102851600Y-102856700D01*
X102734760Y-102760180D01*
X102559500Y-102592540D01*
X102310580Y-102348700D01*
X102272480Y-102310600D01*
X102066740Y-102102320D01*
X101901640Y-101927060D01*
X101789880Y-101802600D01*
X101749240Y-101746720D01*
X101749240Y-101746720D01*
X101787340Y-101675600D01*
X101878780Y-101528280D01*
X102013400Y-101325080D01*
X102175960Y-101083780D01*
X102605220Y-100464020D01*
X102369000Y-99877280D01*
X102297880Y-99696940D01*
X102206440Y-99478500D01*
X102137860Y-99323560D01*
X102102300Y-99254980D01*
X102038800Y-99232120D01*
X101878780Y-99194020D01*
X101645100Y-99145760D01*
X101368240Y-99094960D01*
X101104080Y-99046700D01*
X100865320Y-99000980D01*
X100692600Y-98967960D01*
X100613860Y-98952720D01*
X100596080Y-98940020D01*
X100580840Y-98901920D01*
X100570680Y-98820640D01*
X100565600Y-98675860D01*
X100560520Y-98447260D01*
X100560520Y-98117060D01*
X100560520Y-98081500D01*
X100565600Y-97766540D01*
X100570680Y-97515080D01*
X100578300Y-97349980D01*
X100591000Y-97283940D01*
X100591000Y-97283940D01*
X100664660Y-97266160D01*
X100834840Y-97230600D01*
X101073600Y-97182340D01*
X101358080Y-97129000D01*
X101375860Y-97126460D01*
X101660340Y-97070580D01*
X101896560Y-97022320D01*
X102064200Y-96984220D01*
X102132780Y-96961360D01*
X102148020Y-96941040D01*
X102206440Y-96829280D01*
X102287720Y-96654020D01*
X102381700Y-96440660D01*
X102473140Y-96217140D01*
X102554420Y-96016480D01*
X102607760Y-95866620D01*
X102623000Y-95798040D01*
X102623000Y-95798040D01*
X102579820Y-95729460D01*
X102483300Y-95582140D01*
X102343600Y-95378940D01*
X102178500Y-95137640D01*
X102165800Y-95117320D01*
X102003240Y-94878560D01*
X101871160Y-94675360D01*
X101782260Y-94530580D01*
X101749240Y-94467080D01*
X101749240Y-94462000D01*
X101805120Y-94390880D01*
X101927040Y-94253720D01*
X102102300Y-94070840D01*
X102310580Y-93860020D01*
X102379160Y-93793980D01*
X102610300Y-93565380D01*
X102772860Y-93418060D01*
X102874460Y-93336780D01*
X102922720Y-93319000D01*
X102925260Y-93321540D01*
X102996380Y-93364720D01*
X103148780Y-93463780D01*
X103354520Y-93603480D01*
X103598360Y-93768580D01*
X103613600Y-93778740D01*
X103854900Y-93941300D01*
X104053020Y-94078460D01*
X104195260Y-94172440D01*
X104258760Y-94208000D01*
X104268920Y-94208000D01*
X104365440Y-94180060D01*
X104535620Y-94121640D01*
X104746440Y-94040360D01*
X104967420Y-93951460D01*
X105170620Y-93865100D01*
X105320480Y-93796520D01*
X105391600Y-93755880D01*
X105394140Y-93753340D01*
X105419540Y-93666980D01*
X105460180Y-93486640D01*
X105513520Y-93240260D01*
X105566860Y-92945620D01*
X105577020Y-92899900D01*
X105630360Y-92612880D01*
X105676080Y-92376660D01*
X105711640Y-92214100D01*
X105726880Y-92145520D01*
X105767520Y-92137900D01*
X105907220Y-92127740D01*
X106120580Y-92120120D01*
X106379660Y-92117580D01*
X106651440Y-92120120D01*
X106915600Y-92125200D01*
X107141660Y-92132820D01*
X107304220Y-92145520D01*
X107372800Y-92158220D01*
X107375340Y-92163300D01*
X107398200Y-92252200D01*
X107438840Y-92430000D01*
X107489640Y-92678920D01*
X107545520Y-92973560D01*
X107555680Y-93026900D01*
X107609020Y-93311380D01*
X107657280Y-93545060D01*
X107692840Y-93705080D01*
X107710620Y-93768580D01*
X107736020Y-93781280D01*
X107852860Y-93834620D01*
X108043360Y-93913360D01*
X108282120Y-94009880D01*
X108830760Y-94230860D01*
X109503860Y-93768580D01*
X109564820Y-93727940D01*
X109808660Y-93562840D01*
X110006780Y-93430760D01*
X110146480Y-93341860D01*
X110202360Y-93308840D01*
X110207440Y-93311380D01*
X110276020Y-93369800D01*
X110408100Y-93494260D01*
X110590980Y-93672060D01*
X110801800Y-93882880D01*
X110959280Y-94040360D01*
X111144700Y-94228320D01*
X111261540Y-94355320D01*
X111327580Y-94436600D01*
X111350440Y-94487400D01*
X111342820Y-94520420D01*
X111299640Y-94589000D01*
X111200580Y-94736320D01*
X111063420Y-94942060D01*
X110898320Y-95178280D01*
X110763700Y-95378940D01*
X110616380Y-95605000D01*
X110522400Y-95765020D01*
X110489380Y-95843760D01*
X110497000Y-95876780D01*
X110545260Y-96008860D01*
X110624000Y-96209520D01*
X110725600Y-96445740D01*
X110959280Y-96979140D01*
X111309800Y-97045180D01*
X111520620Y-97085820D01*
X111817800Y-97144240D01*
X112102280Y-97197580D01*
X112544240Y-97283940D01*
X112559480Y-98909540D01*
X112490900Y-98940020D01*
X112424860Y-98957800D01*
X112262300Y-98993360D01*
X112028620Y-99039080D01*
X111751760Y-99092420D01*
X111515540Y-99135600D01*
X111279320Y-99181320D01*
X111109140Y-99214340D01*
X111032940Y-99229580D01*
X111015160Y-99254980D01*
X110954200Y-99371820D01*
X110870380Y-99552160D01*
X110776400Y-99773140D01*
X110682420Y-99999200D01*
X110598600Y-100210020D01*
X110540180Y-100370040D01*
X110517320Y-100453860D01*
X110550340Y-100514820D01*
X110639240Y-100654520D01*
X110771320Y-100852640D01*
X110931340Y-101088860D01*
X111093900Y-101325080D01*
X111228520Y-101525740D01*
X111325040Y-101670520D01*
X111363140Y-101736560D01*
X111342820Y-101782280D01*
X111248840Y-101896580D01*
X111071040Y-102079460D01*
X110806880Y-102341080D01*
X110763700Y-102384260D01*
X110552880Y-102584920D01*
X110375080Y-102750020D01*
X110253160Y-102859240D01*
X110197280Y-102899880D01*
D14*
X125323600Y-96977200D02*
X126136400Y-96977200D01*
X126111000Y-98094800D02*
X125323600Y-98094800D01*
X126136400Y-98348800D02*
X126136400Y-96723200D01*
X126136400Y-96723200D02*
X125323600Y-96723200D01*
X125323600Y-96723200D02*
X125323600Y-98348800D01*
X125323600Y-98348800D02*
X126136400Y-98348800D01*
X137744200Y-96862900D02*
X138557000Y-96862900D01*
X138531600Y-97980500D02*
X137744200Y-97980500D01*
X138557000Y-98234500D02*
X138557000Y-96608900D01*
X138557000Y-96608900D02*
X137744200Y-96608900D01*
X137744200Y-96608900D02*
X137744200Y-98234500D01*
X137744200Y-98234500D02*
X138557000Y-98234500D01*
X99263200Y-116890800D02*
X99263200Y-116078000D01*
X100380800Y-116103400D02*
X100380800Y-116890800D01*
X100634800Y-116078000D02*
X99009200Y-116078000D01*
X99009200Y-116078000D02*
X99009200Y-116890800D01*
X99009200Y-116890800D02*
X100634800Y-116890800D01*
X100634800Y-116890800D02*
X100634800Y-116078000D01*
X99263200Y-128168400D02*
X99263200Y-127355600D01*
X100380800Y-127381000D02*
X100380800Y-128168400D01*
X100634800Y-127355600D02*
X99009200Y-127355600D01*
X99009200Y-127355600D02*
X99009200Y-128168400D01*
X99009200Y-128168400D02*
X100634800Y-128168400D01*
X100634800Y-128168400D02*
X100634800Y-127355600D01*
X119329200Y-96977200D02*
X120142000Y-96977200D01*
X120116600Y-98094800D02*
X119329200Y-98094800D01*
X120142000Y-98348800D02*
X120142000Y-96723200D01*
X120142000Y-96723200D02*
X119329200Y-96723200D01*
X119329200Y-96723200D02*
X119329200Y-98348800D01*
X119329200Y-98348800D02*
X120142000Y-98348800D01*
X121361200Y-96977200D02*
X122174000Y-96977200D01*
X122148600Y-98094800D02*
X121361200Y-98094800D01*
X122174000Y-98348800D02*
X122174000Y-96723200D01*
X122174000Y-96723200D02*
X121361200Y-96723200D01*
X121361200Y-96723200D02*
X121361200Y-98348800D01*
X121361200Y-98348800D02*
X122174000Y-98348800D01*
X123342400Y-96977200D02*
X124155200Y-96977200D01*
X124129800Y-98094800D02*
X123342400Y-98094800D01*
X124155200Y-98348800D02*
X124155200Y-96723200D01*
X124155200Y-96723200D02*
X123342400Y-96723200D01*
X123342400Y-96723200D02*
X123342400Y-98348800D01*
X123342400Y-98348800D02*
X124155200Y-98348800D01*
X131648200Y-96862900D02*
X132461000Y-96862900D01*
X132435600Y-97980500D02*
X131648200Y-97980500D01*
X132461000Y-98234500D02*
X132461000Y-96608900D01*
X132461000Y-96608900D02*
X131648200Y-96608900D01*
X131648200Y-96608900D02*
X131648200Y-98234500D01*
X131648200Y-98234500D02*
X132461000Y-98234500D01*
X133680200Y-96862900D02*
X134493000Y-96862900D01*
X134467600Y-97980500D02*
X133680200Y-97980500D01*
X134493000Y-98234500D02*
X134493000Y-96608900D01*
X134493000Y-96608900D02*
X133680200Y-96608900D01*
X133680200Y-96608900D02*
X133680200Y-98234500D01*
X133680200Y-98234500D02*
X134493000Y-98234500D01*
X135712200Y-96862900D02*
X136525000Y-96862900D01*
X136499600Y-97980500D02*
X135712200Y-97980500D01*
X136525000Y-98234500D02*
X136525000Y-96608900D01*
X136525000Y-96608900D02*
X135712200Y-96608900D01*
X135712200Y-96608900D02*
X135712200Y-98234500D01*
X135712200Y-98234500D02*
X136525000Y-98234500D01*
X134112000Y-133553200D02*
X134112000Y-132740400D01*
X135229600Y-132765800D02*
X135229600Y-133553200D01*
X135483600Y-132740400D02*
X133858000Y-132740400D01*
X133858000Y-132740400D02*
X133858000Y-133553200D01*
X133858000Y-133553200D02*
X135483600Y-133553200D01*
X135483600Y-133553200D02*
X135483600Y-132740400D01*
X134112000Y-131572000D02*
X134112000Y-130759200D01*
X135229600Y-130784600D02*
X135229600Y-131572000D01*
X135483600Y-130759200D02*
X133858000Y-130759200D01*
X133858000Y-130759200D02*
X133858000Y-131572000D01*
X133858000Y-131572000D02*
X135483600Y-131572000D01*
X135483600Y-131572000D02*
X135483600Y-130759200D01*
X134112000Y-129590800D02*
X134112000Y-128778000D01*
X135229600Y-128803400D02*
X135229600Y-129590800D01*
X135483600Y-128778000D02*
X133858000Y-128778000D01*
X133858000Y-128778000D02*
X133858000Y-129590800D01*
X133858000Y-129590800D02*
X135483600Y-129590800D01*
X135483600Y-129590800D02*
X135483600Y-128778000D01*
X134112000Y-127558800D02*
X134112000Y-126746000D01*
X135229600Y-126771400D02*
X135229600Y-127558800D01*
X135483600Y-126746000D02*
X133858000Y-126746000D01*
X133858000Y-126746000D02*
X133858000Y-127558800D01*
X133858000Y-127558800D02*
X135483600Y-127558800D01*
X135483600Y-127558800D02*
X135483600Y-126746000D01*
D12*
X126091905Y-99555714D02*
X125710952Y-99289047D01*
X126091905Y-99098571D02*
X125291905Y-99098571D01*
X125291905Y-99403333D01*
X125330000Y-99479524D01*
X125368095Y-99517619D01*
X125444286Y-99555714D01*
X125558571Y-99555714D01*
X125634762Y-99517619D01*
X125672857Y-99479524D01*
X125710952Y-99403333D01*
X125710952Y-99098571D01*
X125368095Y-99860476D02*
X125330000Y-99898571D01*
X125291905Y-99974762D01*
X125291905Y-100165238D01*
X125330000Y-100241428D01*
X125368095Y-100279524D01*
X125444286Y-100317619D01*
X125520476Y-100317619D01*
X125634762Y-100279524D01*
X126091905Y-99822381D01*
X126091905Y-100317619D01*
X125291905Y-101003333D02*
X125291905Y-100850952D01*
X125330000Y-100774762D01*
X125368095Y-100736667D01*
X125482381Y-100660476D01*
X125634762Y-100622381D01*
X125939524Y-100622381D01*
X126015714Y-100660476D01*
X126053810Y-100698571D01*
X126091905Y-100774762D01*
X126091905Y-100927143D01*
X126053810Y-101003333D01*
X126015714Y-101041429D01*
X125939524Y-101079524D01*
X125749048Y-101079524D01*
X125672857Y-101041429D01*
X125634762Y-101003333D01*
X125596667Y-100927143D01*
X125596667Y-100774762D01*
X125634762Y-100698571D01*
X125672857Y-100660476D01*
X125749048Y-100622381D01*
X139841905Y-96915714D02*
X139460952Y-96649047D01*
X139841905Y-96458571D02*
X139041905Y-96458571D01*
X139041905Y-96763333D01*
X139080000Y-96839524D01*
X139118095Y-96877619D01*
X139194286Y-96915714D01*
X139308571Y-96915714D01*
X139384762Y-96877619D01*
X139422857Y-96839524D01*
X139460952Y-96763333D01*
X139460952Y-96458571D01*
X139118095Y-97220476D02*
X139080000Y-97258571D01*
X139041905Y-97334762D01*
X139041905Y-97525238D01*
X139080000Y-97601428D01*
X139118095Y-97639524D01*
X139194286Y-97677619D01*
X139270476Y-97677619D01*
X139384762Y-97639524D01*
X139841905Y-97182381D01*
X139841905Y-97677619D01*
X139041905Y-98401429D02*
X139041905Y-98020476D01*
X139422857Y-97982381D01*
X139384762Y-98020476D01*
X139346667Y-98096667D01*
X139346667Y-98287143D01*
X139384762Y-98363333D01*
X139422857Y-98401429D01*
X139499048Y-98439524D01*
X139689524Y-98439524D01*
X139765714Y-98401429D01*
X139803810Y-98363333D01*
X139841905Y-98287143D01*
X139841905Y-98096667D01*
X139803810Y-98020476D01*
X139765714Y-97982381D01*
X100334286Y-115601905D02*
X100600953Y-115220952D01*
X100791429Y-115601905D02*
X100791429Y-114801905D01*
X100486667Y-114801905D01*
X100410476Y-114840000D01*
X100372381Y-114878095D01*
X100334286Y-114954286D01*
X100334286Y-115068571D01*
X100372381Y-115144762D01*
X100410476Y-115182857D01*
X100486667Y-115220952D01*
X100791429Y-115220952D01*
X100029524Y-114878095D02*
X99991429Y-114840000D01*
X99915238Y-114801905D01*
X99724762Y-114801905D01*
X99648572Y-114840000D01*
X99610476Y-114878095D01*
X99572381Y-114954286D01*
X99572381Y-115030476D01*
X99610476Y-115144762D01*
X100067619Y-115601905D01*
X99572381Y-115601905D01*
X98886667Y-115068571D02*
X98886667Y-115601905D01*
X99077143Y-114763810D02*
X99267619Y-115335238D01*
X98772381Y-115335238D01*
X100334286Y-126871905D02*
X100600953Y-126490952D01*
X100791429Y-126871905D02*
X100791429Y-126071905D01*
X100486667Y-126071905D01*
X100410476Y-126110000D01*
X100372381Y-126148095D01*
X100334286Y-126224286D01*
X100334286Y-126338571D01*
X100372381Y-126414762D01*
X100410476Y-126452857D01*
X100486667Y-126490952D01*
X100791429Y-126490952D01*
X100029524Y-126148095D02*
X99991429Y-126110000D01*
X99915238Y-126071905D01*
X99724762Y-126071905D01*
X99648572Y-126110000D01*
X99610476Y-126148095D01*
X99572381Y-126224286D01*
X99572381Y-126300476D01*
X99610476Y-126414762D01*
X100067619Y-126871905D01*
X99572381Y-126871905D01*
X99305714Y-126071905D02*
X98810476Y-126071905D01*
X99077143Y-126376667D01*
X98962857Y-126376667D01*
X98886667Y-126414762D01*
X98848571Y-126452857D01*
X98810476Y-126529048D01*
X98810476Y-126719524D01*
X98848571Y-126795714D01*
X98886667Y-126833810D01*
X98962857Y-126871905D01*
X99191429Y-126871905D01*
X99267619Y-126833810D01*
X99305714Y-126795714D01*
X120131905Y-99555714D02*
X119750952Y-99289047D01*
X120131905Y-99098571D02*
X119331905Y-99098571D01*
X119331905Y-99403333D01*
X119370000Y-99479524D01*
X119408095Y-99517619D01*
X119484286Y-99555714D01*
X119598571Y-99555714D01*
X119674762Y-99517619D01*
X119712857Y-99479524D01*
X119750952Y-99403333D01*
X119750952Y-99098571D01*
X119408095Y-99860476D02*
X119370000Y-99898571D01*
X119331905Y-99974762D01*
X119331905Y-100165238D01*
X119370000Y-100241428D01*
X119408095Y-100279524D01*
X119484286Y-100317619D01*
X119560476Y-100317619D01*
X119674762Y-100279524D01*
X120131905Y-99822381D01*
X120131905Y-100317619D01*
X119408095Y-100622381D02*
X119370000Y-100660476D01*
X119331905Y-100736667D01*
X119331905Y-100927143D01*
X119370000Y-101003333D01*
X119408095Y-101041429D01*
X119484286Y-101079524D01*
X119560476Y-101079524D01*
X119674762Y-101041429D01*
X120131905Y-100584286D01*
X120131905Y-101079524D01*
X122131905Y-99565714D02*
X121750952Y-99299047D01*
X122131905Y-99108571D02*
X121331905Y-99108571D01*
X121331905Y-99413333D01*
X121370000Y-99489524D01*
X121408095Y-99527619D01*
X121484286Y-99565714D01*
X121598571Y-99565714D01*
X121674762Y-99527619D01*
X121712857Y-99489524D01*
X121750952Y-99413333D01*
X121750952Y-99108571D01*
X121408095Y-99870476D02*
X121370000Y-99908571D01*
X121331905Y-99984762D01*
X121331905Y-100175238D01*
X121370000Y-100251428D01*
X121408095Y-100289524D01*
X121484286Y-100327619D01*
X121560476Y-100327619D01*
X121674762Y-100289524D01*
X122131905Y-99832381D01*
X122131905Y-100327619D01*
X122131905Y-101089524D02*
X122131905Y-100632381D01*
X122131905Y-100860952D02*
X121331905Y-100860952D01*
X121446190Y-100784762D01*
X121522381Y-100708571D01*
X121560476Y-100632381D01*
X124111905Y-99565714D02*
X123730952Y-99299047D01*
X124111905Y-99108571D02*
X123311905Y-99108571D01*
X123311905Y-99413333D01*
X123350000Y-99489524D01*
X123388095Y-99527619D01*
X123464286Y-99565714D01*
X123578571Y-99565714D01*
X123654762Y-99527619D01*
X123692857Y-99489524D01*
X123730952Y-99413333D01*
X123730952Y-99108571D01*
X123388095Y-99870476D02*
X123350000Y-99908571D01*
X123311905Y-99984762D01*
X123311905Y-100175238D01*
X123350000Y-100251428D01*
X123388095Y-100289524D01*
X123464286Y-100327619D01*
X123540476Y-100327619D01*
X123654762Y-100289524D01*
X124111905Y-99832381D01*
X124111905Y-100327619D01*
X123311905Y-100822857D02*
X123311905Y-100899048D01*
X123350000Y-100975238D01*
X123388095Y-101013333D01*
X123464286Y-101051429D01*
X123616667Y-101089524D01*
X123807143Y-101089524D01*
X123959524Y-101051429D01*
X124035714Y-101013333D01*
X124073810Y-100975238D01*
X124111905Y-100899048D01*
X124111905Y-100822857D01*
X124073810Y-100746667D01*
X124035714Y-100708571D01*
X123959524Y-100670476D01*
X123807143Y-100632381D01*
X123616667Y-100632381D01*
X123464286Y-100670476D01*
X123388095Y-100708571D01*
X123350000Y-100746667D01*
X123311905Y-100822857D01*
X132411905Y-99455714D02*
X132030952Y-99189047D01*
X132411905Y-98998571D02*
X131611905Y-98998571D01*
X131611905Y-99303333D01*
X131650000Y-99379524D01*
X131688095Y-99417619D01*
X131764286Y-99455714D01*
X131878571Y-99455714D01*
X131954762Y-99417619D01*
X131992857Y-99379524D01*
X132030952Y-99303333D01*
X132030952Y-98998571D01*
X132411905Y-100217619D02*
X132411905Y-99760476D01*
X132411905Y-99989047D02*
X131611905Y-99989047D01*
X131726190Y-99912857D01*
X131802381Y-99836666D01*
X131840476Y-99760476D01*
X132411905Y-100598571D02*
X132411905Y-100750952D01*
X132373810Y-100827143D01*
X132335714Y-100865238D01*
X132221429Y-100941429D01*
X132069048Y-100979524D01*
X131764286Y-100979524D01*
X131688095Y-100941429D01*
X131650000Y-100903333D01*
X131611905Y-100827143D01*
X131611905Y-100674762D01*
X131650000Y-100598571D01*
X131688095Y-100560476D01*
X131764286Y-100522381D01*
X131954762Y-100522381D01*
X132030952Y-100560476D01*
X132069048Y-100598571D01*
X132107143Y-100674762D01*
X132107143Y-100827143D01*
X132069048Y-100903333D01*
X132030952Y-100941429D01*
X131954762Y-100979524D01*
X134441905Y-99425714D02*
X134060952Y-99159047D01*
X134441905Y-98968571D02*
X133641905Y-98968571D01*
X133641905Y-99273333D01*
X133680000Y-99349524D01*
X133718095Y-99387619D01*
X133794286Y-99425714D01*
X133908571Y-99425714D01*
X133984762Y-99387619D01*
X134022857Y-99349524D01*
X134060952Y-99273333D01*
X134060952Y-98968571D01*
X134441905Y-100187619D02*
X134441905Y-99730476D01*
X134441905Y-99959047D02*
X133641905Y-99959047D01*
X133756190Y-99882857D01*
X133832381Y-99806666D01*
X133870476Y-99730476D01*
X133984762Y-100644762D02*
X133946667Y-100568571D01*
X133908571Y-100530476D01*
X133832381Y-100492381D01*
X133794286Y-100492381D01*
X133718095Y-100530476D01*
X133680000Y-100568571D01*
X133641905Y-100644762D01*
X133641905Y-100797143D01*
X133680000Y-100873333D01*
X133718095Y-100911429D01*
X133794286Y-100949524D01*
X133832381Y-100949524D01*
X133908571Y-100911429D01*
X133946667Y-100873333D01*
X133984762Y-100797143D01*
X133984762Y-100644762D01*
X134022857Y-100568571D01*
X134060952Y-100530476D01*
X134137143Y-100492381D01*
X134289524Y-100492381D01*
X134365714Y-100530476D01*
X134403810Y-100568571D01*
X134441905Y-100644762D01*
X134441905Y-100797143D01*
X134403810Y-100873333D01*
X134365714Y-100911429D01*
X134289524Y-100949524D01*
X134137143Y-100949524D01*
X134060952Y-100911429D01*
X134022857Y-100873333D01*
X133984762Y-100797143D01*
X136481905Y-99305714D02*
X136100952Y-99039047D01*
X136481905Y-98848571D02*
X135681905Y-98848571D01*
X135681905Y-99153333D01*
X135720000Y-99229524D01*
X135758095Y-99267619D01*
X135834286Y-99305714D01*
X135948571Y-99305714D01*
X136024762Y-99267619D01*
X136062857Y-99229524D01*
X136100952Y-99153333D01*
X136100952Y-98848571D01*
X136481905Y-100067619D02*
X136481905Y-99610476D01*
X136481905Y-99839047D02*
X135681905Y-99839047D01*
X135796190Y-99762857D01*
X135872381Y-99686666D01*
X135910476Y-99610476D01*
X135681905Y-100334286D02*
X135681905Y-100867619D01*
X136481905Y-100524762D01*
X132574286Y-133481905D02*
X132840953Y-133100952D01*
X133031429Y-133481905D02*
X133031429Y-132681905D01*
X132726667Y-132681905D01*
X132650476Y-132720000D01*
X132612381Y-132758095D01*
X132574286Y-132834286D01*
X132574286Y-132948571D01*
X132612381Y-133024762D01*
X132650476Y-133062857D01*
X132726667Y-133100952D01*
X133031429Y-133100952D01*
X131812381Y-133481905D02*
X132269524Y-133481905D01*
X132040953Y-133481905D02*
X132040953Y-132681905D01*
X132117143Y-132796190D01*
X132193334Y-132872381D01*
X132269524Y-132910476D01*
X131088571Y-132681905D02*
X131469524Y-132681905D01*
X131507619Y-133062857D01*
X131469524Y-133024762D01*
X131393333Y-132986667D01*
X131202857Y-132986667D01*
X131126667Y-133024762D01*
X131088571Y-133062857D01*
X131050476Y-133139048D01*
X131050476Y-133329524D01*
X131088571Y-133405714D01*
X131126667Y-133443810D01*
X131202857Y-133481905D01*
X131393333Y-133481905D01*
X131469524Y-133443810D01*
X131507619Y-133405714D01*
X132594286Y-131531905D02*
X132860953Y-131150952D01*
X133051429Y-131531905D02*
X133051429Y-130731905D01*
X132746667Y-130731905D01*
X132670476Y-130770000D01*
X132632381Y-130808095D01*
X132594286Y-130884286D01*
X132594286Y-130998571D01*
X132632381Y-131074762D01*
X132670476Y-131112857D01*
X132746667Y-131150952D01*
X133051429Y-131150952D01*
X131832381Y-131531905D02*
X132289524Y-131531905D01*
X132060953Y-131531905D02*
X132060953Y-130731905D01*
X132137143Y-130846190D01*
X132213334Y-130922381D01*
X132289524Y-130960476D01*
X131146667Y-130998571D02*
X131146667Y-131531905D01*
X131337143Y-130693810D02*
X131527619Y-131265238D01*
X131032381Y-131265238D01*
X132554286Y-129551905D02*
X132820953Y-129170952D01*
X133011429Y-129551905D02*
X133011429Y-128751905D01*
X132706667Y-128751905D01*
X132630476Y-128790000D01*
X132592381Y-128828095D01*
X132554286Y-128904286D01*
X132554286Y-129018571D01*
X132592381Y-129094762D01*
X132630476Y-129132857D01*
X132706667Y-129170952D01*
X133011429Y-129170952D01*
X131792381Y-129551905D02*
X132249524Y-129551905D01*
X132020953Y-129551905D02*
X132020953Y-128751905D01*
X132097143Y-128866190D01*
X132173334Y-128942381D01*
X132249524Y-128980476D01*
X131525714Y-128751905D02*
X131030476Y-128751905D01*
X131297143Y-129056667D01*
X131182857Y-129056667D01*
X131106667Y-129094762D01*
X131068571Y-129132857D01*
X131030476Y-129209048D01*
X131030476Y-129399524D01*
X131068571Y-129475714D01*
X131106667Y-129513810D01*
X131182857Y-129551905D01*
X131411429Y-129551905D01*
X131487619Y-129513810D01*
X131525714Y-129475714D01*
X132524286Y-127531905D02*
X132790953Y-127150952D01*
X132981429Y-127531905D02*
X132981429Y-126731905D01*
X132676667Y-126731905D01*
X132600476Y-126770000D01*
X132562381Y-126808095D01*
X132524286Y-126884286D01*
X132524286Y-126998571D01*
X132562381Y-127074762D01*
X132600476Y-127112857D01*
X132676667Y-127150952D01*
X132981429Y-127150952D01*
X131762381Y-127531905D02*
X132219524Y-127531905D01*
X131990953Y-127531905D02*
X131990953Y-126731905D01*
X132067143Y-126846190D01*
X132143334Y-126922381D01*
X132219524Y-126960476D01*
X131457619Y-126808095D02*
X131419524Y-126770000D01*
X131343333Y-126731905D01*
X131152857Y-126731905D01*
X131076667Y-126770000D01*
X131038571Y-126808095D01*
X131000476Y-126884286D01*
X131000476Y-126960476D01*
X131038571Y-127074762D01*
X131495714Y-127531905D01*
X131000476Y-127531905D01*
%LPC*%
D15*
X139242800Y-118211600D03*
D16*
X139242800Y-115671600D03*
D17*
X102971600Y-132334000D03*
D18*
X102971600Y-134874000D03*
D19*
X125742200Y-92120400D03*
D20*
X125742200Y-94620400D03*
X123742200Y-92120400D03*
X123742200Y-94620400D03*
X121742200Y-92120400D03*
X121742200Y-94620400D03*
X119742200Y-92120400D03*
X119742200Y-94620400D03*
X117742200Y-92120400D03*
X117742200Y-94620400D03*
D19*
X138086600Y-92107700D03*
D20*
X138086600Y-94607700D03*
X136086600Y-92107700D03*
X136086600Y-94607700D03*
X134086600Y-92107700D03*
X134086600Y-94607700D03*
X132086600Y-92107700D03*
X132086600Y-94607700D03*
X130086600Y-92107700D03*
X130086600Y-94607700D03*
D21*
X137230800Y-101460800D03*
D22*
X139730800Y-101460800D03*
X137230800Y-103460800D03*
X139730800Y-103460800D03*
X137230800Y-105460800D03*
X139730800Y-105460800D03*
X137230800Y-107460800D03*
X139730800Y-107460800D03*
X137230800Y-109460800D03*
X139730800Y-109460800D03*
D21*
X139883200Y-133146300D03*
D22*
X137383200Y-133146300D03*
X139883200Y-131146300D03*
X137383200Y-131146300D03*
X139883200Y-129146300D03*
X137383200Y-129146300D03*
X139883200Y-127146300D03*
X137383200Y-127146300D03*
X139883200Y-125146300D03*
X137383200Y-125146300D03*
D21*
X94609600Y-116510300D03*
D22*
X97109600Y-116510300D03*
X94609600Y-118510300D03*
X97109600Y-118510300D03*
X94609600Y-120510300D03*
X97109600Y-120510300D03*
X94609600Y-122510300D03*
X97109600Y-122510300D03*
X94609600Y-124510300D03*
X97109600Y-124510300D03*
D21*
X94647700Y-127749800D03*
D22*
X97147700Y-127749800D03*
X94647700Y-129749800D03*
X97147700Y-129749800D03*
X94647700Y-131749800D03*
X97147700Y-131749800D03*
X94647700Y-133749800D03*
X97147700Y-133749800D03*
X94647700Y-135749800D03*
X97147700Y-135749800D03*
D23*
X98425000Y-93893000D03*
X98425000Y-98893000D03*
D24*
X125730000Y-96784160D03*
X125730000Y-98287840D03*
X138150600Y-96669860D03*
X138150600Y-98173540D03*
D25*
X99070160Y-116484400D03*
X100573840Y-116484400D03*
X99070160Y-127762000D03*
X100573840Y-127762000D03*
D24*
X119735600Y-96784160D03*
X119735600Y-98287840D03*
X121767600Y-96784160D03*
X121767600Y-98287840D03*
X123748800Y-96784160D03*
X123748800Y-98287840D03*
X132054600Y-96669860D03*
X132054600Y-98173540D03*
X134086600Y-96669860D03*
X134086600Y-98173540D03*
X136118600Y-96669860D03*
X136118600Y-98173540D03*
D25*
X133918960Y-133146800D03*
X135422640Y-133146800D03*
X133918960Y-131165600D03*
X135422640Y-131165600D03*
X133918960Y-129184400D03*
X135422640Y-129184400D03*
X133918960Y-127152400D03*
X135422640Y-127152400D03*
D26*
G36*
X119356600Y-118391400D02*
X113205800Y-118391400D01*
X113205800Y-112393000D01*
X119356600Y-112393000D01*
X119356600Y-118391400D01*
X119356600Y-118391400D01*
G37*
X119356600Y-118391400D02*
X113205800Y-118391400D01*
X113205800Y-112393000D01*
X119356600Y-112393000D01*
X119356600Y-118391400D01*
M02*
