G04 #@! TF.FileFunction,Copper,L4,Bot,Signal*
%FSLAX46Y46*%
G04 Gerber Fmt 4.6, Leading zero omitted, Abs format (unit mm)*
G04 Created by KiCad (PCBNEW 4.0.5) date 08/31/17 21:58:28*
%MOMM*%
%LPD*%
G01*
G04 APERTURE LIST*
%ADD10C,0.100000*%
%ADD11R,1.700000X1.700000*%
%ADD12O,1.700000X1.700000*%
%ADD13R,2.199640X1.524000*%
%ADD14O,2.199640X1.524000*%
%ADD15R,1.300000X1.800000*%
%ADD16O,1.300000X1.800000*%
%ADD17R,1.800000X1.300000*%
%ADD18O,1.800000X1.300000*%
%ADD19C,2.500000*%
%ADD20R,1.000760X0.899160*%
%ADD21R,0.899160X1.000760*%
%ADD22C,1.200000*%
%ADD23C,0.800000*%
%ADD24C,0.500000*%
%ADD25C,0.250000*%
%ADD26C,0.300000*%
G04 APERTURE END LIST*
D10*
D11*
X139242800Y-118211600D03*
D12*
X139242800Y-115671600D03*
D13*
X102971600Y-132334000D03*
D14*
X102971600Y-134874000D03*
D15*
X137982200Y-92260400D03*
D16*
X137982200Y-94760400D03*
X135982200Y-92260400D03*
X135982200Y-94760400D03*
X133982200Y-92260400D03*
X133982200Y-94760400D03*
X131982200Y-92260400D03*
X131982200Y-94760400D03*
X129982200Y-92260400D03*
X129982200Y-94760400D03*
D15*
X125666600Y-92207700D03*
D16*
X125666600Y-94707700D03*
X123666600Y-92207700D03*
X123666600Y-94707700D03*
X121666600Y-92207700D03*
X121666600Y-94707700D03*
X119666600Y-92207700D03*
X119666600Y-94707700D03*
X117666600Y-92207700D03*
X117666600Y-94707700D03*
D17*
X137230800Y-101460800D03*
D18*
X139730800Y-101460800D03*
X137230800Y-103460800D03*
X139730800Y-103460800D03*
X137230800Y-105460800D03*
X139730800Y-105460800D03*
X137230800Y-107460800D03*
X139730800Y-107460800D03*
X137230800Y-109460800D03*
X139730800Y-109460800D03*
D17*
X139883200Y-133146300D03*
D18*
X137383200Y-133146300D03*
X139883200Y-131146300D03*
X137383200Y-131146300D03*
X139883200Y-129146300D03*
X137383200Y-129146300D03*
X139883200Y-127146300D03*
X137383200Y-127146300D03*
X139883200Y-125146300D03*
X137383200Y-125146300D03*
D17*
X94609600Y-116510300D03*
D18*
X97109600Y-116510300D03*
X94609600Y-118510300D03*
X97109600Y-118510300D03*
X94609600Y-120510300D03*
X97109600Y-120510300D03*
X94609600Y-122510300D03*
X97109600Y-122510300D03*
X94609600Y-124510300D03*
X97109600Y-124510300D03*
D17*
X94647700Y-127749800D03*
D18*
X97147700Y-127749800D03*
X94647700Y-129749800D03*
X97147700Y-129749800D03*
X94647700Y-131749800D03*
X97147700Y-131749800D03*
X94647700Y-133749800D03*
X97147700Y-133749800D03*
X94647700Y-135749800D03*
X97147700Y-135749800D03*
D19*
X98425000Y-93893000D03*
X98425000Y-98893000D03*
D20*
X125740000Y-96768160D03*
X125740000Y-98271840D03*
X138070000Y-96988160D03*
X138070000Y-98491840D03*
D21*
X99070160Y-116484400D03*
X100573840Y-116484400D03*
X99070160Y-127762000D03*
X100573840Y-127762000D03*
D20*
X132085600Y-96994160D03*
X132085600Y-98497840D03*
X134117600Y-96994160D03*
X134117600Y-98497840D03*
X136098800Y-96994160D03*
X136098800Y-98497840D03*
X119634600Y-96769860D03*
X119634600Y-98273540D03*
X121666600Y-96769860D03*
X121666600Y-98273540D03*
X123698600Y-96769860D03*
X123698600Y-98273540D03*
D21*
X133918960Y-133146800D03*
X135422640Y-133146800D03*
X133918960Y-131165600D03*
X135422640Y-131165600D03*
X133918960Y-129184400D03*
X135422640Y-129184400D03*
X133918960Y-127152400D03*
X135422640Y-127152400D03*
D22*
X116789200Y-98552000D03*
D23*
X112110000Y-127610000D03*
X129540000Y-108407200D03*
X130860800Y-108407200D03*
X125933200Y-123901200D03*
X107188000Y-121005600D03*
X104241600Y-118719600D03*
X105613200Y-117348000D03*
X128473200Y-120802400D03*
X115671600Y-117500400D03*
X115671600Y-116027200D03*
X117195600Y-113030000D03*
X117195600Y-114503200D03*
X114046000Y-113080800D03*
X115671600Y-113030000D03*
X118567200Y-113030000D03*
X118567200Y-114452400D03*
X118516400Y-116027200D03*
X118465600Y-117500400D03*
X117094000Y-117500400D03*
X114096800Y-117500400D03*
X114096800Y-116027200D03*
X114096800Y-114452400D03*
X115722400Y-114452400D03*
X117144800Y-116027200D03*
X105359200Y-132384800D03*
X104292400Y-135737600D03*
X123545600Y-125120400D03*
X99161600Y-125831600D03*
X108000800Y-125374400D03*
D22*
X111099600Y-102920800D03*
D23*
X130759200Y-132435600D03*
X119024400Y-136804400D03*
X103632000Y-108356400D03*
D22*
X100533200Y-114198400D03*
D23*
X136448800Y-121818400D03*
X112720000Y-128410000D03*
X113639600Y-126288800D03*
X108966000Y-125323600D03*
X124917200Y-128879600D03*
X121869200Y-127558800D03*
X115354100Y-132270500D03*
X115443000Y-102997000D03*
X117094000Y-102997000D03*
X121412000Y-102997000D03*
X125603000Y-116522500D03*
X128270000Y-114935000D03*
X110109000Y-118808500D03*
X113728500Y-121539000D03*
X111250000Y-121540000D03*
X104140000Y-110172500D03*
X106680000Y-106807000D03*
X124841000Y-105600500D03*
X113639600Y-124815600D03*
X108661200Y-128016000D03*
X118237000Y-105600500D03*
X125920500Y-106680000D03*
X114401600Y-131724400D03*
X124968000Y-125095000D03*
X107696000Y-105727500D03*
X107035600Y-122123200D03*
X110340000Y-119820000D03*
X130130000Y-110280000D03*
X129410000Y-110990000D03*
X110350000Y-120930000D03*
X129235200Y-132435600D03*
X98298000Y-123494800D03*
X122123200Y-135432800D03*
X126542800Y-119888000D03*
X96266000Y-104902000D03*
X97586800Y-110744000D03*
X97586800Y-104902000D03*
X94894400Y-104851200D03*
X97586800Y-112064800D03*
X96266000Y-110744000D03*
X97637600Y-113334800D03*
X96316800Y-113334800D03*
X94945200Y-113334800D03*
X94945200Y-112115600D03*
X96266000Y-112064800D03*
X94894400Y-110744000D03*
X110134400Y-132689600D03*
X109016800Y-126390400D03*
X104292400Y-117348000D03*
X114808000Y-128981200D03*
X105791000Y-123317000D03*
X125349000Y-117602000D03*
X130746500Y-113855500D03*
X125793500Y-113792000D03*
X106743500Y-117284500D03*
X106743500Y-111315500D03*
X112560000Y-121560000D03*
X114300000Y-105600500D03*
X120269000Y-105537000D03*
X123494800Y-127000000D03*
X113538000Y-97586800D03*
X113538000Y-92354400D03*
X112318800Y-92354400D03*
X111150400Y-92354400D03*
X113538000Y-96266000D03*
X113538000Y-94945200D03*
X113538000Y-93675200D03*
X107188000Y-124815600D03*
X110185200Y-116332000D03*
X106324400Y-124409200D03*
X110185200Y-114808000D03*
X103047800Y-116408200D03*
X99263200Y-122123200D03*
X98094800Y-125730000D03*
X115824000Y-121361200D03*
X134772400Y-125272800D03*
X131165600Y-125272800D03*
X135483600Y-125933200D03*
X114757200Y-121361200D03*
X131064000Y-126238000D03*
X122377200Y-117195600D03*
X121767600Y-117957600D03*
X121818400Y-118973600D03*
X122580400Y-119684800D03*
X129311400Y-127482600D03*
X130149600Y-126771400D03*
X130630000Y-120800000D03*
X128770000Y-102840000D03*
X131930000Y-105310000D03*
X129430000Y-120810000D03*
X132740400Y-121920000D03*
X128371600Y-121767600D03*
X127000000Y-124358400D03*
X119684800Y-121361200D03*
X111370000Y-105430000D03*
X113230000Y-104940000D03*
X120130000Y-109260000D03*
X121600000Y-109230000D03*
X125430000Y-109930000D03*
X122410000Y-110990000D03*
D24*
X115722400Y-114452400D02*
X115773200Y-114503200D01*
X117144800Y-116027200D02*
X117094000Y-115976400D01*
D25*
X110430000Y-119730000D02*
X110340000Y-119820000D01*
X119530000Y-119730000D02*
X110430000Y-119730000D01*
X120410000Y-118850000D02*
X119530000Y-119730000D01*
X120410000Y-114910000D02*
X120410000Y-118850000D01*
X123120000Y-112200000D02*
X120410000Y-114910000D01*
X127120000Y-112200000D02*
X123120000Y-112200000D01*
X129080000Y-110240000D02*
X127120000Y-112200000D01*
X130090000Y-110240000D02*
X129080000Y-110240000D01*
X130130000Y-110280000D02*
X130090000Y-110240000D01*
X129410000Y-110990000D02*
X127700000Y-112700000D01*
X127700000Y-112700000D02*
X123260000Y-112700000D01*
X123260000Y-112700000D02*
X120870000Y-115090000D01*
X120870000Y-115090000D02*
X120870000Y-119030000D01*
X120870000Y-119030000D02*
X119700000Y-120200000D01*
X119700000Y-120200000D02*
X111080000Y-120200000D01*
X111080000Y-120200000D02*
X110350000Y-120930000D01*
D24*
X94894400Y-104851200D02*
X94894400Y-104902000D01*
X94945200Y-112115600D02*
X94996000Y-112064800D01*
X94894400Y-110744000D02*
X94945200Y-110794800D01*
D25*
X96897700Y-127749800D02*
X99057960Y-127749800D01*
X99057960Y-127749800D02*
X99070160Y-127762000D01*
X107188000Y-124815600D02*
X107188000Y-123748800D01*
X109626400Y-116332000D02*
X110185200Y-116332000D01*
X109016800Y-116941600D02*
X109626400Y-116332000D01*
X109016800Y-121920000D02*
X109016800Y-116941600D01*
X107188000Y-123748800D02*
X109016800Y-121920000D01*
X106324400Y-124409200D02*
X106324400Y-123799600D01*
X109270800Y-114808000D02*
X110185200Y-114808000D01*
X108508800Y-115570000D02*
X109270800Y-114808000D01*
X108508800Y-121615200D02*
X108508800Y-115570000D01*
X106324400Y-123799600D02*
X108508800Y-121615200D01*
X99263200Y-124561600D02*
X99263200Y-122123200D01*
X98094800Y-125730000D02*
X99263200Y-124561600D01*
X99070160Y-116484400D02*
X96885500Y-116484400D01*
X96885500Y-116484400D02*
X96859600Y-116510300D01*
X131165600Y-125272800D02*
X126034800Y-125272800D01*
X115773200Y-121412000D02*
X115824000Y-121361200D01*
X115773200Y-123494800D02*
X115773200Y-121412000D01*
X139633200Y-124190000D02*
X139192000Y-123748800D01*
X139192000Y-123748800D02*
X136296400Y-123748800D01*
X136296400Y-123748800D02*
X134772400Y-125272800D01*
X139633200Y-124190000D02*
X139633200Y-125146300D01*
X115773200Y-123647200D02*
X115773200Y-123494800D01*
X117957600Y-125831600D02*
X115773200Y-123647200D01*
X125476000Y-125831600D02*
X117957600Y-125831600D01*
X126034800Y-125272800D02*
X125476000Y-125831600D01*
X136270500Y-125146300D02*
X135483600Y-125933200D01*
X137633200Y-125146300D02*
X136270500Y-125146300D01*
X114757200Y-123240800D02*
X114757200Y-121361200D01*
X117805200Y-126288800D02*
X114757200Y-123240800D01*
X125628400Y-126288800D02*
X117805200Y-126288800D01*
X126238000Y-125679200D02*
X125628400Y-126288800D01*
X130505200Y-125679200D02*
X126238000Y-125679200D01*
X131064000Y-126238000D02*
X130505200Y-125679200D01*
X138070000Y-96988160D02*
X138070000Y-94598200D01*
X138070000Y-94598200D02*
X137982200Y-94510400D01*
X137970000Y-94522600D02*
X137982200Y-94510400D01*
X125740000Y-96768160D02*
X125740000Y-94531100D01*
X125740000Y-94531100D02*
X125666600Y-94457700D01*
X123698600Y-96769860D02*
X123698600Y-94489700D01*
X123698600Y-94489700D02*
X123666600Y-94457700D01*
X121666600Y-96769860D02*
X121666600Y-94457700D01*
X119634600Y-96769860D02*
X119634600Y-94489700D01*
X119634600Y-94489700D02*
X119666600Y-94457700D01*
X122377200Y-117195600D02*
X123444000Y-117195600D01*
X123444000Y-117195600D02*
X124917200Y-118668800D01*
X124917200Y-118668800D02*
X124917200Y-119278400D01*
X124917200Y-119278400D02*
X128778000Y-123139200D01*
X128778000Y-123139200D02*
X131978400Y-123139200D01*
X131978400Y-123139200D02*
X133918960Y-125079760D01*
X133918960Y-125079760D02*
X133918960Y-127152400D01*
X133918960Y-129184400D02*
X133654800Y-129184400D01*
X133654800Y-129184400D02*
X132842000Y-128371600D01*
X132842000Y-128371600D02*
X132842000Y-124612400D01*
X132842000Y-124612400D02*
X131826000Y-123596400D01*
X131826000Y-123596400D02*
X128574800Y-123596400D01*
X128574800Y-123596400D02*
X124460000Y-119481600D01*
X124460000Y-119481600D02*
X124460000Y-118821200D01*
X124460000Y-118821200D02*
X123596400Y-117957600D01*
X123596400Y-117957600D02*
X121767600Y-117957600D01*
X133918960Y-129184400D02*
X133858000Y-129184400D01*
X133918960Y-131165600D02*
X132892800Y-131165600D01*
X132892800Y-131165600D02*
X132384800Y-130657600D01*
X132384800Y-130657600D02*
X132384800Y-124815600D01*
X132384800Y-124815600D02*
X131622800Y-124053600D01*
X131622800Y-124053600D02*
X128371600Y-124053600D01*
X128371600Y-124053600D02*
X124002800Y-119684800D01*
X124002800Y-119684800D02*
X124002800Y-119075200D01*
X124002800Y-119075200D02*
X123901200Y-118973600D01*
X123901200Y-118973600D02*
X121818400Y-118973600D01*
X133918960Y-133146800D02*
X132283200Y-133146800D01*
X123393200Y-119684800D02*
X122580400Y-119684800D01*
X128264859Y-124556459D02*
X123393200Y-119684800D01*
X131465259Y-124556459D02*
X128264859Y-124556459D01*
X131927600Y-125018800D02*
X131465259Y-124556459D01*
X131927600Y-132791200D02*
X131927600Y-125018800D01*
X132283200Y-133146800D02*
X131927600Y-132791200D01*
X104267000Y-127762000D02*
X106857800Y-130352800D01*
X100573840Y-127762000D02*
X104267000Y-127762000D01*
X128549400Y-127482600D02*
X129311400Y-127482600D01*
X125679200Y-130352800D02*
X128549400Y-127482600D01*
X106857800Y-130352800D02*
X125679200Y-130352800D01*
X100573840Y-116484400D02*
X100573840Y-123383040D01*
X128447800Y-126771400D02*
X130149600Y-126771400D01*
X125374400Y-129844800D02*
X128447800Y-126771400D01*
X107035600Y-129844800D02*
X125374400Y-129844800D01*
X100573840Y-123383040D02*
X107035600Y-129844800D01*
X138070000Y-99560000D02*
X138070000Y-98491840D01*
X137810000Y-99820000D02*
X138070000Y-99560000D01*
X136660000Y-99820000D02*
X137810000Y-99820000D01*
X132630000Y-103850000D02*
X136660000Y-99820000D01*
X132630000Y-118800000D02*
X132630000Y-103850000D01*
X130630000Y-120800000D02*
X132630000Y-118800000D01*
X135422640Y-133146800D02*
X137632700Y-133146800D01*
X137632700Y-133146800D02*
X137633200Y-133146300D01*
X135422640Y-131165600D02*
X137613900Y-131165600D01*
X137613900Y-131165600D02*
X137633200Y-131146300D01*
X135422640Y-129184400D02*
X137595100Y-129184400D01*
X137595100Y-129184400D02*
X137633200Y-129146300D01*
X135422640Y-127152400D02*
X137627100Y-127152400D01*
X137627100Y-127152400D02*
X137633200Y-127146300D01*
X135988800Y-96924160D02*
X135988800Y-94517000D01*
X135988800Y-94517000D02*
X135982200Y-94510400D01*
X134007600Y-96924160D02*
X134007600Y-94535800D01*
X134007600Y-94535800D02*
X133982200Y-94510400D01*
X131975600Y-96924160D02*
X131975600Y-94517000D01*
X131975600Y-94517000D02*
X131982200Y-94510400D01*
X125740000Y-100870000D02*
X125740000Y-98271840D01*
X126670000Y-101800000D02*
X125740000Y-100870000D01*
X127730000Y-101800000D02*
X126670000Y-101800000D01*
X128770000Y-102840000D02*
X127730000Y-101800000D01*
X132220000Y-105600000D02*
X131930000Y-105310000D01*
X132220000Y-118617598D02*
X132220000Y-105600000D01*
X130747139Y-120090459D02*
X132220000Y-118617598D01*
X130149541Y-120090459D02*
X130747139Y-120090459D01*
X129430000Y-120810000D02*
X130149541Y-120090459D01*
X126187200Y-123139200D02*
X120243600Y-123139200D01*
X127000000Y-124053600D02*
X126187200Y-123139200D01*
X132740400Y-121920000D02*
X131978400Y-122682000D01*
X131978400Y-122682000D02*
X129286000Y-122682000D01*
X129286000Y-122682000D02*
X128371600Y-121767600D01*
X127000000Y-124358400D02*
X127000000Y-124053600D01*
X119684800Y-122580400D02*
X119684800Y-121361200D01*
X120243600Y-123139200D02*
X119684800Y-122580400D01*
X119634600Y-98273540D02*
X119634600Y-99574600D01*
X111370000Y-105430000D02*
X112780000Y-104020000D01*
X112780000Y-104020000D02*
X112780000Y-103390000D01*
X112780000Y-103390000D02*
X115460000Y-100710000D01*
X115460000Y-100710000D02*
X118530000Y-100710000D01*
X118530000Y-100710000D02*
X119650000Y-99590000D01*
X119634600Y-99574600D02*
X119650000Y-99590000D01*
X121666600Y-99673400D02*
X121666600Y-98273540D01*
X120210000Y-101130000D02*
X121666600Y-99673400D01*
X115609082Y-101130000D02*
X120210000Y-101130000D01*
X113182402Y-103556680D02*
X115609082Y-101130000D01*
X113182402Y-104892402D02*
X113182402Y-103556680D01*
X113230000Y-104940000D02*
X113182402Y-104892402D01*
X123698600Y-99331400D02*
X123698600Y-98273540D01*
X121480000Y-101550000D02*
X123698600Y-99331400D01*
X119510000Y-101550000D02*
X121480000Y-101550000D01*
X119270000Y-101790000D02*
X119510000Y-101550000D01*
X119270000Y-108400000D02*
X119270000Y-101790000D01*
X120130000Y-109260000D02*
X119270000Y-108400000D01*
X132085600Y-98497840D02*
X132085600Y-102654400D01*
X125510000Y-109230000D02*
X121600000Y-109230000D01*
X132085600Y-102654400D02*
X125510000Y-109230000D01*
X134117600Y-98497840D02*
X134117600Y-101202400D01*
X125430000Y-109890000D02*
X125430000Y-109930000D01*
X134117600Y-101202400D02*
X125430000Y-109890000D01*
X122410000Y-110990000D02*
X122410000Y-110940000D01*
X126140000Y-110180000D02*
X126140000Y-109760000D01*
X125700000Y-110620000D02*
X126140000Y-110180000D01*
X122730000Y-110620000D02*
X125700000Y-110620000D01*
X122410000Y-110940000D02*
X122730000Y-110620000D01*
X136098800Y-99801200D02*
X136098800Y-98497840D01*
X136098800Y-99801200D02*
X126140000Y-109760000D01*
X126140000Y-109760000D02*
X126130000Y-109770000D01*
G36*
X119356600Y-118391400D02*
X113205800Y-118391400D01*
X113205800Y-112240600D01*
X119356600Y-112240600D01*
X119356600Y-118391400D01*
X119356600Y-118391400D01*
G37*
X119356600Y-118391400D02*
X113205800Y-118391400D01*
X113205800Y-112240600D01*
X119356600Y-112240600D01*
X119356600Y-118391400D01*
D26*
G36*
X141328000Y-139359500D02*
X92669500Y-139359500D01*
X92669500Y-136140470D01*
X93369411Y-136140470D01*
X93520411Y-136418089D01*
X93842934Y-136702942D01*
X94249915Y-136842688D01*
X94422700Y-136739851D01*
X94422700Y-135974800D01*
X94872700Y-135974800D01*
X94872700Y-136739851D01*
X95045485Y-136842688D01*
X95452466Y-136702942D01*
X95774989Y-136418089D01*
X95897700Y-136192480D01*
X96020411Y-136418089D01*
X96342934Y-136702942D01*
X96749915Y-136842688D01*
X96922700Y-136739851D01*
X96922700Y-135974800D01*
X97372700Y-135974800D01*
X97372700Y-136739851D01*
X97545485Y-136842688D01*
X97952466Y-136702942D01*
X98274989Y-136418089D01*
X98425989Y-136140470D01*
X98359225Y-135974800D01*
X97372700Y-135974800D01*
X96922700Y-135974800D01*
X95936175Y-135974800D01*
X95897700Y-136070273D01*
X95859225Y-135974800D01*
X94872700Y-135974800D01*
X94422700Y-135974800D01*
X93436175Y-135974800D01*
X93369411Y-136140470D01*
X92669500Y-136140470D01*
X92669500Y-134140470D01*
X93369411Y-134140470D01*
X93520411Y-134418089D01*
X93842934Y-134702942D01*
X93979398Y-134749800D01*
X93842934Y-134796658D01*
X93520411Y-135081511D01*
X93369411Y-135359130D01*
X93436175Y-135524800D01*
X94422700Y-135524800D01*
X94422700Y-134759749D01*
X94405984Y-134749800D01*
X94422700Y-134739851D01*
X94422700Y-133974800D01*
X93436175Y-133974800D01*
X93369411Y-134140470D01*
X92669500Y-134140470D01*
X92669500Y-132140470D01*
X93369411Y-132140470D01*
X93520411Y-132418089D01*
X93842934Y-132702942D01*
X93979398Y-132749800D01*
X93842934Y-132796658D01*
X93520411Y-133081511D01*
X93369411Y-133359130D01*
X93436175Y-133524800D01*
X94422700Y-133524800D01*
X94422700Y-132759749D01*
X94405984Y-132749800D01*
X94422700Y-132739851D01*
X94422700Y-131974800D01*
X93436175Y-131974800D01*
X93369411Y-132140470D01*
X92669500Y-132140470D01*
X92669500Y-130140470D01*
X93369411Y-130140470D01*
X93520411Y-130418089D01*
X93842934Y-130702942D01*
X93979398Y-130749800D01*
X93842934Y-130796658D01*
X93520411Y-131081511D01*
X93369411Y-131359130D01*
X93436175Y-131524800D01*
X94422700Y-131524800D01*
X94422700Y-130759749D01*
X94405984Y-130749800D01*
X94422700Y-130739851D01*
X94422700Y-129974800D01*
X93436175Y-129974800D01*
X93369411Y-130140470D01*
X92669500Y-130140470D01*
X92669500Y-128087300D01*
X93297700Y-128087300D01*
X93297700Y-128489311D01*
X93366209Y-128654705D01*
X93492796Y-128781292D01*
X93658190Y-128849800D01*
X93782764Y-128849800D01*
X93520411Y-129081511D01*
X93369411Y-129359130D01*
X93436175Y-129524800D01*
X94422700Y-129524800D01*
X94422700Y-128759749D01*
X94408627Y-128751373D01*
X94422700Y-128737300D01*
X94422700Y-127974800D01*
X93410200Y-127974800D01*
X93297700Y-128087300D01*
X92669500Y-128087300D01*
X92669500Y-127010289D01*
X93297700Y-127010289D01*
X93297700Y-127412300D01*
X93410200Y-127524800D01*
X94422700Y-127524800D01*
X94422700Y-126762300D01*
X94310200Y-126649800D01*
X93658190Y-126649800D01*
X93492796Y-126718308D01*
X93366209Y-126844895D01*
X93297700Y-127010289D01*
X92669500Y-127010289D01*
X92669500Y-124900970D01*
X93331311Y-124900970D01*
X93482311Y-125178589D01*
X93804834Y-125463442D01*
X94211815Y-125603188D01*
X94384600Y-125500351D01*
X94384600Y-124735300D01*
X94834600Y-124735300D01*
X94834600Y-125500351D01*
X95007385Y-125603188D01*
X95414366Y-125463442D01*
X95736889Y-125178589D01*
X95859600Y-124952980D01*
X95982311Y-125178589D01*
X96304834Y-125463442D01*
X96711815Y-125603188D01*
X96884600Y-125500351D01*
X96884600Y-124735300D01*
X95898075Y-124735300D01*
X95859600Y-124830773D01*
X95821125Y-124735300D01*
X94834600Y-124735300D01*
X94384600Y-124735300D01*
X93398075Y-124735300D01*
X93331311Y-124900970D01*
X92669500Y-124900970D01*
X92669500Y-122900970D01*
X93331311Y-122900970D01*
X93482311Y-123178589D01*
X93804834Y-123463442D01*
X93941298Y-123510300D01*
X93804834Y-123557158D01*
X93482311Y-123842011D01*
X93331311Y-124119630D01*
X93398075Y-124285300D01*
X94384600Y-124285300D01*
X94384600Y-123520249D01*
X94367884Y-123510300D01*
X94384600Y-123500351D01*
X94384600Y-122735300D01*
X93398075Y-122735300D01*
X93331311Y-122900970D01*
X92669500Y-122900970D01*
X92669500Y-120900970D01*
X93331311Y-120900970D01*
X93482311Y-121178589D01*
X93804834Y-121463442D01*
X93941298Y-121510300D01*
X93804834Y-121557158D01*
X93482311Y-121842011D01*
X93331311Y-122119630D01*
X93398075Y-122285300D01*
X94384600Y-122285300D01*
X94384600Y-121520249D01*
X94367884Y-121510300D01*
X94384600Y-121500351D01*
X94384600Y-120735300D01*
X93398075Y-120735300D01*
X93331311Y-120900970D01*
X92669500Y-120900970D01*
X92669500Y-118900970D01*
X93331311Y-118900970D01*
X93482311Y-119178589D01*
X93804834Y-119463442D01*
X93941298Y-119510300D01*
X93804834Y-119557158D01*
X93482311Y-119842011D01*
X93331311Y-120119630D01*
X93398075Y-120285300D01*
X94384600Y-120285300D01*
X94384600Y-119520249D01*
X94367884Y-119510300D01*
X94384600Y-119500351D01*
X94384600Y-118735300D01*
X93398075Y-118735300D01*
X93331311Y-118900970D01*
X92669500Y-118900970D01*
X92669500Y-116847800D01*
X93259600Y-116847800D01*
X93259600Y-117249811D01*
X93328109Y-117415205D01*
X93454696Y-117541792D01*
X93620090Y-117610300D01*
X93744664Y-117610300D01*
X93482311Y-117842011D01*
X93331311Y-118119630D01*
X93398075Y-118285300D01*
X94384600Y-118285300D01*
X94384600Y-117520249D01*
X94370527Y-117511873D01*
X94384600Y-117497800D01*
X94384600Y-116735300D01*
X93372100Y-116735300D01*
X93259600Y-116847800D01*
X92669500Y-116847800D01*
X92669500Y-115770789D01*
X93259600Y-115770789D01*
X93259600Y-116172800D01*
X93372100Y-116285300D01*
X94384600Y-116285300D01*
X94384600Y-115522800D01*
X94834600Y-115522800D01*
X94834600Y-116285300D01*
X94854600Y-116285300D01*
X94854600Y-116735300D01*
X94834600Y-116735300D01*
X94834600Y-117497800D01*
X94848673Y-117511873D01*
X94834600Y-117520249D01*
X94834600Y-118285300D01*
X94854600Y-118285300D01*
X94854600Y-118735300D01*
X94834600Y-118735300D01*
X94834600Y-119500351D01*
X94851316Y-119510300D01*
X94834600Y-119520249D01*
X94834600Y-120285300D01*
X94854600Y-120285300D01*
X94854600Y-120735300D01*
X94834600Y-120735300D01*
X94834600Y-121500351D01*
X94851316Y-121510300D01*
X94834600Y-121520249D01*
X94834600Y-122285300D01*
X94854600Y-122285300D01*
X94854600Y-122735300D01*
X94834600Y-122735300D01*
X94834600Y-123500351D01*
X94851316Y-123510300D01*
X94834600Y-123520249D01*
X94834600Y-124285300D01*
X95821125Y-124285300D01*
X95859600Y-124189827D01*
X95898075Y-124285300D01*
X96884600Y-124285300D01*
X96884600Y-124265300D01*
X97334600Y-124265300D01*
X97334600Y-124285300D01*
X97985248Y-124285300D01*
X98128183Y-124344652D01*
X98466334Y-124344947D01*
X98688200Y-124253274D01*
X98688200Y-124323428D01*
X98276328Y-124735300D01*
X97334600Y-124735300D01*
X97334600Y-125344278D01*
X97244948Y-125560183D01*
X97244653Y-125898334D01*
X97373785Y-126210857D01*
X97612685Y-126450174D01*
X97924983Y-126579852D01*
X98263134Y-126580147D01*
X98575657Y-126451015D01*
X98814974Y-126212115D01*
X98944652Y-125899817D01*
X98944832Y-125693140D01*
X99669786Y-124968186D01*
X99794431Y-124781643D01*
X99803649Y-124735300D01*
X99838200Y-124561600D01*
X99838200Y-122750236D01*
X99983374Y-122605315D01*
X99998840Y-122568069D01*
X99998840Y-123383040D01*
X100041280Y-123596400D01*
X100042609Y-123603083D01*
X100167254Y-123789626D01*
X103564627Y-127187000D01*
X101468195Y-127187000D01*
X101450858Y-127094860D01*
X101352303Y-126941701D01*
X101201925Y-126838952D01*
X101023420Y-126802804D01*
X100124260Y-126802804D01*
X99957500Y-126834182D01*
X99820390Y-126922410D01*
X99698245Y-126838952D01*
X99519740Y-126802804D01*
X98620580Y-126802804D01*
X98453820Y-126834182D01*
X98300661Y-126932737D01*
X98237504Y-127025171D01*
X98201965Y-126971983D01*
X97845100Y-126733533D01*
X97424148Y-126649800D01*
X96871252Y-126649800D01*
X96450300Y-126733533D01*
X96093435Y-126971983D01*
X95997700Y-127115260D01*
X95997700Y-127010289D01*
X95929191Y-126844895D01*
X95802604Y-126718308D01*
X95637210Y-126649800D01*
X94985200Y-126649800D01*
X94872700Y-126762300D01*
X94872700Y-127524800D01*
X94892700Y-127524800D01*
X94892700Y-127974800D01*
X94872700Y-127974800D01*
X94872700Y-128737300D01*
X94886773Y-128751373D01*
X94872700Y-128759749D01*
X94872700Y-129524800D01*
X94892700Y-129524800D01*
X94892700Y-129974800D01*
X94872700Y-129974800D01*
X94872700Y-130739851D01*
X94889416Y-130749800D01*
X94872700Y-130759749D01*
X94872700Y-131524800D01*
X94892700Y-131524800D01*
X94892700Y-131974800D01*
X94872700Y-131974800D01*
X94872700Y-132739851D01*
X94889416Y-132749800D01*
X94872700Y-132759749D01*
X94872700Y-133524800D01*
X94892700Y-133524800D01*
X94892700Y-133974800D01*
X94872700Y-133974800D01*
X94872700Y-134739851D01*
X94889416Y-134749800D01*
X94872700Y-134759749D01*
X94872700Y-135524800D01*
X95859225Y-135524800D01*
X95897700Y-135429327D01*
X95936175Y-135524800D01*
X96922700Y-135524800D01*
X96922700Y-135504800D01*
X97372700Y-135504800D01*
X97372700Y-135524800D01*
X98359225Y-135524800D01*
X98425989Y-135359130D01*
X98384328Y-135282533D01*
X101492708Y-135282533D01*
X101711138Y-135683792D01*
X102091264Y-135975230D01*
X102553983Y-136099016D01*
X102746600Y-135983917D01*
X102746600Y-135099000D01*
X103196600Y-135099000D01*
X103196600Y-135983917D01*
X103389217Y-136099016D01*
X103851936Y-135975230D01*
X104232062Y-135683792D01*
X104277057Y-135601134D01*
X121273053Y-135601134D01*
X121402185Y-135913657D01*
X121641085Y-136152974D01*
X121953383Y-136282652D01*
X122291534Y-136282947D01*
X122604057Y-136153815D01*
X122843374Y-135914915D01*
X122973052Y-135602617D01*
X122973347Y-135264466D01*
X122844215Y-134951943D01*
X122605315Y-134712626D01*
X122293017Y-134582948D01*
X121954866Y-134582653D01*
X121642343Y-134711785D01*
X121403026Y-134950685D01*
X121273348Y-135262983D01*
X121273053Y-135601134D01*
X104277057Y-135601134D01*
X104450492Y-135282533D01*
X104385652Y-135099000D01*
X103196600Y-135099000D01*
X102746600Y-135099000D01*
X101557548Y-135099000D01*
X101492708Y-135282533D01*
X98384328Y-135282533D01*
X98274989Y-135081511D01*
X97952466Y-134796658D01*
X97851304Y-134761922D01*
X98201965Y-134527617D01*
X98243492Y-134465467D01*
X101492708Y-134465467D01*
X101557548Y-134649000D01*
X102746600Y-134649000D01*
X102746600Y-133764083D01*
X103196600Y-133764083D01*
X103196600Y-134649000D01*
X104385652Y-134649000D01*
X104450492Y-134465467D01*
X104232062Y-134064208D01*
X103851936Y-133772770D01*
X103389217Y-133648984D01*
X103196600Y-133764083D01*
X102746600Y-133764083D01*
X102553983Y-133648984D01*
X102091264Y-133772770D01*
X101711138Y-134064208D01*
X101492708Y-134465467D01*
X98243492Y-134465467D01*
X98440415Y-134170752D01*
X98524148Y-133749800D01*
X98440415Y-133328848D01*
X98201965Y-132971983D01*
X97869445Y-132749800D01*
X98201965Y-132527617D01*
X98440415Y-132170752D01*
X98524148Y-131749800D01*
X98488782Y-131572000D01*
X101412964Y-131572000D01*
X101412964Y-133096000D01*
X101444342Y-133262760D01*
X101542897Y-133415919D01*
X101693275Y-133518668D01*
X101871780Y-133554816D01*
X104071420Y-133554816D01*
X104238180Y-133523438D01*
X104391339Y-133424883D01*
X104494088Y-133274505D01*
X104530236Y-133096000D01*
X104530236Y-132857934D01*
X109284253Y-132857934D01*
X109413385Y-133170457D01*
X109652285Y-133409774D01*
X109964583Y-133539452D01*
X110302734Y-133539747D01*
X110615257Y-133410615D01*
X110854574Y-133171715D01*
X110984252Y-132859417D01*
X110984474Y-132603934D01*
X128385053Y-132603934D01*
X128514185Y-132916457D01*
X128753085Y-133155774D01*
X129065383Y-133285452D01*
X129403534Y-133285747D01*
X129716057Y-133156615D01*
X129955374Y-132917715D01*
X130085052Y-132605417D01*
X130085347Y-132267266D01*
X129956215Y-131954743D01*
X129717315Y-131715426D01*
X129405017Y-131585748D01*
X129066866Y-131585453D01*
X128754343Y-131714585D01*
X128515026Y-131953485D01*
X128385348Y-132265783D01*
X128385053Y-132603934D01*
X110984474Y-132603934D01*
X110984547Y-132521266D01*
X110855415Y-132208743D01*
X110616515Y-131969426D01*
X110304217Y-131839748D01*
X109966066Y-131839453D01*
X109653543Y-131968585D01*
X109414226Y-132207485D01*
X109284548Y-132519783D01*
X109284253Y-132857934D01*
X104530236Y-132857934D01*
X104530236Y-131572000D01*
X104498858Y-131405240D01*
X104400303Y-131252081D01*
X104249925Y-131149332D01*
X104071420Y-131113184D01*
X101871780Y-131113184D01*
X101705020Y-131144562D01*
X101551861Y-131243117D01*
X101449112Y-131393495D01*
X101412964Y-131572000D01*
X98488782Y-131572000D01*
X98440415Y-131328848D01*
X98201965Y-130971983D01*
X97869445Y-130749800D01*
X98201965Y-130527617D01*
X98440415Y-130170752D01*
X98524148Y-129749800D01*
X98440415Y-129328848D01*
X98201965Y-128971983D01*
X97869445Y-128749800D01*
X98201965Y-128527617D01*
X98229751Y-128486032D01*
X98291697Y-128582299D01*
X98442075Y-128685048D01*
X98620580Y-128721196D01*
X99519740Y-128721196D01*
X99686500Y-128689818D01*
X99823610Y-128601590D01*
X99945755Y-128685048D01*
X100124260Y-128721196D01*
X101023420Y-128721196D01*
X101190180Y-128689818D01*
X101343339Y-128591263D01*
X101446088Y-128440885D01*
X101467125Y-128337000D01*
X104028828Y-128337000D01*
X106451213Y-130759386D01*
X106575883Y-130842688D01*
X106637757Y-130884031D01*
X106857800Y-130927800D01*
X114103672Y-130927800D01*
X113920743Y-131003385D01*
X113681426Y-131242285D01*
X113551748Y-131554583D01*
X113551453Y-131892734D01*
X113680585Y-132205257D01*
X113919485Y-132444574D01*
X114231783Y-132574252D01*
X114569934Y-132574547D01*
X114882457Y-132445415D01*
X115121774Y-132206515D01*
X115251452Y-131894217D01*
X115251747Y-131556066D01*
X115122615Y-131243543D01*
X114883715Y-131004226D01*
X114699662Y-130927800D01*
X125679200Y-130927800D01*
X125899243Y-130884031D01*
X126085786Y-130759386D01*
X128735923Y-128109249D01*
X128829285Y-128202774D01*
X129141583Y-128332452D01*
X129479734Y-128332747D01*
X129792257Y-128203615D01*
X130031574Y-127964715D01*
X130161252Y-127652417D01*
X130161279Y-127621410D01*
X130317934Y-127621547D01*
X130630457Y-127492415D01*
X130869774Y-127253515D01*
X130938548Y-127087891D01*
X131232334Y-127088147D01*
X131352600Y-127038454D01*
X131352600Y-132791200D01*
X131379564Y-132926757D01*
X131396369Y-133011243D01*
X131521014Y-133197786D01*
X131876613Y-133553386D01*
X132019685Y-133648984D01*
X132063157Y-133678031D01*
X132283200Y-133721800D01*
X133024605Y-133721800D01*
X133041942Y-133813940D01*
X133140497Y-133967099D01*
X133290875Y-134069848D01*
X133469380Y-134105996D01*
X134368540Y-134105996D01*
X134535300Y-134074618D01*
X134672410Y-133986390D01*
X134794555Y-134069848D01*
X134973060Y-134105996D01*
X135872220Y-134105996D01*
X136038980Y-134074618D01*
X136192139Y-133976063D01*
X136278849Y-133849158D01*
X136328935Y-133924117D01*
X136685800Y-134162567D01*
X137106752Y-134246300D01*
X137659648Y-134246300D01*
X138080600Y-134162567D01*
X138437465Y-133924117D01*
X138533200Y-133780840D01*
X138533200Y-133885811D01*
X138601709Y-134051205D01*
X138728296Y-134177792D01*
X138893690Y-134246300D01*
X139545700Y-134246300D01*
X139658200Y-134133800D01*
X139658200Y-133371300D01*
X140108200Y-133371300D01*
X140108200Y-134133800D01*
X140220700Y-134246300D01*
X140872710Y-134246300D01*
X141038104Y-134177792D01*
X141164691Y-134051205D01*
X141233200Y-133885811D01*
X141233200Y-133483800D01*
X141120700Y-133371300D01*
X140108200Y-133371300D01*
X139658200Y-133371300D01*
X139638200Y-133371300D01*
X139638200Y-132921300D01*
X139658200Y-132921300D01*
X139658200Y-132158800D01*
X139644127Y-132144727D01*
X139658200Y-132136351D01*
X139658200Y-131371300D01*
X140108200Y-131371300D01*
X140108200Y-132136351D01*
X140122273Y-132144727D01*
X140108200Y-132158800D01*
X140108200Y-132921300D01*
X141120700Y-132921300D01*
X141233200Y-132808800D01*
X141233200Y-132406789D01*
X141164691Y-132241395D01*
X141038104Y-132114808D01*
X140872710Y-132046300D01*
X140748136Y-132046300D01*
X141010489Y-131814589D01*
X141161489Y-131536970D01*
X141094725Y-131371300D01*
X140108200Y-131371300D01*
X139658200Y-131371300D01*
X139638200Y-131371300D01*
X139638200Y-130921300D01*
X139658200Y-130921300D01*
X139658200Y-130156249D01*
X139641484Y-130146300D01*
X139658200Y-130136351D01*
X139658200Y-129371300D01*
X140108200Y-129371300D01*
X140108200Y-130136351D01*
X140124916Y-130146300D01*
X140108200Y-130156249D01*
X140108200Y-130921300D01*
X141094725Y-130921300D01*
X141161489Y-130755630D01*
X141010489Y-130478011D01*
X140687966Y-130193158D01*
X140551502Y-130146300D01*
X140687966Y-130099442D01*
X141010489Y-129814589D01*
X141161489Y-129536970D01*
X141094725Y-129371300D01*
X140108200Y-129371300D01*
X139658200Y-129371300D01*
X139638200Y-129371300D01*
X139638200Y-128921300D01*
X139658200Y-128921300D01*
X139658200Y-128156249D01*
X139641484Y-128146300D01*
X139658200Y-128136351D01*
X139658200Y-127371300D01*
X140108200Y-127371300D01*
X140108200Y-128136351D01*
X140124916Y-128146300D01*
X140108200Y-128156249D01*
X140108200Y-128921300D01*
X141094725Y-128921300D01*
X141161489Y-128755630D01*
X141010489Y-128478011D01*
X140687966Y-128193158D01*
X140551502Y-128146300D01*
X140687966Y-128099442D01*
X141010489Y-127814589D01*
X141161489Y-127536970D01*
X141094725Y-127371300D01*
X140108200Y-127371300D01*
X139658200Y-127371300D01*
X139638200Y-127371300D01*
X139638200Y-126921300D01*
X139658200Y-126921300D01*
X139658200Y-126901300D01*
X140108200Y-126901300D01*
X140108200Y-126921300D01*
X141094725Y-126921300D01*
X141161489Y-126755630D01*
X141010489Y-126478011D01*
X140687966Y-126193158D01*
X140586804Y-126158422D01*
X140937465Y-125924117D01*
X141175915Y-125567252D01*
X141259648Y-125146300D01*
X141175915Y-124725348D01*
X140937465Y-124368483D01*
X140580600Y-124130033D01*
X140180439Y-124050436D01*
X140164431Y-123969957D01*
X140039786Y-123783414D01*
X139598586Y-123342214D01*
X139412043Y-123217569D01*
X139390234Y-123213231D01*
X139192000Y-123173800D01*
X136296400Y-123173800D01*
X136098166Y-123213231D01*
X136076357Y-123217569D01*
X135889813Y-123342214D01*
X134809196Y-124422832D01*
X134604066Y-124422653D01*
X134291543Y-124551785D01*
X134247812Y-124595439D01*
X132562972Y-122910600D01*
X132703604Y-122769968D01*
X132908734Y-122770147D01*
X133221257Y-122641015D01*
X133460574Y-122402115D01*
X133590252Y-122089817D01*
X133590547Y-121751666D01*
X133461415Y-121439143D01*
X133222515Y-121199826D01*
X132910217Y-121070148D01*
X132572066Y-121069853D01*
X132259543Y-121198985D01*
X132020226Y-121437885D01*
X131890548Y-121750183D01*
X131890368Y-121956860D01*
X131740228Y-122107000D01*
X129524172Y-122107000D01*
X129221568Y-121804396D01*
X129221708Y-121643876D01*
X129260183Y-121659852D01*
X129598334Y-121660147D01*
X129910857Y-121531015D01*
X130034998Y-121407090D01*
X130147885Y-121520174D01*
X130460183Y-121649852D01*
X130798334Y-121650147D01*
X131110857Y-121521015D01*
X131350174Y-121282115D01*
X131479852Y-120969817D01*
X131480032Y-120763140D01*
X133036586Y-119206586D01*
X133161231Y-119020043D01*
X133170469Y-118973600D01*
X133205000Y-118800000D01*
X133205000Y-117361600D01*
X137933984Y-117361600D01*
X137933984Y-119061600D01*
X137965362Y-119228360D01*
X138063917Y-119381519D01*
X138214295Y-119484268D01*
X138392800Y-119520416D01*
X140092800Y-119520416D01*
X140259560Y-119489038D01*
X140412719Y-119390483D01*
X140515468Y-119240105D01*
X140551616Y-119061600D01*
X140551616Y-117361600D01*
X140520238Y-117194840D01*
X140421683Y-117041681D01*
X140271305Y-116938932D01*
X140092800Y-116902784D01*
X139467802Y-116902784D01*
X139467802Y-116839502D01*
X139665329Y-116901039D01*
X140103652Y-116645759D01*
X140410918Y-116242172D01*
X140472220Y-116094126D01*
X140408789Y-115896600D01*
X139467800Y-115896600D01*
X139467800Y-115916600D01*
X139017800Y-115916600D01*
X139017800Y-115896600D01*
X138076811Y-115896600D01*
X138013380Y-116094126D01*
X138074682Y-116242172D01*
X138381948Y-116645759D01*
X138820271Y-116901039D01*
X139017798Y-116839502D01*
X139017798Y-116902784D01*
X138392800Y-116902784D01*
X138226040Y-116934162D01*
X138072881Y-117032717D01*
X137970132Y-117183095D01*
X137933984Y-117361600D01*
X133205000Y-117361600D01*
X133205000Y-115249074D01*
X138013380Y-115249074D01*
X138076811Y-115446600D01*
X139017800Y-115446600D01*
X139017800Y-114503699D01*
X139467800Y-114503699D01*
X139467800Y-115446600D01*
X140408789Y-115446600D01*
X140472220Y-115249074D01*
X140410918Y-115101028D01*
X140103652Y-114697441D01*
X139665329Y-114442161D01*
X139467800Y-114503699D01*
X139017800Y-114503699D01*
X138820271Y-114442161D01*
X138381948Y-114697441D01*
X138074682Y-115101028D01*
X138013380Y-115249074D01*
X133205000Y-115249074D01*
X133205000Y-104088172D01*
X135871984Y-101421189D01*
X135871984Y-102110800D01*
X135903362Y-102277560D01*
X136001917Y-102430719D01*
X136152295Y-102533468D01*
X136330800Y-102569616D01*
X136346200Y-102569616D01*
X136176535Y-102682983D01*
X135938085Y-103039848D01*
X135854352Y-103460800D01*
X135938085Y-103881752D01*
X136176535Y-104238617D01*
X136509055Y-104460800D01*
X136176535Y-104682983D01*
X135938085Y-105039848D01*
X135854352Y-105460800D01*
X135938085Y-105881752D01*
X136176535Y-106238617D01*
X136509055Y-106460800D01*
X136176535Y-106682983D01*
X135938085Y-107039848D01*
X135854352Y-107460800D01*
X135938085Y-107881752D01*
X136176535Y-108238617D01*
X136509055Y-108460800D01*
X136176535Y-108682983D01*
X135938085Y-109039848D01*
X135854352Y-109460800D01*
X135938085Y-109881752D01*
X136176535Y-110238617D01*
X136533400Y-110477067D01*
X136954352Y-110560800D01*
X137507248Y-110560800D01*
X137928200Y-110477067D01*
X138285065Y-110238617D01*
X138493453Y-109926743D01*
X138603511Y-110129089D01*
X138926034Y-110413942D01*
X139333015Y-110553688D01*
X139505800Y-110450851D01*
X139505800Y-109685800D01*
X139955800Y-109685800D01*
X139955800Y-110450851D01*
X140128585Y-110553688D01*
X140535566Y-110413942D01*
X140858089Y-110129089D01*
X141009089Y-109851470D01*
X140942325Y-109685800D01*
X139955800Y-109685800D01*
X139505800Y-109685800D01*
X139485800Y-109685800D01*
X139485800Y-109235800D01*
X139505800Y-109235800D01*
X139505800Y-109215800D01*
X139955800Y-109215800D01*
X139955800Y-109235800D01*
X140942325Y-109235800D01*
X141009089Y-109070130D01*
X140858089Y-108792511D01*
X140535566Y-108507658D01*
X140434404Y-108472922D01*
X140785065Y-108238617D01*
X141023515Y-107881752D01*
X141107248Y-107460800D01*
X141023515Y-107039848D01*
X140785065Y-106682983D01*
X140452545Y-106460800D01*
X140785065Y-106238617D01*
X141023515Y-105881752D01*
X141107248Y-105460800D01*
X141023515Y-105039848D01*
X140785065Y-104682983D01*
X140452545Y-104460800D01*
X140785065Y-104238617D01*
X141023515Y-103881752D01*
X141107248Y-103460800D01*
X141023515Y-103039848D01*
X140785065Y-102682983D01*
X140452545Y-102460800D01*
X140785065Y-102238617D01*
X141023515Y-101881752D01*
X141107248Y-101460800D01*
X141023515Y-101039848D01*
X140785065Y-100682983D01*
X140428200Y-100444533D01*
X140007248Y-100360800D01*
X139454352Y-100360800D01*
X139033400Y-100444533D01*
X138676535Y-100682983D01*
X138589616Y-100813066D01*
X138589616Y-100810800D01*
X138558238Y-100644040D01*
X138459683Y-100490881D01*
X138309305Y-100388132D01*
X138130800Y-100351984D01*
X138026257Y-100351984D01*
X138030043Y-100351231D01*
X138216586Y-100226586D01*
X138476587Y-99966586D01*
X138601231Y-99780043D01*
X138645000Y-99560000D01*
X138645000Y-99386195D01*
X138737140Y-99368858D01*
X138890299Y-99270303D01*
X138993048Y-99119925D01*
X139029196Y-98941420D01*
X139029196Y-98042260D01*
X138997818Y-97875500D01*
X138909590Y-97738390D01*
X138993048Y-97616245D01*
X139029196Y-97437740D01*
X139029196Y-96538580D01*
X138997818Y-96371820D01*
X138899263Y-96218661D01*
X138748885Y-96115912D01*
X138645000Y-96094875D01*
X138645000Y-95891517D01*
X138760017Y-95814665D01*
X138998467Y-95457800D01*
X139082200Y-95036848D01*
X139082200Y-94483952D01*
X138998467Y-94063000D01*
X138760017Y-93706135D01*
X138616740Y-93610400D01*
X138721711Y-93610400D01*
X138887105Y-93541891D01*
X139013692Y-93415304D01*
X139082200Y-93249910D01*
X139082200Y-92597900D01*
X138969700Y-92485400D01*
X138207200Y-92485400D01*
X138207200Y-92505400D01*
X137757200Y-92505400D01*
X137757200Y-92485400D01*
X136994700Y-92485400D01*
X136980627Y-92499473D01*
X136972251Y-92485400D01*
X136207200Y-92485400D01*
X136207200Y-92505400D01*
X135757200Y-92505400D01*
X135757200Y-92485400D01*
X134992149Y-92485400D01*
X134982200Y-92502116D01*
X134972251Y-92485400D01*
X134207200Y-92485400D01*
X134207200Y-92505400D01*
X133757200Y-92505400D01*
X133757200Y-92485400D01*
X132992149Y-92485400D01*
X132982200Y-92502116D01*
X132972251Y-92485400D01*
X132207200Y-92485400D01*
X132207200Y-92505400D01*
X131757200Y-92505400D01*
X131757200Y-92485400D01*
X130992149Y-92485400D01*
X130982200Y-92502116D01*
X130972251Y-92485400D01*
X130207200Y-92485400D01*
X130207200Y-93471925D01*
X130302673Y-93510400D01*
X130207200Y-93548875D01*
X130207200Y-94535400D01*
X130227200Y-94535400D01*
X130227200Y-94985400D01*
X130207200Y-94985400D01*
X130207200Y-95971925D01*
X130372870Y-96038689D01*
X130650489Y-95887689D01*
X130935342Y-95565166D01*
X130970078Y-95464004D01*
X131204383Y-95814665D01*
X131400600Y-95945773D01*
X131400600Y-96128635D01*
X131265301Y-96215697D01*
X131162552Y-96366075D01*
X131126404Y-96544580D01*
X131126404Y-97443740D01*
X131157782Y-97610500D01*
X131246010Y-97747610D01*
X131162552Y-97869755D01*
X131126404Y-98048260D01*
X131126404Y-98947420D01*
X131157782Y-99114180D01*
X131256337Y-99267339D01*
X131406715Y-99370088D01*
X131510600Y-99391125D01*
X131510600Y-102416227D01*
X125271828Y-108655000D01*
X122227036Y-108655000D01*
X122082115Y-108509826D01*
X121769817Y-108380148D01*
X121431666Y-108379853D01*
X121119143Y-108508985D01*
X120879826Y-108747885D01*
X120858911Y-108798253D01*
X120851015Y-108779143D01*
X120612115Y-108539826D01*
X120299817Y-108410148D01*
X120093140Y-108409968D01*
X119845000Y-108161828D01*
X119845000Y-106848334D01*
X125070353Y-106848334D01*
X125199485Y-107160857D01*
X125438385Y-107400174D01*
X125750683Y-107529852D01*
X126088834Y-107530147D01*
X126401357Y-107401015D01*
X126640674Y-107162115D01*
X126770352Y-106849817D01*
X126770647Y-106511666D01*
X126641515Y-106199143D01*
X126402615Y-105959826D01*
X126090317Y-105830148D01*
X125752166Y-105829853D01*
X125439643Y-105958985D01*
X125200326Y-106197885D01*
X125070648Y-106510183D01*
X125070353Y-106848334D01*
X119845000Y-106848334D01*
X119845000Y-106281306D01*
X120099183Y-106386852D01*
X120437334Y-106387147D01*
X120749857Y-106258015D01*
X120989174Y-106019115D01*
X121118852Y-105706817D01*
X121119147Y-105368666D01*
X120990015Y-105056143D01*
X120751115Y-104816826D01*
X120438817Y-104687148D01*
X120100666Y-104686853D01*
X119845000Y-104792492D01*
X119845000Y-102125000D01*
X121480000Y-102125000D01*
X121700043Y-102081231D01*
X121886586Y-101956586D01*
X124105186Y-99737987D01*
X124229831Y-99551443D01*
X124249341Y-99453357D01*
X124273600Y-99331400D01*
X124273600Y-99167895D01*
X124365740Y-99150558D01*
X124518899Y-99052003D01*
X124621648Y-98901625D01*
X124657796Y-98723120D01*
X124657796Y-97823960D01*
X124626418Y-97657200D01*
X124538190Y-97520090D01*
X124621648Y-97397945D01*
X124657796Y-97219440D01*
X124657796Y-96320280D01*
X124626418Y-96153520D01*
X124527863Y-96000361D01*
X124377485Y-95897612D01*
X124273600Y-95876575D01*
X124273600Y-95876101D01*
X124444417Y-95761965D01*
X124666600Y-95429445D01*
X124888783Y-95761965D01*
X125080077Y-95889784D01*
X125072860Y-95891142D01*
X124919701Y-95989697D01*
X124816952Y-96140075D01*
X124780804Y-96318580D01*
X124780804Y-97217740D01*
X124812182Y-97384500D01*
X124900410Y-97521610D01*
X124816952Y-97643755D01*
X124780804Y-97822260D01*
X124780804Y-98721420D01*
X124812182Y-98888180D01*
X124910737Y-99041339D01*
X125061115Y-99144088D01*
X125165000Y-99165125D01*
X125165000Y-100870000D01*
X125194592Y-101018769D01*
X125208769Y-101090043D01*
X125333414Y-101276586D01*
X126263414Y-102206587D01*
X126434991Y-102321231D01*
X126449957Y-102331231D01*
X126670000Y-102375000D01*
X127491828Y-102375000D01*
X127920032Y-102803204D01*
X127919853Y-103008334D01*
X128048985Y-103320857D01*
X128287885Y-103560174D01*
X128600183Y-103689852D01*
X128938334Y-103690147D01*
X129250857Y-103561015D01*
X129490174Y-103322115D01*
X129619852Y-103009817D01*
X129620147Y-102671666D01*
X129491015Y-102359143D01*
X129252115Y-102119826D01*
X128939817Y-101990148D01*
X128733140Y-101989968D01*
X128136586Y-101393414D01*
X127950043Y-101268769D01*
X127730000Y-101225000D01*
X126908173Y-101225000D01*
X126315000Y-100631828D01*
X126315000Y-99166195D01*
X126407140Y-99148858D01*
X126560299Y-99050303D01*
X126663048Y-98899925D01*
X126699196Y-98721420D01*
X126699196Y-97822260D01*
X126667818Y-97655500D01*
X126579590Y-97518390D01*
X126663048Y-97396245D01*
X126699196Y-97217740D01*
X126699196Y-96318580D01*
X126667818Y-96151820D01*
X126569263Y-95998661D01*
X126418885Y-95895912D01*
X126315000Y-95874875D01*
X126315000Y-95848439D01*
X126444417Y-95761965D01*
X126682867Y-95405100D01*
X126731981Y-95158185D01*
X128889312Y-95158185D01*
X129029058Y-95565166D01*
X129313911Y-95887689D01*
X129591530Y-96038689D01*
X129757200Y-95971925D01*
X129757200Y-94985400D01*
X128992149Y-94985400D01*
X128889312Y-95158185D01*
X126731981Y-95158185D01*
X126766600Y-94984148D01*
X126766600Y-94431252D01*
X126682867Y-94010300D01*
X126444417Y-93653435D01*
X126301140Y-93557700D01*
X126406111Y-93557700D01*
X126571505Y-93489191D01*
X126698092Y-93362604D01*
X126766600Y-93197210D01*
X126766600Y-92658185D01*
X128889312Y-92658185D01*
X129029058Y-93065166D01*
X129313911Y-93387689D01*
X129539520Y-93510400D01*
X129313911Y-93633111D01*
X129029058Y-93955634D01*
X128889312Y-94362615D01*
X128992149Y-94535400D01*
X129757200Y-94535400D01*
X129757200Y-93548875D01*
X129661727Y-93510400D01*
X129757200Y-93471925D01*
X129757200Y-92485400D01*
X128992149Y-92485400D01*
X128889312Y-92658185D01*
X126766600Y-92658185D01*
X126766600Y-92545200D01*
X126654100Y-92432700D01*
X125891600Y-92432700D01*
X125891600Y-92452700D01*
X125441600Y-92452700D01*
X125441600Y-92432700D01*
X124679100Y-92432700D01*
X124665027Y-92446773D01*
X124656651Y-92432700D01*
X123891600Y-92432700D01*
X123891600Y-92452700D01*
X123441600Y-92452700D01*
X123441600Y-92432700D01*
X122676549Y-92432700D01*
X122666600Y-92449416D01*
X122656651Y-92432700D01*
X121891600Y-92432700D01*
X121891600Y-92452700D01*
X121441600Y-92452700D01*
X121441600Y-92432700D01*
X120676549Y-92432700D01*
X120666600Y-92449416D01*
X120656651Y-92432700D01*
X119891600Y-92432700D01*
X119891600Y-92452700D01*
X119441600Y-92452700D01*
X119441600Y-92432700D01*
X118676549Y-92432700D01*
X118666600Y-92449416D01*
X118656651Y-92432700D01*
X117891600Y-92432700D01*
X117891600Y-93419225D01*
X117987073Y-93457700D01*
X117891600Y-93496175D01*
X117891600Y-94482700D01*
X117911600Y-94482700D01*
X117911600Y-94932700D01*
X117891600Y-94932700D01*
X117891600Y-95919225D01*
X118057270Y-95985989D01*
X118334889Y-95834989D01*
X118619742Y-95512466D01*
X118654478Y-95411304D01*
X118888783Y-95761965D01*
X119058903Y-95875636D01*
X118967460Y-95892842D01*
X118814301Y-95991397D01*
X118711552Y-96141775D01*
X118675404Y-96320280D01*
X118675404Y-97219440D01*
X118706782Y-97386200D01*
X118795010Y-97523310D01*
X118711552Y-97645455D01*
X118675404Y-97823960D01*
X118675404Y-98723120D01*
X118706782Y-98889880D01*
X118805337Y-99043039D01*
X118955715Y-99145788D01*
X119059600Y-99166825D01*
X119059600Y-99367227D01*
X118291828Y-100135000D01*
X115460000Y-100135000D01*
X115239957Y-100178769D01*
X115053413Y-100303414D01*
X112373414Y-102983414D01*
X112248769Y-103169957D01*
X112205000Y-103390000D01*
X112205000Y-103781828D01*
X111406796Y-104580032D01*
X111201666Y-104579853D01*
X110889143Y-104708985D01*
X110649826Y-104947885D01*
X110520148Y-105260183D01*
X110519853Y-105598334D01*
X110648985Y-105910857D01*
X110887885Y-106150174D01*
X111200183Y-106279852D01*
X111538334Y-106280147D01*
X111850857Y-106151015D01*
X112090174Y-105912115D01*
X112219852Y-105599817D01*
X112220032Y-105393140D01*
X112416396Y-105196776D01*
X112508985Y-105420857D01*
X112747885Y-105660174D01*
X113060183Y-105789852D01*
X113398334Y-105790147D01*
X113449862Y-105768856D01*
X113578985Y-106081357D01*
X113817885Y-106320674D01*
X114130183Y-106450352D01*
X114468334Y-106450647D01*
X114780857Y-106321515D01*
X115020174Y-106082615D01*
X115149852Y-105770317D01*
X115150147Y-105432166D01*
X115021015Y-105119643D01*
X114782115Y-104880326D01*
X114469817Y-104750648D01*
X114131666Y-104750353D01*
X114080138Y-104771644D01*
X113951015Y-104459143D01*
X113757402Y-104265192D01*
X113757402Y-103794852D01*
X115847255Y-101705000D01*
X118711907Y-101705000D01*
X118695000Y-101790000D01*
X118695000Y-104870313D01*
X118406817Y-104750648D01*
X118068666Y-104750353D01*
X117756143Y-104879485D01*
X117516826Y-105118385D01*
X117387148Y-105430683D01*
X117386853Y-105768834D01*
X117515985Y-106081357D01*
X117754885Y-106320674D01*
X118067183Y-106450352D01*
X118405334Y-106450647D01*
X118695000Y-106330959D01*
X118695000Y-108400000D01*
X118716846Y-108509826D01*
X118738769Y-108620043D01*
X118863414Y-108806586D01*
X119280032Y-109223204D01*
X119279853Y-109428334D01*
X119408985Y-109740857D01*
X119647885Y-109980174D01*
X119960183Y-110109852D01*
X120298334Y-110110147D01*
X120610857Y-109981015D01*
X120850174Y-109742115D01*
X120871089Y-109691747D01*
X120878985Y-109710857D01*
X121117885Y-109950174D01*
X121430183Y-110079852D01*
X121768334Y-110080147D01*
X122080857Y-109951015D01*
X122227127Y-109805000D01*
X124580109Y-109805000D01*
X124579900Y-110045000D01*
X122730000Y-110045000D01*
X122509957Y-110088769D01*
X122433254Y-110140020D01*
X122241666Y-110139853D01*
X121929143Y-110268985D01*
X121689826Y-110507885D01*
X121560148Y-110820183D01*
X121559853Y-111158334D01*
X121688985Y-111470857D01*
X121927885Y-111710174D01*
X122240183Y-111839852D01*
X122578334Y-111840147D01*
X122749024Y-111769619D01*
X122713414Y-111793413D01*
X120003414Y-114503414D01*
X119878769Y-114689957D01*
X119835000Y-114910000D01*
X119835000Y-118376242D01*
X119786400Y-118366400D01*
X119631600Y-118366400D01*
X119631600Y-112115600D01*
X119621342Y-112061081D01*
X119589121Y-112011009D01*
X119539958Y-111977418D01*
X119481600Y-111965600D01*
X112776000Y-111965600D01*
X112721481Y-111975858D01*
X112671409Y-112008079D01*
X112637818Y-112057242D01*
X112626000Y-112115600D01*
X112626000Y-118872000D01*
X112636258Y-118926519D01*
X112668479Y-118976591D01*
X112717642Y-119010182D01*
X112776000Y-119022000D01*
X119424828Y-119022000D01*
X119291828Y-119155000D01*
X110877193Y-119155000D01*
X110822115Y-119099826D01*
X110509817Y-118970148D01*
X110171666Y-118969853D01*
X109859143Y-119098985D01*
X109619826Y-119337885D01*
X109591800Y-119405379D01*
X109591800Y-117179772D01*
X109714612Y-117056960D01*
X110015383Y-117181852D01*
X110353534Y-117182147D01*
X110666057Y-117053015D01*
X110905374Y-116814115D01*
X111035052Y-116501817D01*
X111035347Y-116163666D01*
X110906215Y-115851143D01*
X110667315Y-115611826D01*
X110566726Y-115570058D01*
X110666057Y-115529015D01*
X110905374Y-115290115D01*
X111035052Y-114977817D01*
X111035347Y-114639666D01*
X110906215Y-114327143D01*
X110667315Y-114087826D01*
X110355017Y-113958148D01*
X110016866Y-113957853D01*
X109704343Y-114086985D01*
X109558073Y-114233000D01*
X109270800Y-114233000D01*
X109050757Y-114276769D01*
X108864214Y-114401413D01*
X108102214Y-115163414D01*
X107977569Y-115349957D01*
X107933800Y-115570000D01*
X107933800Y-121377028D01*
X107712588Y-121598240D01*
X107517715Y-121403026D01*
X107205417Y-121273348D01*
X106867266Y-121273053D01*
X106554743Y-121402185D01*
X106315426Y-121641085D01*
X106185748Y-121953383D01*
X106185453Y-122291534D01*
X106314585Y-122604057D01*
X106510507Y-122800321D01*
X106493366Y-122817462D01*
X106273115Y-122596826D01*
X105960817Y-122467148D01*
X105622666Y-122466853D01*
X105310143Y-122595985D01*
X105070826Y-122834885D01*
X104941148Y-123147183D01*
X104940853Y-123485334D01*
X105069985Y-123797857D01*
X105308885Y-124037174D01*
X105521801Y-124125585D01*
X105474548Y-124239383D01*
X105474253Y-124577534D01*
X105603385Y-124890057D01*
X105842285Y-125129374D01*
X106154583Y-125259052D01*
X106451637Y-125259311D01*
X106466985Y-125296457D01*
X106705885Y-125535774D01*
X107018183Y-125665452D01*
X107356334Y-125665747D01*
X107668857Y-125536615D01*
X107908174Y-125297715D01*
X108037852Y-124985417D01*
X108037853Y-124983934D01*
X112789453Y-124983934D01*
X112918585Y-125296457D01*
X113157485Y-125535774D01*
X113469783Y-125665452D01*
X113807934Y-125665747D01*
X114120457Y-125536615D01*
X114359774Y-125297715D01*
X114489452Y-124985417D01*
X114489747Y-124647266D01*
X114360615Y-124334743D01*
X114121715Y-124095426D01*
X113809417Y-123965748D01*
X113471266Y-123965453D01*
X113158743Y-124094585D01*
X112919426Y-124333485D01*
X112789748Y-124645783D01*
X112789453Y-124983934D01*
X108037853Y-124983934D01*
X108038147Y-124647266D01*
X107909015Y-124334743D01*
X107763000Y-124188473D01*
X107763000Y-123986972D01*
X109423387Y-122326586D01*
X109548031Y-122140043D01*
X109591800Y-121920000D01*
X109591800Y-121320863D01*
X109628985Y-121410857D01*
X109867885Y-121650174D01*
X110180183Y-121779852D01*
X110518334Y-121780147D01*
X110830857Y-121651015D01*
X111070174Y-121412115D01*
X111199852Y-121099817D01*
X111200032Y-120893140D01*
X111318172Y-120775000D01*
X112233998Y-120775000D01*
X112079143Y-120838985D01*
X111839826Y-121077885D01*
X111710148Y-121390183D01*
X111709853Y-121728334D01*
X111838985Y-122040857D01*
X112077885Y-122280174D01*
X112390183Y-122409852D01*
X112728334Y-122410147D01*
X113040857Y-122281015D01*
X113280174Y-122042115D01*
X113409852Y-121729817D01*
X113410147Y-121391666D01*
X113281015Y-121079143D01*
X113042115Y-120839826D01*
X112885997Y-120775000D01*
X114141293Y-120775000D01*
X114037026Y-120879085D01*
X113907348Y-121191383D01*
X113907053Y-121529534D01*
X114036185Y-121842057D01*
X114182200Y-121988327D01*
X114182200Y-123240800D01*
X114225969Y-123460843D01*
X114350614Y-123647386D01*
X117398614Y-126695386D01*
X117585157Y-126820031D01*
X117805200Y-126863800D01*
X122644919Y-126863800D01*
X122644653Y-127168334D01*
X122773785Y-127480857D01*
X123012685Y-127720174D01*
X123324983Y-127849852D01*
X123663134Y-127850147D01*
X123975657Y-127721015D01*
X124214974Y-127482115D01*
X124344652Y-127169817D01*
X124344919Y-126863800D01*
X125628400Y-126863800D01*
X125848443Y-126820031D01*
X126034986Y-126695386D01*
X126476173Y-126254200D01*
X128206758Y-126254200D01*
X128041214Y-126364814D01*
X125136228Y-129269800D01*
X115608529Y-129269800D01*
X115657852Y-129151017D01*
X115658147Y-128812866D01*
X115529015Y-128500343D01*
X115290115Y-128261026D01*
X114977817Y-128131348D01*
X114639666Y-128131053D01*
X114327143Y-128260185D01*
X114087826Y-128499085D01*
X113958148Y-128811383D01*
X113957853Y-129149534D01*
X114007546Y-129269800D01*
X107273773Y-129269800D01*
X106188307Y-128184334D01*
X107811053Y-128184334D01*
X107940185Y-128496857D01*
X108179085Y-128736174D01*
X108491383Y-128865852D01*
X108829534Y-128866147D01*
X109142057Y-128737015D01*
X109381374Y-128498115D01*
X109511052Y-128185817D01*
X109511347Y-127847666D01*
X109382215Y-127535143D01*
X109143315Y-127295826D01*
X109009821Y-127240394D01*
X109185134Y-127240547D01*
X109497657Y-127111415D01*
X109736974Y-126872515D01*
X109866652Y-126560217D01*
X109866947Y-126222066D01*
X109737815Y-125909543D01*
X109498915Y-125670226D01*
X109186617Y-125540548D01*
X108848466Y-125540253D01*
X108535943Y-125669385D01*
X108296626Y-125908285D01*
X108166948Y-126220583D01*
X108166653Y-126558734D01*
X108295785Y-126871257D01*
X108534685Y-127110574D01*
X108668179Y-127166006D01*
X108492866Y-127165853D01*
X108180343Y-127294985D01*
X107941026Y-127533885D01*
X107811348Y-127846183D01*
X107811053Y-128184334D01*
X106188307Y-128184334D01*
X101148840Y-123144868D01*
X101148840Y-117419997D01*
X101190180Y-117412218D01*
X101343339Y-117313663D01*
X101446088Y-117163285D01*
X101482236Y-116984780D01*
X101482236Y-116576534D01*
X102197653Y-116576534D01*
X102326785Y-116889057D01*
X102565685Y-117128374D01*
X102877983Y-117258052D01*
X103216134Y-117258347D01*
X103449259Y-117162022D01*
X103442548Y-117178183D01*
X103442253Y-117516334D01*
X103571385Y-117828857D01*
X103810285Y-118068174D01*
X104122583Y-118197852D01*
X104460734Y-118198147D01*
X104773257Y-118069015D01*
X105012574Y-117830115D01*
X105142252Y-117517817D01*
X105142308Y-117452834D01*
X105893353Y-117452834D01*
X106022485Y-117765357D01*
X106261385Y-118004674D01*
X106573683Y-118134352D01*
X106911834Y-118134647D01*
X107224357Y-118005515D01*
X107463674Y-117766615D01*
X107593352Y-117454317D01*
X107593647Y-117116166D01*
X107464515Y-116803643D01*
X107225615Y-116564326D01*
X106913317Y-116434648D01*
X106575166Y-116434353D01*
X106262643Y-116563485D01*
X106023326Y-116802385D01*
X105893648Y-117114683D01*
X105893353Y-117452834D01*
X105142308Y-117452834D01*
X105142547Y-117179666D01*
X105013415Y-116867143D01*
X104774515Y-116627826D01*
X104462217Y-116498148D01*
X104124066Y-116497853D01*
X103890941Y-116594178D01*
X103897652Y-116578017D01*
X103897947Y-116239866D01*
X103768815Y-115927343D01*
X103529915Y-115688026D01*
X103217617Y-115558348D01*
X102879466Y-115558053D01*
X102566943Y-115687185D01*
X102327626Y-115926085D01*
X102197948Y-116238383D01*
X102197653Y-116576534D01*
X101482236Y-116576534D01*
X101482236Y-115984020D01*
X101450858Y-115817260D01*
X101352303Y-115664101D01*
X101201925Y-115561352D01*
X101023420Y-115525204D01*
X100124260Y-115525204D01*
X99957500Y-115556582D01*
X99820390Y-115644810D01*
X99698245Y-115561352D01*
X99519740Y-115525204D01*
X98620580Y-115525204D01*
X98453820Y-115556582D01*
X98300661Y-115655137D01*
X98205370Y-115794600D01*
X98163865Y-115732483D01*
X97807000Y-115494033D01*
X97386048Y-115410300D01*
X96833152Y-115410300D01*
X96412200Y-115494033D01*
X96055335Y-115732483D01*
X95959600Y-115875760D01*
X95959600Y-115770789D01*
X95891091Y-115605395D01*
X95764504Y-115478808D01*
X95599110Y-115410300D01*
X94947100Y-115410300D01*
X94834600Y-115522800D01*
X94384600Y-115522800D01*
X94272100Y-115410300D01*
X93620090Y-115410300D01*
X93454696Y-115478808D01*
X93328109Y-115605395D01*
X93259600Y-115770789D01*
X92669500Y-115770789D01*
X92669500Y-110912334D01*
X94044253Y-110912334D01*
X94173385Y-111224857D01*
X94403474Y-111455348D01*
X94225026Y-111633485D01*
X94095348Y-111945783D01*
X94095053Y-112283934D01*
X94224185Y-112596457D01*
X94352719Y-112725215D01*
X94225026Y-112852685D01*
X94095348Y-113164983D01*
X94095053Y-113503134D01*
X94224185Y-113815657D01*
X94463085Y-114054974D01*
X94775383Y-114184652D01*
X95113534Y-114184947D01*
X95426057Y-114055815D01*
X95631148Y-113851082D01*
X95834685Y-114054974D01*
X96146983Y-114184652D01*
X96485134Y-114184947D01*
X96797657Y-114055815D01*
X96977304Y-113876482D01*
X97155485Y-114054974D01*
X97467783Y-114184652D01*
X97805934Y-114184947D01*
X98118457Y-114055815D01*
X98357774Y-113816915D01*
X98487452Y-113504617D01*
X98487747Y-113166466D01*
X98358615Y-112853943D01*
X98179326Y-112674341D01*
X98306974Y-112546915D01*
X98436652Y-112234617D01*
X98436947Y-111896466D01*
X98307815Y-111583943D01*
X98207881Y-111483834D01*
X105893353Y-111483834D01*
X106022485Y-111796357D01*
X106261385Y-112035674D01*
X106573683Y-112165352D01*
X106911834Y-112165647D01*
X107224357Y-112036515D01*
X107463674Y-111797615D01*
X107593352Y-111485317D01*
X107593647Y-111147166D01*
X107464515Y-110834643D01*
X107225615Y-110595326D01*
X106913317Y-110465648D01*
X106575166Y-110465353D01*
X106262643Y-110594485D01*
X106023326Y-110833385D01*
X105893648Y-111145683D01*
X105893353Y-111483834D01*
X98207881Y-111483834D01*
X98128482Y-111404296D01*
X98306974Y-111226115D01*
X98436652Y-110913817D01*
X98436947Y-110575666D01*
X98307815Y-110263143D01*
X98068915Y-110023826D01*
X97756617Y-109894148D01*
X97418466Y-109893853D01*
X97105943Y-110022985D01*
X96926296Y-110202318D01*
X96748115Y-110023826D01*
X96435817Y-109894148D01*
X96097666Y-109893853D01*
X95785143Y-110022985D01*
X95580052Y-110227718D01*
X95376515Y-110023826D01*
X95064217Y-109894148D01*
X94726066Y-109893853D01*
X94413543Y-110022985D01*
X94174226Y-110261885D01*
X94044548Y-110574183D01*
X94044253Y-110912334D01*
X92669500Y-110912334D01*
X92669500Y-105895834D01*
X106845853Y-105895834D01*
X106974985Y-106208357D01*
X107213885Y-106447674D01*
X107526183Y-106577352D01*
X107864334Y-106577647D01*
X108176857Y-106448515D01*
X108416174Y-106209615D01*
X108545852Y-105897317D01*
X108546147Y-105559166D01*
X108417015Y-105246643D01*
X108178115Y-105007326D01*
X107865817Y-104877648D01*
X107527666Y-104877353D01*
X107215143Y-105006485D01*
X106975826Y-105245385D01*
X106846148Y-105557683D01*
X106845853Y-105895834D01*
X92669500Y-105895834D01*
X92669500Y-105019534D01*
X94044253Y-105019534D01*
X94173385Y-105332057D01*
X94412285Y-105571374D01*
X94724583Y-105701052D01*
X95062734Y-105701347D01*
X95375257Y-105572215D01*
X95554948Y-105392837D01*
X95783885Y-105622174D01*
X96096183Y-105751852D01*
X96434334Y-105752147D01*
X96746857Y-105623015D01*
X96926504Y-105443682D01*
X97104685Y-105622174D01*
X97416983Y-105751852D01*
X97755134Y-105752147D01*
X98067657Y-105623015D01*
X98306974Y-105384115D01*
X98436652Y-105071817D01*
X98436947Y-104733666D01*
X98307815Y-104421143D01*
X98068915Y-104181826D01*
X97756617Y-104052148D01*
X97418466Y-104051853D01*
X97105943Y-104180985D01*
X96926296Y-104360318D01*
X96748115Y-104181826D01*
X96435817Y-104052148D01*
X96097666Y-104051853D01*
X95785143Y-104180985D01*
X95605452Y-104360363D01*
X95376515Y-104131026D01*
X95064217Y-104001348D01*
X94726066Y-104001053D01*
X94413543Y-104130185D01*
X94174226Y-104369085D01*
X94044548Y-104681383D01*
X94044253Y-105019534D01*
X92669500Y-105019534D01*
X92669500Y-99229667D01*
X96724706Y-99229667D01*
X96982970Y-99854715D01*
X97460770Y-100333350D01*
X98085366Y-100592704D01*
X98761667Y-100593294D01*
X99386715Y-100335030D01*
X99865350Y-99857230D01*
X100124704Y-99232634D01*
X100125294Y-98556333D01*
X99867030Y-97931285D01*
X99389230Y-97452650D01*
X98764634Y-97193296D01*
X98088333Y-97192706D01*
X97463285Y-97450970D01*
X96984650Y-97928770D01*
X96725296Y-98553366D01*
X96724706Y-99229667D01*
X92669500Y-99229667D01*
X92669500Y-95187085D01*
X97449113Y-95187085D01*
X97596838Y-95415660D01*
X98242574Y-95616678D01*
X98916084Y-95555283D01*
X99253162Y-95415660D01*
X99400887Y-95187085D01*
X98425000Y-94211198D01*
X97449113Y-95187085D01*
X92669500Y-95187085D01*
X92669500Y-93710574D01*
X96701322Y-93710574D01*
X96762717Y-94384084D01*
X96902340Y-94721162D01*
X97130915Y-94868887D01*
X98106802Y-93893000D01*
X98743198Y-93893000D01*
X99719085Y-94868887D01*
X99947660Y-94721162D01*
X100148678Y-94075426D01*
X100087283Y-93401916D01*
X99947660Y-93064838D01*
X99719085Y-92917113D01*
X98743198Y-93893000D01*
X98106802Y-93893000D01*
X97130915Y-92917113D01*
X96902340Y-93064838D01*
X96701322Y-93710574D01*
X92669500Y-93710574D01*
X92669500Y-92598915D01*
X97449113Y-92598915D01*
X98425000Y-93574802D01*
X99400887Y-92598915D01*
X99351653Y-92522734D01*
X110300253Y-92522734D01*
X110429385Y-92835257D01*
X110668285Y-93074574D01*
X110980583Y-93204252D01*
X111318734Y-93204547D01*
X111631257Y-93075415D01*
X111734571Y-92972281D01*
X111836685Y-93074574D01*
X112148983Y-93204252D01*
X112487134Y-93204547D01*
X112799657Y-93075415D01*
X112928415Y-92946881D01*
X112996318Y-93014904D01*
X112817826Y-93193085D01*
X112688148Y-93505383D01*
X112687853Y-93843534D01*
X112816985Y-94156057D01*
X112970919Y-94310259D01*
X112817826Y-94463085D01*
X112688148Y-94775383D01*
X112687853Y-95113534D01*
X112816985Y-95426057D01*
X112996318Y-95605704D01*
X112817826Y-95783885D01*
X112688148Y-96096183D01*
X112687853Y-96434334D01*
X112816985Y-96746857D01*
X112996318Y-96926504D01*
X112817826Y-97104685D01*
X112688148Y-97416983D01*
X112687853Y-97755134D01*
X112816985Y-98067657D01*
X113055885Y-98306974D01*
X113368183Y-98436652D01*
X113706334Y-98436947D01*
X114018857Y-98307815D01*
X114258174Y-98068915D01*
X114387852Y-97756617D01*
X114388147Y-97418466D01*
X114259015Y-97105943D01*
X114079682Y-96926296D01*
X114258174Y-96748115D01*
X114387852Y-96435817D01*
X114388147Y-96097666D01*
X114259015Y-95785143D01*
X114079682Y-95605496D01*
X114258174Y-95427315D01*
X114387852Y-95115017D01*
X114387860Y-95105485D01*
X116573712Y-95105485D01*
X116713458Y-95512466D01*
X116998311Y-95834989D01*
X117275930Y-95985989D01*
X117441600Y-95919225D01*
X117441600Y-94932700D01*
X116676549Y-94932700D01*
X116573712Y-95105485D01*
X114387860Y-95105485D01*
X114388147Y-94776866D01*
X114259015Y-94464343D01*
X114105081Y-94310141D01*
X114258174Y-94157315D01*
X114387852Y-93845017D01*
X114388147Y-93506866D01*
X114259015Y-93194343D01*
X114079682Y-93014696D01*
X114258174Y-92836515D01*
X114354106Y-92605485D01*
X116573712Y-92605485D01*
X116713458Y-93012466D01*
X116998311Y-93334989D01*
X117223920Y-93457700D01*
X116998311Y-93580411D01*
X116713458Y-93902934D01*
X116573712Y-94309915D01*
X116676549Y-94482700D01*
X117441600Y-94482700D01*
X117441600Y-93496175D01*
X117346127Y-93457700D01*
X117441600Y-93419225D01*
X117441600Y-92432700D01*
X116676549Y-92432700D01*
X116573712Y-92605485D01*
X114354106Y-92605485D01*
X114387852Y-92524217D01*
X114388147Y-92186066D01*
X114259015Y-91873543D01*
X114195498Y-91809915D01*
X116573712Y-91809915D01*
X116676549Y-91982700D01*
X117441600Y-91982700D01*
X117441600Y-90996175D01*
X117891600Y-90996175D01*
X117891600Y-91982700D01*
X118656651Y-91982700D01*
X118666600Y-91965984D01*
X118676549Y-91982700D01*
X119441600Y-91982700D01*
X119441600Y-90996175D01*
X119891600Y-90996175D01*
X119891600Y-91982700D01*
X120656651Y-91982700D01*
X120666600Y-91965984D01*
X120676549Y-91982700D01*
X121441600Y-91982700D01*
X121441600Y-90996175D01*
X121891600Y-90996175D01*
X121891600Y-91982700D01*
X122656651Y-91982700D01*
X122666600Y-91965984D01*
X122676549Y-91982700D01*
X123441600Y-91982700D01*
X123441600Y-90996175D01*
X123891600Y-90996175D01*
X123891600Y-91982700D01*
X124656651Y-91982700D01*
X124665027Y-91968627D01*
X124679100Y-91982700D01*
X125441600Y-91982700D01*
X125441600Y-90970200D01*
X125891600Y-90970200D01*
X125891600Y-91982700D01*
X126654100Y-91982700D01*
X126766600Y-91870200D01*
X126766600Y-91862615D01*
X128889312Y-91862615D01*
X128992149Y-92035400D01*
X129757200Y-92035400D01*
X129757200Y-91048875D01*
X130207200Y-91048875D01*
X130207200Y-92035400D01*
X130972251Y-92035400D01*
X130982200Y-92018684D01*
X130992149Y-92035400D01*
X131757200Y-92035400D01*
X131757200Y-91048875D01*
X132207200Y-91048875D01*
X132207200Y-92035400D01*
X132972251Y-92035400D01*
X132982200Y-92018684D01*
X132992149Y-92035400D01*
X133757200Y-92035400D01*
X133757200Y-91048875D01*
X134207200Y-91048875D01*
X134207200Y-92035400D01*
X134972251Y-92035400D01*
X134982200Y-92018684D01*
X134992149Y-92035400D01*
X135757200Y-92035400D01*
X135757200Y-91048875D01*
X136207200Y-91048875D01*
X136207200Y-92035400D01*
X136972251Y-92035400D01*
X136980627Y-92021327D01*
X136994700Y-92035400D01*
X137757200Y-92035400D01*
X137757200Y-91022900D01*
X138207200Y-91022900D01*
X138207200Y-92035400D01*
X138969700Y-92035400D01*
X139082200Y-91922900D01*
X139082200Y-91270890D01*
X139013692Y-91105496D01*
X138887105Y-90978909D01*
X138721711Y-90910400D01*
X138319700Y-90910400D01*
X138207200Y-91022900D01*
X137757200Y-91022900D01*
X137644700Y-90910400D01*
X137242689Y-90910400D01*
X137077295Y-90978909D01*
X136950708Y-91105496D01*
X136882200Y-91270890D01*
X136882200Y-91395464D01*
X136650489Y-91133111D01*
X136372870Y-90982111D01*
X136207200Y-91048875D01*
X135757200Y-91048875D01*
X135591530Y-90982111D01*
X135313911Y-91133111D01*
X135029058Y-91455634D01*
X134982200Y-91592098D01*
X134935342Y-91455634D01*
X134650489Y-91133111D01*
X134372870Y-90982111D01*
X134207200Y-91048875D01*
X133757200Y-91048875D01*
X133591530Y-90982111D01*
X133313911Y-91133111D01*
X133029058Y-91455634D01*
X132982200Y-91592098D01*
X132935342Y-91455634D01*
X132650489Y-91133111D01*
X132372870Y-90982111D01*
X132207200Y-91048875D01*
X131757200Y-91048875D01*
X131591530Y-90982111D01*
X131313911Y-91133111D01*
X131029058Y-91455634D01*
X130982200Y-91592098D01*
X130935342Y-91455634D01*
X130650489Y-91133111D01*
X130372870Y-90982111D01*
X130207200Y-91048875D01*
X129757200Y-91048875D01*
X129591530Y-90982111D01*
X129313911Y-91133111D01*
X129029058Y-91455634D01*
X128889312Y-91862615D01*
X126766600Y-91862615D01*
X126766600Y-91218190D01*
X126698092Y-91052796D01*
X126571505Y-90926209D01*
X126406111Y-90857700D01*
X126004100Y-90857700D01*
X125891600Y-90970200D01*
X125441600Y-90970200D01*
X125329100Y-90857700D01*
X124927089Y-90857700D01*
X124761695Y-90926209D01*
X124635108Y-91052796D01*
X124566600Y-91218190D01*
X124566600Y-91342764D01*
X124334889Y-91080411D01*
X124057270Y-90929411D01*
X123891600Y-90996175D01*
X123441600Y-90996175D01*
X123275930Y-90929411D01*
X122998311Y-91080411D01*
X122713458Y-91402934D01*
X122666600Y-91539398D01*
X122619742Y-91402934D01*
X122334889Y-91080411D01*
X122057270Y-90929411D01*
X121891600Y-90996175D01*
X121441600Y-90996175D01*
X121275930Y-90929411D01*
X120998311Y-91080411D01*
X120713458Y-91402934D01*
X120666600Y-91539398D01*
X120619742Y-91402934D01*
X120334889Y-91080411D01*
X120057270Y-90929411D01*
X119891600Y-90996175D01*
X119441600Y-90996175D01*
X119275930Y-90929411D01*
X118998311Y-91080411D01*
X118713458Y-91402934D01*
X118666600Y-91539398D01*
X118619742Y-91402934D01*
X118334889Y-91080411D01*
X118057270Y-90929411D01*
X117891600Y-90996175D01*
X117441600Y-90996175D01*
X117275930Y-90929411D01*
X116998311Y-91080411D01*
X116713458Y-91402934D01*
X116573712Y-91809915D01*
X114195498Y-91809915D01*
X114020115Y-91634226D01*
X113707817Y-91504548D01*
X113369666Y-91504253D01*
X113057143Y-91633385D01*
X112928385Y-91761919D01*
X112800915Y-91634226D01*
X112488617Y-91504548D01*
X112150466Y-91504253D01*
X111837943Y-91633385D01*
X111734629Y-91736519D01*
X111632515Y-91634226D01*
X111320217Y-91504548D01*
X110982066Y-91504253D01*
X110669543Y-91633385D01*
X110430226Y-91872285D01*
X110300548Y-92184583D01*
X110300253Y-92522734D01*
X99351653Y-92522734D01*
X99253162Y-92370340D01*
X98607426Y-92169322D01*
X97933916Y-92230717D01*
X97596838Y-92370340D01*
X97449113Y-92598915D01*
X92669500Y-92598915D01*
X92669500Y-90701000D01*
X141328000Y-90701000D01*
X141328000Y-139359500D01*
X141328000Y-139359500D01*
G37*
X141328000Y-139359500D02*
X92669500Y-139359500D01*
X92669500Y-136140470D01*
X93369411Y-136140470D01*
X93520411Y-136418089D01*
X93842934Y-136702942D01*
X94249915Y-136842688D01*
X94422700Y-136739851D01*
X94422700Y-135974800D01*
X94872700Y-135974800D01*
X94872700Y-136739851D01*
X95045485Y-136842688D01*
X95452466Y-136702942D01*
X95774989Y-136418089D01*
X95897700Y-136192480D01*
X96020411Y-136418089D01*
X96342934Y-136702942D01*
X96749915Y-136842688D01*
X96922700Y-136739851D01*
X96922700Y-135974800D01*
X97372700Y-135974800D01*
X97372700Y-136739851D01*
X97545485Y-136842688D01*
X97952466Y-136702942D01*
X98274989Y-136418089D01*
X98425989Y-136140470D01*
X98359225Y-135974800D01*
X97372700Y-135974800D01*
X96922700Y-135974800D01*
X95936175Y-135974800D01*
X95897700Y-136070273D01*
X95859225Y-135974800D01*
X94872700Y-135974800D01*
X94422700Y-135974800D01*
X93436175Y-135974800D01*
X93369411Y-136140470D01*
X92669500Y-136140470D01*
X92669500Y-134140470D01*
X93369411Y-134140470D01*
X93520411Y-134418089D01*
X93842934Y-134702942D01*
X93979398Y-134749800D01*
X93842934Y-134796658D01*
X93520411Y-135081511D01*
X93369411Y-135359130D01*
X93436175Y-135524800D01*
X94422700Y-135524800D01*
X94422700Y-134759749D01*
X94405984Y-134749800D01*
X94422700Y-134739851D01*
X94422700Y-133974800D01*
X93436175Y-133974800D01*
X93369411Y-134140470D01*
X92669500Y-134140470D01*
X92669500Y-132140470D01*
X93369411Y-132140470D01*
X93520411Y-132418089D01*
X93842934Y-132702942D01*
X93979398Y-132749800D01*
X93842934Y-132796658D01*
X93520411Y-133081511D01*
X93369411Y-133359130D01*
X93436175Y-133524800D01*
X94422700Y-133524800D01*
X94422700Y-132759749D01*
X94405984Y-132749800D01*
X94422700Y-132739851D01*
X94422700Y-131974800D01*
X93436175Y-131974800D01*
X93369411Y-132140470D01*
X92669500Y-132140470D01*
X92669500Y-130140470D01*
X93369411Y-130140470D01*
X93520411Y-130418089D01*
X93842934Y-130702942D01*
X93979398Y-130749800D01*
X93842934Y-130796658D01*
X93520411Y-131081511D01*
X93369411Y-131359130D01*
X93436175Y-131524800D01*
X94422700Y-131524800D01*
X94422700Y-130759749D01*
X94405984Y-130749800D01*
X94422700Y-130739851D01*
X94422700Y-129974800D01*
X93436175Y-129974800D01*
X93369411Y-130140470D01*
X92669500Y-130140470D01*
X92669500Y-128087300D01*
X93297700Y-128087300D01*
X93297700Y-128489311D01*
X93366209Y-128654705D01*
X93492796Y-128781292D01*
X93658190Y-128849800D01*
X93782764Y-128849800D01*
X93520411Y-129081511D01*
X93369411Y-129359130D01*
X93436175Y-129524800D01*
X94422700Y-129524800D01*
X94422700Y-128759749D01*
X94408627Y-128751373D01*
X94422700Y-128737300D01*
X94422700Y-127974800D01*
X93410200Y-127974800D01*
X93297700Y-128087300D01*
X92669500Y-128087300D01*
X92669500Y-127010289D01*
X93297700Y-127010289D01*
X93297700Y-127412300D01*
X93410200Y-127524800D01*
X94422700Y-127524800D01*
X94422700Y-126762300D01*
X94310200Y-126649800D01*
X93658190Y-126649800D01*
X93492796Y-126718308D01*
X93366209Y-126844895D01*
X93297700Y-127010289D01*
X92669500Y-127010289D01*
X92669500Y-124900970D01*
X93331311Y-124900970D01*
X93482311Y-125178589D01*
X93804834Y-125463442D01*
X94211815Y-125603188D01*
X94384600Y-125500351D01*
X94384600Y-124735300D01*
X94834600Y-124735300D01*
X94834600Y-125500351D01*
X95007385Y-125603188D01*
X95414366Y-125463442D01*
X95736889Y-125178589D01*
X95859600Y-124952980D01*
X95982311Y-125178589D01*
X96304834Y-125463442D01*
X96711815Y-125603188D01*
X96884600Y-125500351D01*
X96884600Y-124735300D01*
X95898075Y-124735300D01*
X95859600Y-124830773D01*
X95821125Y-124735300D01*
X94834600Y-124735300D01*
X94384600Y-124735300D01*
X93398075Y-124735300D01*
X93331311Y-124900970D01*
X92669500Y-124900970D01*
X92669500Y-122900970D01*
X93331311Y-122900970D01*
X93482311Y-123178589D01*
X93804834Y-123463442D01*
X93941298Y-123510300D01*
X93804834Y-123557158D01*
X93482311Y-123842011D01*
X93331311Y-124119630D01*
X93398075Y-124285300D01*
X94384600Y-124285300D01*
X94384600Y-123520249D01*
X94367884Y-123510300D01*
X94384600Y-123500351D01*
X94384600Y-122735300D01*
X93398075Y-122735300D01*
X93331311Y-122900970D01*
X92669500Y-122900970D01*
X92669500Y-120900970D01*
X93331311Y-120900970D01*
X93482311Y-121178589D01*
X93804834Y-121463442D01*
X93941298Y-121510300D01*
X93804834Y-121557158D01*
X93482311Y-121842011D01*
X93331311Y-122119630D01*
X93398075Y-122285300D01*
X94384600Y-122285300D01*
X94384600Y-121520249D01*
X94367884Y-121510300D01*
X94384600Y-121500351D01*
X94384600Y-120735300D01*
X93398075Y-120735300D01*
X93331311Y-120900970D01*
X92669500Y-120900970D01*
X92669500Y-118900970D01*
X93331311Y-118900970D01*
X93482311Y-119178589D01*
X93804834Y-119463442D01*
X93941298Y-119510300D01*
X93804834Y-119557158D01*
X93482311Y-119842011D01*
X93331311Y-120119630D01*
X93398075Y-120285300D01*
X94384600Y-120285300D01*
X94384600Y-119520249D01*
X94367884Y-119510300D01*
X94384600Y-119500351D01*
X94384600Y-118735300D01*
X93398075Y-118735300D01*
X93331311Y-118900970D01*
X92669500Y-118900970D01*
X92669500Y-116847800D01*
X93259600Y-116847800D01*
X93259600Y-117249811D01*
X93328109Y-117415205D01*
X93454696Y-117541792D01*
X93620090Y-117610300D01*
X93744664Y-117610300D01*
X93482311Y-117842011D01*
X93331311Y-118119630D01*
X93398075Y-118285300D01*
X94384600Y-118285300D01*
X94384600Y-117520249D01*
X94370527Y-117511873D01*
X94384600Y-117497800D01*
X94384600Y-116735300D01*
X93372100Y-116735300D01*
X93259600Y-116847800D01*
X92669500Y-116847800D01*
X92669500Y-115770789D01*
X93259600Y-115770789D01*
X93259600Y-116172800D01*
X93372100Y-116285300D01*
X94384600Y-116285300D01*
X94384600Y-115522800D01*
X94834600Y-115522800D01*
X94834600Y-116285300D01*
X94854600Y-116285300D01*
X94854600Y-116735300D01*
X94834600Y-116735300D01*
X94834600Y-117497800D01*
X94848673Y-117511873D01*
X94834600Y-117520249D01*
X94834600Y-118285300D01*
X94854600Y-118285300D01*
X94854600Y-118735300D01*
X94834600Y-118735300D01*
X94834600Y-119500351D01*
X94851316Y-119510300D01*
X94834600Y-119520249D01*
X94834600Y-120285300D01*
X94854600Y-120285300D01*
X94854600Y-120735300D01*
X94834600Y-120735300D01*
X94834600Y-121500351D01*
X94851316Y-121510300D01*
X94834600Y-121520249D01*
X94834600Y-122285300D01*
X94854600Y-122285300D01*
X94854600Y-122735300D01*
X94834600Y-122735300D01*
X94834600Y-123500351D01*
X94851316Y-123510300D01*
X94834600Y-123520249D01*
X94834600Y-124285300D01*
X95821125Y-124285300D01*
X95859600Y-124189827D01*
X95898075Y-124285300D01*
X96884600Y-124285300D01*
X96884600Y-124265300D01*
X97334600Y-124265300D01*
X97334600Y-124285300D01*
X97985248Y-124285300D01*
X98128183Y-124344652D01*
X98466334Y-124344947D01*
X98688200Y-124253274D01*
X98688200Y-124323428D01*
X98276328Y-124735300D01*
X97334600Y-124735300D01*
X97334600Y-125344278D01*
X97244948Y-125560183D01*
X97244653Y-125898334D01*
X97373785Y-126210857D01*
X97612685Y-126450174D01*
X97924983Y-126579852D01*
X98263134Y-126580147D01*
X98575657Y-126451015D01*
X98814974Y-126212115D01*
X98944652Y-125899817D01*
X98944832Y-125693140D01*
X99669786Y-124968186D01*
X99794431Y-124781643D01*
X99803649Y-124735300D01*
X99838200Y-124561600D01*
X99838200Y-122750236D01*
X99983374Y-122605315D01*
X99998840Y-122568069D01*
X99998840Y-123383040D01*
X100041280Y-123596400D01*
X100042609Y-123603083D01*
X100167254Y-123789626D01*
X103564627Y-127187000D01*
X101468195Y-127187000D01*
X101450858Y-127094860D01*
X101352303Y-126941701D01*
X101201925Y-126838952D01*
X101023420Y-126802804D01*
X100124260Y-126802804D01*
X99957500Y-126834182D01*
X99820390Y-126922410D01*
X99698245Y-126838952D01*
X99519740Y-126802804D01*
X98620580Y-126802804D01*
X98453820Y-126834182D01*
X98300661Y-126932737D01*
X98237504Y-127025171D01*
X98201965Y-126971983D01*
X97845100Y-126733533D01*
X97424148Y-126649800D01*
X96871252Y-126649800D01*
X96450300Y-126733533D01*
X96093435Y-126971983D01*
X95997700Y-127115260D01*
X95997700Y-127010289D01*
X95929191Y-126844895D01*
X95802604Y-126718308D01*
X95637210Y-126649800D01*
X94985200Y-126649800D01*
X94872700Y-126762300D01*
X94872700Y-127524800D01*
X94892700Y-127524800D01*
X94892700Y-127974800D01*
X94872700Y-127974800D01*
X94872700Y-128737300D01*
X94886773Y-128751373D01*
X94872700Y-128759749D01*
X94872700Y-129524800D01*
X94892700Y-129524800D01*
X94892700Y-129974800D01*
X94872700Y-129974800D01*
X94872700Y-130739851D01*
X94889416Y-130749800D01*
X94872700Y-130759749D01*
X94872700Y-131524800D01*
X94892700Y-131524800D01*
X94892700Y-131974800D01*
X94872700Y-131974800D01*
X94872700Y-132739851D01*
X94889416Y-132749800D01*
X94872700Y-132759749D01*
X94872700Y-133524800D01*
X94892700Y-133524800D01*
X94892700Y-133974800D01*
X94872700Y-133974800D01*
X94872700Y-134739851D01*
X94889416Y-134749800D01*
X94872700Y-134759749D01*
X94872700Y-135524800D01*
X95859225Y-135524800D01*
X95897700Y-135429327D01*
X95936175Y-135524800D01*
X96922700Y-135524800D01*
X96922700Y-135504800D01*
X97372700Y-135504800D01*
X97372700Y-135524800D01*
X98359225Y-135524800D01*
X98425989Y-135359130D01*
X98384328Y-135282533D01*
X101492708Y-135282533D01*
X101711138Y-135683792D01*
X102091264Y-135975230D01*
X102553983Y-136099016D01*
X102746600Y-135983917D01*
X102746600Y-135099000D01*
X103196600Y-135099000D01*
X103196600Y-135983917D01*
X103389217Y-136099016D01*
X103851936Y-135975230D01*
X104232062Y-135683792D01*
X104277057Y-135601134D01*
X121273053Y-135601134D01*
X121402185Y-135913657D01*
X121641085Y-136152974D01*
X121953383Y-136282652D01*
X122291534Y-136282947D01*
X122604057Y-136153815D01*
X122843374Y-135914915D01*
X122973052Y-135602617D01*
X122973347Y-135264466D01*
X122844215Y-134951943D01*
X122605315Y-134712626D01*
X122293017Y-134582948D01*
X121954866Y-134582653D01*
X121642343Y-134711785D01*
X121403026Y-134950685D01*
X121273348Y-135262983D01*
X121273053Y-135601134D01*
X104277057Y-135601134D01*
X104450492Y-135282533D01*
X104385652Y-135099000D01*
X103196600Y-135099000D01*
X102746600Y-135099000D01*
X101557548Y-135099000D01*
X101492708Y-135282533D01*
X98384328Y-135282533D01*
X98274989Y-135081511D01*
X97952466Y-134796658D01*
X97851304Y-134761922D01*
X98201965Y-134527617D01*
X98243492Y-134465467D01*
X101492708Y-134465467D01*
X101557548Y-134649000D01*
X102746600Y-134649000D01*
X102746600Y-133764083D01*
X103196600Y-133764083D01*
X103196600Y-134649000D01*
X104385652Y-134649000D01*
X104450492Y-134465467D01*
X104232062Y-134064208D01*
X103851936Y-133772770D01*
X103389217Y-133648984D01*
X103196600Y-133764083D01*
X102746600Y-133764083D01*
X102553983Y-133648984D01*
X102091264Y-133772770D01*
X101711138Y-134064208D01*
X101492708Y-134465467D01*
X98243492Y-134465467D01*
X98440415Y-134170752D01*
X98524148Y-133749800D01*
X98440415Y-133328848D01*
X98201965Y-132971983D01*
X97869445Y-132749800D01*
X98201965Y-132527617D01*
X98440415Y-132170752D01*
X98524148Y-131749800D01*
X98488782Y-131572000D01*
X101412964Y-131572000D01*
X101412964Y-133096000D01*
X101444342Y-133262760D01*
X101542897Y-133415919D01*
X101693275Y-133518668D01*
X101871780Y-133554816D01*
X104071420Y-133554816D01*
X104238180Y-133523438D01*
X104391339Y-133424883D01*
X104494088Y-133274505D01*
X104530236Y-133096000D01*
X104530236Y-132857934D01*
X109284253Y-132857934D01*
X109413385Y-133170457D01*
X109652285Y-133409774D01*
X109964583Y-133539452D01*
X110302734Y-133539747D01*
X110615257Y-133410615D01*
X110854574Y-133171715D01*
X110984252Y-132859417D01*
X110984474Y-132603934D01*
X128385053Y-132603934D01*
X128514185Y-132916457D01*
X128753085Y-133155774D01*
X129065383Y-133285452D01*
X129403534Y-133285747D01*
X129716057Y-133156615D01*
X129955374Y-132917715D01*
X130085052Y-132605417D01*
X130085347Y-132267266D01*
X129956215Y-131954743D01*
X129717315Y-131715426D01*
X129405017Y-131585748D01*
X129066866Y-131585453D01*
X128754343Y-131714585D01*
X128515026Y-131953485D01*
X128385348Y-132265783D01*
X128385053Y-132603934D01*
X110984474Y-132603934D01*
X110984547Y-132521266D01*
X110855415Y-132208743D01*
X110616515Y-131969426D01*
X110304217Y-131839748D01*
X109966066Y-131839453D01*
X109653543Y-131968585D01*
X109414226Y-132207485D01*
X109284548Y-132519783D01*
X109284253Y-132857934D01*
X104530236Y-132857934D01*
X104530236Y-131572000D01*
X104498858Y-131405240D01*
X104400303Y-131252081D01*
X104249925Y-131149332D01*
X104071420Y-131113184D01*
X101871780Y-131113184D01*
X101705020Y-131144562D01*
X101551861Y-131243117D01*
X101449112Y-131393495D01*
X101412964Y-131572000D01*
X98488782Y-131572000D01*
X98440415Y-131328848D01*
X98201965Y-130971983D01*
X97869445Y-130749800D01*
X98201965Y-130527617D01*
X98440415Y-130170752D01*
X98524148Y-129749800D01*
X98440415Y-129328848D01*
X98201965Y-128971983D01*
X97869445Y-128749800D01*
X98201965Y-128527617D01*
X98229751Y-128486032D01*
X98291697Y-128582299D01*
X98442075Y-128685048D01*
X98620580Y-128721196D01*
X99519740Y-128721196D01*
X99686500Y-128689818D01*
X99823610Y-128601590D01*
X99945755Y-128685048D01*
X100124260Y-128721196D01*
X101023420Y-128721196D01*
X101190180Y-128689818D01*
X101343339Y-128591263D01*
X101446088Y-128440885D01*
X101467125Y-128337000D01*
X104028828Y-128337000D01*
X106451213Y-130759386D01*
X106575883Y-130842688D01*
X106637757Y-130884031D01*
X106857800Y-130927800D01*
X114103672Y-130927800D01*
X113920743Y-131003385D01*
X113681426Y-131242285D01*
X113551748Y-131554583D01*
X113551453Y-131892734D01*
X113680585Y-132205257D01*
X113919485Y-132444574D01*
X114231783Y-132574252D01*
X114569934Y-132574547D01*
X114882457Y-132445415D01*
X115121774Y-132206515D01*
X115251452Y-131894217D01*
X115251747Y-131556066D01*
X115122615Y-131243543D01*
X114883715Y-131004226D01*
X114699662Y-130927800D01*
X125679200Y-130927800D01*
X125899243Y-130884031D01*
X126085786Y-130759386D01*
X128735923Y-128109249D01*
X128829285Y-128202774D01*
X129141583Y-128332452D01*
X129479734Y-128332747D01*
X129792257Y-128203615D01*
X130031574Y-127964715D01*
X130161252Y-127652417D01*
X130161279Y-127621410D01*
X130317934Y-127621547D01*
X130630457Y-127492415D01*
X130869774Y-127253515D01*
X130938548Y-127087891D01*
X131232334Y-127088147D01*
X131352600Y-127038454D01*
X131352600Y-132791200D01*
X131379564Y-132926757D01*
X131396369Y-133011243D01*
X131521014Y-133197786D01*
X131876613Y-133553386D01*
X132019685Y-133648984D01*
X132063157Y-133678031D01*
X132283200Y-133721800D01*
X133024605Y-133721800D01*
X133041942Y-133813940D01*
X133140497Y-133967099D01*
X133290875Y-134069848D01*
X133469380Y-134105996D01*
X134368540Y-134105996D01*
X134535300Y-134074618D01*
X134672410Y-133986390D01*
X134794555Y-134069848D01*
X134973060Y-134105996D01*
X135872220Y-134105996D01*
X136038980Y-134074618D01*
X136192139Y-133976063D01*
X136278849Y-133849158D01*
X136328935Y-133924117D01*
X136685800Y-134162567D01*
X137106752Y-134246300D01*
X137659648Y-134246300D01*
X138080600Y-134162567D01*
X138437465Y-133924117D01*
X138533200Y-133780840D01*
X138533200Y-133885811D01*
X138601709Y-134051205D01*
X138728296Y-134177792D01*
X138893690Y-134246300D01*
X139545700Y-134246300D01*
X139658200Y-134133800D01*
X139658200Y-133371300D01*
X140108200Y-133371300D01*
X140108200Y-134133800D01*
X140220700Y-134246300D01*
X140872710Y-134246300D01*
X141038104Y-134177792D01*
X141164691Y-134051205D01*
X141233200Y-133885811D01*
X141233200Y-133483800D01*
X141120700Y-133371300D01*
X140108200Y-133371300D01*
X139658200Y-133371300D01*
X139638200Y-133371300D01*
X139638200Y-132921300D01*
X139658200Y-132921300D01*
X139658200Y-132158800D01*
X139644127Y-132144727D01*
X139658200Y-132136351D01*
X139658200Y-131371300D01*
X140108200Y-131371300D01*
X140108200Y-132136351D01*
X140122273Y-132144727D01*
X140108200Y-132158800D01*
X140108200Y-132921300D01*
X141120700Y-132921300D01*
X141233200Y-132808800D01*
X141233200Y-132406789D01*
X141164691Y-132241395D01*
X141038104Y-132114808D01*
X140872710Y-132046300D01*
X140748136Y-132046300D01*
X141010489Y-131814589D01*
X141161489Y-131536970D01*
X141094725Y-131371300D01*
X140108200Y-131371300D01*
X139658200Y-131371300D01*
X139638200Y-131371300D01*
X139638200Y-130921300D01*
X139658200Y-130921300D01*
X139658200Y-130156249D01*
X139641484Y-130146300D01*
X139658200Y-130136351D01*
X139658200Y-129371300D01*
X140108200Y-129371300D01*
X140108200Y-130136351D01*
X140124916Y-130146300D01*
X140108200Y-130156249D01*
X140108200Y-130921300D01*
X141094725Y-130921300D01*
X141161489Y-130755630D01*
X141010489Y-130478011D01*
X140687966Y-130193158D01*
X140551502Y-130146300D01*
X140687966Y-130099442D01*
X141010489Y-129814589D01*
X141161489Y-129536970D01*
X141094725Y-129371300D01*
X140108200Y-129371300D01*
X139658200Y-129371300D01*
X139638200Y-129371300D01*
X139638200Y-128921300D01*
X139658200Y-128921300D01*
X139658200Y-128156249D01*
X139641484Y-128146300D01*
X139658200Y-128136351D01*
X139658200Y-127371300D01*
X140108200Y-127371300D01*
X140108200Y-128136351D01*
X140124916Y-128146300D01*
X140108200Y-128156249D01*
X140108200Y-128921300D01*
X141094725Y-128921300D01*
X141161489Y-128755630D01*
X141010489Y-128478011D01*
X140687966Y-128193158D01*
X140551502Y-128146300D01*
X140687966Y-128099442D01*
X141010489Y-127814589D01*
X141161489Y-127536970D01*
X141094725Y-127371300D01*
X140108200Y-127371300D01*
X139658200Y-127371300D01*
X139638200Y-127371300D01*
X139638200Y-126921300D01*
X139658200Y-126921300D01*
X139658200Y-126901300D01*
X140108200Y-126901300D01*
X140108200Y-126921300D01*
X141094725Y-126921300D01*
X141161489Y-126755630D01*
X141010489Y-126478011D01*
X140687966Y-126193158D01*
X140586804Y-126158422D01*
X140937465Y-125924117D01*
X141175915Y-125567252D01*
X141259648Y-125146300D01*
X141175915Y-124725348D01*
X140937465Y-124368483D01*
X140580600Y-124130033D01*
X140180439Y-124050436D01*
X140164431Y-123969957D01*
X140039786Y-123783414D01*
X139598586Y-123342214D01*
X139412043Y-123217569D01*
X139390234Y-123213231D01*
X139192000Y-123173800D01*
X136296400Y-123173800D01*
X136098166Y-123213231D01*
X136076357Y-123217569D01*
X135889813Y-123342214D01*
X134809196Y-124422832D01*
X134604066Y-124422653D01*
X134291543Y-124551785D01*
X134247812Y-124595439D01*
X132562972Y-122910600D01*
X132703604Y-122769968D01*
X132908734Y-122770147D01*
X133221257Y-122641015D01*
X133460574Y-122402115D01*
X133590252Y-122089817D01*
X133590547Y-121751666D01*
X133461415Y-121439143D01*
X133222515Y-121199826D01*
X132910217Y-121070148D01*
X132572066Y-121069853D01*
X132259543Y-121198985D01*
X132020226Y-121437885D01*
X131890548Y-121750183D01*
X131890368Y-121956860D01*
X131740228Y-122107000D01*
X129524172Y-122107000D01*
X129221568Y-121804396D01*
X129221708Y-121643876D01*
X129260183Y-121659852D01*
X129598334Y-121660147D01*
X129910857Y-121531015D01*
X130034998Y-121407090D01*
X130147885Y-121520174D01*
X130460183Y-121649852D01*
X130798334Y-121650147D01*
X131110857Y-121521015D01*
X131350174Y-121282115D01*
X131479852Y-120969817D01*
X131480032Y-120763140D01*
X133036586Y-119206586D01*
X133161231Y-119020043D01*
X133170469Y-118973600D01*
X133205000Y-118800000D01*
X133205000Y-117361600D01*
X137933984Y-117361600D01*
X137933984Y-119061600D01*
X137965362Y-119228360D01*
X138063917Y-119381519D01*
X138214295Y-119484268D01*
X138392800Y-119520416D01*
X140092800Y-119520416D01*
X140259560Y-119489038D01*
X140412719Y-119390483D01*
X140515468Y-119240105D01*
X140551616Y-119061600D01*
X140551616Y-117361600D01*
X140520238Y-117194840D01*
X140421683Y-117041681D01*
X140271305Y-116938932D01*
X140092800Y-116902784D01*
X139467802Y-116902784D01*
X139467802Y-116839502D01*
X139665329Y-116901039D01*
X140103652Y-116645759D01*
X140410918Y-116242172D01*
X140472220Y-116094126D01*
X140408789Y-115896600D01*
X139467800Y-115896600D01*
X139467800Y-115916600D01*
X139017800Y-115916600D01*
X139017800Y-115896600D01*
X138076811Y-115896600D01*
X138013380Y-116094126D01*
X138074682Y-116242172D01*
X138381948Y-116645759D01*
X138820271Y-116901039D01*
X139017798Y-116839502D01*
X139017798Y-116902784D01*
X138392800Y-116902784D01*
X138226040Y-116934162D01*
X138072881Y-117032717D01*
X137970132Y-117183095D01*
X137933984Y-117361600D01*
X133205000Y-117361600D01*
X133205000Y-115249074D01*
X138013380Y-115249074D01*
X138076811Y-115446600D01*
X139017800Y-115446600D01*
X139017800Y-114503699D01*
X139467800Y-114503699D01*
X139467800Y-115446600D01*
X140408789Y-115446600D01*
X140472220Y-115249074D01*
X140410918Y-115101028D01*
X140103652Y-114697441D01*
X139665329Y-114442161D01*
X139467800Y-114503699D01*
X139017800Y-114503699D01*
X138820271Y-114442161D01*
X138381948Y-114697441D01*
X138074682Y-115101028D01*
X138013380Y-115249074D01*
X133205000Y-115249074D01*
X133205000Y-104088172D01*
X135871984Y-101421189D01*
X135871984Y-102110800D01*
X135903362Y-102277560D01*
X136001917Y-102430719D01*
X136152295Y-102533468D01*
X136330800Y-102569616D01*
X136346200Y-102569616D01*
X136176535Y-102682983D01*
X135938085Y-103039848D01*
X135854352Y-103460800D01*
X135938085Y-103881752D01*
X136176535Y-104238617D01*
X136509055Y-104460800D01*
X136176535Y-104682983D01*
X135938085Y-105039848D01*
X135854352Y-105460800D01*
X135938085Y-105881752D01*
X136176535Y-106238617D01*
X136509055Y-106460800D01*
X136176535Y-106682983D01*
X135938085Y-107039848D01*
X135854352Y-107460800D01*
X135938085Y-107881752D01*
X136176535Y-108238617D01*
X136509055Y-108460800D01*
X136176535Y-108682983D01*
X135938085Y-109039848D01*
X135854352Y-109460800D01*
X135938085Y-109881752D01*
X136176535Y-110238617D01*
X136533400Y-110477067D01*
X136954352Y-110560800D01*
X137507248Y-110560800D01*
X137928200Y-110477067D01*
X138285065Y-110238617D01*
X138493453Y-109926743D01*
X138603511Y-110129089D01*
X138926034Y-110413942D01*
X139333015Y-110553688D01*
X139505800Y-110450851D01*
X139505800Y-109685800D01*
X139955800Y-109685800D01*
X139955800Y-110450851D01*
X140128585Y-110553688D01*
X140535566Y-110413942D01*
X140858089Y-110129089D01*
X141009089Y-109851470D01*
X140942325Y-109685800D01*
X139955800Y-109685800D01*
X139505800Y-109685800D01*
X139485800Y-109685800D01*
X139485800Y-109235800D01*
X139505800Y-109235800D01*
X139505800Y-109215800D01*
X139955800Y-109215800D01*
X139955800Y-109235800D01*
X140942325Y-109235800D01*
X141009089Y-109070130D01*
X140858089Y-108792511D01*
X140535566Y-108507658D01*
X140434404Y-108472922D01*
X140785065Y-108238617D01*
X141023515Y-107881752D01*
X141107248Y-107460800D01*
X141023515Y-107039848D01*
X140785065Y-106682983D01*
X140452545Y-106460800D01*
X140785065Y-106238617D01*
X141023515Y-105881752D01*
X141107248Y-105460800D01*
X141023515Y-105039848D01*
X140785065Y-104682983D01*
X140452545Y-104460800D01*
X140785065Y-104238617D01*
X141023515Y-103881752D01*
X141107248Y-103460800D01*
X141023515Y-103039848D01*
X140785065Y-102682983D01*
X140452545Y-102460800D01*
X140785065Y-102238617D01*
X141023515Y-101881752D01*
X141107248Y-101460800D01*
X141023515Y-101039848D01*
X140785065Y-100682983D01*
X140428200Y-100444533D01*
X140007248Y-100360800D01*
X139454352Y-100360800D01*
X139033400Y-100444533D01*
X138676535Y-100682983D01*
X138589616Y-100813066D01*
X138589616Y-100810800D01*
X138558238Y-100644040D01*
X138459683Y-100490881D01*
X138309305Y-100388132D01*
X138130800Y-100351984D01*
X138026257Y-100351984D01*
X138030043Y-100351231D01*
X138216586Y-100226586D01*
X138476587Y-99966586D01*
X138601231Y-99780043D01*
X138645000Y-99560000D01*
X138645000Y-99386195D01*
X138737140Y-99368858D01*
X138890299Y-99270303D01*
X138993048Y-99119925D01*
X139029196Y-98941420D01*
X139029196Y-98042260D01*
X138997818Y-97875500D01*
X138909590Y-97738390D01*
X138993048Y-97616245D01*
X139029196Y-97437740D01*
X139029196Y-96538580D01*
X138997818Y-96371820D01*
X138899263Y-96218661D01*
X138748885Y-96115912D01*
X138645000Y-96094875D01*
X138645000Y-95891517D01*
X138760017Y-95814665D01*
X138998467Y-95457800D01*
X139082200Y-95036848D01*
X139082200Y-94483952D01*
X138998467Y-94063000D01*
X138760017Y-93706135D01*
X138616740Y-93610400D01*
X138721711Y-93610400D01*
X138887105Y-93541891D01*
X139013692Y-93415304D01*
X139082200Y-93249910D01*
X139082200Y-92597900D01*
X138969700Y-92485400D01*
X138207200Y-92485400D01*
X138207200Y-92505400D01*
X137757200Y-92505400D01*
X137757200Y-92485400D01*
X136994700Y-92485400D01*
X136980627Y-92499473D01*
X136972251Y-92485400D01*
X136207200Y-92485400D01*
X136207200Y-92505400D01*
X135757200Y-92505400D01*
X135757200Y-92485400D01*
X134992149Y-92485400D01*
X134982200Y-92502116D01*
X134972251Y-92485400D01*
X134207200Y-92485400D01*
X134207200Y-92505400D01*
X133757200Y-92505400D01*
X133757200Y-92485400D01*
X132992149Y-92485400D01*
X132982200Y-92502116D01*
X132972251Y-92485400D01*
X132207200Y-92485400D01*
X132207200Y-92505400D01*
X131757200Y-92505400D01*
X131757200Y-92485400D01*
X130992149Y-92485400D01*
X130982200Y-92502116D01*
X130972251Y-92485400D01*
X130207200Y-92485400D01*
X130207200Y-93471925D01*
X130302673Y-93510400D01*
X130207200Y-93548875D01*
X130207200Y-94535400D01*
X130227200Y-94535400D01*
X130227200Y-94985400D01*
X130207200Y-94985400D01*
X130207200Y-95971925D01*
X130372870Y-96038689D01*
X130650489Y-95887689D01*
X130935342Y-95565166D01*
X130970078Y-95464004D01*
X131204383Y-95814665D01*
X131400600Y-95945773D01*
X131400600Y-96128635D01*
X131265301Y-96215697D01*
X131162552Y-96366075D01*
X131126404Y-96544580D01*
X131126404Y-97443740D01*
X131157782Y-97610500D01*
X131246010Y-97747610D01*
X131162552Y-97869755D01*
X131126404Y-98048260D01*
X131126404Y-98947420D01*
X131157782Y-99114180D01*
X131256337Y-99267339D01*
X131406715Y-99370088D01*
X131510600Y-99391125D01*
X131510600Y-102416227D01*
X125271828Y-108655000D01*
X122227036Y-108655000D01*
X122082115Y-108509826D01*
X121769817Y-108380148D01*
X121431666Y-108379853D01*
X121119143Y-108508985D01*
X120879826Y-108747885D01*
X120858911Y-108798253D01*
X120851015Y-108779143D01*
X120612115Y-108539826D01*
X120299817Y-108410148D01*
X120093140Y-108409968D01*
X119845000Y-108161828D01*
X119845000Y-106848334D01*
X125070353Y-106848334D01*
X125199485Y-107160857D01*
X125438385Y-107400174D01*
X125750683Y-107529852D01*
X126088834Y-107530147D01*
X126401357Y-107401015D01*
X126640674Y-107162115D01*
X126770352Y-106849817D01*
X126770647Y-106511666D01*
X126641515Y-106199143D01*
X126402615Y-105959826D01*
X126090317Y-105830148D01*
X125752166Y-105829853D01*
X125439643Y-105958985D01*
X125200326Y-106197885D01*
X125070648Y-106510183D01*
X125070353Y-106848334D01*
X119845000Y-106848334D01*
X119845000Y-106281306D01*
X120099183Y-106386852D01*
X120437334Y-106387147D01*
X120749857Y-106258015D01*
X120989174Y-106019115D01*
X121118852Y-105706817D01*
X121119147Y-105368666D01*
X120990015Y-105056143D01*
X120751115Y-104816826D01*
X120438817Y-104687148D01*
X120100666Y-104686853D01*
X119845000Y-104792492D01*
X119845000Y-102125000D01*
X121480000Y-102125000D01*
X121700043Y-102081231D01*
X121886586Y-101956586D01*
X124105186Y-99737987D01*
X124229831Y-99551443D01*
X124249341Y-99453357D01*
X124273600Y-99331400D01*
X124273600Y-99167895D01*
X124365740Y-99150558D01*
X124518899Y-99052003D01*
X124621648Y-98901625D01*
X124657796Y-98723120D01*
X124657796Y-97823960D01*
X124626418Y-97657200D01*
X124538190Y-97520090D01*
X124621648Y-97397945D01*
X124657796Y-97219440D01*
X124657796Y-96320280D01*
X124626418Y-96153520D01*
X124527863Y-96000361D01*
X124377485Y-95897612D01*
X124273600Y-95876575D01*
X124273600Y-95876101D01*
X124444417Y-95761965D01*
X124666600Y-95429445D01*
X124888783Y-95761965D01*
X125080077Y-95889784D01*
X125072860Y-95891142D01*
X124919701Y-95989697D01*
X124816952Y-96140075D01*
X124780804Y-96318580D01*
X124780804Y-97217740D01*
X124812182Y-97384500D01*
X124900410Y-97521610D01*
X124816952Y-97643755D01*
X124780804Y-97822260D01*
X124780804Y-98721420D01*
X124812182Y-98888180D01*
X124910737Y-99041339D01*
X125061115Y-99144088D01*
X125165000Y-99165125D01*
X125165000Y-100870000D01*
X125194592Y-101018769D01*
X125208769Y-101090043D01*
X125333414Y-101276586D01*
X126263414Y-102206587D01*
X126434991Y-102321231D01*
X126449957Y-102331231D01*
X126670000Y-102375000D01*
X127491828Y-102375000D01*
X127920032Y-102803204D01*
X127919853Y-103008334D01*
X128048985Y-103320857D01*
X128287885Y-103560174D01*
X128600183Y-103689852D01*
X128938334Y-103690147D01*
X129250857Y-103561015D01*
X129490174Y-103322115D01*
X129619852Y-103009817D01*
X129620147Y-102671666D01*
X129491015Y-102359143D01*
X129252115Y-102119826D01*
X128939817Y-101990148D01*
X128733140Y-101989968D01*
X128136586Y-101393414D01*
X127950043Y-101268769D01*
X127730000Y-101225000D01*
X126908173Y-101225000D01*
X126315000Y-100631828D01*
X126315000Y-99166195D01*
X126407140Y-99148858D01*
X126560299Y-99050303D01*
X126663048Y-98899925D01*
X126699196Y-98721420D01*
X126699196Y-97822260D01*
X126667818Y-97655500D01*
X126579590Y-97518390D01*
X126663048Y-97396245D01*
X126699196Y-97217740D01*
X126699196Y-96318580D01*
X126667818Y-96151820D01*
X126569263Y-95998661D01*
X126418885Y-95895912D01*
X126315000Y-95874875D01*
X126315000Y-95848439D01*
X126444417Y-95761965D01*
X126682867Y-95405100D01*
X126731981Y-95158185D01*
X128889312Y-95158185D01*
X129029058Y-95565166D01*
X129313911Y-95887689D01*
X129591530Y-96038689D01*
X129757200Y-95971925D01*
X129757200Y-94985400D01*
X128992149Y-94985400D01*
X128889312Y-95158185D01*
X126731981Y-95158185D01*
X126766600Y-94984148D01*
X126766600Y-94431252D01*
X126682867Y-94010300D01*
X126444417Y-93653435D01*
X126301140Y-93557700D01*
X126406111Y-93557700D01*
X126571505Y-93489191D01*
X126698092Y-93362604D01*
X126766600Y-93197210D01*
X126766600Y-92658185D01*
X128889312Y-92658185D01*
X129029058Y-93065166D01*
X129313911Y-93387689D01*
X129539520Y-93510400D01*
X129313911Y-93633111D01*
X129029058Y-93955634D01*
X128889312Y-94362615D01*
X128992149Y-94535400D01*
X129757200Y-94535400D01*
X129757200Y-93548875D01*
X129661727Y-93510400D01*
X129757200Y-93471925D01*
X129757200Y-92485400D01*
X128992149Y-92485400D01*
X128889312Y-92658185D01*
X126766600Y-92658185D01*
X126766600Y-92545200D01*
X126654100Y-92432700D01*
X125891600Y-92432700D01*
X125891600Y-92452700D01*
X125441600Y-92452700D01*
X125441600Y-92432700D01*
X124679100Y-92432700D01*
X124665027Y-92446773D01*
X124656651Y-92432700D01*
X123891600Y-92432700D01*
X123891600Y-92452700D01*
X123441600Y-92452700D01*
X123441600Y-92432700D01*
X122676549Y-92432700D01*
X122666600Y-92449416D01*
X122656651Y-92432700D01*
X121891600Y-92432700D01*
X121891600Y-92452700D01*
X121441600Y-92452700D01*
X121441600Y-92432700D01*
X120676549Y-92432700D01*
X120666600Y-92449416D01*
X120656651Y-92432700D01*
X119891600Y-92432700D01*
X119891600Y-92452700D01*
X119441600Y-92452700D01*
X119441600Y-92432700D01*
X118676549Y-92432700D01*
X118666600Y-92449416D01*
X118656651Y-92432700D01*
X117891600Y-92432700D01*
X117891600Y-93419225D01*
X117987073Y-93457700D01*
X117891600Y-93496175D01*
X117891600Y-94482700D01*
X117911600Y-94482700D01*
X117911600Y-94932700D01*
X117891600Y-94932700D01*
X117891600Y-95919225D01*
X118057270Y-95985989D01*
X118334889Y-95834989D01*
X118619742Y-95512466D01*
X118654478Y-95411304D01*
X118888783Y-95761965D01*
X119058903Y-95875636D01*
X118967460Y-95892842D01*
X118814301Y-95991397D01*
X118711552Y-96141775D01*
X118675404Y-96320280D01*
X118675404Y-97219440D01*
X118706782Y-97386200D01*
X118795010Y-97523310D01*
X118711552Y-97645455D01*
X118675404Y-97823960D01*
X118675404Y-98723120D01*
X118706782Y-98889880D01*
X118805337Y-99043039D01*
X118955715Y-99145788D01*
X119059600Y-99166825D01*
X119059600Y-99367227D01*
X118291828Y-100135000D01*
X115460000Y-100135000D01*
X115239957Y-100178769D01*
X115053413Y-100303414D01*
X112373414Y-102983414D01*
X112248769Y-103169957D01*
X112205000Y-103390000D01*
X112205000Y-103781828D01*
X111406796Y-104580032D01*
X111201666Y-104579853D01*
X110889143Y-104708985D01*
X110649826Y-104947885D01*
X110520148Y-105260183D01*
X110519853Y-105598334D01*
X110648985Y-105910857D01*
X110887885Y-106150174D01*
X111200183Y-106279852D01*
X111538334Y-106280147D01*
X111850857Y-106151015D01*
X112090174Y-105912115D01*
X112219852Y-105599817D01*
X112220032Y-105393140D01*
X112416396Y-105196776D01*
X112508985Y-105420857D01*
X112747885Y-105660174D01*
X113060183Y-105789852D01*
X113398334Y-105790147D01*
X113449862Y-105768856D01*
X113578985Y-106081357D01*
X113817885Y-106320674D01*
X114130183Y-106450352D01*
X114468334Y-106450647D01*
X114780857Y-106321515D01*
X115020174Y-106082615D01*
X115149852Y-105770317D01*
X115150147Y-105432166D01*
X115021015Y-105119643D01*
X114782115Y-104880326D01*
X114469817Y-104750648D01*
X114131666Y-104750353D01*
X114080138Y-104771644D01*
X113951015Y-104459143D01*
X113757402Y-104265192D01*
X113757402Y-103794852D01*
X115847255Y-101705000D01*
X118711907Y-101705000D01*
X118695000Y-101790000D01*
X118695000Y-104870313D01*
X118406817Y-104750648D01*
X118068666Y-104750353D01*
X117756143Y-104879485D01*
X117516826Y-105118385D01*
X117387148Y-105430683D01*
X117386853Y-105768834D01*
X117515985Y-106081357D01*
X117754885Y-106320674D01*
X118067183Y-106450352D01*
X118405334Y-106450647D01*
X118695000Y-106330959D01*
X118695000Y-108400000D01*
X118716846Y-108509826D01*
X118738769Y-108620043D01*
X118863414Y-108806586D01*
X119280032Y-109223204D01*
X119279853Y-109428334D01*
X119408985Y-109740857D01*
X119647885Y-109980174D01*
X119960183Y-110109852D01*
X120298334Y-110110147D01*
X120610857Y-109981015D01*
X120850174Y-109742115D01*
X120871089Y-109691747D01*
X120878985Y-109710857D01*
X121117885Y-109950174D01*
X121430183Y-110079852D01*
X121768334Y-110080147D01*
X122080857Y-109951015D01*
X122227127Y-109805000D01*
X124580109Y-109805000D01*
X124579900Y-110045000D01*
X122730000Y-110045000D01*
X122509957Y-110088769D01*
X122433254Y-110140020D01*
X122241666Y-110139853D01*
X121929143Y-110268985D01*
X121689826Y-110507885D01*
X121560148Y-110820183D01*
X121559853Y-111158334D01*
X121688985Y-111470857D01*
X121927885Y-111710174D01*
X122240183Y-111839852D01*
X122578334Y-111840147D01*
X122749024Y-111769619D01*
X122713414Y-111793413D01*
X120003414Y-114503414D01*
X119878769Y-114689957D01*
X119835000Y-114910000D01*
X119835000Y-118376242D01*
X119786400Y-118366400D01*
X119631600Y-118366400D01*
X119631600Y-112115600D01*
X119621342Y-112061081D01*
X119589121Y-112011009D01*
X119539958Y-111977418D01*
X119481600Y-111965600D01*
X112776000Y-111965600D01*
X112721481Y-111975858D01*
X112671409Y-112008079D01*
X112637818Y-112057242D01*
X112626000Y-112115600D01*
X112626000Y-118872000D01*
X112636258Y-118926519D01*
X112668479Y-118976591D01*
X112717642Y-119010182D01*
X112776000Y-119022000D01*
X119424828Y-119022000D01*
X119291828Y-119155000D01*
X110877193Y-119155000D01*
X110822115Y-119099826D01*
X110509817Y-118970148D01*
X110171666Y-118969853D01*
X109859143Y-119098985D01*
X109619826Y-119337885D01*
X109591800Y-119405379D01*
X109591800Y-117179772D01*
X109714612Y-117056960D01*
X110015383Y-117181852D01*
X110353534Y-117182147D01*
X110666057Y-117053015D01*
X110905374Y-116814115D01*
X111035052Y-116501817D01*
X111035347Y-116163666D01*
X110906215Y-115851143D01*
X110667315Y-115611826D01*
X110566726Y-115570058D01*
X110666057Y-115529015D01*
X110905374Y-115290115D01*
X111035052Y-114977817D01*
X111035347Y-114639666D01*
X110906215Y-114327143D01*
X110667315Y-114087826D01*
X110355017Y-113958148D01*
X110016866Y-113957853D01*
X109704343Y-114086985D01*
X109558073Y-114233000D01*
X109270800Y-114233000D01*
X109050757Y-114276769D01*
X108864214Y-114401413D01*
X108102214Y-115163414D01*
X107977569Y-115349957D01*
X107933800Y-115570000D01*
X107933800Y-121377028D01*
X107712588Y-121598240D01*
X107517715Y-121403026D01*
X107205417Y-121273348D01*
X106867266Y-121273053D01*
X106554743Y-121402185D01*
X106315426Y-121641085D01*
X106185748Y-121953383D01*
X106185453Y-122291534D01*
X106314585Y-122604057D01*
X106510507Y-122800321D01*
X106493366Y-122817462D01*
X106273115Y-122596826D01*
X105960817Y-122467148D01*
X105622666Y-122466853D01*
X105310143Y-122595985D01*
X105070826Y-122834885D01*
X104941148Y-123147183D01*
X104940853Y-123485334D01*
X105069985Y-123797857D01*
X105308885Y-124037174D01*
X105521801Y-124125585D01*
X105474548Y-124239383D01*
X105474253Y-124577534D01*
X105603385Y-124890057D01*
X105842285Y-125129374D01*
X106154583Y-125259052D01*
X106451637Y-125259311D01*
X106466985Y-125296457D01*
X106705885Y-125535774D01*
X107018183Y-125665452D01*
X107356334Y-125665747D01*
X107668857Y-125536615D01*
X107908174Y-125297715D01*
X108037852Y-124985417D01*
X108037853Y-124983934D01*
X112789453Y-124983934D01*
X112918585Y-125296457D01*
X113157485Y-125535774D01*
X113469783Y-125665452D01*
X113807934Y-125665747D01*
X114120457Y-125536615D01*
X114359774Y-125297715D01*
X114489452Y-124985417D01*
X114489747Y-124647266D01*
X114360615Y-124334743D01*
X114121715Y-124095426D01*
X113809417Y-123965748D01*
X113471266Y-123965453D01*
X113158743Y-124094585D01*
X112919426Y-124333485D01*
X112789748Y-124645783D01*
X112789453Y-124983934D01*
X108037853Y-124983934D01*
X108038147Y-124647266D01*
X107909015Y-124334743D01*
X107763000Y-124188473D01*
X107763000Y-123986972D01*
X109423387Y-122326586D01*
X109548031Y-122140043D01*
X109591800Y-121920000D01*
X109591800Y-121320863D01*
X109628985Y-121410857D01*
X109867885Y-121650174D01*
X110180183Y-121779852D01*
X110518334Y-121780147D01*
X110830857Y-121651015D01*
X111070174Y-121412115D01*
X111199852Y-121099817D01*
X111200032Y-120893140D01*
X111318172Y-120775000D01*
X112233998Y-120775000D01*
X112079143Y-120838985D01*
X111839826Y-121077885D01*
X111710148Y-121390183D01*
X111709853Y-121728334D01*
X111838985Y-122040857D01*
X112077885Y-122280174D01*
X112390183Y-122409852D01*
X112728334Y-122410147D01*
X113040857Y-122281015D01*
X113280174Y-122042115D01*
X113409852Y-121729817D01*
X113410147Y-121391666D01*
X113281015Y-121079143D01*
X113042115Y-120839826D01*
X112885997Y-120775000D01*
X114141293Y-120775000D01*
X114037026Y-120879085D01*
X113907348Y-121191383D01*
X113907053Y-121529534D01*
X114036185Y-121842057D01*
X114182200Y-121988327D01*
X114182200Y-123240800D01*
X114225969Y-123460843D01*
X114350614Y-123647386D01*
X117398614Y-126695386D01*
X117585157Y-126820031D01*
X117805200Y-126863800D01*
X122644919Y-126863800D01*
X122644653Y-127168334D01*
X122773785Y-127480857D01*
X123012685Y-127720174D01*
X123324983Y-127849852D01*
X123663134Y-127850147D01*
X123975657Y-127721015D01*
X124214974Y-127482115D01*
X124344652Y-127169817D01*
X124344919Y-126863800D01*
X125628400Y-126863800D01*
X125848443Y-126820031D01*
X126034986Y-126695386D01*
X126476173Y-126254200D01*
X128206758Y-126254200D01*
X128041214Y-126364814D01*
X125136228Y-129269800D01*
X115608529Y-129269800D01*
X115657852Y-129151017D01*
X115658147Y-128812866D01*
X115529015Y-128500343D01*
X115290115Y-128261026D01*
X114977817Y-128131348D01*
X114639666Y-128131053D01*
X114327143Y-128260185D01*
X114087826Y-128499085D01*
X113958148Y-128811383D01*
X113957853Y-129149534D01*
X114007546Y-129269800D01*
X107273773Y-129269800D01*
X106188307Y-128184334D01*
X107811053Y-128184334D01*
X107940185Y-128496857D01*
X108179085Y-128736174D01*
X108491383Y-128865852D01*
X108829534Y-128866147D01*
X109142057Y-128737015D01*
X109381374Y-128498115D01*
X109511052Y-128185817D01*
X109511347Y-127847666D01*
X109382215Y-127535143D01*
X109143315Y-127295826D01*
X109009821Y-127240394D01*
X109185134Y-127240547D01*
X109497657Y-127111415D01*
X109736974Y-126872515D01*
X109866652Y-126560217D01*
X109866947Y-126222066D01*
X109737815Y-125909543D01*
X109498915Y-125670226D01*
X109186617Y-125540548D01*
X108848466Y-125540253D01*
X108535943Y-125669385D01*
X108296626Y-125908285D01*
X108166948Y-126220583D01*
X108166653Y-126558734D01*
X108295785Y-126871257D01*
X108534685Y-127110574D01*
X108668179Y-127166006D01*
X108492866Y-127165853D01*
X108180343Y-127294985D01*
X107941026Y-127533885D01*
X107811348Y-127846183D01*
X107811053Y-128184334D01*
X106188307Y-128184334D01*
X101148840Y-123144868D01*
X101148840Y-117419997D01*
X101190180Y-117412218D01*
X101343339Y-117313663D01*
X101446088Y-117163285D01*
X101482236Y-116984780D01*
X101482236Y-116576534D01*
X102197653Y-116576534D01*
X102326785Y-116889057D01*
X102565685Y-117128374D01*
X102877983Y-117258052D01*
X103216134Y-117258347D01*
X103449259Y-117162022D01*
X103442548Y-117178183D01*
X103442253Y-117516334D01*
X103571385Y-117828857D01*
X103810285Y-118068174D01*
X104122583Y-118197852D01*
X104460734Y-118198147D01*
X104773257Y-118069015D01*
X105012574Y-117830115D01*
X105142252Y-117517817D01*
X105142308Y-117452834D01*
X105893353Y-117452834D01*
X106022485Y-117765357D01*
X106261385Y-118004674D01*
X106573683Y-118134352D01*
X106911834Y-118134647D01*
X107224357Y-118005515D01*
X107463674Y-117766615D01*
X107593352Y-117454317D01*
X107593647Y-117116166D01*
X107464515Y-116803643D01*
X107225615Y-116564326D01*
X106913317Y-116434648D01*
X106575166Y-116434353D01*
X106262643Y-116563485D01*
X106023326Y-116802385D01*
X105893648Y-117114683D01*
X105893353Y-117452834D01*
X105142308Y-117452834D01*
X105142547Y-117179666D01*
X105013415Y-116867143D01*
X104774515Y-116627826D01*
X104462217Y-116498148D01*
X104124066Y-116497853D01*
X103890941Y-116594178D01*
X103897652Y-116578017D01*
X103897947Y-116239866D01*
X103768815Y-115927343D01*
X103529915Y-115688026D01*
X103217617Y-115558348D01*
X102879466Y-115558053D01*
X102566943Y-115687185D01*
X102327626Y-115926085D01*
X102197948Y-116238383D01*
X102197653Y-116576534D01*
X101482236Y-116576534D01*
X101482236Y-115984020D01*
X101450858Y-115817260D01*
X101352303Y-115664101D01*
X101201925Y-115561352D01*
X101023420Y-115525204D01*
X100124260Y-115525204D01*
X99957500Y-115556582D01*
X99820390Y-115644810D01*
X99698245Y-115561352D01*
X99519740Y-115525204D01*
X98620580Y-115525204D01*
X98453820Y-115556582D01*
X98300661Y-115655137D01*
X98205370Y-115794600D01*
X98163865Y-115732483D01*
X97807000Y-115494033D01*
X97386048Y-115410300D01*
X96833152Y-115410300D01*
X96412200Y-115494033D01*
X96055335Y-115732483D01*
X95959600Y-115875760D01*
X95959600Y-115770789D01*
X95891091Y-115605395D01*
X95764504Y-115478808D01*
X95599110Y-115410300D01*
X94947100Y-115410300D01*
X94834600Y-115522800D01*
X94384600Y-115522800D01*
X94272100Y-115410300D01*
X93620090Y-115410300D01*
X93454696Y-115478808D01*
X93328109Y-115605395D01*
X93259600Y-115770789D01*
X92669500Y-115770789D01*
X92669500Y-110912334D01*
X94044253Y-110912334D01*
X94173385Y-111224857D01*
X94403474Y-111455348D01*
X94225026Y-111633485D01*
X94095348Y-111945783D01*
X94095053Y-112283934D01*
X94224185Y-112596457D01*
X94352719Y-112725215D01*
X94225026Y-112852685D01*
X94095348Y-113164983D01*
X94095053Y-113503134D01*
X94224185Y-113815657D01*
X94463085Y-114054974D01*
X94775383Y-114184652D01*
X95113534Y-114184947D01*
X95426057Y-114055815D01*
X95631148Y-113851082D01*
X95834685Y-114054974D01*
X96146983Y-114184652D01*
X96485134Y-114184947D01*
X96797657Y-114055815D01*
X96977304Y-113876482D01*
X97155485Y-114054974D01*
X97467783Y-114184652D01*
X97805934Y-114184947D01*
X98118457Y-114055815D01*
X98357774Y-113816915D01*
X98487452Y-113504617D01*
X98487747Y-113166466D01*
X98358615Y-112853943D01*
X98179326Y-112674341D01*
X98306974Y-112546915D01*
X98436652Y-112234617D01*
X98436947Y-111896466D01*
X98307815Y-111583943D01*
X98207881Y-111483834D01*
X105893353Y-111483834D01*
X106022485Y-111796357D01*
X106261385Y-112035674D01*
X106573683Y-112165352D01*
X106911834Y-112165647D01*
X107224357Y-112036515D01*
X107463674Y-111797615D01*
X107593352Y-111485317D01*
X107593647Y-111147166D01*
X107464515Y-110834643D01*
X107225615Y-110595326D01*
X106913317Y-110465648D01*
X106575166Y-110465353D01*
X106262643Y-110594485D01*
X106023326Y-110833385D01*
X105893648Y-111145683D01*
X105893353Y-111483834D01*
X98207881Y-111483834D01*
X98128482Y-111404296D01*
X98306974Y-111226115D01*
X98436652Y-110913817D01*
X98436947Y-110575666D01*
X98307815Y-110263143D01*
X98068915Y-110023826D01*
X97756617Y-109894148D01*
X97418466Y-109893853D01*
X97105943Y-110022985D01*
X96926296Y-110202318D01*
X96748115Y-110023826D01*
X96435817Y-109894148D01*
X96097666Y-109893853D01*
X95785143Y-110022985D01*
X95580052Y-110227718D01*
X95376515Y-110023826D01*
X95064217Y-109894148D01*
X94726066Y-109893853D01*
X94413543Y-110022985D01*
X94174226Y-110261885D01*
X94044548Y-110574183D01*
X94044253Y-110912334D01*
X92669500Y-110912334D01*
X92669500Y-105895834D01*
X106845853Y-105895834D01*
X106974985Y-106208357D01*
X107213885Y-106447674D01*
X107526183Y-106577352D01*
X107864334Y-106577647D01*
X108176857Y-106448515D01*
X108416174Y-106209615D01*
X108545852Y-105897317D01*
X108546147Y-105559166D01*
X108417015Y-105246643D01*
X108178115Y-105007326D01*
X107865817Y-104877648D01*
X107527666Y-104877353D01*
X107215143Y-105006485D01*
X106975826Y-105245385D01*
X106846148Y-105557683D01*
X106845853Y-105895834D01*
X92669500Y-105895834D01*
X92669500Y-105019534D01*
X94044253Y-105019534D01*
X94173385Y-105332057D01*
X94412285Y-105571374D01*
X94724583Y-105701052D01*
X95062734Y-105701347D01*
X95375257Y-105572215D01*
X95554948Y-105392837D01*
X95783885Y-105622174D01*
X96096183Y-105751852D01*
X96434334Y-105752147D01*
X96746857Y-105623015D01*
X96926504Y-105443682D01*
X97104685Y-105622174D01*
X97416983Y-105751852D01*
X97755134Y-105752147D01*
X98067657Y-105623015D01*
X98306974Y-105384115D01*
X98436652Y-105071817D01*
X98436947Y-104733666D01*
X98307815Y-104421143D01*
X98068915Y-104181826D01*
X97756617Y-104052148D01*
X97418466Y-104051853D01*
X97105943Y-104180985D01*
X96926296Y-104360318D01*
X96748115Y-104181826D01*
X96435817Y-104052148D01*
X96097666Y-104051853D01*
X95785143Y-104180985D01*
X95605452Y-104360363D01*
X95376515Y-104131026D01*
X95064217Y-104001348D01*
X94726066Y-104001053D01*
X94413543Y-104130185D01*
X94174226Y-104369085D01*
X94044548Y-104681383D01*
X94044253Y-105019534D01*
X92669500Y-105019534D01*
X92669500Y-99229667D01*
X96724706Y-99229667D01*
X96982970Y-99854715D01*
X97460770Y-100333350D01*
X98085366Y-100592704D01*
X98761667Y-100593294D01*
X99386715Y-100335030D01*
X99865350Y-99857230D01*
X100124704Y-99232634D01*
X100125294Y-98556333D01*
X99867030Y-97931285D01*
X99389230Y-97452650D01*
X98764634Y-97193296D01*
X98088333Y-97192706D01*
X97463285Y-97450970D01*
X96984650Y-97928770D01*
X96725296Y-98553366D01*
X96724706Y-99229667D01*
X92669500Y-99229667D01*
X92669500Y-95187085D01*
X97449113Y-95187085D01*
X97596838Y-95415660D01*
X98242574Y-95616678D01*
X98916084Y-95555283D01*
X99253162Y-95415660D01*
X99400887Y-95187085D01*
X98425000Y-94211198D01*
X97449113Y-95187085D01*
X92669500Y-95187085D01*
X92669500Y-93710574D01*
X96701322Y-93710574D01*
X96762717Y-94384084D01*
X96902340Y-94721162D01*
X97130915Y-94868887D01*
X98106802Y-93893000D01*
X98743198Y-93893000D01*
X99719085Y-94868887D01*
X99947660Y-94721162D01*
X100148678Y-94075426D01*
X100087283Y-93401916D01*
X99947660Y-93064838D01*
X99719085Y-92917113D01*
X98743198Y-93893000D01*
X98106802Y-93893000D01*
X97130915Y-92917113D01*
X96902340Y-93064838D01*
X96701322Y-93710574D01*
X92669500Y-93710574D01*
X92669500Y-92598915D01*
X97449113Y-92598915D01*
X98425000Y-93574802D01*
X99400887Y-92598915D01*
X99351653Y-92522734D01*
X110300253Y-92522734D01*
X110429385Y-92835257D01*
X110668285Y-93074574D01*
X110980583Y-93204252D01*
X111318734Y-93204547D01*
X111631257Y-93075415D01*
X111734571Y-92972281D01*
X111836685Y-93074574D01*
X112148983Y-93204252D01*
X112487134Y-93204547D01*
X112799657Y-93075415D01*
X112928415Y-92946881D01*
X112996318Y-93014904D01*
X112817826Y-93193085D01*
X112688148Y-93505383D01*
X112687853Y-93843534D01*
X112816985Y-94156057D01*
X112970919Y-94310259D01*
X112817826Y-94463085D01*
X112688148Y-94775383D01*
X112687853Y-95113534D01*
X112816985Y-95426057D01*
X112996318Y-95605704D01*
X112817826Y-95783885D01*
X112688148Y-96096183D01*
X112687853Y-96434334D01*
X112816985Y-96746857D01*
X112996318Y-96926504D01*
X112817826Y-97104685D01*
X112688148Y-97416983D01*
X112687853Y-97755134D01*
X112816985Y-98067657D01*
X113055885Y-98306974D01*
X113368183Y-98436652D01*
X113706334Y-98436947D01*
X114018857Y-98307815D01*
X114258174Y-98068915D01*
X114387852Y-97756617D01*
X114388147Y-97418466D01*
X114259015Y-97105943D01*
X114079682Y-96926296D01*
X114258174Y-96748115D01*
X114387852Y-96435817D01*
X114388147Y-96097666D01*
X114259015Y-95785143D01*
X114079682Y-95605496D01*
X114258174Y-95427315D01*
X114387852Y-95115017D01*
X114387860Y-95105485D01*
X116573712Y-95105485D01*
X116713458Y-95512466D01*
X116998311Y-95834989D01*
X117275930Y-95985989D01*
X117441600Y-95919225D01*
X117441600Y-94932700D01*
X116676549Y-94932700D01*
X116573712Y-95105485D01*
X114387860Y-95105485D01*
X114388147Y-94776866D01*
X114259015Y-94464343D01*
X114105081Y-94310141D01*
X114258174Y-94157315D01*
X114387852Y-93845017D01*
X114388147Y-93506866D01*
X114259015Y-93194343D01*
X114079682Y-93014696D01*
X114258174Y-92836515D01*
X114354106Y-92605485D01*
X116573712Y-92605485D01*
X116713458Y-93012466D01*
X116998311Y-93334989D01*
X117223920Y-93457700D01*
X116998311Y-93580411D01*
X116713458Y-93902934D01*
X116573712Y-94309915D01*
X116676549Y-94482700D01*
X117441600Y-94482700D01*
X117441600Y-93496175D01*
X117346127Y-93457700D01*
X117441600Y-93419225D01*
X117441600Y-92432700D01*
X116676549Y-92432700D01*
X116573712Y-92605485D01*
X114354106Y-92605485D01*
X114387852Y-92524217D01*
X114388147Y-92186066D01*
X114259015Y-91873543D01*
X114195498Y-91809915D01*
X116573712Y-91809915D01*
X116676549Y-91982700D01*
X117441600Y-91982700D01*
X117441600Y-90996175D01*
X117891600Y-90996175D01*
X117891600Y-91982700D01*
X118656651Y-91982700D01*
X118666600Y-91965984D01*
X118676549Y-91982700D01*
X119441600Y-91982700D01*
X119441600Y-90996175D01*
X119891600Y-90996175D01*
X119891600Y-91982700D01*
X120656651Y-91982700D01*
X120666600Y-91965984D01*
X120676549Y-91982700D01*
X121441600Y-91982700D01*
X121441600Y-90996175D01*
X121891600Y-90996175D01*
X121891600Y-91982700D01*
X122656651Y-91982700D01*
X122666600Y-91965984D01*
X122676549Y-91982700D01*
X123441600Y-91982700D01*
X123441600Y-90996175D01*
X123891600Y-90996175D01*
X123891600Y-91982700D01*
X124656651Y-91982700D01*
X124665027Y-91968627D01*
X124679100Y-91982700D01*
X125441600Y-91982700D01*
X125441600Y-90970200D01*
X125891600Y-90970200D01*
X125891600Y-91982700D01*
X126654100Y-91982700D01*
X126766600Y-91870200D01*
X126766600Y-91862615D01*
X128889312Y-91862615D01*
X128992149Y-92035400D01*
X129757200Y-92035400D01*
X129757200Y-91048875D01*
X130207200Y-91048875D01*
X130207200Y-92035400D01*
X130972251Y-92035400D01*
X130982200Y-92018684D01*
X130992149Y-92035400D01*
X131757200Y-92035400D01*
X131757200Y-91048875D01*
X132207200Y-91048875D01*
X132207200Y-92035400D01*
X132972251Y-92035400D01*
X132982200Y-92018684D01*
X132992149Y-92035400D01*
X133757200Y-92035400D01*
X133757200Y-91048875D01*
X134207200Y-91048875D01*
X134207200Y-92035400D01*
X134972251Y-92035400D01*
X134982200Y-92018684D01*
X134992149Y-92035400D01*
X135757200Y-92035400D01*
X135757200Y-91048875D01*
X136207200Y-91048875D01*
X136207200Y-92035400D01*
X136972251Y-92035400D01*
X136980627Y-92021327D01*
X136994700Y-92035400D01*
X137757200Y-92035400D01*
X137757200Y-91022900D01*
X138207200Y-91022900D01*
X138207200Y-92035400D01*
X138969700Y-92035400D01*
X139082200Y-91922900D01*
X139082200Y-91270890D01*
X139013692Y-91105496D01*
X138887105Y-90978909D01*
X138721711Y-90910400D01*
X138319700Y-90910400D01*
X138207200Y-91022900D01*
X137757200Y-91022900D01*
X137644700Y-90910400D01*
X137242689Y-90910400D01*
X137077295Y-90978909D01*
X136950708Y-91105496D01*
X136882200Y-91270890D01*
X136882200Y-91395464D01*
X136650489Y-91133111D01*
X136372870Y-90982111D01*
X136207200Y-91048875D01*
X135757200Y-91048875D01*
X135591530Y-90982111D01*
X135313911Y-91133111D01*
X135029058Y-91455634D01*
X134982200Y-91592098D01*
X134935342Y-91455634D01*
X134650489Y-91133111D01*
X134372870Y-90982111D01*
X134207200Y-91048875D01*
X133757200Y-91048875D01*
X133591530Y-90982111D01*
X133313911Y-91133111D01*
X133029058Y-91455634D01*
X132982200Y-91592098D01*
X132935342Y-91455634D01*
X132650489Y-91133111D01*
X132372870Y-90982111D01*
X132207200Y-91048875D01*
X131757200Y-91048875D01*
X131591530Y-90982111D01*
X131313911Y-91133111D01*
X131029058Y-91455634D01*
X130982200Y-91592098D01*
X130935342Y-91455634D01*
X130650489Y-91133111D01*
X130372870Y-90982111D01*
X130207200Y-91048875D01*
X129757200Y-91048875D01*
X129591530Y-90982111D01*
X129313911Y-91133111D01*
X129029058Y-91455634D01*
X128889312Y-91862615D01*
X126766600Y-91862615D01*
X126766600Y-91218190D01*
X126698092Y-91052796D01*
X126571505Y-90926209D01*
X126406111Y-90857700D01*
X126004100Y-90857700D01*
X125891600Y-90970200D01*
X125441600Y-90970200D01*
X125329100Y-90857700D01*
X124927089Y-90857700D01*
X124761695Y-90926209D01*
X124635108Y-91052796D01*
X124566600Y-91218190D01*
X124566600Y-91342764D01*
X124334889Y-91080411D01*
X124057270Y-90929411D01*
X123891600Y-90996175D01*
X123441600Y-90996175D01*
X123275930Y-90929411D01*
X122998311Y-91080411D01*
X122713458Y-91402934D01*
X122666600Y-91539398D01*
X122619742Y-91402934D01*
X122334889Y-91080411D01*
X122057270Y-90929411D01*
X121891600Y-90996175D01*
X121441600Y-90996175D01*
X121275930Y-90929411D01*
X120998311Y-91080411D01*
X120713458Y-91402934D01*
X120666600Y-91539398D01*
X120619742Y-91402934D01*
X120334889Y-91080411D01*
X120057270Y-90929411D01*
X119891600Y-90996175D01*
X119441600Y-90996175D01*
X119275930Y-90929411D01*
X118998311Y-91080411D01*
X118713458Y-91402934D01*
X118666600Y-91539398D01*
X118619742Y-91402934D01*
X118334889Y-91080411D01*
X118057270Y-90929411D01*
X117891600Y-90996175D01*
X117441600Y-90996175D01*
X117275930Y-90929411D01*
X116998311Y-91080411D01*
X116713458Y-91402934D01*
X116573712Y-91809915D01*
X114195498Y-91809915D01*
X114020115Y-91634226D01*
X113707817Y-91504548D01*
X113369666Y-91504253D01*
X113057143Y-91633385D01*
X112928385Y-91761919D01*
X112800915Y-91634226D01*
X112488617Y-91504548D01*
X112150466Y-91504253D01*
X111837943Y-91633385D01*
X111734629Y-91736519D01*
X111632515Y-91634226D01*
X111320217Y-91504548D01*
X110982066Y-91504253D01*
X110669543Y-91633385D01*
X110430226Y-91872285D01*
X110300548Y-92184583D01*
X110300253Y-92522734D01*
X99351653Y-92522734D01*
X99253162Y-92370340D01*
X98607426Y-92169322D01*
X97933916Y-92230717D01*
X97596838Y-92370340D01*
X97449113Y-92598915D01*
X92669500Y-92598915D01*
X92669500Y-90701000D01*
X141328000Y-90701000D01*
X141328000Y-139359500D01*
G36*
X118964626Y-120879085D02*
X118834948Y-121191383D01*
X118834653Y-121529534D01*
X118963785Y-121842057D01*
X119109800Y-121988327D01*
X119109800Y-122580400D01*
X119148434Y-122774626D01*
X119153569Y-122800443D01*
X119278214Y-122986986D01*
X119837014Y-123545787D01*
X119989068Y-123647386D01*
X120023557Y-123670431D01*
X120243600Y-123714200D01*
X125928988Y-123714200D01*
X126213992Y-124034830D01*
X126150148Y-124188583D01*
X126149853Y-124526734D01*
X126220536Y-124697800D01*
X126034800Y-124697800D01*
X125814757Y-124741569D01*
X125757480Y-124779840D01*
X125689015Y-124614143D01*
X125450115Y-124374826D01*
X125137817Y-124245148D01*
X124799666Y-124244853D01*
X124487143Y-124373985D01*
X124247826Y-124612885D01*
X124118148Y-124925183D01*
X124117859Y-125256600D01*
X118195772Y-125256600D01*
X116348200Y-123409028D01*
X116348200Y-122038948D01*
X116544174Y-121843315D01*
X116673852Y-121531017D01*
X116674147Y-121192866D01*
X116545015Y-120880343D01*
X116439856Y-120775000D01*
X119068893Y-120775000D01*
X118964626Y-120879085D01*
X118964626Y-120879085D01*
G37*
X118964626Y-120879085D02*
X118834948Y-121191383D01*
X118834653Y-121529534D01*
X118963785Y-121842057D01*
X119109800Y-121988327D01*
X119109800Y-122580400D01*
X119148434Y-122774626D01*
X119153569Y-122800443D01*
X119278214Y-122986986D01*
X119837014Y-123545787D01*
X119989068Y-123647386D01*
X120023557Y-123670431D01*
X120243600Y-123714200D01*
X125928988Y-123714200D01*
X126213992Y-124034830D01*
X126150148Y-124188583D01*
X126149853Y-124526734D01*
X126220536Y-124697800D01*
X126034800Y-124697800D01*
X125814757Y-124741569D01*
X125757480Y-124779840D01*
X125689015Y-124614143D01*
X125450115Y-124374826D01*
X125137817Y-124245148D01*
X124799666Y-124244853D01*
X124487143Y-124373985D01*
X124247826Y-124612885D01*
X124118148Y-124925183D01*
X124117859Y-125256600D01*
X118195772Y-125256600D01*
X116348200Y-123409028D01*
X116348200Y-122038948D01*
X116544174Y-121843315D01*
X116673852Y-121531017D01*
X116674147Y-121192866D01*
X116545015Y-120880343D01*
X116439856Y-120775000D01*
X119068893Y-120775000D01*
X118964626Y-120879085D01*
G36*
X131208985Y-105790857D02*
X131447885Y-106030174D01*
X131645000Y-106112024D01*
X131645000Y-118379426D01*
X130508967Y-119515459D01*
X130149541Y-119515459D01*
X129929498Y-119559228D01*
X129742955Y-119683872D01*
X129466795Y-119960032D01*
X129261666Y-119959853D01*
X128949143Y-120088985D01*
X128709826Y-120327885D01*
X128580148Y-120640183D01*
X128579892Y-120933724D01*
X128541417Y-120917748D01*
X128203266Y-120917453D01*
X127890743Y-121046585D01*
X127694479Y-121242507D01*
X127042338Y-120590366D01*
X127262974Y-120370115D01*
X127392652Y-120057817D01*
X127392947Y-119719666D01*
X127263815Y-119407143D01*
X127024915Y-119167826D01*
X126712617Y-119038148D01*
X126374466Y-119037853D01*
X126061943Y-119166985D01*
X125840257Y-119388285D01*
X125492200Y-119040228D01*
X125492200Y-118668800D01*
X125449093Y-118452087D01*
X125517334Y-118452147D01*
X125829857Y-118323015D01*
X126069174Y-118084115D01*
X126198852Y-117771817D01*
X126199147Y-117433666D01*
X126070015Y-117121143D01*
X125831115Y-116881826D01*
X125518817Y-116752148D01*
X125180666Y-116751853D01*
X124868143Y-116880985D01*
X124628826Y-117119885D01*
X124499148Y-117432183D01*
X124499143Y-117437571D01*
X123850586Y-116789014D01*
X123664043Y-116664369D01*
X123444000Y-116620600D01*
X123004236Y-116620600D01*
X122859315Y-116475426D01*
X122547017Y-116345748D01*
X122208866Y-116345453D01*
X121896343Y-116474585D01*
X121657026Y-116713485D01*
X121527348Y-117025783D01*
X121527251Y-117137209D01*
X121445000Y-117171194D01*
X121445000Y-115328172D01*
X123498173Y-113275000D01*
X125108272Y-113275000D01*
X125073326Y-113309885D01*
X124943648Y-113622183D01*
X124943353Y-113960334D01*
X125072485Y-114272857D01*
X125311385Y-114512174D01*
X125623683Y-114641852D01*
X125961834Y-114642147D01*
X126274357Y-114513015D01*
X126513674Y-114274115D01*
X126617600Y-114023834D01*
X129896353Y-114023834D01*
X130025485Y-114336357D01*
X130264385Y-114575674D01*
X130576683Y-114705352D01*
X130914834Y-114705647D01*
X131227357Y-114576515D01*
X131466674Y-114337615D01*
X131596352Y-114025317D01*
X131596647Y-113687166D01*
X131467515Y-113374643D01*
X131228615Y-113135326D01*
X130916317Y-113005648D01*
X130578166Y-113005353D01*
X130265643Y-113134485D01*
X130026326Y-113373385D01*
X129896648Y-113685683D01*
X129896353Y-114023834D01*
X126617600Y-114023834D01*
X126643352Y-113961817D01*
X126643647Y-113623666D01*
X126514515Y-113311143D01*
X126478435Y-113275000D01*
X127700000Y-113275000D01*
X127920043Y-113231231D01*
X128106586Y-113106586D01*
X129373205Y-111839968D01*
X129578334Y-111840147D01*
X129890857Y-111711015D01*
X130130174Y-111472115D01*
X130259852Y-111159817D01*
X130259878Y-111130113D01*
X130298334Y-111130147D01*
X130610857Y-111001015D01*
X130850174Y-110762115D01*
X130979852Y-110449817D01*
X130980147Y-110111666D01*
X130851015Y-109799143D01*
X130612115Y-109559826D01*
X130299817Y-109430148D01*
X129961666Y-109429853D01*
X129649143Y-109558985D01*
X129542943Y-109665000D01*
X129080000Y-109665000D01*
X128859957Y-109708769D01*
X128673414Y-109833413D01*
X126881828Y-111625000D01*
X123120000Y-111625000D01*
X122941443Y-111660517D01*
X123130174Y-111472115D01*
X123245243Y-111195000D01*
X125700000Y-111195000D01*
X125920043Y-111151231D01*
X126106586Y-111026586D01*
X126546586Y-110586586D01*
X126671231Y-110400043D01*
X126684169Y-110334999D01*
X126715000Y-110180000D01*
X126715000Y-109998172D01*
X131125168Y-105588004D01*
X131208985Y-105790857D01*
X131208985Y-105790857D01*
G37*
X131208985Y-105790857D02*
X131447885Y-106030174D01*
X131645000Y-106112024D01*
X131645000Y-118379426D01*
X130508967Y-119515459D01*
X130149541Y-119515459D01*
X129929498Y-119559228D01*
X129742955Y-119683872D01*
X129466795Y-119960032D01*
X129261666Y-119959853D01*
X128949143Y-120088985D01*
X128709826Y-120327885D01*
X128580148Y-120640183D01*
X128579892Y-120933724D01*
X128541417Y-120917748D01*
X128203266Y-120917453D01*
X127890743Y-121046585D01*
X127694479Y-121242507D01*
X127042338Y-120590366D01*
X127262974Y-120370115D01*
X127392652Y-120057817D01*
X127392947Y-119719666D01*
X127263815Y-119407143D01*
X127024915Y-119167826D01*
X126712617Y-119038148D01*
X126374466Y-119037853D01*
X126061943Y-119166985D01*
X125840257Y-119388285D01*
X125492200Y-119040228D01*
X125492200Y-118668800D01*
X125449093Y-118452087D01*
X125517334Y-118452147D01*
X125829857Y-118323015D01*
X126069174Y-118084115D01*
X126198852Y-117771817D01*
X126199147Y-117433666D01*
X126070015Y-117121143D01*
X125831115Y-116881826D01*
X125518817Y-116752148D01*
X125180666Y-116751853D01*
X124868143Y-116880985D01*
X124628826Y-117119885D01*
X124499148Y-117432183D01*
X124499143Y-117437571D01*
X123850586Y-116789014D01*
X123664043Y-116664369D01*
X123444000Y-116620600D01*
X123004236Y-116620600D01*
X122859315Y-116475426D01*
X122547017Y-116345748D01*
X122208866Y-116345453D01*
X121896343Y-116474585D01*
X121657026Y-116713485D01*
X121527348Y-117025783D01*
X121527251Y-117137209D01*
X121445000Y-117171194D01*
X121445000Y-115328172D01*
X123498173Y-113275000D01*
X125108272Y-113275000D01*
X125073326Y-113309885D01*
X124943648Y-113622183D01*
X124943353Y-113960334D01*
X125072485Y-114272857D01*
X125311385Y-114512174D01*
X125623683Y-114641852D01*
X125961834Y-114642147D01*
X126274357Y-114513015D01*
X126513674Y-114274115D01*
X126617600Y-114023834D01*
X129896353Y-114023834D01*
X130025485Y-114336357D01*
X130264385Y-114575674D01*
X130576683Y-114705352D01*
X130914834Y-114705647D01*
X131227357Y-114576515D01*
X131466674Y-114337615D01*
X131596352Y-114025317D01*
X131596647Y-113687166D01*
X131467515Y-113374643D01*
X131228615Y-113135326D01*
X130916317Y-113005648D01*
X130578166Y-113005353D01*
X130265643Y-113134485D01*
X130026326Y-113373385D01*
X129896648Y-113685683D01*
X129896353Y-114023834D01*
X126617600Y-114023834D01*
X126643352Y-113961817D01*
X126643647Y-113623666D01*
X126514515Y-113311143D01*
X126478435Y-113275000D01*
X127700000Y-113275000D01*
X127920043Y-113231231D01*
X128106586Y-113106586D01*
X129373205Y-111839968D01*
X129578334Y-111840147D01*
X129890857Y-111711015D01*
X130130174Y-111472115D01*
X130259852Y-111159817D01*
X130259878Y-111130113D01*
X130298334Y-111130147D01*
X130610857Y-111001015D01*
X130850174Y-110762115D01*
X130979852Y-110449817D01*
X130980147Y-110111666D01*
X130851015Y-109799143D01*
X130612115Y-109559826D01*
X130299817Y-109430148D01*
X129961666Y-109429853D01*
X129649143Y-109558985D01*
X129542943Y-109665000D01*
X129080000Y-109665000D01*
X128859957Y-109708769D01*
X128673414Y-109833413D01*
X126881828Y-111625000D01*
X123120000Y-111625000D01*
X122941443Y-111660517D01*
X123130174Y-111472115D01*
X123245243Y-111195000D01*
X125700000Y-111195000D01*
X125920043Y-111151231D01*
X126106586Y-111026586D01*
X126546586Y-110586586D01*
X126671231Y-110400043D01*
X126684169Y-110334999D01*
X126715000Y-110180000D01*
X126715000Y-109998172D01*
X131125168Y-105588004D01*
X131208985Y-105790857D01*
M02*
