G04 #@! TF.FileFunction,Soldermask,Top*
%FSLAX46Y46*%
G04 Gerber Fmt 4.6, Leading zero omitted, Abs format (unit mm)*
G04 Created by KiCad (PCBNEW 4.0.5) date 08/31/17 21:58:28*
%MOMM*%
%LPD*%
G01*
G04 APERTURE LIST*
%ADD10C,0.100000*%
%ADD11R,1.400760X1.400760*%
%ADD12R,1.700480X0.699720*%
%ADD13R,0.699720X1.700480*%
%ADD14R,2.100000X2.100000*%
%ADD15O,2.100000X2.100000*%
%ADD16R,0.999440X2.398980*%
%ADD17R,1.400760X0.999440*%
%ADD18R,2.599640X1.924000*%
%ADD19O,2.599640X1.924000*%
%ADD20R,1.237160X1.037160*%
%ADD21R,1.500000X1.300000*%
%ADD22R,1.400760X1.299160*%
%ADD23R,1.299160X1.400760*%
%ADD24R,2.400000X4.200000*%
%ADD25R,2.400000X1.900000*%
%ADD26R,1.700000X2.200000*%
%ADD27O,1.700000X2.200000*%
%ADD28R,2.200000X1.700000*%
%ADD29O,2.200000X1.700000*%
%ADD30R,1.035000X1.416000*%
%ADD31R,1.416000X1.035000*%
%ADD32C,2.900000*%
%ADD33R,1.250900X1.250900*%
%ADD34R,1.700480X1.898600*%
%ADD35R,3.000960X2.000200*%
%ADD36R,2.000200X3.000960*%
%ADD37C,0.250000*%
G04 APERTURE END LIST*
D10*
D11*
X126794260Y-108386880D03*
X132793740Y-112085120D03*
X126794260Y-112085120D03*
X132793740Y-108386880D03*
D12*
X108592620Y-110815120D03*
X108592620Y-111315500D03*
X108592620Y-111815880D03*
X108592620Y-112316260D03*
X108592620Y-112816640D03*
X108592620Y-109316520D03*
X108592620Y-109816900D03*
X108592620Y-110314740D03*
X108592620Y-117314980D03*
X108592620Y-117815360D03*
X108592620Y-118315740D03*
X108592620Y-118816120D03*
X108592620Y-119316500D03*
X108592620Y-119816880D03*
X108592620Y-120317260D03*
X108592620Y-120815100D03*
D13*
X113769140Y-122991880D03*
X114269520Y-122991880D03*
X114767360Y-122991880D03*
X115267740Y-122991880D03*
X115768120Y-122991880D03*
X116268500Y-122991880D03*
X116768880Y-122991880D03*
X117269260Y-122991880D03*
X121767600Y-122991880D03*
X122267980Y-122991880D03*
D12*
X123944380Y-121315480D03*
X123944380Y-120815100D03*
X123944380Y-120317260D03*
X123944380Y-119816880D03*
X123944380Y-119316500D03*
X123944380Y-118816120D03*
X108592620Y-113317020D03*
X108592620Y-113814860D03*
X108592620Y-114315240D03*
X108592620Y-121315480D03*
D13*
X110269020Y-122991880D03*
X110769400Y-122991880D03*
X117769640Y-122991880D03*
X118267480Y-122991880D03*
X118767860Y-122991880D03*
D12*
X123944380Y-118315740D03*
X123944380Y-117815360D03*
X123944380Y-117314980D03*
X108592620Y-114815620D03*
X108592620Y-115316000D03*
X108592620Y-115816380D03*
X108592620Y-116316760D03*
X108592620Y-116817140D03*
D13*
X111267240Y-122991880D03*
X111767620Y-122991880D03*
X112268000Y-122991880D03*
X112768380Y-122991880D03*
X113268760Y-122991880D03*
X119268240Y-122991880D03*
X119768620Y-122991880D03*
X120269000Y-122991880D03*
X120769380Y-122991880D03*
X121269760Y-122991880D03*
D12*
X123944380Y-116817140D03*
X123944380Y-116316760D03*
X123944380Y-115816380D03*
X123944380Y-115316000D03*
X123944380Y-114815620D03*
X123944380Y-114315240D03*
X123944380Y-113814860D03*
X123944380Y-113317020D03*
X123944380Y-112816640D03*
X123944380Y-112316260D03*
X123944380Y-111815880D03*
X123944380Y-111315500D03*
X123944380Y-110815120D03*
X123944380Y-110314740D03*
X123944380Y-109816900D03*
X123944380Y-109316520D03*
D13*
X122267980Y-107640120D03*
X121767600Y-107640120D03*
X121269760Y-107640120D03*
X120769380Y-107640120D03*
X120269000Y-107640120D03*
X119768620Y-107640120D03*
X119268240Y-107640120D03*
X118767860Y-107640120D03*
X118267480Y-107640120D03*
X117769640Y-107640120D03*
X117269260Y-107640120D03*
X116768880Y-107640120D03*
X116268500Y-107640120D03*
X115768120Y-107640120D03*
X115267740Y-107640120D03*
X114767360Y-107640120D03*
X114269520Y-107640120D03*
X113769140Y-107640120D03*
X113268760Y-107640120D03*
X112768380Y-107640120D03*
X112268000Y-107640120D03*
X111767620Y-107640120D03*
X111267240Y-107640120D03*
X110769400Y-107640120D03*
X110269020Y-107640120D03*
D14*
X139242800Y-118211600D03*
D15*
X139242800Y-115671600D03*
D16*
X128092200Y-129133600D03*
X129362200Y-129133600D03*
X130632200Y-129133600D03*
X131902200Y-129133600D03*
X131902200Y-123545600D03*
X130632200Y-123545600D03*
X129362200Y-123545600D03*
X128092200Y-123545600D03*
D17*
X113141760Y-129959100D03*
X115255040Y-130911600D03*
X113141760Y-131864100D03*
D18*
X102971600Y-132334000D03*
D19*
X102971600Y-134874000D03*
D20*
X114123100Y-136222500D03*
X115823100Y-134922500D03*
D21*
X115823100Y-136222500D03*
X114123100Y-134922500D03*
D22*
X103632000Y-105864660D03*
X103632000Y-107368340D03*
D23*
X129232660Y-114935000D03*
X130736340Y-114935000D03*
X130749040Y-131165600D03*
X129245360Y-131165600D03*
D22*
X134797800Y-120677940D03*
X134797800Y-119174260D03*
X118402100Y-132433060D03*
X118402100Y-133936740D03*
D23*
X119979440Y-135407400D03*
X118475760Y-135407400D03*
D22*
X120091200Y-127924560D03*
X120091200Y-129428240D03*
X118465600Y-127924560D03*
X118465600Y-129428240D03*
X120142000Y-126329440D03*
X120142000Y-124825760D03*
X122428000Y-126329440D03*
X122428000Y-124825760D03*
X110083600Y-126380240D03*
X110083600Y-124876560D03*
D23*
X115559840Y-127812800D03*
X114056160Y-127812800D03*
X125803660Y-121094500D03*
X127307340Y-121094500D03*
X125803660Y-114935000D03*
X127307340Y-114935000D03*
D22*
X121412000Y-105590340D03*
X121412000Y-104086660D03*
X115443000Y-105590340D03*
X115443000Y-104086660D03*
D23*
X106733340Y-110172500D03*
X105229660Y-110172500D03*
X106733340Y-116141500D03*
X105229660Y-116141500D03*
D22*
X117094000Y-105590340D03*
X117094000Y-104086660D03*
D10*
G36*
X108309435Y-123193948D02*
X107318948Y-124184435D01*
X106400303Y-123265790D01*
X107390790Y-122275303D01*
X108309435Y-123193948D01*
X108309435Y-123193948D01*
G37*
G36*
X109372697Y-124257210D02*
X108382210Y-125247697D01*
X107463565Y-124329052D01*
X108454052Y-123338565D01*
X109372697Y-124257210D01*
X109372697Y-124257210D01*
G37*
G36*
X124082948Y-123275065D02*
X125073435Y-124265552D01*
X124154790Y-125184197D01*
X123164303Y-124193710D01*
X124082948Y-123275065D01*
X124082948Y-123275065D01*
G37*
G36*
X125146210Y-122211803D02*
X126136697Y-123202290D01*
X125218052Y-124120935D01*
X124227565Y-123130448D01*
X125146210Y-122211803D01*
X125146210Y-122211803D01*
G37*
G36*
X124100565Y-107501552D02*
X125091052Y-106511065D01*
X126009697Y-107429710D01*
X125019210Y-108420197D01*
X124100565Y-107501552D01*
X124100565Y-107501552D01*
G37*
G36*
X123037303Y-106438290D02*
X124027790Y-105447803D01*
X124946435Y-106366448D01*
X123955948Y-107356935D01*
X123037303Y-106438290D01*
X123037303Y-106438290D01*
G37*
G36*
X108581052Y-107483935D02*
X107590565Y-106493448D01*
X108509210Y-105574803D01*
X109499697Y-106565290D01*
X108581052Y-107483935D01*
X108581052Y-107483935D01*
G37*
G36*
X107517790Y-108547197D02*
X106527303Y-107556710D01*
X107445948Y-106638065D01*
X108436435Y-107628552D01*
X107517790Y-108547197D01*
X107517790Y-108547197D01*
G37*
D22*
X114757200Y-124774960D03*
X114757200Y-126278640D03*
D23*
X113840260Y-133413500D03*
X115343940Y-133413500D03*
D22*
X99212400Y-124754640D03*
X99212400Y-123250960D03*
D24*
X111354000Y-97282000D03*
D25*
X105054000Y-97282000D03*
X105054000Y-99582000D03*
X105054000Y-94982000D03*
D24*
X94894000Y-107823000D03*
D25*
X101194000Y-107823000D03*
X101194000Y-105523000D03*
X101194000Y-110123000D03*
D11*
X128483360Y-116469160D03*
D17*
X130596640Y-118173500D03*
X128483360Y-118173500D03*
X130596640Y-116268500D03*
D26*
X137982200Y-92260400D03*
D27*
X137982200Y-94760400D03*
X135982200Y-92260400D03*
X135982200Y-94760400D03*
X133982200Y-92260400D03*
X133982200Y-94760400D03*
X131982200Y-92260400D03*
X131982200Y-94760400D03*
X129982200Y-92260400D03*
X129982200Y-94760400D03*
D26*
X125666600Y-92207700D03*
D27*
X125666600Y-94707700D03*
X123666600Y-92207700D03*
X123666600Y-94707700D03*
X121666600Y-92207700D03*
X121666600Y-94707700D03*
X119666600Y-92207700D03*
X119666600Y-94707700D03*
X117666600Y-92207700D03*
X117666600Y-94707700D03*
D28*
X137230800Y-101460800D03*
D29*
X139730800Y-101460800D03*
X137230800Y-103460800D03*
X139730800Y-103460800D03*
X137230800Y-105460800D03*
X139730800Y-105460800D03*
X137230800Y-107460800D03*
X139730800Y-107460800D03*
X137230800Y-109460800D03*
X139730800Y-109460800D03*
D28*
X139883200Y-133146300D03*
D29*
X137383200Y-133146300D03*
X139883200Y-131146300D03*
X137383200Y-131146300D03*
X139883200Y-129146300D03*
X137383200Y-129146300D03*
X139883200Y-127146300D03*
X137383200Y-127146300D03*
X139883200Y-125146300D03*
X137383200Y-125146300D03*
D28*
X94609600Y-116510300D03*
D29*
X97109600Y-116510300D03*
X94609600Y-118510300D03*
X97109600Y-118510300D03*
X94609600Y-120510300D03*
X97109600Y-120510300D03*
X94609600Y-122510300D03*
X97109600Y-122510300D03*
X94609600Y-124510300D03*
X97109600Y-124510300D03*
D28*
X94647700Y-127749800D03*
D29*
X97147700Y-127749800D03*
X94647700Y-129749800D03*
X97147700Y-129749800D03*
X94647700Y-131749800D03*
X97147700Y-131749800D03*
X94647700Y-133749800D03*
X97147700Y-133749800D03*
X94647700Y-135749800D03*
X97147700Y-135749800D03*
D30*
X99692460Y-102616000D03*
X100967540Y-102616000D03*
D31*
X119926100Y-133822440D03*
X119926100Y-132547360D03*
D30*
X111122460Y-133350000D03*
X112397540Y-133350000D03*
D32*
X98425000Y-93893000D03*
X98425000Y-98893000D03*
D33*
X94274640Y-102616000D03*
X97622360Y-102616000D03*
D34*
X109156500Y-92329000D03*
X107251500Y-92329000D03*
X98996500Y-112649000D03*
X100901500Y-112649000D03*
D35*
X105260140Y-103378000D03*
X108861860Y-103378000D03*
X124838460Y-137058400D03*
X121236740Y-137058400D03*
D36*
X123342400Y-132458460D03*
X123342400Y-128856740D03*
D35*
X113159540Y-100253800D03*
X116761260Y-100253800D03*
X109750860Y-135737600D03*
X106149140Y-135737600D03*
D36*
X106984800Y-128043940D03*
X106984800Y-131645660D03*
D16*
X100558600Y-126796800D03*
X101828600Y-126796800D03*
X103098600Y-126796800D03*
X104368600Y-126796800D03*
X104368600Y-121208800D03*
X103098600Y-121208800D03*
X101828600Y-121208800D03*
X100558600Y-121208800D03*
D22*
X110032800Y-131663440D03*
X110032800Y-130159760D03*
X126873000Y-118163340D03*
X126873000Y-116659660D03*
X126593600Y-125638560D03*
X126593600Y-127142240D03*
X136448800Y-119174260D03*
X136448800Y-120677940D03*
X112471200Y-124774960D03*
X112471200Y-126278640D03*
D23*
X129326640Y-119583200D03*
X127822960Y-119583200D03*
X118488460Y-130898900D03*
X119992140Y-130898900D03*
D22*
X111607600Y-131663440D03*
X111607600Y-130159760D03*
D23*
X106733340Y-118935500D03*
X105229660Y-118935500D03*
D22*
X112433100Y-134820660D03*
X112433100Y-136324340D03*
X105791000Y-122163840D03*
X105791000Y-120660160D03*
X103124000Y-117561360D03*
X103124000Y-119065040D03*
X116890800Y-131511040D03*
X116890800Y-130007360D03*
D37*
G36*
X119356600Y-118391400D02*
X113205800Y-118391400D01*
X113205800Y-112393000D01*
X119356600Y-112393000D01*
X119356600Y-118391400D01*
X119356600Y-118391400D01*
G37*
X119356600Y-118391400D02*
X113205800Y-118391400D01*
X113205800Y-112393000D01*
X119356600Y-112393000D01*
X119356600Y-118391400D01*
M02*
