G04 #@! TF.FileFunction,Soldermask,Bot*
%FSLAX46Y46*%
G04 Gerber Fmt 4.6, Leading zero omitted, Abs format (unit mm)*
G04 Created by KiCad (PCBNEW 4.0.5) date 08/31/17 21:58:28*
%MOMM*%
%LPD*%
G01*
G04 APERTURE LIST*
%ADD10C,0.100000*%
%ADD11R,2.100000X2.100000*%
%ADD12O,2.100000X2.100000*%
%ADD13R,2.599640X1.924000*%
%ADD14O,2.599640X1.924000*%
%ADD15R,1.700000X2.200000*%
%ADD16O,1.700000X2.200000*%
%ADD17R,2.200000X1.700000*%
%ADD18O,2.200000X1.700000*%
%ADD19C,2.900000*%
%ADD20R,1.400760X1.299160*%
%ADD21R,1.299160X1.400760*%
%ADD22C,0.250000*%
G04 APERTURE END LIST*
D10*
D11*
X139242800Y-118211600D03*
D12*
X139242800Y-115671600D03*
D13*
X102971600Y-132334000D03*
D14*
X102971600Y-134874000D03*
D15*
X137982200Y-92260400D03*
D16*
X137982200Y-94760400D03*
X135982200Y-92260400D03*
X135982200Y-94760400D03*
X133982200Y-92260400D03*
X133982200Y-94760400D03*
X131982200Y-92260400D03*
X131982200Y-94760400D03*
X129982200Y-92260400D03*
X129982200Y-94760400D03*
D15*
X125666600Y-92207700D03*
D16*
X125666600Y-94707700D03*
X123666600Y-92207700D03*
X123666600Y-94707700D03*
X121666600Y-92207700D03*
X121666600Y-94707700D03*
X119666600Y-92207700D03*
X119666600Y-94707700D03*
X117666600Y-92207700D03*
X117666600Y-94707700D03*
D17*
X137230800Y-101460800D03*
D18*
X139730800Y-101460800D03*
X137230800Y-103460800D03*
X139730800Y-103460800D03*
X137230800Y-105460800D03*
X139730800Y-105460800D03*
X137230800Y-107460800D03*
X139730800Y-107460800D03*
X137230800Y-109460800D03*
X139730800Y-109460800D03*
D17*
X139883200Y-133146300D03*
D18*
X137383200Y-133146300D03*
X139883200Y-131146300D03*
X137383200Y-131146300D03*
X139883200Y-129146300D03*
X137383200Y-129146300D03*
X139883200Y-127146300D03*
X137383200Y-127146300D03*
X139883200Y-125146300D03*
X137383200Y-125146300D03*
D17*
X94609600Y-116510300D03*
D18*
X97109600Y-116510300D03*
X94609600Y-118510300D03*
X97109600Y-118510300D03*
X94609600Y-120510300D03*
X97109600Y-120510300D03*
X94609600Y-122510300D03*
X97109600Y-122510300D03*
X94609600Y-124510300D03*
X97109600Y-124510300D03*
D17*
X94647700Y-127749800D03*
D18*
X97147700Y-127749800D03*
X94647700Y-129749800D03*
X97147700Y-129749800D03*
X94647700Y-131749800D03*
X97147700Y-131749800D03*
X94647700Y-133749800D03*
X97147700Y-133749800D03*
X94647700Y-135749800D03*
X97147700Y-135749800D03*
D19*
X98425000Y-93893000D03*
X98425000Y-98893000D03*
D20*
X125740000Y-96768160D03*
X125740000Y-98271840D03*
X138070000Y-96988160D03*
X138070000Y-98491840D03*
D21*
X99070160Y-116484400D03*
X100573840Y-116484400D03*
X99070160Y-127762000D03*
X100573840Y-127762000D03*
D20*
X132085600Y-96994160D03*
X132085600Y-98497840D03*
X134117600Y-96994160D03*
X134117600Y-98497840D03*
X136098800Y-96994160D03*
X136098800Y-98497840D03*
X119634600Y-96769860D03*
X119634600Y-98273540D03*
X121666600Y-96769860D03*
X121666600Y-98273540D03*
X123698600Y-96769860D03*
X123698600Y-98273540D03*
D21*
X133918960Y-133146800D03*
X135422640Y-133146800D03*
X133918960Y-131165600D03*
X135422640Y-131165600D03*
X133918960Y-129184400D03*
X135422640Y-129184400D03*
X133918960Y-127152400D03*
X135422640Y-127152400D03*
D22*
G36*
X119356600Y-118391400D02*
X113205800Y-118391400D01*
X113205800Y-112393000D01*
X119356600Y-112393000D01*
X119356600Y-118391400D01*
X119356600Y-118391400D01*
G37*
X119356600Y-118391400D02*
X113205800Y-118391400D01*
X113205800Y-112393000D01*
X119356600Y-112393000D01*
X119356600Y-118391400D01*
M02*
