M48
INCH,TZ
T1C0.016
T2C0.031
T3C0.039
T4C0.039
T5C0.051
%
G90
G05
T1
X37360Y-41280
X37360Y-43600
X37380Y-44140
X37380Y-44620
X37900Y-41300
X37900Y-43600
X37900Y-44120
X37920Y-44620
X38420Y-41300
X38420Y-43600
X38420Y-44120
X38440Y-44620
X38620Y-49500
X38700Y-48620
X39040Y-49540
X39080Y-48080
X40570Y-45830
X40800Y-42660
X41000Y-43375
X41040Y-46740
X41060Y-46200
X41060Y-53440
X41480Y-52120
X41580Y-46200
X41650Y-48550
X41860Y-48980
X42000Y-42050
X42025Y-43825
X42025Y-46175
X42140Y-48080
X42200Y-47640
X42200Y-49140
X42400Y-41625
X42520Y-49360
X42780Y-50400
X42900Y-49340
X42920Y-49760
X43350Y-46775
X43360Y-52240
X43380Y-45200
X43380Y-45800
X43441Y-47173
X43445Y-47610
X43760Y-36360
X43799Y-47850
X43846Y-41508
X44138Y-50240
X44220Y-36360
X44315Y-47858
X44378Y-50555
X44579Y-41315
X44700Y-36360
X44700Y-36880
X44700Y-37380
X44700Y-37900
X44700Y-38420
X44740Y-49140
X44740Y-49720
X44775Y-47850
X44900Y-44520
X44920Y-45060
X44920Y-45680
X44920Y-46260
X45000Y-41575
X45040Y-51860
X45180Y-47780
X45200Y-50780
X45415Y-52075
X45450Y-40550
X45540Y-44500
X45540Y-45680
X45540Y-46260
X45560Y-45060
X45600Y-47780
X46100Y-40550
X46100Y-46260
X46120Y-45680
X46140Y-44500
X46140Y-45080
X46550Y-41575
X46640Y-46260
X46660Y-45680
X46680Y-44500
X46680Y-45060
X46860Y-53860
X47120Y-47780
X47295Y-43016
X47350Y-41550
X47800Y-40550
X47874Y-43004
X47940Y-46440
X47960Y-46840
X47980Y-50220
X48080Y-53320
X48180Y-46140
X48193Y-43697
X48260Y-47120
X48620Y-50000
X48640Y-49260
X49150Y-41575
X49180Y-50740
X49200Y-49250
X49350Y-46300
X49382Y-43280
X49450Y-45875
X49525Y-44800
X49575Y-42000
X49580Y-48780
X49820Y-47200
X50000Y-48960
X50500Y-45250
X50540Y-47940
X50580Y-47560
X50697Y-40488
X50880Y-52140
X50910Y-50190
X50949Y-43697
X50957Y-47563
X51000Y-42680
X51232Y-43417
X51240Y-49910
X51429Y-47559
X51475Y-44825
X51480Y-52140
X51520Y-42680
X51600Y-49700
X51640Y-49320
X51941Y-41461
X52260Y-48000
X53060Y-49320
X53340Y-49580
X53720Y-47960
T2
X37346Y-45870
X37346Y-46658
X37346Y-47445
X37346Y-48232
X37346Y-49020
X37361Y-50295
X37361Y-51083
X37361Y-51870
X37361Y-52657
X37361Y-53445
X38134Y-45870
X38134Y-46658
X38134Y-47445
X38134Y-48232
X38134Y-49020
X38149Y-50295
X38149Y-51083
X38149Y-51870
X38149Y-52657
X38149Y-53445
X39580Y-44960
X43740Y-40520
X45980Y-38800
X46325Y-36401
X46325Y-37188
X47113Y-36401
X47113Y-37188
X47900Y-36401
X47900Y-37188
X48688Y-36401
X48688Y-37188
X49475Y-36401
X49475Y-37188
X51174Y-36421
X51174Y-37209
X51961Y-36421
X51961Y-37209
X52749Y-36421
X52749Y-37209
X53536Y-36421
X53536Y-37209
X54126Y-39945
X54126Y-40733
X54126Y-41520
X54126Y-42307
X54126Y-43095
X54186Y-49270
X54186Y-50058
X54186Y-50845
X54186Y-51632
X54186Y-52420
X54324Y-36421
X54324Y-37209
X54914Y-39945
X54914Y-40733
X54914Y-41520
X54914Y-42307
X54914Y-43095
X54974Y-49270
X54974Y-50058
X54974Y-50845
X54974Y-51632
X54974Y-52420
T3
X54820Y-45540
X54820Y-46540
T4
X40540Y-52100
X40540Y-53100
T5
X38750Y-36966
X38750Y-38934
T0
M30
