G04 #@! TF.FileFunction,Copper,L1,Top,Signal*
%FSLAX46Y46*%
G04 Gerber Fmt 4.6, Leading zero omitted, Abs format (unit mm)*
G04 Created by KiCad (PCBNEW 4.0.5) date 08/31/17 21:58:28*
%MOMM*%
%LPD*%
G01*
G04 APERTURE LIST*
%ADD10C,0.100000*%
%ADD11R,1.000760X1.000760*%
%ADD12R,1.300480X0.299720*%
%ADD13R,0.299720X1.300480*%
%ADD14R,1.700000X1.700000*%
%ADD15O,1.700000X1.700000*%
%ADD16R,0.599440X1.998980*%
%ADD17R,1.000760X0.599440*%
%ADD18R,2.199640X1.524000*%
%ADD19O,2.199640X1.524000*%
%ADD20R,1.100000X0.900000*%
%ADD21R,1.000760X0.899160*%
%ADD22R,0.899160X1.000760*%
%ADD23R,2.000000X3.800000*%
%ADD24R,2.000000X1.500000*%
%ADD25R,1.300000X1.800000*%
%ADD26O,1.300000X1.800000*%
%ADD27R,1.800000X1.300000*%
%ADD28O,1.800000X1.300000*%
%ADD29R,0.635000X1.016000*%
%ADD30R,1.016000X0.635000*%
%ADD31C,2.500000*%
%ADD32R,0.850900X0.850900*%
%ADD33R,1.300480X1.498600*%
%ADD34R,2.600960X1.600200*%
%ADD35R,1.600200X2.600960*%
%ADD36C,1.200000*%
%ADD37C,0.800000*%
%ADD38C,1.200000*%
%ADD39C,0.250000*%
%ADD40C,0.500000*%
%ADD41C,0.800000*%
%ADD42C,1.000000*%
%ADD43C,0.350000*%
%ADD44C,0.254000*%
G04 APERTURE END LIST*
D10*
D11*
X126794260Y-108386880D03*
X132793740Y-112085120D03*
X126794260Y-112085120D03*
X132793740Y-108386880D03*
D12*
X108592620Y-110815120D03*
X108592620Y-111315500D03*
X108592620Y-111815880D03*
X108592620Y-112316260D03*
X108592620Y-112816640D03*
X108592620Y-109316520D03*
X108592620Y-109816900D03*
X108592620Y-110314740D03*
X108592620Y-117314980D03*
X108592620Y-117815360D03*
X108592620Y-118315740D03*
X108592620Y-118816120D03*
X108592620Y-119316500D03*
X108592620Y-119816880D03*
X108592620Y-120317260D03*
X108592620Y-120815100D03*
D13*
X113769140Y-122991880D03*
X114269520Y-122991880D03*
X114767360Y-122991880D03*
X115267740Y-122991880D03*
X115768120Y-122991880D03*
X116268500Y-122991880D03*
X116768880Y-122991880D03*
X117269260Y-122991880D03*
X121767600Y-122991880D03*
X122267980Y-122991880D03*
D12*
X123944380Y-121315480D03*
X123944380Y-120815100D03*
X123944380Y-120317260D03*
X123944380Y-119816880D03*
X123944380Y-119316500D03*
X123944380Y-118816120D03*
X108592620Y-113317020D03*
X108592620Y-113814860D03*
X108592620Y-114315240D03*
X108592620Y-121315480D03*
D13*
X110269020Y-122991880D03*
X110769400Y-122991880D03*
X117769640Y-122991880D03*
X118267480Y-122991880D03*
X118767860Y-122991880D03*
D12*
X123944380Y-118315740D03*
X123944380Y-117815360D03*
X123944380Y-117314980D03*
X108592620Y-114815620D03*
X108592620Y-115316000D03*
X108592620Y-115816380D03*
X108592620Y-116316760D03*
X108592620Y-116817140D03*
D13*
X111267240Y-122991880D03*
X111767620Y-122991880D03*
X112268000Y-122991880D03*
X112768380Y-122991880D03*
X113268760Y-122991880D03*
X119268240Y-122991880D03*
X119768620Y-122991880D03*
X120269000Y-122991880D03*
X120769380Y-122991880D03*
X121269760Y-122991880D03*
D12*
X123944380Y-116817140D03*
X123944380Y-116316760D03*
X123944380Y-115816380D03*
X123944380Y-115316000D03*
X123944380Y-114815620D03*
X123944380Y-114315240D03*
X123944380Y-113814860D03*
X123944380Y-113317020D03*
X123944380Y-112816640D03*
X123944380Y-112316260D03*
X123944380Y-111815880D03*
X123944380Y-111315500D03*
X123944380Y-110815120D03*
X123944380Y-110314740D03*
X123944380Y-109816900D03*
X123944380Y-109316520D03*
D13*
X122267980Y-107640120D03*
X121767600Y-107640120D03*
X121269760Y-107640120D03*
X120769380Y-107640120D03*
X120269000Y-107640120D03*
X119768620Y-107640120D03*
X119268240Y-107640120D03*
X118767860Y-107640120D03*
X118267480Y-107640120D03*
X117769640Y-107640120D03*
X117269260Y-107640120D03*
X116768880Y-107640120D03*
X116268500Y-107640120D03*
X115768120Y-107640120D03*
X115267740Y-107640120D03*
X114767360Y-107640120D03*
X114269520Y-107640120D03*
X113769140Y-107640120D03*
X113268760Y-107640120D03*
X112768380Y-107640120D03*
X112268000Y-107640120D03*
X111767620Y-107640120D03*
X111267240Y-107640120D03*
X110769400Y-107640120D03*
X110269020Y-107640120D03*
D14*
X139242800Y-118211600D03*
D15*
X139242800Y-115671600D03*
D16*
X128092200Y-129133600D03*
X129362200Y-129133600D03*
X130632200Y-129133600D03*
X131902200Y-129133600D03*
X131902200Y-123545600D03*
X130632200Y-123545600D03*
X129362200Y-123545600D03*
X128092200Y-123545600D03*
D17*
X113141760Y-129959100D03*
X115255040Y-130911600D03*
X113141760Y-131864100D03*
D18*
X102971600Y-132334000D03*
D19*
X102971600Y-134874000D03*
D20*
X114123100Y-136222500D03*
X115823100Y-134922500D03*
X115823100Y-136222500D03*
X114123100Y-134922500D03*
D21*
X103632000Y-105864660D03*
X103632000Y-107368340D03*
D22*
X129232660Y-114935000D03*
X130736340Y-114935000D03*
X130749040Y-131165600D03*
X129245360Y-131165600D03*
D21*
X134797800Y-120677940D03*
X134797800Y-119174260D03*
X118402100Y-132433060D03*
X118402100Y-133936740D03*
D22*
X119979440Y-135407400D03*
X118475760Y-135407400D03*
D21*
X120091200Y-127924560D03*
X120091200Y-129428240D03*
X118465600Y-127924560D03*
X118465600Y-129428240D03*
X120142000Y-126329440D03*
X120142000Y-124825760D03*
X122428000Y-126329440D03*
X122428000Y-124825760D03*
X110083600Y-126380240D03*
X110083600Y-124876560D03*
D22*
X115559840Y-127812800D03*
X114056160Y-127812800D03*
X125803660Y-121094500D03*
X127307340Y-121094500D03*
X125803660Y-114935000D03*
X127307340Y-114935000D03*
D21*
X121412000Y-105590340D03*
X121412000Y-104086660D03*
X115443000Y-105590340D03*
X115443000Y-104086660D03*
D22*
X106733340Y-110172500D03*
X105229660Y-110172500D03*
X106733340Y-116141500D03*
X105229660Y-116141500D03*
D21*
X117094000Y-105590340D03*
X117094000Y-104086660D03*
D10*
G36*
X108026592Y-123193948D02*
X107318948Y-123901592D01*
X106683146Y-123265790D01*
X107390790Y-122558146D01*
X108026592Y-123193948D01*
X108026592Y-123193948D01*
G37*
G36*
X109089854Y-124257210D02*
X108382210Y-124964854D01*
X107746408Y-124329052D01*
X108454052Y-123621408D01*
X109089854Y-124257210D01*
X109089854Y-124257210D01*
G37*
G36*
X124082948Y-123557908D02*
X124790592Y-124265552D01*
X124154790Y-124901354D01*
X123447146Y-124193710D01*
X124082948Y-123557908D01*
X124082948Y-123557908D01*
G37*
G36*
X125146210Y-122494646D02*
X125853854Y-123202290D01*
X125218052Y-123838092D01*
X124510408Y-123130448D01*
X125146210Y-122494646D01*
X125146210Y-122494646D01*
G37*
G36*
X124383408Y-107501552D02*
X125091052Y-106793908D01*
X125726854Y-107429710D01*
X125019210Y-108137354D01*
X124383408Y-107501552D01*
X124383408Y-107501552D01*
G37*
G36*
X123320146Y-106438290D02*
X124027790Y-105730646D01*
X124663592Y-106366448D01*
X123955948Y-107074092D01*
X123320146Y-106438290D01*
X123320146Y-106438290D01*
G37*
G36*
X108581052Y-107201092D02*
X107873408Y-106493448D01*
X108509210Y-105857646D01*
X109216854Y-106565290D01*
X108581052Y-107201092D01*
X108581052Y-107201092D01*
G37*
G36*
X107517790Y-108264354D02*
X106810146Y-107556710D01*
X107445948Y-106920908D01*
X108153592Y-107628552D01*
X107517790Y-108264354D01*
X107517790Y-108264354D01*
G37*
D21*
X114757200Y-124774960D03*
X114757200Y-126278640D03*
D22*
X113840260Y-133413500D03*
X115343940Y-133413500D03*
D21*
X99212400Y-124754640D03*
X99212400Y-123250960D03*
D23*
X111354000Y-97282000D03*
D24*
X105054000Y-97282000D03*
X105054000Y-99582000D03*
X105054000Y-94982000D03*
D23*
X94894000Y-107823000D03*
D24*
X101194000Y-107823000D03*
X101194000Y-105523000D03*
X101194000Y-110123000D03*
D11*
X128483360Y-116469160D03*
D17*
X130596640Y-118173500D03*
X128483360Y-118173500D03*
X130596640Y-116268500D03*
D25*
X137982200Y-92260400D03*
D26*
X137982200Y-94760400D03*
X135982200Y-92260400D03*
X135982200Y-94760400D03*
X133982200Y-92260400D03*
X133982200Y-94760400D03*
X131982200Y-92260400D03*
X131982200Y-94760400D03*
X129982200Y-92260400D03*
X129982200Y-94760400D03*
D25*
X125666600Y-92207700D03*
D26*
X125666600Y-94707700D03*
X123666600Y-92207700D03*
X123666600Y-94707700D03*
X121666600Y-92207700D03*
X121666600Y-94707700D03*
X119666600Y-92207700D03*
X119666600Y-94707700D03*
X117666600Y-92207700D03*
X117666600Y-94707700D03*
D27*
X137230800Y-101460800D03*
D28*
X139730800Y-101460800D03*
X137230800Y-103460800D03*
X139730800Y-103460800D03*
X137230800Y-105460800D03*
X139730800Y-105460800D03*
X137230800Y-107460800D03*
X139730800Y-107460800D03*
X137230800Y-109460800D03*
X139730800Y-109460800D03*
D27*
X139883200Y-133146300D03*
D28*
X137383200Y-133146300D03*
X139883200Y-131146300D03*
X137383200Y-131146300D03*
X139883200Y-129146300D03*
X137383200Y-129146300D03*
X139883200Y-127146300D03*
X137383200Y-127146300D03*
X139883200Y-125146300D03*
X137383200Y-125146300D03*
D27*
X94609600Y-116510300D03*
D28*
X97109600Y-116510300D03*
X94609600Y-118510300D03*
X97109600Y-118510300D03*
X94609600Y-120510300D03*
X97109600Y-120510300D03*
X94609600Y-122510300D03*
X97109600Y-122510300D03*
X94609600Y-124510300D03*
X97109600Y-124510300D03*
D27*
X94647700Y-127749800D03*
D28*
X97147700Y-127749800D03*
X94647700Y-129749800D03*
X97147700Y-129749800D03*
X94647700Y-131749800D03*
X97147700Y-131749800D03*
X94647700Y-133749800D03*
X97147700Y-133749800D03*
X94647700Y-135749800D03*
X97147700Y-135749800D03*
D29*
X99692460Y-102616000D03*
X100967540Y-102616000D03*
D30*
X119926100Y-133822440D03*
X119926100Y-132547360D03*
D29*
X111122460Y-133350000D03*
X112397540Y-133350000D03*
D31*
X98425000Y-93893000D03*
X98425000Y-98893000D03*
D32*
X94274640Y-102616000D03*
X97622360Y-102616000D03*
D33*
X109156500Y-92329000D03*
X107251500Y-92329000D03*
X98996500Y-112649000D03*
X100901500Y-112649000D03*
D34*
X105260140Y-103378000D03*
X108861860Y-103378000D03*
X124838460Y-137058400D03*
X121236740Y-137058400D03*
D35*
X123342400Y-132458460D03*
X123342400Y-128856740D03*
D34*
X113159540Y-100253800D03*
X116761260Y-100253800D03*
X109750860Y-135737600D03*
X106149140Y-135737600D03*
D35*
X106984800Y-128043940D03*
X106984800Y-131645660D03*
D16*
X100558600Y-126796800D03*
X101828600Y-126796800D03*
X103098600Y-126796800D03*
X104368600Y-126796800D03*
X104368600Y-121208800D03*
X103098600Y-121208800D03*
X101828600Y-121208800D03*
X100558600Y-121208800D03*
D21*
X110032800Y-131663440D03*
X110032800Y-130159760D03*
X126873000Y-118163340D03*
X126873000Y-116659660D03*
X126593600Y-125638560D03*
X126593600Y-127142240D03*
X136448800Y-119174260D03*
X136448800Y-120677940D03*
X112471200Y-124774960D03*
X112471200Y-126278640D03*
D22*
X129326640Y-119583200D03*
X127822960Y-119583200D03*
X118488460Y-130898900D03*
X119992140Y-130898900D03*
D21*
X111607600Y-131663440D03*
X111607600Y-130159760D03*
D22*
X106733340Y-118935500D03*
X105229660Y-118935500D03*
D21*
X112433100Y-134820660D03*
X112433100Y-136324340D03*
X105791000Y-122163840D03*
X105791000Y-120660160D03*
X103124000Y-117561360D03*
X103124000Y-119065040D03*
X116890800Y-131511040D03*
X116890800Y-130007360D03*
D36*
X116789200Y-98552000D03*
D37*
X112110000Y-127610000D03*
X129540000Y-108407200D03*
X130860800Y-108407200D03*
X125933200Y-123901200D03*
X107188000Y-121005600D03*
X104241600Y-118719600D03*
X105613200Y-117348000D03*
X128473200Y-120802400D03*
X115671600Y-117500400D03*
X115671600Y-116027200D03*
X117195600Y-113030000D03*
X117195600Y-114503200D03*
X114046000Y-113080800D03*
X115671600Y-113030000D03*
X118567200Y-113030000D03*
X118567200Y-114452400D03*
X118516400Y-116027200D03*
X118465600Y-117500400D03*
X117094000Y-117500400D03*
X114096800Y-117500400D03*
X114096800Y-116027200D03*
X114096800Y-114452400D03*
X115722400Y-114452400D03*
X117144800Y-116027200D03*
X105359200Y-132384800D03*
X104292400Y-135737600D03*
X123545600Y-125120400D03*
X99161600Y-125831600D03*
X108000800Y-125374400D03*
D36*
X111099600Y-102920800D03*
D37*
X130759200Y-132435600D03*
X119024400Y-136804400D03*
X103632000Y-108356400D03*
D36*
X100533200Y-114198400D03*
D37*
X136448800Y-121818400D03*
X112720000Y-128410000D03*
X113639600Y-126288800D03*
X108966000Y-125323600D03*
X124917200Y-128879600D03*
X121869200Y-127558800D03*
X115354100Y-132270500D03*
X115443000Y-102997000D03*
X117094000Y-102997000D03*
X121412000Y-102997000D03*
X125603000Y-116522500D03*
X128270000Y-114935000D03*
X110109000Y-118808500D03*
X113728500Y-121539000D03*
X111250000Y-121540000D03*
X104140000Y-110172500D03*
X106680000Y-106807000D03*
X124841000Y-105600500D03*
X113639600Y-124815600D03*
X108661200Y-128016000D03*
X118237000Y-105600500D03*
X125920500Y-106680000D03*
X114401600Y-131724400D03*
X124968000Y-125095000D03*
X107696000Y-105727500D03*
X107035600Y-122123200D03*
X110340000Y-119820000D03*
X130130000Y-110280000D03*
X129410000Y-110990000D03*
X110350000Y-120930000D03*
X129235200Y-132435600D03*
X98298000Y-123494800D03*
X122123200Y-135432800D03*
X126542800Y-119888000D03*
X96266000Y-104902000D03*
X97586800Y-110744000D03*
X97586800Y-104902000D03*
X94894400Y-104851200D03*
X97586800Y-112064800D03*
X96266000Y-110744000D03*
X97637600Y-113334800D03*
X96316800Y-113334800D03*
X94945200Y-113334800D03*
X94945200Y-112115600D03*
X96266000Y-112064800D03*
X94894400Y-110744000D03*
X110134400Y-132689600D03*
X109016800Y-126390400D03*
X104292400Y-117348000D03*
X114808000Y-128981200D03*
X105791000Y-123317000D03*
X125349000Y-117602000D03*
X130746500Y-113855500D03*
X125793500Y-113792000D03*
X106743500Y-117284500D03*
X106743500Y-111315500D03*
X112560000Y-121560000D03*
X114300000Y-105600500D03*
X120269000Y-105537000D03*
X123494800Y-127000000D03*
X113538000Y-97586800D03*
X113538000Y-92354400D03*
X112318800Y-92354400D03*
X111150400Y-92354400D03*
X113538000Y-96266000D03*
X113538000Y-94945200D03*
X113538000Y-93675200D03*
X107188000Y-124815600D03*
X110185200Y-116332000D03*
X106324400Y-124409200D03*
X110185200Y-114808000D03*
X103047800Y-116408200D03*
X99263200Y-122123200D03*
X98094800Y-125730000D03*
X115824000Y-121361200D03*
X134772400Y-125272800D03*
X131165600Y-125272800D03*
X135483600Y-125933200D03*
X114757200Y-121361200D03*
X131064000Y-126238000D03*
X122377200Y-117195600D03*
X121767600Y-117957600D03*
X121818400Y-118973600D03*
X122580400Y-119684800D03*
X129311400Y-127482600D03*
X130149600Y-126771400D03*
X130630000Y-120800000D03*
X128770000Y-102840000D03*
X131930000Y-105310000D03*
X129430000Y-120810000D03*
X132740400Y-121920000D03*
X128371600Y-121767600D03*
X127000000Y-124358400D03*
X119684800Y-121361200D03*
X111370000Y-105430000D03*
X113230000Y-104940000D03*
X120130000Y-109260000D03*
X121600000Y-109230000D03*
X125430000Y-109930000D03*
X122410000Y-110990000D03*
D38*
X116761260Y-100253800D02*
X116761260Y-98579940D01*
X116761260Y-98579940D02*
X116789200Y-98552000D01*
D39*
X112471200Y-126278640D02*
X112471200Y-127248800D01*
X112471200Y-127248800D02*
X112110000Y-127610000D01*
X115823100Y-136222500D02*
X115612500Y-136222500D01*
X115612500Y-136222500D02*
X114980000Y-135590000D01*
X114980000Y-135590000D02*
X114980000Y-133777440D01*
X114980000Y-133777440D02*
X115343940Y-133413500D01*
D40*
X126814580Y-108407200D02*
X129540000Y-108407200D01*
X130881120Y-108386880D02*
X132793740Y-108386880D01*
X130881120Y-108386880D02*
X130860800Y-108407200D01*
X129540000Y-108407200D02*
X130860800Y-108407200D01*
X126814580Y-108407200D02*
X126794260Y-108386880D01*
D39*
X125182131Y-123166369D02*
X125198369Y-123166369D01*
X125198369Y-123166369D02*
X125933200Y-123901200D01*
X108592620Y-120815100D02*
X107378500Y-120815100D01*
X107378500Y-120815100D02*
X107188000Y-121005600D01*
X105229660Y-118935500D02*
X104457500Y-118935500D01*
X104457500Y-118935500D02*
X104241600Y-118719600D01*
X105229660Y-116141500D02*
X105229660Y-116964460D01*
X105229660Y-116964460D02*
X105613200Y-117348000D01*
X127307340Y-121094500D02*
X128181100Y-121094500D01*
X128181100Y-121094500D02*
X128473200Y-120802400D01*
D40*
X117094000Y-117500400D02*
X115722400Y-117449600D01*
X115722400Y-117449600D02*
X115671600Y-117500400D01*
X117144800Y-116027200D02*
X115671600Y-116027200D01*
X118567200Y-114452400D02*
X117246400Y-114452400D01*
X117246400Y-114452400D02*
X117195600Y-114503200D01*
X115671600Y-113030000D02*
X117144800Y-113080800D01*
X117144800Y-113080800D02*
X117195600Y-113030000D01*
X114046000Y-113080800D02*
X115620800Y-113080800D01*
X115620800Y-113080800D02*
X115722400Y-112979200D01*
X115722400Y-112979200D02*
X118567200Y-113030000D01*
X118567200Y-113030000D02*
X118567200Y-114452400D01*
X118567200Y-114452400D02*
X118516400Y-114503200D01*
X118516400Y-114503200D02*
X115773200Y-114503200D01*
X115773200Y-114503200D02*
X114096800Y-114452400D01*
X114096800Y-114452400D02*
X114096800Y-116027200D01*
X114096800Y-116027200D02*
X114147600Y-115976400D01*
X114147600Y-115976400D02*
X117144800Y-116027200D01*
X117144800Y-116027200D02*
X117195600Y-115976400D01*
X117195600Y-115976400D02*
X118516400Y-116027200D01*
X118516400Y-116027200D02*
X118465600Y-116078000D01*
X118465600Y-116078000D02*
X118465600Y-117500400D01*
X118465600Y-117500400D02*
X117094000Y-117500400D01*
X117094000Y-117500400D02*
X117043200Y-117551200D01*
X117043200Y-117551200D02*
X114096800Y-117500400D01*
X118516400Y-116027200D02*
X118465600Y-116078000D01*
D41*
X106984800Y-131645660D02*
X106098340Y-131645660D01*
X106098340Y-131645660D02*
X105359200Y-132384800D01*
X102971600Y-134874000D02*
X102971600Y-134975600D01*
X102971600Y-134975600D02*
X103733600Y-135737600D01*
X103733600Y-135737600D02*
X104292400Y-135737600D01*
X106149140Y-135737600D02*
X104292400Y-135737600D01*
D39*
X122428000Y-124825760D02*
X122428000Y-125120400D01*
X122428000Y-125120400D02*
X123545600Y-125120400D01*
X99212400Y-124754640D02*
X99212400Y-125780800D01*
X108418131Y-124293131D02*
X108418131Y-124652269D01*
X108418131Y-124652269D02*
X108000800Y-125069600D01*
X108000800Y-125069600D02*
X108000800Y-125374400D01*
D38*
X108861860Y-103378000D02*
X110642400Y-103378000D01*
X110642400Y-103378000D02*
X111099600Y-102920800D01*
D40*
X130749040Y-131165600D02*
X130749040Y-132425440D01*
X130749040Y-132425440D02*
X130759200Y-132435600D01*
X121236740Y-137058400D02*
X119278400Y-137058400D01*
X118475760Y-136255760D02*
X118475760Y-135407400D01*
X118475760Y-136255760D02*
X119024400Y-136804400D01*
X119278400Y-137058400D02*
X119024400Y-136804400D01*
X103632000Y-107368340D02*
X103632000Y-108356400D01*
D38*
X100901500Y-112649000D02*
X100901500Y-110415500D01*
X100901500Y-110415500D02*
X101194000Y-110123000D01*
D42*
X100901500Y-112649000D02*
X100901500Y-113830100D01*
X100901500Y-113830100D02*
X100533200Y-114198400D01*
D40*
X136448800Y-120677940D02*
X136448800Y-121818400D01*
X130749040Y-131165600D02*
X131165600Y-131165600D01*
X131165600Y-131165600D02*
X131902200Y-130429000D01*
X131902200Y-130429000D02*
X131902200Y-129133600D01*
X118475760Y-135407400D02*
X118475760Y-134010400D01*
X118475760Y-134010400D02*
X118402100Y-133936740D01*
D39*
X114056160Y-127812800D02*
X114056160Y-127345440D01*
X114056160Y-127345440D02*
X114757200Y-126644400D01*
X114757200Y-126644400D02*
X114757200Y-126278640D01*
X114056160Y-127812800D02*
X113334800Y-127812800D01*
X113334800Y-127812800D02*
X112720000Y-128410000D01*
X116268500Y-122991880D02*
X116268500Y-125488700D01*
X113649760Y-126278640D02*
X113639600Y-126288800D01*
X115478560Y-126278640D02*
X113649760Y-126278640D01*
X116268500Y-125488700D02*
X115478560Y-126278640D01*
X110185200Y-124774960D02*
X109514640Y-124774960D01*
X109514640Y-124774960D02*
X108966000Y-125323600D01*
X110269020Y-122991880D02*
X110269020Y-124691140D01*
X110269020Y-124691140D02*
X110185200Y-124774960D01*
X123342400Y-128856740D02*
X124894340Y-128856740D01*
X124894340Y-128856740D02*
X124917200Y-128879600D01*
X123342400Y-128856740D02*
X123342400Y-127965200D01*
X123342400Y-127965200D02*
X122936000Y-127558800D01*
X122936000Y-127558800D02*
X121869200Y-127558800D01*
X120091200Y-124825760D02*
X120355360Y-124825760D01*
X120355360Y-124825760D02*
X121005600Y-125476000D01*
X121557202Y-127246802D02*
X121869200Y-127558800D01*
X121557202Y-126637202D02*
X121557202Y-127246802D01*
X121005600Y-126085600D02*
X121557202Y-126637202D01*
X121005600Y-125476000D02*
X121005600Y-126085600D01*
X120091200Y-124825760D02*
X120091200Y-124917200D01*
X123342400Y-128856740D02*
X122608340Y-128856740D01*
X120091200Y-124825760D02*
X120456960Y-124825760D01*
X121767600Y-122991880D02*
X121767600Y-123901200D01*
X122072400Y-124206000D02*
X122072400Y-124571760D01*
X121767600Y-123901200D02*
X122072400Y-124206000D01*
X122072400Y-124571760D02*
X122326400Y-124825760D01*
X119768620Y-122991880D02*
X119768620Y-124553980D01*
X119768620Y-124553980D02*
X120040400Y-124825760D01*
X115343940Y-133413500D02*
X115343940Y-132280660D01*
X115343940Y-132280660D02*
X115354100Y-132270500D01*
X115443000Y-104086660D02*
X115443000Y-102997000D01*
X108418131Y-124293131D02*
X108418131Y-124372869D01*
X123944380Y-121315480D02*
X124363480Y-121315480D01*
X124363480Y-121315480D02*
X125158500Y-122110500D01*
X126291340Y-122110500D02*
X127307340Y-121094500D01*
X125158500Y-122110500D02*
X126291340Y-122110500D01*
X128483360Y-116469160D02*
X127127000Y-116469160D01*
X127127000Y-116469160D02*
X126873000Y-116723160D01*
X123944380Y-116817140D02*
X125308360Y-116817140D01*
X125308360Y-116817140D02*
X125603000Y-116522500D01*
X128483360Y-116469160D02*
X128513840Y-116469160D01*
X128513840Y-116469160D02*
X129232660Y-115750340D01*
X129232660Y-115750340D02*
X129232660Y-114935000D01*
X127307340Y-114935000D02*
X128270000Y-114935000D01*
X128270000Y-114935000D02*
X129232660Y-114935000D01*
X108592620Y-118816120D02*
X110101380Y-118816120D01*
X110101380Y-118816120D02*
X110109000Y-118808500D01*
X108418131Y-124293131D02*
X108418131Y-124309369D01*
X113268760Y-122991880D02*
X113268760Y-121998740D01*
X113268760Y-121998740D02*
X113728500Y-121539000D01*
X111767620Y-122991880D02*
X111760000Y-121920000D01*
X111760000Y-121920000D02*
X111250000Y-121540000D01*
X108592620Y-115316000D02*
X106055160Y-115316000D01*
X106055160Y-115316000D02*
X105229660Y-116141500D01*
X116268500Y-104965500D02*
X116268500Y-104912160D01*
X116268500Y-104912160D02*
X115443000Y-104086660D01*
X105229660Y-110172500D02*
X104140000Y-110172500D01*
X117094000Y-104086660D02*
X117094000Y-102997000D01*
X116268500Y-107640120D02*
X116268500Y-104965500D01*
X116268500Y-104912160D02*
X117094000Y-104086660D01*
X107481869Y-107592631D02*
X107465631Y-107592631D01*
X107465631Y-107592631D02*
X106680000Y-106807000D01*
X108592620Y-109316520D02*
X106085640Y-109316520D01*
X106085640Y-109316520D02*
X105229660Y-110172500D01*
X123944380Y-115816380D02*
X126425960Y-115816380D01*
X126425960Y-115816380D02*
X127307340Y-114935000D01*
X108592620Y-109316520D02*
X108592620Y-108703382D01*
X108592620Y-108703382D02*
X107481869Y-107592631D01*
X121412000Y-104086660D02*
X121412000Y-102997000D01*
X122267980Y-107640120D02*
X122267980Y-104942640D01*
X122267980Y-104942640D02*
X121412000Y-104086660D01*
X123991869Y-106402369D02*
X124039131Y-106402369D01*
X124039131Y-106402369D02*
X124841000Y-105600500D01*
X122267980Y-107640120D02*
X122754118Y-107640120D01*
X122754118Y-107640120D02*
X123991869Y-106402369D01*
X110269020Y-122991880D02*
X109719382Y-122991880D01*
X109719382Y-122991880D02*
X108418131Y-124293131D01*
X123944380Y-121315480D02*
X123944380Y-121928618D01*
X123944380Y-121928618D02*
X125182131Y-123166369D01*
X115823100Y-136222500D02*
X115623100Y-136222500D01*
X114973100Y-133784340D02*
X115343940Y-133413500D01*
D40*
X114123100Y-134922500D02*
X112534940Y-134922500D01*
X112534940Y-134922500D02*
X112433100Y-134820660D01*
X113840260Y-133413500D02*
X113840260Y-133804660D01*
X113840260Y-133804660D02*
X114123100Y-134087500D01*
X114123100Y-134087500D02*
X114123100Y-134922500D01*
X112397540Y-133350000D02*
X113776760Y-133350000D01*
X113776760Y-133350000D02*
X113840260Y-133413500D01*
D39*
X113804700Y-133377940D02*
X113840260Y-133413500D01*
X114021260Y-134820660D02*
X114123100Y-134922500D01*
X113840260Y-134639660D02*
X114123100Y-134922500D01*
X113830100Y-133403340D02*
X113840260Y-133413500D01*
X112661940Y-134922500D02*
X112560100Y-134820660D01*
X113840260Y-134639660D02*
X114123100Y-134922500D01*
X114757200Y-124774960D02*
X113680240Y-124774960D01*
X113680240Y-124774960D02*
X113639600Y-124815600D01*
D40*
X108633260Y-128043940D02*
X106984800Y-128043940D01*
X108633260Y-128043940D02*
X108661200Y-128016000D01*
D39*
X118226840Y-105590340D02*
X118237000Y-105600500D01*
X118226840Y-105590340D02*
X117094000Y-105590340D01*
X125920500Y-106680000D02*
X125134869Y-107465631D01*
D40*
X114401600Y-131724400D02*
X115214400Y-130911600D01*
D39*
X124968000Y-125095000D02*
X124118869Y-124245869D01*
X107696000Y-105727500D02*
X108497869Y-106529369D01*
X107035600Y-122123200D02*
X107035600Y-123139200D01*
D40*
X115255040Y-130911600D02*
X115214400Y-130911600D01*
D39*
X107354869Y-123229869D02*
X107126269Y-123229869D01*
X107126269Y-123229869D02*
X107035600Y-123139200D01*
X107354869Y-123229869D02*
X107227869Y-123229869D01*
X115768120Y-122991880D02*
X115768120Y-124261880D01*
X115768120Y-124261880D02*
X115255040Y-124774960D01*
X115255040Y-124774960D02*
X114757200Y-124774960D01*
X107354869Y-123229869D02*
X107338631Y-123229869D01*
X124118869Y-124229631D02*
X124118869Y-124245869D01*
X116768880Y-107640120D02*
X116768880Y-105915460D01*
X116768880Y-105915460D02*
X117094000Y-105590340D01*
X116768880Y-105851960D02*
X117030500Y-105590340D01*
X108545131Y-106529369D02*
X108497869Y-106529369D01*
X125055131Y-107465631D02*
X125134869Y-107465631D01*
X108592620Y-121315480D02*
X108592620Y-121992118D01*
X108592620Y-121992118D02*
X107354869Y-123229869D01*
X123944380Y-109316520D02*
X123944380Y-108576382D01*
X123944380Y-108576382D02*
X125055131Y-107465631D01*
X110269020Y-107640120D02*
X109655882Y-107640120D01*
X109655882Y-107640120D02*
X108545131Y-106529369D01*
X122267980Y-122991880D02*
X122881118Y-122991880D01*
X122881118Y-122991880D02*
X124118869Y-124229631D01*
X117269260Y-122991880D02*
X117269260Y-126621540D01*
X115201700Y-129959100D02*
X113141760Y-129959100D01*
X116636800Y-128524000D02*
X115201700Y-129959100D01*
X116636800Y-127254000D02*
X116636800Y-128524000D01*
X117269260Y-126621540D02*
X116636800Y-127254000D01*
D40*
X113141760Y-129959100D02*
X112560100Y-129959100D01*
X112359440Y-130159760D02*
X111607600Y-130159760D01*
X112560100Y-129959100D02*
X112359440Y-130159760D01*
D39*
X118267480Y-122991880D02*
X118267480Y-126385320D01*
X116890800Y-129184400D02*
X116890800Y-130007360D01*
X117195600Y-128879600D02*
X116890800Y-129184400D01*
X117195600Y-127457200D02*
X117195600Y-128879600D01*
X118267480Y-126385320D02*
X117195600Y-127457200D01*
X134600000Y-106240000D02*
X134600000Y-109690000D01*
X134600000Y-103490000D02*
X134600000Y-106240000D01*
X136629200Y-101460800D02*
X134600000Y-103490000D01*
X110336880Y-119816880D02*
X108592620Y-119816880D01*
X110340000Y-119820000D02*
X110336880Y-119816880D01*
X130400000Y-110550000D02*
X130130000Y-110280000D01*
X133740000Y-110550000D02*
X130400000Y-110550000D01*
X134600000Y-109690000D02*
X133740000Y-110550000D01*
X137480800Y-101460800D02*
X136629200Y-101460800D01*
X137480800Y-101460800D02*
X137197600Y-101460800D01*
D40*
X103124000Y-119065040D02*
X103124000Y-121183400D01*
X103124000Y-121183400D02*
X103098600Y-121208800D01*
D39*
X108592620Y-119816880D02*
X103347520Y-119816880D01*
X103347520Y-119816880D02*
X103098600Y-120065800D01*
X103098600Y-120065800D02*
X103098600Y-121208800D01*
X137480800Y-103460800D02*
X137169200Y-103460800D01*
X137169200Y-103460800D02*
X135040000Y-105590000D01*
X135040000Y-105590000D02*
X135040000Y-109907318D01*
X135040000Y-109907318D02*
X133957318Y-110990000D01*
X133957318Y-110990000D02*
X129410000Y-110990000D01*
X110350000Y-120930000D02*
X109737260Y-120317260D01*
X109737260Y-120317260D02*
X108592620Y-120317260D01*
X108615480Y-120294400D02*
X108592620Y-120317260D01*
D40*
X105791000Y-120660160D02*
X104917240Y-120660160D01*
X104917240Y-120660160D02*
X104368600Y-121208800D01*
D39*
X105721150Y-120730010D02*
X105791000Y-120660160D01*
X108592620Y-120317260D02*
X106133900Y-120317260D01*
X106133900Y-120317260D02*
X105791000Y-120660160D01*
D40*
X129245360Y-131165600D02*
X129245360Y-132425440D01*
X129245360Y-132425440D02*
X129235200Y-132435600D01*
X99212400Y-123250960D02*
X98541840Y-123250960D01*
X98541840Y-123250960D02*
X98298000Y-123494800D01*
X119979440Y-135407400D02*
X122097800Y-135407400D01*
X124838460Y-136166860D02*
X124104400Y-135432800D01*
X124104400Y-135432800D02*
X122123200Y-135432800D01*
X124838460Y-136166860D02*
X124838460Y-137058400D01*
X122097800Y-135407400D02*
X122123200Y-135432800D01*
D39*
X125803660Y-121094500D02*
X125895100Y-121094500D01*
X125895100Y-121094500D02*
X126542800Y-120446800D01*
X126542800Y-120446800D02*
X126542800Y-119888000D01*
D40*
X94894400Y-104851200D02*
X96215200Y-104851200D01*
X96215200Y-104851200D02*
X96266000Y-104902000D01*
X96266000Y-104902000D02*
X97586800Y-104902000D01*
X94894400Y-110744000D02*
X94894400Y-104851200D01*
X96266000Y-112064800D02*
X97586800Y-112064800D01*
X94945200Y-112115600D02*
X96215200Y-112115600D01*
X96215200Y-112115600D02*
X96266000Y-112064800D01*
X96316800Y-113334800D02*
X94945200Y-113334800D01*
X97637600Y-113334800D02*
X96316800Y-113334800D01*
X97637600Y-113334800D02*
X97637600Y-112115600D01*
X97637600Y-112115600D02*
X97586800Y-112064800D01*
X96316800Y-113334800D02*
X96316800Y-112115600D01*
X96316800Y-112115600D02*
X96266000Y-112064800D01*
X94945200Y-113334800D02*
X94945200Y-112115600D01*
X96266000Y-110744000D02*
X96266000Y-112064800D01*
X97586800Y-110744000D02*
X97586800Y-112064800D01*
X97586800Y-110744000D02*
X96266000Y-110744000D01*
X96266000Y-110744000D02*
X96316800Y-110794800D01*
X94894400Y-110744000D02*
X94894400Y-112064800D01*
X94894400Y-112064800D02*
X94945200Y-112115600D01*
X94894400Y-110744000D02*
X96266000Y-110744000D01*
X94894000Y-107823000D02*
X94894000Y-110743600D01*
X94894000Y-110743600D02*
X94894400Y-110744000D01*
D39*
X111607600Y-131663440D02*
X110032800Y-131663440D01*
D40*
X110134400Y-133350000D02*
X110134400Y-132689600D01*
X110134400Y-133350000D02*
X111122460Y-133350000D01*
X109750860Y-135737600D02*
X109931200Y-135737600D01*
X109931200Y-135737600D02*
X111122460Y-134546340D01*
X111122460Y-134546340D02*
X111122460Y-133350000D01*
D43*
X110083600Y-126380240D02*
X109026960Y-126380240D01*
X109026960Y-126380240D02*
X109016800Y-126390400D01*
X111607600Y-131663440D02*
X112207040Y-131663440D01*
X112407700Y-131864100D02*
X113141760Y-131864100D01*
X112207040Y-131663440D02*
X112407700Y-131864100D01*
X111122460Y-133350000D02*
X111302800Y-133169660D01*
X111302800Y-133169660D02*
X111302800Y-131968240D01*
X111302800Y-131968240D02*
X111607600Y-131663440D01*
D39*
X126593600Y-127142240D02*
X127650240Y-127142240D01*
X128092200Y-127584200D02*
X128092200Y-129133600D01*
X127650240Y-127142240D02*
X128092200Y-127584200D01*
D40*
X129245360Y-131165600D02*
X128625600Y-131165600D01*
X128092200Y-130632200D02*
X128092200Y-129133600D01*
X128625600Y-131165600D02*
X128092200Y-130632200D01*
D39*
X103124000Y-117561360D02*
X104079040Y-117561360D01*
X104079040Y-117561360D02*
X104292400Y-117348000D01*
D40*
X100558600Y-122605800D02*
X100558600Y-121208800D01*
X99913440Y-123250960D02*
X100558600Y-122605800D01*
X99212400Y-123250960D02*
X99913440Y-123250960D01*
X119926100Y-133822440D02*
X119926100Y-135354060D01*
X119926100Y-135354060D02*
X119979440Y-135407400D01*
D39*
X115559840Y-127812800D02*
X115559840Y-128229360D01*
X115559840Y-128229360D02*
X114808000Y-128981200D01*
X115559840Y-127812800D02*
X115559840Y-127264160D01*
X116768880Y-126055120D02*
X116768880Y-122991880D01*
X115559840Y-127264160D02*
X116768880Y-126055120D01*
X110769400Y-122991880D02*
X110769400Y-123919402D01*
X110804960Y-126380240D02*
X110083600Y-126380240D01*
X110947200Y-126238000D02*
X110804960Y-126380240D01*
X110947200Y-124097202D02*
X110947200Y-126238000D01*
X110769400Y-123919402D02*
X110947200Y-124097202D01*
X105791000Y-122163840D02*
X105791000Y-123317000D01*
X123944380Y-117314980D02*
X125061980Y-117314980D01*
X125061980Y-117314980D02*
X125349000Y-117602000D01*
X130736340Y-114935000D02*
X130736340Y-113865660D01*
X130736340Y-113865660D02*
X130746500Y-113855500D01*
X130596640Y-116268500D02*
X130596640Y-115074700D01*
X130596640Y-115074700D02*
X130736340Y-114935000D01*
X125803660Y-114935000D02*
X125803660Y-113802160D01*
X125803660Y-113802160D02*
X125793500Y-113792000D01*
X106733340Y-116141500D02*
X106733340Y-117274340D01*
X106733340Y-117274340D02*
X106743500Y-117284500D01*
X106733340Y-110172500D02*
X106733340Y-111305340D01*
X106733340Y-111305340D02*
X106743500Y-111315500D01*
X112268000Y-122991880D02*
X112268000Y-121920000D01*
X112268000Y-121920000D02*
X112560000Y-121560000D01*
X108592620Y-115816380D02*
X107058460Y-115816380D01*
X107058460Y-115816380D02*
X106733340Y-116141500D01*
X115443000Y-105590340D02*
X114310160Y-105590340D01*
X114310160Y-105590340D02*
X114300000Y-105600500D01*
X115768120Y-107640120D02*
X115768120Y-105915460D01*
X115768120Y-105915460D02*
X115443000Y-105590340D01*
X108592620Y-109816900D02*
X107088940Y-109816900D01*
X107088940Y-109816900D02*
X106733340Y-110172500D01*
X123944380Y-115316000D02*
X125422660Y-115316000D01*
X125422660Y-115316000D02*
X125803660Y-114935000D01*
X121412000Y-105590340D02*
X120322340Y-105590340D01*
X120322340Y-105590340D02*
X120269000Y-105537000D01*
X121767600Y-107640120D02*
X121767600Y-105945940D01*
X121767600Y-105945940D02*
X121412000Y-105590340D01*
X123944380Y-120815100D02*
X125460760Y-120815100D01*
X125460760Y-120815100D02*
X125803660Y-121158000D01*
X122986800Y-127000000D02*
X123494800Y-127000000D01*
X122428000Y-126441200D02*
X122986800Y-127000000D01*
D41*
X113538000Y-97586800D02*
X113538000Y-96266000D01*
X113538000Y-92354400D02*
X113538000Y-93675200D01*
X111125000Y-92329000D02*
X109156500Y-92329000D01*
X113538000Y-92354400D02*
X112318800Y-92354400D01*
X111125000Y-92329000D02*
X111150400Y-92354400D01*
X111150400Y-92354400D02*
X112318800Y-92354400D01*
X113538000Y-96266000D02*
X113538000Y-94945200D01*
X113538000Y-93675200D02*
X113538000Y-94945200D01*
D39*
X122428000Y-126329440D02*
X122428000Y-126441200D01*
X121269760Y-122991880D02*
X121269760Y-124039758D01*
X121462800Y-125465840D02*
X122326400Y-126329440D01*
X121462800Y-124232798D02*
X121462800Y-125465840D01*
X121269760Y-124039758D02*
X121462800Y-124232798D01*
X121107200Y-130454400D02*
X121615200Y-130962400D01*
X121615200Y-132181600D02*
X121980960Y-132547360D01*
X121615200Y-130962400D02*
X121615200Y-132181600D01*
D40*
X119926100Y-132547360D02*
X121980960Y-132547360D01*
X121980960Y-132547360D02*
X123253500Y-132547360D01*
X123253500Y-132547360D02*
X123342400Y-132458460D01*
X119926100Y-130964940D02*
X119992140Y-130898900D01*
X119926100Y-132547360D02*
X118516400Y-132547360D01*
X118516400Y-132547360D02*
X118402100Y-132433060D01*
D39*
X123342400Y-132458460D02*
X123009660Y-132458460D01*
X119992140Y-130898900D02*
X119992140Y-129527300D01*
X119992140Y-129527300D02*
X120091200Y-129428240D01*
X120091200Y-126329440D02*
X120233440Y-126329440D01*
X120233440Y-126329440D02*
X121107200Y-127203200D01*
X120662700Y-130898900D02*
X119992140Y-130898900D01*
X121107200Y-130454400D02*
X121056400Y-130505200D01*
X121056400Y-130505200D02*
X120662700Y-130898900D01*
X121107200Y-127203200D02*
X121107200Y-130454400D01*
X120091200Y-126329440D02*
X120284240Y-126329440D01*
X120091200Y-126329440D02*
X120385840Y-126329440D01*
X119268240Y-122991880D02*
X119268240Y-125455680D01*
X119268240Y-125455680D02*
X120142000Y-126329440D01*
X119989600Y-130896360D02*
X119992140Y-130898900D01*
D41*
X98425000Y-98893000D02*
X96179000Y-98893000D01*
X94274640Y-100797360D02*
X94274640Y-102616000D01*
X96179000Y-98893000D02*
X94274640Y-100797360D01*
X97622360Y-102616000D02*
X99692460Y-102616000D01*
D39*
X106934000Y-124815600D02*
X107188000Y-124815600D01*
X105562400Y-126187200D02*
X106934000Y-124815600D01*
X105562400Y-128371600D02*
X105562400Y-126187200D01*
X104749600Y-129184400D02*
X105562400Y-128371600D01*
X101041200Y-129184400D02*
X104749600Y-129184400D01*
X98450400Y-131775200D02*
X101041200Y-129184400D01*
X98450400Y-132842000D02*
X98450400Y-131775200D01*
X97542600Y-133749800D02*
X98450400Y-132842000D01*
X110169960Y-116316760D02*
X108592620Y-116316760D01*
X110185200Y-116332000D02*
X110169960Y-116316760D01*
X96897700Y-133749800D02*
X97542600Y-133749800D01*
X106324400Y-124815600D02*
X106324400Y-124409200D01*
X105105200Y-126034800D02*
X106324400Y-124815600D01*
X105105200Y-128168400D02*
X105105200Y-126034800D01*
X104546400Y-128727200D02*
X105105200Y-128168400D01*
X100838000Y-128727200D02*
X104546400Y-128727200D01*
X97815400Y-131749800D02*
X100838000Y-128727200D01*
X110177580Y-114815620D02*
X108592620Y-114815620D01*
X110185200Y-114808000D02*
X110177580Y-114815620D01*
X96897700Y-131749800D02*
X97815400Y-131749800D01*
X108592620Y-114815620D02*
X104284780Y-114815620D01*
X104284780Y-114815620D02*
X103047800Y-116052600D01*
X103047800Y-116052600D02*
X103047800Y-116408200D01*
X96897700Y-129749800D02*
X98088200Y-129749800D01*
X104099360Y-114315240D02*
X102311200Y-116103400D01*
X102311200Y-116103400D02*
X102311200Y-116840000D01*
X102311200Y-116840000D02*
X99593400Y-119557800D01*
X99593400Y-119557800D02*
X99593400Y-121793000D01*
X99593400Y-121793000D02*
X99263200Y-122123200D01*
X104099360Y-114315240D02*
X108592620Y-114315240D01*
X98501200Y-126136400D02*
X98094800Y-125730000D01*
X98501200Y-129336800D02*
X98501200Y-126136400D01*
X98088200Y-129749800D02*
X98501200Y-129336800D01*
X99110800Y-121259600D02*
X99110800Y-121310400D01*
X103957542Y-113814860D02*
X101854000Y-115918402D01*
X101854000Y-115918402D02*
X101854000Y-116687600D01*
X101854000Y-116687600D02*
X99110800Y-119430800D01*
X99110800Y-119430800D02*
X99110800Y-121259600D01*
X108592620Y-113814860D02*
X103957542Y-113814860D01*
X99110800Y-121310400D02*
X97910900Y-122510300D01*
X97910900Y-122510300D02*
X96859600Y-122510300D01*
X108592620Y-113317020D02*
X103751380Y-113317020D01*
X101346000Y-116433600D02*
X97269300Y-120510300D01*
X101346000Y-115722400D02*
X101346000Y-116433600D01*
X103751380Y-113317020D02*
X101346000Y-115722400D01*
X96859600Y-118510300D02*
X98558100Y-118510300D01*
X103540560Y-112816640D02*
X108592620Y-112816640D01*
X100838000Y-115519200D02*
X103540560Y-112816640D01*
X100838000Y-116230400D02*
X100838000Y-115519200D01*
X98558100Y-118510300D02*
X100838000Y-116230400D01*
X115267740Y-122991880D02*
X115267740Y-121917460D01*
X115824000Y-121361200D02*
X115267740Y-121917460D01*
X134772400Y-125272800D02*
X131165600Y-125272800D01*
X135483600Y-125933200D02*
X135178800Y-126238000D01*
X114767360Y-121371360D02*
X114767360Y-122991880D01*
X114757200Y-121361200D02*
X114767360Y-121371360D01*
X135178800Y-126238000D02*
X131064000Y-126238000D01*
X132793740Y-112085120D02*
X133431280Y-112085120D01*
X138464800Y-106476800D02*
X139480800Y-105460800D01*
X136398000Y-106476800D02*
X138464800Y-106476800D01*
X135483600Y-107391200D02*
X136398000Y-106476800D01*
X135483600Y-110032800D02*
X135483600Y-107391200D01*
X133431280Y-112085120D02*
X135483600Y-110032800D01*
D40*
X130596640Y-118173500D02*
X131457700Y-118173500D01*
X132793740Y-116837460D02*
X132793740Y-112085120D01*
X131457700Y-118173500D02*
X132793740Y-116837460D01*
X126794260Y-112085120D02*
X132793740Y-112085120D01*
D39*
X119634600Y-94489700D02*
X119666600Y-94457700D01*
X129326640Y-119583200D02*
X130505200Y-119583200D01*
X130505200Y-119583200D02*
X130492500Y-119570500D01*
X131902200Y-120980200D02*
X131902200Y-123545600D01*
X130492500Y-119570500D02*
X131902200Y-120980200D01*
X123944380Y-117815360D02*
X122996960Y-117815360D01*
X122996960Y-117815360D02*
X122377200Y-117195600D01*
X121767600Y-117957600D02*
X122125740Y-118315740D01*
X122125740Y-118315740D02*
X123944380Y-118315740D01*
X121818400Y-118973600D02*
X121975880Y-118816120D01*
X121975880Y-118816120D02*
X123944380Y-118816120D01*
X122948700Y-119316500D02*
X123944380Y-119316500D01*
X122580400Y-119684800D02*
X122948700Y-119316500D01*
X129362200Y-127533400D02*
X129362200Y-129133600D01*
X129311400Y-127482600D02*
X129362200Y-127533400D01*
X130632200Y-127254000D02*
X130632200Y-129133600D01*
X130149600Y-126771400D02*
X130632200Y-127254000D01*
X130632200Y-123545600D02*
X130632200Y-120802200D01*
X130632200Y-120802200D02*
X130630000Y-120800000D01*
X126873000Y-118163340D02*
X128473200Y-118163340D01*
X128473200Y-118163340D02*
X128483360Y-118173500D01*
X123944380Y-119816880D02*
X124785120Y-119816880D01*
X126248160Y-118163340D02*
X126873000Y-118163340D01*
X125857000Y-118554500D02*
X126248160Y-118163340D01*
X125857000Y-118745000D02*
X125857000Y-118554500D01*
X124785120Y-119816880D02*
X125857000Y-118745000D01*
D40*
X114123100Y-136222500D02*
X112534940Y-136222500D01*
X112534940Y-136222500D02*
X112433100Y-136324340D01*
D39*
X114021260Y-136324340D02*
X114123100Y-136222500D01*
X115823100Y-134922500D02*
X115823100Y-134773300D01*
X115823100Y-134773300D02*
X116586000Y-134010400D01*
X116890800Y-132130800D02*
X116890800Y-131511040D01*
X116586000Y-132435600D02*
X116890800Y-132130800D01*
X116586000Y-134010400D02*
X116586000Y-132435600D01*
X115823100Y-134922500D02*
X115877100Y-134922500D01*
D40*
X139242800Y-118211600D02*
X135585200Y-118211600D01*
X135585200Y-118211600D02*
X135559800Y-118186200D01*
X136448800Y-119174260D02*
X136448800Y-119075200D01*
X136448800Y-119075200D02*
X135559800Y-118186200D01*
X135559800Y-118186200D02*
X134797800Y-118948200D01*
X134797800Y-118948200D02*
X134797800Y-119174260D01*
D39*
X126593600Y-125638560D02*
X127497840Y-125638560D01*
X128092200Y-125044200D02*
X128092200Y-123545600D01*
X127497840Y-125638560D02*
X128092200Y-125044200D01*
X129362200Y-123545600D02*
X129362200Y-120877800D01*
X129460000Y-102840000D02*
X128770000Y-102840000D01*
X131930000Y-105310000D02*
X129460000Y-102840000D01*
X129362200Y-120877800D02*
X129430000Y-120810000D01*
X128371600Y-121767600D02*
X128320800Y-121767600D01*
X133474460Y-120677940D02*
X132740400Y-121412000D01*
X132740400Y-121412000D02*
X132740400Y-121920000D01*
X134797800Y-120677940D02*
X133474460Y-120677940D01*
X127000000Y-122580400D02*
X127000000Y-124358400D01*
X127508000Y-122072400D02*
X127000000Y-122580400D01*
X128016000Y-122072400D02*
X127508000Y-122072400D01*
X128320800Y-121767600D02*
X128016000Y-122072400D01*
X120269000Y-122097800D02*
X120269000Y-122991880D01*
X119684800Y-121361200D02*
X120269000Y-122097800D01*
X118465600Y-127924560D02*
X118465600Y-126898400D01*
X118465600Y-126898400D02*
X118770400Y-126593600D01*
X120091200Y-127924560D02*
X120091200Y-127914400D01*
X120091200Y-127914400D02*
X118770400Y-126593600D01*
X118770400Y-126593600D02*
X118767860Y-126591060D01*
X118767860Y-126591060D02*
X118767860Y-122991880D01*
X118465600Y-129428240D02*
X118465600Y-130876040D01*
X118465600Y-130876040D02*
X118488460Y-130898900D01*
X118478300Y-130888740D02*
X118488460Y-130898900D01*
X105867200Y-133858000D02*
X105460800Y-133858000D01*
X110032800Y-130159760D02*
X109067600Y-131124960D01*
X109067600Y-132892800D02*
X109067600Y-131124960D01*
X108102400Y-133858000D02*
X109067600Y-132892800D01*
X105867200Y-133858000D02*
X108102400Y-133858000D01*
X105460800Y-133858000D02*
X103936800Y-132334000D01*
X103936800Y-132334000D02*
X102971600Y-132334000D01*
X111267240Y-122991880D02*
X111267240Y-123764040D01*
X110032800Y-128879600D02*
X110032800Y-130159760D01*
X111404400Y-127508000D02*
X110032800Y-128879600D01*
X111404400Y-123901200D02*
X111404400Y-127508000D01*
X111267240Y-123764040D02*
X111404400Y-123901200D01*
X108592620Y-119316500D02*
X107114340Y-119316500D01*
X107114340Y-119316500D02*
X106733340Y-118935500D01*
X126187200Y-119176800D02*
X127505460Y-119176800D01*
X127505460Y-119176800D02*
X127518160Y-119189500D01*
X123944380Y-120317260D02*
X125046740Y-120317260D01*
X125793500Y-119570500D02*
X126187200Y-119176800D01*
X126187200Y-119176800D02*
X126197360Y-119176800D01*
X125046740Y-120317260D02*
X125793500Y-119570500D01*
X112768380Y-122991880D02*
X112768380Y-124462540D01*
X111767620Y-105827620D02*
X111370000Y-105430000D01*
X111767620Y-105827620D02*
X111767620Y-107640120D01*
X112268000Y-107640120D02*
X112268000Y-105902000D01*
X112268000Y-105902000D02*
X113230000Y-104940000D01*
X120769380Y-108620620D02*
X120130000Y-109260000D01*
X120769380Y-107640120D02*
X120769380Y-108620620D01*
X121269760Y-108899760D02*
X121269760Y-107640120D01*
X121600000Y-109230000D02*
X121269760Y-108899760D01*
X125316900Y-109816900D02*
X123944380Y-109816900D01*
X125430000Y-109930000D02*
X125316900Y-109816900D01*
X122716760Y-116316760D02*
X122410000Y-116010000D01*
X122410000Y-116010000D02*
X122410000Y-110990000D01*
X123944380Y-116316760D02*
X122716760Y-116316760D01*
D44*
G36*
X106140130Y-98811252D02*
X106422545Y-98999955D01*
X106611248Y-99282370D01*
X106680000Y-99628009D01*
X106680000Y-102535381D01*
X106679514Y-102565512D01*
X106632952Y-104008933D01*
X106581530Y-104281633D01*
X106454508Y-104517140D01*
X106254881Y-104709899D01*
X104143393Y-106197538D01*
X103895873Y-106320273D01*
X103622840Y-106362500D01*
X101152009Y-106362500D01*
X100806370Y-106293748D01*
X100523955Y-106105045D01*
X100335252Y-105822630D01*
X100266500Y-105476991D01*
X100266500Y-104184261D01*
X100276050Y-104136251D01*
X100296158Y-104106158D01*
X100326251Y-104086050D01*
X100471578Y-104057142D01*
X100517359Y-104038178D01*
X100589462Y-103990000D01*
X100624500Y-103954962D01*
X100672678Y-103882859D01*
X100691642Y-103837078D01*
X100708560Y-103752027D01*
X100711000Y-103727250D01*
X100711000Y-102676009D01*
X100779752Y-102330370D01*
X100968455Y-102047955D01*
X101250870Y-101859252D01*
X101596509Y-101790500D01*
X102441500Y-101790500D01*
X102466276Y-101788060D01*
X102848959Y-101711940D01*
X102894740Y-101692977D01*
X103219164Y-101476204D01*
X103254204Y-101441164D01*
X103470977Y-101116740D01*
X103489940Y-101070959D01*
X103566060Y-100688276D01*
X103568500Y-100663500D01*
X103568500Y-99628009D01*
X103637252Y-99282370D01*
X103825955Y-98999955D01*
X104108370Y-98811252D01*
X104454009Y-98742500D01*
X105794491Y-98742500D01*
X106140130Y-98811252D01*
X106140130Y-98811252D01*
G37*
X106140130Y-98811252D02*
X106422545Y-98999955D01*
X106611248Y-99282370D01*
X106680000Y-99628009D01*
X106680000Y-102535381D01*
X106679514Y-102565512D01*
X106632952Y-104008933D01*
X106581530Y-104281633D01*
X106454508Y-104517140D01*
X106254881Y-104709899D01*
X104143393Y-106197538D01*
X103895873Y-106320273D01*
X103622840Y-106362500D01*
X101152009Y-106362500D01*
X100806370Y-106293748D01*
X100523955Y-106105045D01*
X100335252Y-105822630D01*
X100266500Y-105476991D01*
X100266500Y-104184261D01*
X100276050Y-104136251D01*
X100296158Y-104106158D01*
X100326251Y-104086050D01*
X100471578Y-104057142D01*
X100517359Y-104038178D01*
X100589462Y-103990000D01*
X100624500Y-103954962D01*
X100672678Y-103882859D01*
X100691642Y-103837078D01*
X100708560Y-103752027D01*
X100711000Y-103727250D01*
X100711000Y-102676009D01*
X100779752Y-102330370D01*
X100968455Y-102047955D01*
X101250870Y-101859252D01*
X101596509Y-101790500D01*
X102441500Y-101790500D01*
X102466276Y-101788060D01*
X102848959Y-101711940D01*
X102894740Y-101692977D01*
X103219164Y-101476204D01*
X103254204Y-101441164D01*
X103470977Y-101116740D01*
X103489940Y-101070959D01*
X103566060Y-100688276D01*
X103568500Y-100663500D01*
X103568500Y-99628009D01*
X103637252Y-99282370D01*
X103825955Y-98999955D01*
X104108370Y-98811252D01*
X104454009Y-98742500D01*
X105794491Y-98742500D01*
X106140130Y-98811252D01*
G36*
X113963330Y-91445252D02*
X114245745Y-91633955D01*
X114434448Y-91916370D01*
X114503200Y-92262009D01*
X114503200Y-101031991D01*
X114434448Y-101377630D01*
X114245745Y-101660045D01*
X113963330Y-101848748D01*
X113617691Y-101917500D01*
X111361424Y-101917500D01*
X111304779Y-101893979D01*
X110896213Y-101893622D01*
X110838424Y-101917500D01*
X108581509Y-101917500D01*
X108235870Y-101848748D01*
X107953455Y-101660045D01*
X107764752Y-101377630D01*
X107696000Y-101031991D01*
X107696000Y-99234500D01*
X107693560Y-99209724D01*
X107617440Y-98827041D01*
X107598477Y-98781260D01*
X107381704Y-98456836D01*
X107346664Y-98421796D01*
X107022240Y-98205023D01*
X106976459Y-98186060D01*
X106593776Y-98109940D01*
X106569000Y-98107500D01*
X104835009Y-98107500D01*
X104489370Y-98038748D01*
X104206955Y-97850045D01*
X104018252Y-97567630D01*
X103949500Y-97221991D01*
X103949500Y-97151509D01*
X104018252Y-96805870D01*
X104206955Y-96523455D01*
X104489370Y-96334752D01*
X104835009Y-96266000D01*
X106138786Y-96266000D01*
X106163562Y-96263560D01*
X106546246Y-96187440D01*
X106592028Y-96168477D01*
X106916451Y-95951704D01*
X106935696Y-95935910D01*
X108318410Y-94553196D01*
X108334204Y-94533951D01*
X108550977Y-94209528D01*
X108569940Y-94163746D01*
X108646060Y-93781062D01*
X108648500Y-93756286D01*
X108648500Y-92262009D01*
X108717252Y-91916370D01*
X108905955Y-91633955D01*
X109188370Y-91445252D01*
X109534009Y-91376500D01*
X113617691Y-91376500D01*
X113963330Y-91445252D01*
X113963330Y-91445252D01*
G37*
X113963330Y-91445252D02*
X114245745Y-91633955D01*
X114434448Y-91916370D01*
X114503200Y-92262009D01*
X114503200Y-101031991D01*
X114434448Y-101377630D01*
X114245745Y-101660045D01*
X113963330Y-101848748D01*
X113617691Y-101917500D01*
X111361424Y-101917500D01*
X111304779Y-101893979D01*
X110896213Y-101893622D01*
X110838424Y-101917500D01*
X108581509Y-101917500D01*
X108235870Y-101848748D01*
X107953455Y-101660045D01*
X107764752Y-101377630D01*
X107696000Y-101031991D01*
X107696000Y-99234500D01*
X107693560Y-99209724D01*
X107617440Y-98827041D01*
X107598477Y-98781260D01*
X107381704Y-98456836D01*
X107346664Y-98421796D01*
X107022240Y-98205023D01*
X106976459Y-98186060D01*
X106593776Y-98109940D01*
X106569000Y-98107500D01*
X104835009Y-98107500D01*
X104489370Y-98038748D01*
X104206955Y-97850045D01*
X104018252Y-97567630D01*
X103949500Y-97221991D01*
X103949500Y-97151509D01*
X104018252Y-96805870D01*
X104206955Y-96523455D01*
X104489370Y-96334752D01*
X104835009Y-96266000D01*
X106138786Y-96266000D01*
X106163562Y-96263560D01*
X106546246Y-96187440D01*
X106592028Y-96168477D01*
X106916451Y-95951704D01*
X106935696Y-95935910D01*
X108318410Y-94553196D01*
X108334204Y-94533951D01*
X108550977Y-94209528D01*
X108569940Y-94163746D01*
X108646060Y-93781062D01*
X108648500Y-93756286D01*
X108648500Y-92262009D01*
X108717252Y-91916370D01*
X108905955Y-91633955D01*
X109188370Y-91445252D01*
X109534009Y-91376500D01*
X113617691Y-91376500D01*
X113963330Y-91445252D01*
G36*
X107170554Y-91451304D02*
X107478760Y-91657240D01*
X107684696Y-91965446D01*
X107759500Y-92341509D01*
X107759500Y-93555275D01*
X107738161Y-93667432D01*
X107677122Y-93763917D01*
X106550990Y-94967713D01*
X106148940Y-95294344D01*
X105681769Y-95497036D01*
X105168585Y-95567500D01*
X103829252Y-95567500D01*
X103807587Y-95569362D01*
X103382600Y-95642941D01*
X103341791Y-95657508D01*
X102609904Y-96071034D01*
X102217338Y-96139000D01*
X96183009Y-96139000D01*
X95454686Y-95994127D01*
X94847848Y-95588652D01*
X94442373Y-94981814D01*
X94297500Y-94253491D01*
X94297500Y-93262009D01*
X94442373Y-92533686D01*
X94847848Y-91926848D01*
X95454686Y-91521373D01*
X96183009Y-91376500D01*
X106794491Y-91376500D01*
X107170554Y-91451304D01*
X107170554Y-91451304D01*
G37*
X107170554Y-91451304D02*
X107478760Y-91657240D01*
X107684696Y-91965446D01*
X107759500Y-92341509D01*
X107759500Y-93555275D01*
X107738161Y-93667432D01*
X107677122Y-93763917D01*
X106550990Y-94967713D01*
X106148940Y-95294344D01*
X105681769Y-95497036D01*
X105168585Y-95567500D01*
X103829252Y-95567500D01*
X103807587Y-95569362D01*
X103382600Y-95642941D01*
X103341791Y-95657508D01*
X102609904Y-96071034D01*
X102217338Y-96139000D01*
X96183009Y-96139000D01*
X95454686Y-95994127D01*
X94847848Y-95588652D01*
X94442373Y-94981814D01*
X94297500Y-94253491D01*
X94297500Y-93262009D01*
X94442373Y-92533686D01*
X94847848Y-91926848D01*
X95454686Y-91521373D01*
X96183009Y-91376500D01*
X106794491Y-91376500D01*
X107170554Y-91451304D01*
G36*
X98964630Y-104018252D02*
X99247045Y-104206955D01*
X99435748Y-104489370D01*
X99504500Y-104835009D01*
X99504500Y-105870500D01*
X99506940Y-105895276D01*
X99583060Y-106277959D01*
X99602023Y-106323740D01*
X99818796Y-106648164D01*
X99853836Y-106683204D01*
X100178260Y-106899977D01*
X100224041Y-106918940D01*
X100606724Y-106995060D01*
X100631500Y-106997500D01*
X101714490Y-106997500D01*
X102041954Y-107062637D01*
X102308957Y-107241043D01*
X102487363Y-107508046D01*
X102550012Y-107823000D01*
X102487363Y-108137954D01*
X102308957Y-108404957D01*
X102041954Y-108583363D01*
X101714490Y-108648500D01*
X100822000Y-108648500D01*
X100797224Y-108650940D01*
X100414541Y-108727060D01*
X100368760Y-108746023D01*
X100044336Y-108962796D01*
X100040641Y-108966491D01*
X100035763Y-108967409D01*
X99890433Y-109060927D01*
X99792936Y-109203619D01*
X99758635Y-109373000D01*
X99758635Y-109443074D01*
X99697440Y-109750724D01*
X99695000Y-109775500D01*
X99695000Y-113223991D01*
X99626248Y-113569630D01*
X99437545Y-113852045D01*
X99155130Y-114040748D01*
X98809491Y-114109500D01*
X94675009Y-114109500D01*
X94329370Y-114040748D01*
X94046955Y-113852045D01*
X93858252Y-113569630D01*
X93789500Y-113223991D01*
X93789500Y-104835009D01*
X93858252Y-104489370D01*
X94046955Y-104206955D01*
X94329370Y-104018252D01*
X94675009Y-103949500D01*
X98618991Y-103949500D01*
X98964630Y-104018252D01*
X98964630Y-104018252D01*
G37*
X98964630Y-104018252D02*
X99247045Y-104206955D01*
X99435748Y-104489370D01*
X99504500Y-104835009D01*
X99504500Y-105870500D01*
X99506940Y-105895276D01*
X99583060Y-106277959D01*
X99602023Y-106323740D01*
X99818796Y-106648164D01*
X99853836Y-106683204D01*
X100178260Y-106899977D01*
X100224041Y-106918940D01*
X100606724Y-106995060D01*
X100631500Y-106997500D01*
X101714490Y-106997500D01*
X102041954Y-107062637D01*
X102308957Y-107241043D01*
X102487363Y-107508046D01*
X102550012Y-107823000D01*
X102487363Y-108137954D01*
X102308957Y-108404957D01*
X102041954Y-108583363D01*
X101714490Y-108648500D01*
X100822000Y-108648500D01*
X100797224Y-108650940D01*
X100414541Y-108727060D01*
X100368760Y-108746023D01*
X100044336Y-108962796D01*
X100040641Y-108966491D01*
X100035763Y-108967409D01*
X99890433Y-109060927D01*
X99792936Y-109203619D01*
X99758635Y-109373000D01*
X99758635Y-109443074D01*
X99697440Y-109750724D01*
X99695000Y-109775500D01*
X99695000Y-113223991D01*
X99626248Y-113569630D01*
X99437545Y-113852045D01*
X99155130Y-114040748D01*
X98809491Y-114109500D01*
X94675009Y-114109500D01*
X94329370Y-114040748D01*
X94046955Y-113852045D01*
X93858252Y-113569630D01*
X93789500Y-113223991D01*
X93789500Y-104835009D01*
X93858252Y-104489370D01*
X94046955Y-104206955D01*
X94329370Y-104018252D01*
X94675009Y-103949500D01*
X98618991Y-103949500D01*
X98964630Y-104018252D01*
D39*
G36*
X101853600Y-121183800D02*
X101873600Y-121183800D01*
X101873600Y-121233800D01*
X101853600Y-121233800D01*
X101853600Y-122492540D01*
X101948350Y-122587290D01*
X102202237Y-122587290D01*
X102224041Y-122619201D01*
X102265768Y-122646051D01*
X102311200Y-122654600D01*
X104726200Y-122654600D01*
X104726200Y-125418310D01*
X104488350Y-125418310D01*
X104393600Y-125513060D01*
X104393600Y-126771800D01*
X104413600Y-126771800D01*
X104413600Y-126821800D01*
X104393600Y-126821800D01*
X104393600Y-126841800D01*
X104343600Y-126841800D01*
X104343600Y-126821800D01*
X103784630Y-126821800D01*
X103733600Y-126872830D01*
X103682570Y-126821800D01*
X103123600Y-126821800D01*
X103123600Y-126841800D01*
X103073600Y-126841800D01*
X103073600Y-126821800D01*
X102514630Y-126821800D01*
X102463600Y-126872830D01*
X102412570Y-126821800D01*
X101853600Y-126821800D01*
X101853600Y-126841800D01*
X101803600Y-126841800D01*
X101803600Y-126821800D01*
X101244630Y-126821800D01*
X101193600Y-126872830D01*
X101142570Y-126821800D01*
X100583600Y-126821800D01*
X100583600Y-126841800D01*
X100533600Y-126841800D01*
X100533600Y-126821800D01*
X100513600Y-126821800D01*
X100513600Y-126771800D01*
X100533600Y-126771800D01*
X100533600Y-125513060D01*
X100583600Y-125513060D01*
X100583600Y-126771800D01*
X101142570Y-126771800D01*
X101193600Y-126720770D01*
X101244630Y-126771800D01*
X101803600Y-126771800D01*
X101803600Y-125513060D01*
X101853600Y-125513060D01*
X101853600Y-126771800D01*
X102412570Y-126771800D01*
X102463600Y-126720770D01*
X102514630Y-126771800D01*
X103073600Y-126771800D01*
X103073600Y-125513060D01*
X103123600Y-125513060D01*
X103123600Y-126771800D01*
X103682570Y-126771800D01*
X103733600Y-126720770D01*
X103784630Y-126771800D01*
X104343600Y-126771800D01*
X104343600Y-125513060D01*
X104248850Y-125418310D01*
X103993492Y-125418310D01*
X103854194Y-125476009D01*
X103747579Y-125582624D01*
X103733600Y-125616372D01*
X103719621Y-125582624D01*
X103613006Y-125476009D01*
X103473708Y-125418310D01*
X103218350Y-125418310D01*
X103123600Y-125513060D01*
X103073600Y-125513060D01*
X102978850Y-125418310D01*
X102723492Y-125418310D01*
X102584194Y-125476009D01*
X102477579Y-125582624D01*
X102463600Y-125616372D01*
X102449621Y-125582624D01*
X102343006Y-125476009D01*
X102203708Y-125418310D01*
X101948350Y-125418310D01*
X101853600Y-125513060D01*
X101803600Y-125513060D01*
X101708850Y-125418310D01*
X101453492Y-125418310D01*
X101314194Y-125476009D01*
X101207579Y-125582624D01*
X101193600Y-125616372D01*
X101179621Y-125582624D01*
X101073006Y-125476009D01*
X100933708Y-125418310D01*
X100678350Y-125418310D01*
X100583600Y-125513060D01*
X100533600Y-125513060D01*
X100438850Y-125418310D01*
X100183492Y-125418310D01*
X100150200Y-125432100D01*
X100150200Y-125272800D01*
X100140352Y-125224168D01*
X100112359Y-125183199D01*
X100091780Y-125169957D01*
X100091780Y-124874390D01*
X99997030Y-124779640D01*
X99237400Y-124779640D01*
X99237400Y-124799640D01*
X99187400Y-124799640D01*
X99187400Y-124779640D01*
X99167400Y-124779640D01*
X99167400Y-124729640D01*
X99187400Y-124729640D01*
X99187400Y-124709640D01*
X99237400Y-124709640D01*
X99237400Y-124729640D01*
X99997030Y-124729640D01*
X100091780Y-124634890D01*
X100091780Y-124229672D01*
X100041538Y-124108377D01*
X100665376Y-123388564D01*
X101003370Y-123050570D01*
X101139720Y-122846508D01*
X101141079Y-122839676D01*
X101301478Y-122654600D01*
X101346000Y-122654600D01*
X101394632Y-122644752D01*
X101435601Y-122616759D01*
X101454563Y-122587290D01*
X101708850Y-122587290D01*
X101803600Y-122492540D01*
X101803600Y-121233800D01*
X101783600Y-121233800D01*
X101783600Y-121183800D01*
X101803600Y-121183800D01*
X101803600Y-121163800D01*
X101853600Y-121163800D01*
X101853600Y-121183800D01*
X101853600Y-121183800D01*
G37*
X101853600Y-121183800D02*
X101873600Y-121183800D01*
X101873600Y-121233800D01*
X101853600Y-121233800D01*
X101853600Y-122492540D01*
X101948350Y-122587290D01*
X102202237Y-122587290D01*
X102224041Y-122619201D01*
X102265768Y-122646051D01*
X102311200Y-122654600D01*
X104726200Y-122654600D01*
X104726200Y-125418310D01*
X104488350Y-125418310D01*
X104393600Y-125513060D01*
X104393600Y-126771800D01*
X104413600Y-126771800D01*
X104413600Y-126821800D01*
X104393600Y-126821800D01*
X104393600Y-126841800D01*
X104343600Y-126841800D01*
X104343600Y-126821800D01*
X103784630Y-126821800D01*
X103733600Y-126872830D01*
X103682570Y-126821800D01*
X103123600Y-126821800D01*
X103123600Y-126841800D01*
X103073600Y-126841800D01*
X103073600Y-126821800D01*
X102514630Y-126821800D01*
X102463600Y-126872830D01*
X102412570Y-126821800D01*
X101853600Y-126821800D01*
X101853600Y-126841800D01*
X101803600Y-126841800D01*
X101803600Y-126821800D01*
X101244630Y-126821800D01*
X101193600Y-126872830D01*
X101142570Y-126821800D01*
X100583600Y-126821800D01*
X100583600Y-126841800D01*
X100533600Y-126841800D01*
X100533600Y-126821800D01*
X100513600Y-126821800D01*
X100513600Y-126771800D01*
X100533600Y-126771800D01*
X100533600Y-125513060D01*
X100583600Y-125513060D01*
X100583600Y-126771800D01*
X101142570Y-126771800D01*
X101193600Y-126720770D01*
X101244630Y-126771800D01*
X101803600Y-126771800D01*
X101803600Y-125513060D01*
X101853600Y-125513060D01*
X101853600Y-126771800D01*
X102412570Y-126771800D01*
X102463600Y-126720770D01*
X102514630Y-126771800D01*
X103073600Y-126771800D01*
X103073600Y-125513060D01*
X103123600Y-125513060D01*
X103123600Y-126771800D01*
X103682570Y-126771800D01*
X103733600Y-126720770D01*
X103784630Y-126771800D01*
X104343600Y-126771800D01*
X104343600Y-125513060D01*
X104248850Y-125418310D01*
X103993492Y-125418310D01*
X103854194Y-125476009D01*
X103747579Y-125582624D01*
X103733600Y-125616372D01*
X103719621Y-125582624D01*
X103613006Y-125476009D01*
X103473708Y-125418310D01*
X103218350Y-125418310D01*
X103123600Y-125513060D01*
X103073600Y-125513060D01*
X102978850Y-125418310D01*
X102723492Y-125418310D01*
X102584194Y-125476009D01*
X102477579Y-125582624D01*
X102463600Y-125616372D01*
X102449621Y-125582624D01*
X102343006Y-125476009D01*
X102203708Y-125418310D01*
X101948350Y-125418310D01*
X101853600Y-125513060D01*
X101803600Y-125513060D01*
X101708850Y-125418310D01*
X101453492Y-125418310D01*
X101314194Y-125476009D01*
X101207579Y-125582624D01*
X101193600Y-125616372D01*
X101179621Y-125582624D01*
X101073006Y-125476009D01*
X100933708Y-125418310D01*
X100678350Y-125418310D01*
X100583600Y-125513060D01*
X100533600Y-125513060D01*
X100438850Y-125418310D01*
X100183492Y-125418310D01*
X100150200Y-125432100D01*
X100150200Y-125272800D01*
X100140352Y-125224168D01*
X100112359Y-125183199D01*
X100091780Y-125169957D01*
X100091780Y-124874390D01*
X99997030Y-124779640D01*
X99237400Y-124779640D01*
X99237400Y-124799640D01*
X99187400Y-124799640D01*
X99187400Y-124779640D01*
X99167400Y-124779640D01*
X99167400Y-124729640D01*
X99187400Y-124729640D01*
X99187400Y-124709640D01*
X99237400Y-124709640D01*
X99237400Y-124729640D01*
X99997030Y-124729640D01*
X100091780Y-124634890D01*
X100091780Y-124229672D01*
X100041538Y-124108377D01*
X100665376Y-123388564D01*
X101003370Y-123050570D01*
X101139720Y-122846508D01*
X101141079Y-122839676D01*
X101301478Y-122654600D01*
X101346000Y-122654600D01*
X101394632Y-122644752D01*
X101435601Y-122616759D01*
X101454563Y-122587290D01*
X101708850Y-122587290D01*
X101803600Y-122492540D01*
X101803600Y-121233800D01*
X101783600Y-121233800D01*
X101783600Y-121183800D01*
X101803600Y-121183800D01*
X101803600Y-121163800D01*
X101853600Y-121163800D01*
X101853600Y-121183800D01*
G36*
X119356600Y-118391400D02*
X113205800Y-118391400D01*
X113205800Y-112390600D01*
X119356600Y-112390600D01*
X119356600Y-118391400D01*
X119356600Y-118391400D01*
G37*
X119356600Y-118391400D02*
X113205800Y-118391400D01*
X113205800Y-112390600D01*
X119356600Y-112390600D01*
X119356600Y-118391400D01*
M02*
