M48
INCH,TZ
T1C0.016
T2C0.031
T3C0.039
T4C0.039
T5C0.051
T6C0.099
%
G90
G05
T1
X37360Y-41280
X37360Y-43600
X37380Y-44140
X37380Y-44620
X37900Y-41300
X37900Y-43600
X37900Y-44120
X37920Y-44620
X38420Y-41300
X38420Y-43600
X38420Y-44120
X38440Y-44620
X38620Y-49500
X38700Y-48620
X39040Y-49540
X39080Y-48080
X40570Y-45830
X40800Y-42660
X41000Y-43375
X41040Y-46740
X41060Y-46200
X41060Y-53440
X41480Y-52120
X41580Y-46200
X41650Y-48550
X41860Y-48980
X42000Y-42050
X42025Y-43825
X42025Y-46175
X42140Y-48080
X42200Y-47640
X42200Y-49140
X42400Y-41625
X42520Y-49360
X42780Y-50400
X42900Y-49340
X42920Y-49760
X43350Y-46775
X43360Y-47500
X43360Y-52240
X43380Y-43240
X43380Y-43640
X43380Y-44020
X43380Y-44400
X43380Y-45200
X43380Y-45800
X43560Y-47180
X43760Y-36360
X43799Y-47850
X43820Y-42920
X44138Y-50240
X44220Y-36360
X44315Y-47858
X44378Y-50555
X44600Y-42940
X44700Y-36360
X44700Y-36880
X44700Y-37380
X44700Y-37900
X44700Y-38420
X44740Y-49140
X44740Y-49720
X44775Y-47850
X44900Y-44520
X44920Y-45060
X44920Y-45680
X44920Y-46260
X45000Y-41575
X45040Y-51860
X45180Y-47780
X45200Y-50780
X45415Y-52075
X45450Y-40550
X45540Y-44500
X45540Y-45680
X45540Y-46260
X45560Y-45060
X45600Y-47780
X46100Y-40550
X46100Y-46260
X46120Y-45680
X46140Y-44500
X46140Y-45080
X46550Y-41575
X46640Y-46260
X46660Y-45680
X46680Y-44500
X46680Y-45060
X46860Y-53860
X47120Y-47780
X47350Y-41550
X47800Y-40550
X47940Y-46440
X47960Y-46840
X47980Y-50220
X48080Y-53320
X48180Y-46140
X48240Y-40760
X48260Y-47120
X48620Y-50000
X48640Y-49260
X49000Y-40700
X49150Y-41575
X49180Y-50740
X49200Y-49250
X49350Y-46300
X49450Y-45875
X49525Y-44800
X49575Y-42000
X49580Y-48780
X49820Y-47200
X50000Y-48960
X50140Y-39440
X50180Y-41600
X50220Y-42040
X50500Y-40640
X50500Y-45250
X50540Y-47940
X50580Y-47560
X50880Y-52140
X50910Y-50190
X50920Y-47860
X51000Y-42680
X51240Y-49910
X51400Y-47860
X51475Y-44825
X51480Y-52140
X51520Y-42680
X51600Y-49700
X51640Y-49320
X52260Y-48000
X53060Y-49320
X53340Y-49580
X53720Y-47960
T2
X37346Y-45870
X37346Y-46658
X37346Y-47445
X37346Y-48232
X37346Y-49020
X37361Y-50295
X37361Y-51083
X37361Y-51870
X37361Y-52657
X37361Y-53445
X38134Y-45870
X38134Y-46658
X38134Y-47445
X38134Y-48232
X38134Y-49020
X38149Y-50295
X38149Y-51083
X38149Y-51870
X38149Y-52657
X38149Y-53445
X39580Y-44960
X43740Y-40520
X45980Y-38800
X46355Y-36366
X46355Y-37154
X47143Y-36366
X47143Y-37154
X47930Y-36366
X47930Y-37154
X48717Y-36366
X48717Y-37154
X49505Y-36366
X49505Y-37154
X51215Y-36361
X51215Y-37149
X52003Y-36361
X52003Y-37149
X52790Y-36361
X52790Y-37149
X53577Y-36361
X53577Y-37149
X54126Y-39945
X54126Y-40733
X54126Y-41520
X54126Y-42307
X54126Y-43095
X54186Y-49270
X54186Y-50058
X54186Y-50845
X54186Y-51632
X54186Y-52420
X54365Y-36361
X54365Y-37149
X54914Y-39945
X54914Y-40733
X54914Y-41520
X54914Y-42307
X54914Y-43095
X54974Y-49270
X54974Y-50058
X54974Y-50845
X54974Y-51632
X54974Y-52420
T3
X54820Y-45540
X54820Y-46540
T4
X40540Y-52100
X40540Y-53100
T5
X38750Y-36966
X38750Y-38934
T6
X39319Y-53823
X50866Y-38539
X51980Y-53740
T0
M30
