G04 #@! TF.FileFunction,Legend,Top*
%FSLAX46Y46*%
G04 Gerber Fmt 4.6, Leading zero omitted, Abs format (unit mm)*
G04 Created by KiCad (PCBNEW 4.0.5) date 03/05/17 18:12:25*
%MOMM*%
%LPD*%
G01*
G04 APERTURE LIST*
%ADD10C,0.100000*%
%ADD11C,0.200000*%
%ADD12C,0.254000*%
%ADD13C,0.149860*%
%ADD14C,0.127000*%
%ADD15C,0.120000*%
%ADD16C,0.304800*%
%ADD17C,0.150000*%
%ADD18C,0.381000*%
%ADD19C,0.152400*%
%ADD20C,0.203200*%
%ADD21C,0.300000*%
%ADD22C,0.040640*%
%ADD23R,1.400760X1.400760*%
%ADD24R,1.700480X0.699720*%
%ADD25R,0.699720X1.700480*%
%ADD26R,2.100000X2.100000*%
%ADD27O,2.100000X2.100000*%
%ADD28R,0.999440X2.398980*%
%ADD29R,1.400760X0.999440*%
%ADD30R,2.599640X1.924000*%
%ADD31O,2.599640X1.924000*%
%ADD32R,1.237160X1.037160*%
%ADD33R,1.500000X1.300000*%
%ADD34R,1.400760X1.299160*%
%ADD35R,1.299160X1.400760*%
%ADD36R,2.400000X4.200000*%
%ADD37R,2.400000X1.900000*%
%ADD38R,1.700000X2.200000*%
%ADD39O,1.700000X2.200000*%
%ADD40R,2.200000X1.700000*%
%ADD41O,2.200000X1.700000*%
%ADD42R,1.035000X1.416000*%
%ADD43R,1.416000X1.035000*%
%ADD44C,2.900000*%
%ADD45R,1.250900X1.250900*%
%ADD46R,1.700480X1.898600*%
%ADD47R,3.000960X2.000200*%
%ADD48R,2.000200X3.000960*%
%ADD49C,0.250000*%
G04 APERTURE END LIST*
D10*
X116760000Y-124120000D02*
X116760000Y-124110000D01*
X119300000Y-124120000D02*
X116760000Y-124120000D01*
X119300000Y-127340000D02*
X119300000Y-129980000D01*
X119300000Y-127380000D02*
X119300000Y-124120000D01*
X116760000Y-127350000D02*
X119300000Y-127350000D01*
X116760000Y-124110000D02*
X116760000Y-127350000D01*
D11*
X135529581Y-107652914D02*
X134529581Y-107652914D01*
X134529581Y-107271961D01*
X134577200Y-107176723D01*
X134624819Y-107129104D01*
X134720057Y-107081485D01*
X134862914Y-107081485D01*
X134958152Y-107129104D01*
X135005771Y-107176723D01*
X135053390Y-107271961D01*
X135053390Y-107652914D01*
X135529581Y-106081485D02*
X135053390Y-106414819D01*
X135529581Y-106652914D02*
X134529581Y-106652914D01*
X134529581Y-106271961D01*
X134577200Y-106176723D01*
X134624819Y-106129104D01*
X134720057Y-106081485D01*
X134862914Y-106081485D01*
X134958152Y-106129104D01*
X135005771Y-106176723D01*
X135053390Y-106271961D01*
X135053390Y-106652914D01*
X134529581Y-105462438D02*
X134529581Y-105271961D01*
X134577200Y-105176723D01*
X134672438Y-105081485D01*
X134862914Y-105033866D01*
X135196248Y-105033866D01*
X135386724Y-105081485D01*
X135481962Y-105176723D01*
X135529581Y-105271961D01*
X135529581Y-105462438D01*
X135481962Y-105557676D01*
X135386724Y-105652914D01*
X135196248Y-105700533D01*
X134862914Y-105700533D01*
X134672438Y-105652914D01*
X134577200Y-105557676D01*
X134529581Y-105462438D01*
X134577200Y-104081485D02*
X134529581Y-104176723D01*
X134529581Y-104319580D01*
X134577200Y-104462438D01*
X134672438Y-104557676D01*
X134767676Y-104605295D01*
X134958152Y-104652914D01*
X135101010Y-104652914D01*
X135291486Y-104605295D01*
X135386724Y-104557676D01*
X135481962Y-104462438D01*
X135529581Y-104319580D01*
X135529581Y-104224342D01*
X135481962Y-104081485D01*
X135434343Y-104033866D01*
X135101010Y-104033866D01*
X135101010Y-104224342D01*
X137633201Y-135085200D02*
X137537963Y-135037581D01*
X137395106Y-135037581D01*
X137252248Y-135085200D01*
X137157010Y-135180438D01*
X137109391Y-135275676D01*
X137061772Y-135466152D01*
X137061772Y-135609010D01*
X137109391Y-135799486D01*
X137157010Y-135894724D01*
X137252248Y-135989962D01*
X137395106Y-136037581D01*
X137490344Y-136037581D01*
X137633201Y-135989962D01*
X137680820Y-135942343D01*
X137680820Y-135609010D01*
X137490344Y-135609010D01*
X138109391Y-136037581D02*
X138109391Y-135037581D01*
X138490344Y-135037581D01*
X138585582Y-135085200D01*
X138633201Y-135132819D01*
X138680820Y-135228057D01*
X138680820Y-135370914D01*
X138633201Y-135466152D01*
X138585582Y-135513771D01*
X138490344Y-135561390D01*
X138109391Y-135561390D01*
X139109391Y-136037581D02*
X139109391Y-135037581D01*
X139776057Y-135037581D02*
X139966534Y-135037581D01*
X140061772Y-135085200D01*
X140157010Y-135180438D01*
X140204629Y-135370914D01*
X140204629Y-135704248D01*
X140157010Y-135894724D01*
X140061772Y-135989962D01*
X139966534Y-136037581D01*
X139776057Y-136037581D01*
X139680819Y-135989962D01*
X139585581Y-135894724D01*
X139537962Y-135704248D01*
X139537962Y-135370914D01*
X139585581Y-135180438D01*
X139680819Y-135085200D01*
X139776057Y-135037581D01*
X93815162Y-138628381D02*
X93815162Y-137628381D01*
X94243733Y-137723619D02*
X94291352Y-137676000D01*
X94386590Y-137628381D01*
X94624686Y-137628381D01*
X94719924Y-137676000D01*
X94767543Y-137723619D01*
X94815162Y-137818857D01*
X94815162Y-137914095D01*
X94767543Y-138056952D01*
X94196114Y-138628381D01*
X94815162Y-138628381D01*
X95196114Y-138580762D02*
X95338971Y-138628381D01*
X95577067Y-138628381D01*
X95672305Y-138580762D01*
X95719924Y-138533143D01*
X95767543Y-138437905D01*
X95767543Y-138342667D01*
X95719924Y-138247429D01*
X95672305Y-138199810D01*
X95577067Y-138152190D01*
X95386590Y-138104571D01*
X95291352Y-138056952D01*
X95243733Y-138009333D01*
X95196114Y-137914095D01*
X95196114Y-137818857D01*
X95243733Y-137723619D01*
X95291352Y-137676000D01*
X95386590Y-137628381D01*
X95624686Y-137628381D01*
X95767543Y-137676000D01*
X96958019Y-138628381D02*
X96958019Y-137628381D01*
X97434209Y-138628381D02*
X97434209Y-137628381D01*
X98005638Y-138628381D01*
X98005638Y-137628381D01*
X140863581Y-96386305D02*
X139863581Y-96386305D01*
X139958819Y-95957734D02*
X139911200Y-95910115D01*
X139863581Y-95814877D01*
X139863581Y-95576781D01*
X139911200Y-95481543D01*
X139958819Y-95433924D01*
X140054057Y-95386305D01*
X140149295Y-95386305D01*
X140292152Y-95433924D01*
X140863581Y-96005353D01*
X140863581Y-95386305D01*
X140815962Y-95005353D02*
X140863581Y-94862496D01*
X140863581Y-94624400D01*
X140815962Y-94529162D01*
X140768343Y-94481543D01*
X140673105Y-94433924D01*
X140577867Y-94433924D01*
X140482629Y-94481543D01*
X140435010Y-94529162D01*
X140387390Y-94624400D01*
X140339771Y-94814877D01*
X140292152Y-94910115D01*
X140244533Y-94957734D01*
X140149295Y-95005353D01*
X140054057Y-95005353D01*
X139958819Y-94957734D01*
X139911200Y-94910115D01*
X139863581Y-94814877D01*
X139863581Y-94576781D01*
X139911200Y-94433924D01*
X139863581Y-93052972D02*
X139863581Y-92862495D01*
X139911200Y-92767257D01*
X140006438Y-92672019D01*
X140196914Y-92624400D01*
X140530248Y-92624400D01*
X140720724Y-92672019D01*
X140815962Y-92767257D01*
X140863581Y-92862495D01*
X140863581Y-93052972D01*
X140815962Y-93148210D01*
X140720724Y-93243448D01*
X140530248Y-93291067D01*
X140196914Y-93291067D01*
X140006438Y-93243448D01*
X139911200Y-93148210D01*
X139863581Y-93052972D01*
X139863581Y-92195829D02*
X140673105Y-92195829D01*
X140768343Y-92148210D01*
X140815962Y-92100591D01*
X140863581Y-92005353D01*
X140863581Y-91814876D01*
X140815962Y-91719638D01*
X140768343Y-91672019D01*
X140673105Y-91624400D01*
X139863581Y-91624400D01*
X139863581Y-91291067D02*
X139863581Y-90719638D01*
X140863581Y-91005353D02*
X139863581Y-91005353D01*
D12*
X99870000Y-134805000D02*
X99870000Y-138615000D01*
X97965000Y-136710000D02*
X101775000Y-136710000D01*
X101394000Y-136710000D02*
G75*
G03X101394000Y-136710000I-1524000J0D01*
G01*
X132194300Y-108734860D02*
X133093460Y-108734860D01*
X133093460Y-108734860D02*
X133093460Y-108036360D01*
X133093460Y-108036360D02*
X131493260Y-108036360D01*
X131493260Y-112435640D02*
X133093460Y-112435640D01*
X133093460Y-112435640D02*
X133093460Y-111737140D01*
X133093460Y-111737140D02*
X132194300Y-111737140D01*
X126494540Y-111737140D02*
X126494540Y-112435640D01*
X126494540Y-112435640D02*
X128094740Y-112435640D01*
X126494540Y-111737140D02*
X127393700Y-111737140D01*
X128094740Y-108036360D02*
X126494540Y-108036360D01*
X126494540Y-108036360D02*
X126494540Y-108734860D01*
X126494540Y-108734860D02*
X127393700Y-108734860D01*
X127795020Y-111236760D02*
X128793240Y-112234980D01*
X128793240Y-112234980D02*
X130794760Y-112234980D01*
X130794760Y-112234980D02*
X131792980Y-111236760D01*
X131792980Y-111236760D02*
X131792980Y-109235240D01*
X131792980Y-109235240D02*
X130794760Y-108237020D01*
X130794760Y-108237020D02*
X128793240Y-108237020D01*
X128793240Y-108237020D02*
X127795020Y-109235240D01*
X127795020Y-109235240D02*
X127795020Y-111236760D01*
X128493520Y-112836960D02*
X131094480Y-112836960D01*
X127193040Y-108935520D02*
X127193040Y-111536480D01*
X131094480Y-112836960D02*
X132394960Y-111536480D01*
X132394960Y-111536480D02*
X132394960Y-108935520D01*
X132394960Y-108935520D02*
X131094480Y-107635040D01*
X131094480Y-107635040D02*
X128493520Y-107635040D01*
X127193040Y-111536480D02*
X128493520Y-112836960D01*
X128493520Y-107635040D02*
X127193040Y-108935520D01*
X130794760Y-110236000D02*
G75*
G03X130794760Y-110236000I-1000760J0D01*
G01*
D13*
X108767880Y-107617260D02*
X108569760Y-107815380D01*
X108569760Y-108016040D02*
X108968540Y-107617260D01*
X109169200Y-107617260D02*
X108569760Y-108216700D01*
X108569760Y-108414820D02*
X109367320Y-107617260D01*
X109567980Y-107617260D02*
X108569760Y-108615480D01*
X108569760Y-108816140D02*
X109768640Y-107617260D01*
X108569760Y-109016800D02*
X108569760Y-107617260D01*
X108569760Y-107617260D02*
X109969300Y-107617260D01*
X109969300Y-107617260D02*
X108569760Y-109016800D01*
X109969300Y-123014740D02*
X108569760Y-123014740D01*
X108569760Y-123014740D02*
X108569760Y-121615200D01*
X123967240Y-121615200D02*
X123967240Y-123014740D01*
X123967240Y-123014740D02*
X122669300Y-123014740D01*
X122669300Y-123014740D02*
X122567700Y-123014740D01*
X122567700Y-107617260D02*
X123967240Y-107617260D01*
X123967240Y-107617260D02*
X123967240Y-109016800D01*
X109268260Y-108816140D02*
X109768640Y-108315760D01*
X109768640Y-108315760D02*
X122768360Y-108315760D01*
X122768360Y-108315760D02*
X123268740Y-108816140D01*
X123268740Y-108816140D02*
X123268740Y-121815860D01*
X123268740Y-121815860D02*
X122768360Y-122316240D01*
X122768360Y-122316240D02*
X109768640Y-122316240D01*
X109768640Y-122316240D02*
X109268260Y-121815860D01*
X109268260Y-121815860D02*
X109268260Y-108816140D01*
D14*
X110561120Y-109227620D02*
G75*
G03X110561120Y-109227620I-381000J0D01*
G01*
D15*
X140572800Y-116941600D02*
X140572800Y-114341600D01*
X140572800Y-114341600D02*
X137912800Y-114341600D01*
X137912800Y-114341600D02*
X137912800Y-116941600D01*
X137912800Y-116941600D02*
X140572800Y-116941600D01*
X140572800Y-118211600D02*
X140572800Y-119541600D01*
X140572800Y-119541600D02*
X139242800Y-119541600D01*
D14*
X127584200Y-124358400D02*
X127584200Y-128320800D01*
X127584200Y-128320800D02*
X132410200Y-128320800D01*
X132410200Y-128320800D02*
X132410200Y-124358400D01*
X132410200Y-124358400D02*
X127584200Y-124358400D01*
X128092200Y-124358400D02*
X128092200Y-123266200D01*
X129362200Y-124358400D02*
X129362200Y-123266200D01*
X130632200Y-124358400D02*
X130632200Y-123266200D01*
X131902200Y-123266200D02*
X131902200Y-124358400D01*
X131902200Y-128320800D02*
X131902200Y-129413000D01*
X130632200Y-129413000D02*
X130632200Y-128320800D01*
X129362200Y-129413000D02*
X129362200Y-128320800D01*
X128092200Y-129413000D02*
X128092200Y-128320800D01*
X128793267Y-127584200D02*
G75*
G03X128793267Y-127584200I-472467J0D01*
G01*
X113499900Y-131864100D02*
X112839500Y-131864100D01*
X113499900Y-129959100D02*
X112839500Y-129959100D01*
X114896900Y-130911600D02*
X115557300Y-130911600D01*
X114896900Y-129413000D02*
X114896900Y-132410200D01*
X114896900Y-132410200D02*
X113499900Y-132410200D01*
X113499900Y-132410200D02*
X113499900Y-129413000D01*
X113499900Y-129413000D02*
X114896900Y-129413000D01*
D16*
X104241600Y-133604000D02*
X101701600Y-133604000D01*
X101701600Y-133604000D02*
X104241600Y-131064000D01*
X101701600Y-131064000D02*
X104241600Y-133604000D01*
X101701600Y-136144000D02*
X101701600Y-131064000D01*
X104241600Y-131064000D02*
X104241600Y-136144000D01*
X101701600Y-131064000D02*
X104241600Y-131064000D01*
X104241600Y-136144000D02*
X101701600Y-136144000D01*
D17*
X113728500Y-134823200D02*
G75*
G03X113969800Y-134581900I0J241300D01*
G01*
X114273100Y-137072500D02*
X113973100Y-136772500D01*
X113273100Y-136072500D02*
X113573100Y-136372500D01*
X114273100Y-137072500D02*
X113273100Y-137072500D01*
X113273100Y-137072500D02*
X113273100Y-136072500D01*
X113373100Y-136172500D02*
X113373100Y-136972500D01*
X113373100Y-136972500D02*
X114173100Y-136972500D01*
X113473100Y-136872500D02*
X113473100Y-136272500D01*
X113473100Y-136872500D02*
X114073100Y-136872500D01*
X113944500Y-136550300D02*
G75*
G03X113744500Y-136350300I-200000J0D01*
G01*
X116189000Y-136363000D02*
G75*
G03X115989000Y-136563000I0J-200000D01*
G01*
X115972300Y-134569300D02*
G75*
G03X116172300Y-134769300I200000J0D01*
G01*
X113473100Y-134322500D02*
X116473100Y-134322500D01*
X116473100Y-134322500D02*
X116473100Y-136822500D01*
X116473100Y-136822500D02*
X113473100Y-136822500D01*
X113473100Y-136822500D02*
X113473100Y-134322500D01*
X113723100Y-134772500D02*
X113723100Y-136372500D01*
X113973100Y-136572500D02*
X115973100Y-136572500D01*
X116223100Y-136372500D02*
X116223100Y-134772500D01*
X115973100Y-134572500D02*
X113973100Y-134572500D01*
D14*
X104038400Y-106057700D02*
X103225600Y-106057700D01*
X103251000Y-107175300D02*
X104038400Y-107175300D01*
X103225600Y-107429300D02*
X103225600Y-105803700D01*
X103225600Y-105803700D02*
X104038400Y-105803700D01*
X104038400Y-105803700D02*
X104038400Y-107429300D01*
X104038400Y-107429300D02*
X103225600Y-107429300D01*
X129425700Y-114528600D02*
X129425700Y-115341400D01*
X130543300Y-115316000D02*
X130543300Y-114528600D01*
X130797300Y-115341400D02*
X129171700Y-115341400D01*
X129171700Y-115341400D02*
X129171700Y-114528600D01*
X129171700Y-114528600D02*
X130797300Y-114528600D01*
X130797300Y-114528600D02*
X130797300Y-115341400D01*
X130556000Y-131572000D02*
X130556000Y-130759200D01*
X129438400Y-130784600D02*
X129438400Y-131572000D01*
X129184400Y-130759200D02*
X130810000Y-130759200D01*
X130810000Y-130759200D02*
X130810000Y-131572000D01*
X130810000Y-131572000D02*
X129184400Y-131572000D01*
X129184400Y-131572000D02*
X129184400Y-130759200D01*
X134391400Y-120484900D02*
X135204200Y-120484900D01*
X135178800Y-119367300D02*
X134391400Y-119367300D01*
X135204200Y-119113300D02*
X135204200Y-120738900D01*
X135204200Y-120738900D02*
X134391400Y-120738900D01*
X134391400Y-120738900D02*
X134391400Y-119113300D01*
X134391400Y-119113300D02*
X135204200Y-119113300D01*
X118808500Y-132626100D02*
X117995700Y-132626100D01*
X118021100Y-133743700D02*
X118808500Y-133743700D01*
X117995700Y-133997700D02*
X117995700Y-132372100D01*
X117995700Y-132372100D02*
X118808500Y-132372100D01*
X118808500Y-132372100D02*
X118808500Y-133997700D01*
X118808500Y-133997700D02*
X117995700Y-133997700D01*
X119786400Y-135813800D02*
X119786400Y-135001000D01*
X118668800Y-135026400D02*
X118668800Y-135813800D01*
X118414800Y-135001000D02*
X120040400Y-135001000D01*
X120040400Y-135001000D02*
X120040400Y-135813800D01*
X120040400Y-135813800D02*
X118414800Y-135813800D01*
X118414800Y-135813800D02*
X118414800Y-135001000D01*
X120497600Y-128117600D02*
X119684800Y-128117600D01*
X119710200Y-129235200D02*
X120497600Y-129235200D01*
X119684800Y-129489200D02*
X119684800Y-127863600D01*
X119684800Y-127863600D02*
X120497600Y-127863600D01*
X120497600Y-127863600D02*
X120497600Y-129489200D01*
X120497600Y-129489200D02*
X119684800Y-129489200D01*
X118872000Y-128117600D02*
X118059200Y-128117600D01*
X118084600Y-129235200D02*
X118872000Y-129235200D01*
X118059200Y-129489200D02*
X118059200Y-127863600D01*
X118059200Y-127863600D02*
X118872000Y-127863600D01*
X118872000Y-127863600D02*
X118872000Y-129489200D01*
X118872000Y-129489200D02*
X118059200Y-129489200D01*
X119735600Y-126136400D02*
X120548400Y-126136400D01*
X120523000Y-125018800D02*
X119735600Y-125018800D01*
X120548400Y-124764800D02*
X120548400Y-126390400D01*
X120548400Y-126390400D02*
X119735600Y-126390400D01*
X119735600Y-126390400D02*
X119735600Y-124764800D01*
X119735600Y-124764800D02*
X120548400Y-124764800D01*
X122021600Y-126136400D02*
X122834400Y-126136400D01*
X122809000Y-125018800D02*
X122021600Y-125018800D01*
X122834400Y-124764800D02*
X122834400Y-126390400D01*
X122834400Y-126390400D02*
X122021600Y-126390400D01*
X122021600Y-126390400D02*
X122021600Y-124764800D01*
X122021600Y-124764800D02*
X122834400Y-124764800D01*
X109677200Y-126187200D02*
X110490000Y-126187200D01*
X110464600Y-125069600D02*
X109677200Y-125069600D01*
X110490000Y-124815600D02*
X110490000Y-126441200D01*
X110490000Y-126441200D02*
X109677200Y-126441200D01*
X109677200Y-126441200D02*
X109677200Y-124815600D01*
X109677200Y-124815600D02*
X110490000Y-124815600D01*
X115366800Y-128219200D02*
X115366800Y-127406400D01*
X114249200Y-127431800D02*
X114249200Y-128219200D01*
X113995200Y-127406400D02*
X115620800Y-127406400D01*
X115620800Y-127406400D02*
X115620800Y-128219200D01*
X115620800Y-128219200D02*
X113995200Y-128219200D01*
X113995200Y-128219200D02*
X113995200Y-127406400D01*
X125996700Y-120688100D02*
X125996700Y-121500900D01*
X127114300Y-121475500D02*
X127114300Y-120688100D01*
X127368300Y-121500900D02*
X125742700Y-121500900D01*
X125742700Y-121500900D02*
X125742700Y-120688100D01*
X125742700Y-120688100D02*
X127368300Y-120688100D01*
X127368300Y-120688100D02*
X127368300Y-121500900D01*
X125996700Y-114528600D02*
X125996700Y-115341400D01*
X127114300Y-115316000D02*
X127114300Y-114528600D01*
X127368300Y-115341400D02*
X125742700Y-115341400D01*
X125742700Y-115341400D02*
X125742700Y-114528600D01*
X125742700Y-114528600D02*
X127368300Y-114528600D01*
X127368300Y-114528600D02*
X127368300Y-115341400D01*
X121005600Y-105397300D02*
X121818400Y-105397300D01*
X121793000Y-104279700D02*
X121005600Y-104279700D01*
X121818400Y-104025700D02*
X121818400Y-105651300D01*
X121818400Y-105651300D02*
X121005600Y-105651300D01*
X121005600Y-105651300D02*
X121005600Y-104025700D01*
X121005600Y-104025700D02*
X121818400Y-104025700D01*
X115036600Y-105397300D02*
X115849400Y-105397300D01*
X115824000Y-104279700D02*
X115036600Y-104279700D01*
X115849400Y-104025700D02*
X115849400Y-105651300D01*
X115849400Y-105651300D02*
X115036600Y-105651300D01*
X115036600Y-105651300D02*
X115036600Y-104025700D01*
X115036600Y-104025700D02*
X115849400Y-104025700D01*
X106540300Y-110578900D02*
X106540300Y-109766100D01*
X105422700Y-109791500D02*
X105422700Y-110578900D01*
X105168700Y-109766100D02*
X106794300Y-109766100D01*
X106794300Y-109766100D02*
X106794300Y-110578900D01*
X106794300Y-110578900D02*
X105168700Y-110578900D01*
X105168700Y-110578900D02*
X105168700Y-109766100D01*
X106540300Y-116547900D02*
X106540300Y-115735100D01*
X105422700Y-115760500D02*
X105422700Y-116547900D01*
X105168700Y-115735100D02*
X106794300Y-115735100D01*
X106794300Y-115735100D02*
X106794300Y-116547900D01*
X106794300Y-116547900D02*
X105168700Y-116547900D01*
X105168700Y-116547900D02*
X105168700Y-115735100D01*
X116687600Y-105397300D02*
X117500400Y-105397300D01*
X117475000Y-104279700D02*
X116687600Y-104279700D01*
X117500400Y-104025700D02*
X117500400Y-105651300D01*
X117500400Y-105651300D02*
X116687600Y-105651300D01*
X116687600Y-105651300D02*
X116687600Y-104025700D01*
X116687600Y-104025700D02*
X117500400Y-104025700D01*
X107778737Y-123079001D02*
X107204001Y-123653737D01*
X108012224Y-124426039D02*
X108568999Y-123869263D01*
X108173868Y-124623605D02*
X107024395Y-123474132D01*
X107024395Y-123474132D02*
X107599132Y-122899395D01*
X107599132Y-122899395D02*
X108748605Y-124048868D01*
X108748605Y-124048868D02*
X108173868Y-124623605D01*
X123968001Y-123805763D02*
X124542737Y-124380499D01*
X125315039Y-123572276D02*
X124758263Y-123015501D01*
X125512605Y-123410632D02*
X124363132Y-124560105D01*
X124363132Y-124560105D02*
X123788395Y-123985368D01*
X123788395Y-123985368D02*
X124937868Y-122835895D01*
X124937868Y-122835895D02*
X125512605Y-123410632D01*
X124631263Y-107616499D02*
X125205999Y-107041763D01*
X124397776Y-106269461D02*
X123841001Y-106826237D01*
X124236132Y-106071895D02*
X125385605Y-107221368D01*
X125385605Y-107221368D02*
X124810868Y-107796105D01*
X124810868Y-107796105D02*
X123661395Y-106646632D01*
X123661395Y-106646632D02*
X124236132Y-106071895D01*
X108695999Y-106953237D02*
X108121263Y-106378501D01*
X107348961Y-107186724D02*
X107905737Y-107743499D01*
X107151395Y-107348368D02*
X108300868Y-106198895D01*
X108300868Y-106198895D02*
X108875605Y-106773632D01*
X108875605Y-106773632D02*
X107726132Y-107923105D01*
X107726132Y-107923105D02*
X107151395Y-107348368D01*
X115163600Y-124968000D02*
X114350800Y-124968000D01*
X114376200Y-126085600D02*
X115163600Y-126085600D01*
X114350800Y-126339600D02*
X114350800Y-124714000D01*
X114350800Y-124714000D02*
X115163600Y-124714000D01*
X115163600Y-124714000D02*
X115163600Y-126339600D01*
X115163600Y-126339600D02*
X114350800Y-126339600D01*
X114033300Y-133007100D02*
X114033300Y-133819900D01*
X115150900Y-133794500D02*
X115150900Y-133007100D01*
X115404900Y-133819900D02*
X113779300Y-133819900D01*
X113779300Y-133819900D02*
X113779300Y-133007100D01*
X113779300Y-133007100D02*
X115404900Y-133007100D01*
X115404900Y-133007100D02*
X115404900Y-133819900D01*
X98806000Y-124561600D02*
X99618800Y-124561600D01*
X99593400Y-123444000D02*
X98806000Y-123444000D01*
X99618800Y-123190000D02*
X99618800Y-124815600D01*
X99618800Y-124815600D02*
X98806000Y-124815600D01*
X98806000Y-124815600D02*
X98806000Y-123190000D01*
X98806000Y-123190000D02*
X99618800Y-123190000D01*
D15*
X110114000Y-100692000D02*
X110114000Y-99432000D01*
X110114000Y-93872000D02*
X110114000Y-95132000D01*
X106354000Y-100692000D02*
X110114000Y-100692000D01*
X104104000Y-93872000D02*
X110114000Y-93872000D01*
X96134000Y-104413000D02*
X96134000Y-105673000D01*
X96134000Y-111233000D02*
X96134000Y-109973000D01*
X99894000Y-104413000D02*
X96134000Y-104413000D01*
X102144000Y-111233000D02*
X96134000Y-111233000D01*
D14*
X128181100Y-116078000D02*
X128181100Y-116865400D01*
X128841500Y-116865400D02*
X128181100Y-116865400D01*
X130238500Y-116268500D02*
X130898900Y-116268500D01*
X128841500Y-118173500D02*
X128181100Y-118173500D01*
X128841500Y-116078000D02*
X128181100Y-116078000D01*
X130238500Y-118173500D02*
X130898900Y-118173500D01*
X130238500Y-115722400D02*
X130238500Y-118719600D01*
X130238500Y-118719600D02*
X128841500Y-118719600D01*
X128841500Y-118719600D02*
X128841500Y-115722400D01*
X128841500Y-115722400D02*
X130238500Y-115722400D01*
D16*
X126742200Y-93370400D02*
X124742200Y-93370400D01*
X116742200Y-95370400D02*
X116742200Y-91370400D01*
X116742200Y-91370400D02*
X126742200Y-91370400D01*
X126742200Y-95370400D02*
X116742200Y-95370400D01*
X126742200Y-91370400D02*
X126742200Y-95370400D01*
X124742200Y-93370400D02*
X124742200Y-91370400D01*
X139086600Y-93357700D02*
X137086600Y-93357700D01*
X129086600Y-95357700D02*
X129086600Y-91357700D01*
X129086600Y-91357700D02*
X139086600Y-91357700D01*
X139086600Y-95357700D02*
X129086600Y-95357700D01*
X139086600Y-91357700D02*
X139086600Y-95357700D01*
X137086600Y-93357700D02*
X137086600Y-91357700D01*
X138480800Y-100460800D02*
X138480800Y-102460800D01*
X140480800Y-110460800D02*
X136480800Y-110460800D01*
X136480800Y-110460800D02*
X136480800Y-100460800D01*
X140480800Y-100460800D02*
X140480800Y-110460800D01*
X136480800Y-100460800D02*
X140480800Y-100460800D01*
X138480800Y-102460800D02*
X136480800Y-102460800D01*
X138633200Y-134146300D02*
X138633200Y-132146300D01*
X136633200Y-124146300D02*
X140633200Y-124146300D01*
X140633200Y-124146300D02*
X140633200Y-134146300D01*
X136633200Y-134146300D02*
X136633200Y-124146300D01*
X140633200Y-134146300D02*
X136633200Y-134146300D01*
X138633200Y-132146300D02*
X140633200Y-132146300D01*
X95859600Y-115510300D02*
X95859600Y-117510300D01*
X97859600Y-125510300D02*
X93859600Y-125510300D01*
X93859600Y-125510300D02*
X93859600Y-115510300D01*
X97859600Y-115510300D02*
X97859600Y-125510300D01*
X93859600Y-115510300D02*
X97859600Y-115510300D01*
X95859600Y-117510300D02*
X93859600Y-117510300D01*
X95897700Y-126749800D02*
X95897700Y-128749800D01*
X97897700Y-136749800D02*
X93897700Y-136749800D01*
X93897700Y-136749800D02*
X93897700Y-126749800D01*
X97897700Y-126749800D02*
X97897700Y-136749800D01*
X93897700Y-126749800D02*
X97897700Y-126749800D01*
X95897700Y-128749800D02*
X93897700Y-128749800D01*
D13*
X100530660Y-103215440D02*
X100530660Y-102016560D01*
X100129340Y-102016560D02*
X100129340Y-103215440D01*
X99230180Y-102016560D02*
X101429820Y-102016560D01*
X101429820Y-102016560D02*
X101429820Y-103215440D01*
X101429820Y-103215440D02*
X99230180Y-103215440D01*
X99230180Y-103215440D02*
X99230180Y-102016560D01*
X120525540Y-132984240D02*
X119326660Y-132984240D01*
X119326660Y-133385560D02*
X120525540Y-133385560D01*
X119326660Y-134284720D02*
X119326660Y-132085080D01*
X119326660Y-132085080D02*
X120525540Y-132085080D01*
X120525540Y-132085080D02*
X120525540Y-134284720D01*
X120525540Y-134284720D02*
X119326660Y-134284720D01*
X111960660Y-133949440D02*
X111960660Y-132750560D01*
X111559340Y-132750560D02*
X111559340Y-133949440D01*
X110660180Y-132750560D02*
X112859820Y-132750560D01*
X112859820Y-132750560D02*
X112859820Y-133949440D01*
X112859820Y-133949440D02*
X110660180Y-133949440D01*
X110660180Y-133949440D02*
X110660180Y-132750560D01*
D18*
X94325000Y-96393000D02*
X93825000Y-96393000D01*
X100325000Y-98893000D02*
G75*
G03X100325000Y-98893000I-2000000J0D01*
G01*
X100325000Y-93893000D02*
G75*
G03X100325000Y-93893000I-2000000J0D01*
G01*
X95825000Y-91393000D02*
X95825000Y-101393000D01*
X100725000Y-91393000D02*
X100725000Y-101393000D01*
X94325000Y-91393000D02*
X94325000Y-101393000D01*
X93825000Y-91393000D02*
X93825000Y-101393000D01*
X93825000Y-101393000D02*
X103625000Y-101393000D01*
X103625000Y-101393000D02*
X103625000Y-91393000D01*
X103625000Y-91393000D02*
X93825000Y-91393000D01*
D14*
X95049340Y-101815900D02*
X95049340Y-103416100D01*
X94947740Y-103416100D02*
X94947740Y-101815900D01*
X97348040Y-103416100D02*
X94548960Y-103416100D01*
X94548960Y-103416100D02*
X94548960Y-101815900D01*
X94548960Y-101815900D02*
X97348040Y-101815900D01*
X97348040Y-101815900D02*
X97348040Y-103416100D01*
X108839000Y-91694000D02*
X108839000Y-92964000D01*
X107569000Y-91694000D02*
X107569000Y-92938600D01*
X107188000Y-91694000D02*
X109220000Y-91694000D01*
X109220000Y-91694000D02*
X109220000Y-92964000D01*
X109220000Y-92964000D02*
X107188000Y-92964000D01*
X107188000Y-92964000D02*
X107188000Y-91694000D01*
X99314000Y-113284000D02*
X99314000Y-112014000D01*
X100584000Y-113284000D02*
X100584000Y-112039400D01*
X100965000Y-113284000D02*
X98933000Y-113284000D01*
X98933000Y-113284000D02*
X98933000Y-112014000D01*
X98933000Y-112014000D02*
X100965000Y-112014000D01*
X100965000Y-112014000D02*
X100965000Y-113284000D01*
X105410000Y-103378000D02*
X106172000Y-103378000D01*
X105791000Y-103759000D02*
X105791000Y-102997000D01*
X105537000Y-101092000D02*
X109347000Y-101092000D01*
X104775000Y-104902000D02*
X104775000Y-101854000D01*
X105537000Y-101092000D02*
X104775000Y-101854000D01*
X105537000Y-105664000D02*
X109347000Y-105664000D01*
X105537000Y-105664000D02*
X104775000Y-104902000D01*
X109093000Y-103251000D02*
X109093000Y-103505000D01*
X108966000Y-104013000D02*
X108966000Y-102743000D01*
X108839000Y-102489000D02*
X108839000Y-104267000D01*
X108712000Y-102235000D02*
X108712000Y-104521000D01*
X108585000Y-104648000D02*
X108585000Y-102108000D01*
X108458000Y-101981000D02*
X108458000Y-104775000D01*
X108331000Y-104902000D02*
X108331000Y-101854000D01*
X108204000Y-105029000D02*
X108204000Y-101727000D01*
X109093000Y-103378000D02*
G75*
G03X109093000Y-103378000I-2032000J0D01*
G01*
X109347000Y-105664000D02*
X109347000Y-101092000D01*
X124688600Y-137058400D02*
X123926600Y-137058400D01*
X124307600Y-136677400D02*
X124307600Y-137439400D01*
X124561600Y-139344400D02*
X120751600Y-139344400D01*
X125323600Y-135534400D02*
X125323600Y-138582400D01*
X124561600Y-139344400D02*
X125323600Y-138582400D01*
X124561600Y-134772400D02*
X120751600Y-134772400D01*
X124561600Y-134772400D02*
X125323600Y-135534400D01*
X121005600Y-137185400D02*
X121005600Y-136931400D01*
X121132600Y-136423400D02*
X121132600Y-137693400D01*
X121259600Y-137947400D02*
X121259600Y-136169400D01*
X121386600Y-138201400D02*
X121386600Y-135915400D01*
X121513600Y-135788400D02*
X121513600Y-138328400D01*
X121640600Y-138455400D02*
X121640600Y-135661400D01*
X121767600Y-135534400D02*
X121767600Y-138582400D01*
X121894600Y-135407400D02*
X121894600Y-138709400D01*
X125069600Y-137058400D02*
G75*
G03X125069600Y-137058400I-2032000J0D01*
G01*
X120751600Y-134772400D02*
X120751600Y-139344400D01*
X123342400Y-132308600D02*
X123342400Y-131546600D01*
X123723400Y-131927600D02*
X122961400Y-131927600D01*
X121056400Y-132181600D02*
X121056400Y-128371600D01*
X124866400Y-132943600D02*
X121818400Y-132943600D01*
X121056400Y-132181600D02*
X121818400Y-132943600D01*
X125628400Y-132181600D02*
X125628400Y-128371600D01*
X125628400Y-132181600D02*
X124866400Y-132943600D01*
X123215400Y-128625600D02*
X123469400Y-128625600D01*
X123977400Y-128752600D02*
X122707400Y-128752600D01*
X122453400Y-128879600D02*
X124231400Y-128879600D01*
X122199400Y-129006600D02*
X124485400Y-129006600D01*
X124612400Y-129133600D02*
X122072400Y-129133600D01*
X121945400Y-129260600D02*
X124739400Y-129260600D01*
X124866400Y-129387600D02*
X121818400Y-129387600D01*
X124993400Y-129514600D02*
X121691400Y-129514600D01*
X125374400Y-130657600D02*
G75*
G03X125374400Y-130657600I-2032000J0D01*
G01*
X125628400Y-128371600D02*
X121056400Y-128371600D01*
X113309400Y-100253800D02*
X114071400Y-100253800D01*
X113690400Y-100634800D02*
X113690400Y-99872800D01*
X113436400Y-97967800D02*
X117246400Y-97967800D01*
X112674400Y-101777800D02*
X112674400Y-98729800D01*
X113436400Y-97967800D02*
X112674400Y-98729800D01*
X113436400Y-102539800D02*
X117246400Y-102539800D01*
X113436400Y-102539800D02*
X112674400Y-101777800D01*
X116992400Y-100126800D02*
X116992400Y-100380800D01*
X116865400Y-100888800D02*
X116865400Y-99618800D01*
X116738400Y-99364800D02*
X116738400Y-101142800D01*
X116611400Y-99110800D02*
X116611400Y-101396800D01*
X116484400Y-101523800D02*
X116484400Y-98983800D01*
X116357400Y-98856800D02*
X116357400Y-101650800D01*
X116230400Y-101777800D02*
X116230400Y-98729800D01*
X116103400Y-101904800D02*
X116103400Y-98602800D01*
X116992400Y-100253800D02*
G75*
G03X116992400Y-100253800I-2032000J0D01*
G01*
X117246400Y-102539800D02*
X117246400Y-97967800D01*
X109601000Y-135737600D02*
X108839000Y-135737600D01*
X109220000Y-135356600D02*
X109220000Y-136118600D01*
X109474000Y-138023600D02*
X105664000Y-138023600D01*
X110236000Y-134213600D02*
X110236000Y-137261600D01*
X109474000Y-138023600D02*
X110236000Y-137261600D01*
X109474000Y-133451600D02*
X105664000Y-133451600D01*
X109474000Y-133451600D02*
X110236000Y-134213600D01*
X105918000Y-135864600D02*
X105918000Y-135610600D01*
X106045000Y-135102600D02*
X106045000Y-136372600D01*
X106172000Y-136626600D02*
X106172000Y-134848600D01*
X106299000Y-136880600D02*
X106299000Y-134594600D01*
X106426000Y-134467600D02*
X106426000Y-137007600D01*
X106553000Y-137134600D02*
X106553000Y-134340600D01*
X106680000Y-134213600D02*
X106680000Y-137261600D01*
X106807000Y-134086600D02*
X106807000Y-137388600D01*
X109982000Y-135737600D02*
G75*
G03X109982000Y-135737600I-2032000J0D01*
G01*
X105664000Y-133451600D02*
X105664000Y-138023600D01*
X106984800Y-128193800D02*
X106984800Y-128955800D01*
X106603800Y-128574800D02*
X107365800Y-128574800D01*
X109270800Y-128320800D02*
X109270800Y-132130800D01*
X105460800Y-127558800D02*
X108508800Y-127558800D01*
X109270800Y-128320800D02*
X108508800Y-127558800D01*
X104698800Y-128320800D02*
X104698800Y-132130800D01*
X104698800Y-128320800D02*
X105460800Y-127558800D01*
X107111800Y-131876800D02*
X106857800Y-131876800D01*
X106349800Y-131749800D02*
X107619800Y-131749800D01*
X107873800Y-131622800D02*
X106095800Y-131622800D01*
X108127800Y-131495800D02*
X105841800Y-131495800D01*
X105714800Y-131368800D02*
X108254800Y-131368800D01*
X108381800Y-131241800D02*
X105587800Y-131241800D01*
X105460800Y-131114800D02*
X108508800Y-131114800D01*
X105333800Y-130987800D02*
X108635800Y-130987800D01*
X109016800Y-129844800D02*
G75*
G03X109016800Y-129844800I-2032000J0D01*
G01*
X104698800Y-132130800D02*
X109270800Y-132130800D01*
X100050600Y-122021600D02*
X100050600Y-125984000D01*
X100050600Y-125984000D02*
X104876600Y-125984000D01*
X104876600Y-125984000D02*
X104876600Y-122021600D01*
X104876600Y-122021600D02*
X100050600Y-122021600D01*
X100558600Y-122021600D02*
X100558600Y-120929400D01*
X101828600Y-122021600D02*
X101828600Y-120929400D01*
X103098600Y-122021600D02*
X103098600Y-120929400D01*
X104368600Y-120929400D02*
X104368600Y-122021600D01*
X104368600Y-125984000D02*
X104368600Y-127076200D01*
X103098600Y-127076200D02*
X103098600Y-125984000D01*
X101828600Y-127076200D02*
X101828600Y-125984000D01*
X100558600Y-127076200D02*
X100558600Y-125984000D01*
X101259667Y-125247400D02*
G75*
G03X101259667Y-125247400I-472467J0D01*
G01*
D12*
X129200000Y-95985000D02*
X129200000Y-99795000D01*
X127295000Y-97890000D02*
X131105000Y-97890000D01*
X130724000Y-97890000D02*
G75*
G03X130724000Y-97890000I-1524000J0D01*
G01*
X132029200Y-134594600D02*
X132029200Y-138404600D01*
X130124200Y-136499600D02*
X133934200Y-136499600D01*
X133553200Y-136499600D02*
G75*
G03X133553200Y-136499600I-1524000J0D01*
G01*
D14*
X109626400Y-131470400D02*
X110439200Y-131470400D01*
X110413800Y-130352800D02*
X109626400Y-130352800D01*
X110439200Y-130098800D02*
X110439200Y-131724400D01*
X110439200Y-131724400D02*
X109626400Y-131724400D01*
X109626400Y-131724400D02*
X109626400Y-130098800D01*
X109626400Y-130098800D02*
X110439200Y-130098800D01*
X126466600Y-117970300D02*
X127279400Y-117970300D01*
X127254000Y-116852700D02*
X126466600Y-116852700D01*
X127279400Y-116598700D02*
X127279400Y-118224300D01*
X127279400Y-118224300D02*
X126466600Y-118224300D01*
X126466600Y-118224300D02*
X126466600Y-116598700D01*
X126466600Y-116598700D02*
X127279400Y-116598700D01*
X127000000Y-125831600D02*
X126187200Y-125831600D01*
X126212600Y-126949200D02*
X127000000Y-126949200D01*
X126187200Y-127203200D02*
X126187200Y-125577600D01*
X126187200Y-125577600D02*
X127000000Y-125577600D01*
X127000000Y-125577600D02*
X127000000Y-127203200D01*
X127000000Y-127203200D02*
X126187200Y-127203200D01*
X136855200Y-119367300D02*
X136042400Y-119367300D01*
X136067800Y-120484900D02*
X136855200Y-120484900D01*
X136042400Y-120738900D02*
X136042400Y-119113300D01*
X136042400Y-119113300D02*
X136855200Y-119113300D01*
X136855200Y-119113300D02*
X136855200Y-120738900D01*
X136855200Y-120738900D02*
X136042400Y-120738900D01*
X112877600Y-124968000D02*
X112064800Y-124968000D01*
X112090200Y-126085600D02*
X112877600Y-126085600D01*
X112064800Y-126339600D02*
X112064800Y-124714000D01*
X112064800Y-124714000D02*
X112877600Y-124714000D01*
X112877600Y-124714000D02*
X112877600Y-126339600D01*
X112877600Y-126339600D02*
X112064800Y-126339600D01*
X129133600Y-119989600D02*
X129133600Y-119176800D01*
X128016000Y-119202200D02*
X128016000Y-119989600D01*
X127762000Y-119176800D02*
X129387600Y-119176800D01*
X129387600Y-119176800D02*
X129387600Y-119989600D01*
X129387600Y-119989600D02*
X127762000Y-119989600D01*
X127762000Y-119989600D02*
X127762000Y-119176800D01*
X118681500Y-130492500D02*
X118681500Y-131305300D01*
X119799100Y-131279900D02*
X119799100Y-130492500D01*
X120053100Y-131305300D02*
X118427500Y-131305300D01*
X118427500Y-131305300D02*
X118427500Y-130492500D01*
X118427500Y-130492500D02*
X120053100Y-130492500D01*
X120053100Y-130492500D02*
X120053100Y-131305300D01*
X111201200Y-131470400D02*
X112014000Y-131470400D01*
X111988600Y-130352800D02*
X111201200Y-130352800D01*
X112014000Y-130098800D02*
X112014000Y-131724400D01*
X112014000Y-131724400D02*
X111201200Y-131724400D01*
X111201200Y-131724400D02*
X111201200Y-130098800D01*
X111201200Y-130098800D02*
X112014000Y-130098800D01*
X106540300Y-119341900D02*
X106540300Y-118529100D01*
X105422700Y-118554500D02*
X105422700Y-119341900D01*
X105168700Y-118529100D02*
X106794300Y-118529100D01*
X106794300Y-118529100D02*
X106794300Y-119341900D01*
X106794300Y-119341900D02*
X105168700Y-119341900D01*
X105168700Y-119341900D02*
X105168700Y-118529100D01*
X112839500Y-135013700D02*
X112026700Y-135013700D01*
X112052100Y-136131300D02*
X112839500Y-136131300D01*
X112026700Y-136385300D02*
X112026700Y-134759700D01*
X112026700Y-134759700D02*
X112839500Y-134759700D01*
X112839500Y-134759700D02*
X112839500Y-136385300D01*
X112839500Y-136385300D02*
X112026700Y-136385300D01*
X105384600Y-121970800D02*
X106197400Y-121970800D01*
X106172000Y-120853200D02*
X105384600Y-120853200D01*
X106197400Y-120599200D02*
X106197400Y-122224800D01*
X106197400Y-122224800D02*
X105384600Y-122224800D01*
X105384600Y-122224800D02*
X105384600Y-120599200D01*
X105384600Y-120599200D02*
X106197400Y-120599200D01*
X103530400Y-117754400D02*
X102717600Y-117754400D01*
X102743000Y-118872000D02*
X103530400Y-118872000D01*
X102717600Y-119126000D02*
X102717600Y-117500400D01*
X102717600Y-117500400D02*
X103530400Y-117500400D01*
X103530400Y-117500400D02*
X103530400Y-119126000D01*
X103530400Y-119126000D02*
X102717600Y-119126000D01*
X116484400Y-131318000D02*
X117297200Y-131318000D01*
X117271800Y-130200400D02*
X116484400Y-130200400D01*
X117297200Y-129946400D02*
X117297200Y-131572000D01*
X117297200Y-131572000D02*
X116484400Y-131572000D01*
X116484400Y-131572000D02*
X116484400Y-129946400D01*
X116484400Y-129946400D02*
X117297200Y-129946400D01*
D19*
X128100667Y-107099463D02*
X128282095Y-107153891D01*
X128584476Y-107153891D01*
X128705429Y-107099463D01*
X128765905Y-107045034D01*
X128826381Y-106936177D01*
X128826381Y-106827320D01*
X128765905Y-106718463D01*
X128705429Y-106664034D01*
X128584476Y-106609606D01*
X128342572Y-106555177D01*
X128221619Y-106500749D01*
X128161143Y-106446320D01*
X128100667Y-106337463D01*
X128100667Y-106228606D01*
X128161143Y-106119749D01*
X128221619Y-106065320D01*
X128342572Y-106010891D01*
X128644952Y-106010891D01*
X128826381Y-106065320D01*
X129249715Y-106010891D02*
X129552096Y-107153891D01*
X129794000Y-106337463D01*
X130035905Y-107153891D01*
X130338286Y-106010891D01*
X131487334Y-107153891D02*
X130761620Y-107153891D01*
X131124477Y-107153891D02*
X131124477Y-106010891D01*
X131003525Y-106174177D01*
X130882572Y-106283034D01*
X130761620Y-106337463D01*
D17*
X111150476Y-105632305D02*
X111150476Y-106279924D01*
X111188571Y-106356114D01*
X111226667Y-106394210D01*
X111302857Y-106432305D01*
X111455238Y-106432305D01*
X111531429Y-106394210D01*
X111569524Y-106356114D01*
X111607619Y-106279924D01*
X111607619Y-105632305D01*
X112407619Y-106432305D02*
X111950476Y-106432305D01*
X112179047Y-106432305D02*
X112179047Y-105632305D01*
X112102857Y-105746590D01*
X112026666Y-105822781D01*
X111950476Y-105860876D01*
X138504705Y-120993981D02*
X138504705Y-119993981D01*
X138885658Y-119993981D01*
X138980896Y-120041600D01*
X139028515Y-120089219D01*
X139076134Y-120184457D01*
X139076134Y-120327314D01*
X139028515Y-120422552D01*
X138980896Y-120470171D01*
X138885658Y-120517790D01*
X138504705Y-120517790D01*
X140028515Y-120993981D02*
X139457086Y-120993981D01*
X139742800Y-120993981D02*
X139742800Y-119993981D01*
X139647562Y-120136838D01*
X139552324Y-120232076D01*
X139457086Y-120279695D01*
X132607105Y-127812724D02*
X133254724Y-127812724D01*
X133330914Y-127774629D01*
X133369010Y-127736533D01*
X133407105Y-127660343D01*
X133407105Y-127507962D01*
X133369010Y-127431771D01*
X133330914Y-127393676D01*
X133254724Y-127355581D01*
X132607105Y-127355581D01*
X132683295Y-127012724D02*
X132645200Y-126974629D01*
X132607105Y-126898438D01*
X132607105Y-126707962D01*
X132645200Y-126631772D01*
X132683295Y-126593676D01*
X132759486Y-126555581D01*
X132835676Y-126555581D01*
X132949962Y-126593676D01*
X133407105Y-127050819D01*
X133407105Y-126555581D01*
X116118095Y-129796190D02*
X116080000Y-129872381D01*
X116003810Y-129948571D01*
X115889524Y-130062857D01*
X115851429Y-130139048D01*
X115851429Y-130215238D01*
X116041905Y-130177143D02*
X116003810Y-130253333D01*
X115927619Y-130329524D01*
X115775238Y-130367619D01*
X115508571Y-130367619D01*
X115356190Y-130329524D01*
X115280000Y-130253333D01*
X115241905Y-130177143D01*
X115241905Y-130024762D01*
X115280000Y-129948571D01*
X115356190Y-129872381D01*
X115508571Y-129834286D01*
X115775238Y-129834286D01*
X115927619Y-129872381D01*
X116003810Y-129948571D01*
X116041905Y-130024762D01*
X116041905Y-130177143D01*
X115318095Y-129529524D02*
X115280000Y-129491429D01*
X115241905Y-129415238D01*
X115241905Y-129224762D01*
X115280000Y-129148572D01*
X115318095Y-129110476D01*
X115394286Y-129072381D01*
X115470476Y-129072381D01*
X115584762Y-129110476D01*
X116041905Y-129567619D01*
X116041905Y-129072381D01*
X101973334Y-129971905D02*
X101973334Y-130543333D01*
X101935238Y-130657619D01*
X101859048Y-130733810D01*
X101744762Y-130771905D01*
X101668572Y-130771905D01*
X102354286Y-130771905D02*
X102354286Y-129971905D01*
X102659048Y-129971905D01*
X102735239Y-130010000D01*
X102773334Y-130048095D01*
X102811429Y-130124286D01*
X102811429Y-130238571D01*
X102773334Y-130314762D01*
X102735239Y-130352857D01*
X102659048Y-130390952D01*
X102354286Y-130390952D01*
X103573334Y-130771905D02*
X103116191Y-130771905D01*
X103344762Y-130771905D02*
X103344762Y-129971905D01*
X103268572Y-130086190D01*
X103192381Y-130162381D01*
X103116191Y-130200476D01*
X101253810Y-135060000D02*
X101291905Y-134945714D01*
X101291905Y-134755238D01*
X101253810Y-134679048D01*
X101215714Y-134640952D01*
X101139524Y-134602857D01*
X101063333Y-134602857D01*
X100987143Y-134640952D01*
X100949048Y-134679048D01*
X100910952Y-134755238D01*
X100872857Y-134907619D01*
X100834762Y-134983810D01*
X100796667Y-135021905D01*
X100720476Y-135060000D01*
X100644286Y-135060000D01*
X100568095Y-135021905D01*
X100530000Y-134983810D01*
X100491905Y-134907619D01*
X100491905Y-134717143D01*
X100530000Y-134602857D01*
X100872857Y-134260000D02*
X100872857Y-133993333D01*
X101291905Y-133879047D02*
X101291905Y-134260000D01*
X100491905Y-134260000D01*
X100491905Y-133879047D01*
X101291905Y-133155237D02*
X101291905Y-133536190D01*
X100491905Y-133536190D01*
X100872857Y-132621904D02*
X100872857Y-132888571D01*
X101291905Y-132888571D02*
X100491905Y-132888571D01*
X100491905Y-132507618D01*
X100872857Y-131936190D02*
X100910952Y-131821904D01*
X100949048Y-131783809D01*
X101025238Y-131745714D01*
X101139524Y-131745714D01*
X101215714Y-131783809D01*
X101253810Y-131821904D01*
X101291905Y-131898095D01*
X101291905Y-132202857D01*
X100491905Y-132202857D01*
X100491905Y-131936190D01*
X100530000Y-131860000D01*
X100568095Y-131821904D01*
X100644286Y-131783809D01*
X100720476Y-131783809D01*
X100796667Y-131821904D01*
X100834762Y-131860000D01*
X100872857Y-131936190D01*
X100872857Y-132202857D01*
X100491905Y-131250476D02*
X100491905Y-131098095D01*
X100530000Y-131021904D01*
X100606190Y-130945714D01*
X100758571Y-130907619D01*
X101025238Y-130907619D01*
X101177619Y-130945714D01*
X101253810Y-131021904D01*
X101291905Y-131098095D01*
X101291905Y-131250476D01*
X101253810Y-131326666D01*
X101177619Y-131402857D01*
X101025238Y-131440952D01*
X100758571Y-131440952D01*
X100606190Y-131402857D01*
X100530000Y-131326666D01*
X100491905Y-131250476D01*
X100491905Y-130412381D02*
X100491905Y-130260000D01*
X100530000Y-130183809D01*
X100606190Y-130107619D01*
X100758571Y-130069524D01*
X101025238Y-130069524D01*
X101177619Y-130107619D01*
X101253810Y-130183809D01*
X101291905Y-130260000D01*
X101291905Y-130412381D01*
X101253810Y-130488571D01*
X101177619Y-130564762D01*
X101025238Y-130602857D01*
X100758571Y-130602857D01*
X100606190Y-130564762D01*
X100530000Y-130488571D01*
X100491905Y-130412381D01*
X100491905Y-129840953D02*
X100491905Y-129383810D01*
X101291905Y-129612381D02*
X100491905Y-129612381D01*
X115853810Y-137938095D02*
X115777619Y-137900000D01*
X115701429Y-137823810D01*
X115587143Y-137709524D01*
X115510952Y-137671429D01*
X115434762Y-137671429D01*
X115472857Y-137861905D02*
X115396667Y-137823810D01*
X115320476Y-137747619D01*
X115282381Y-137595238D01*
X115282381Y-137328571D01*
X115320476Y-137176190D01*
X115396667Y-137100000D01*
X115472857Y-137061905D01*
X115625238Y-137061905D01*
X115701429Y-137100000D01*
X115777619Y-137176190D01*
X115815714Y-137328571D01*
X115815714Y-137595238D01*
X115777619Y-137747619D01*
X115701429Y-137823810D01*
X115625238Y-137861905D01*
X115472857Y-137861905D01*
X116577619Y-137861905D02*
X116120476Y-137861905D01*
X116349047Y-137861905D02*
X116349047Y-137061905D01*
X116272857Y-137176190D01*
X116196666Y-137252381D01*
X116120476Y-137290476D01*
X105285714Y-107524286D02*
X105323810Y-107562381D01*
X105361905Y-107676667D01*
X105361905Y-107752857D01*
X105323810Y-107867143D01*
X105247619Y-107943334D01*
X105171429Y-107981429D01*
X105019048Y-108019524D01*
X104904762Y-108019524D01*
X104752381Y-107981429D01*
X104676190Y-107943334D01*
X104600000Y-107867143D01*
X104561905Y-107752857D01*
X104561905Y-107676667D01*
X104600000Y-107562381D01*
X104638095Y-107524286D01*
X104561905Y-107257619D02*
X104561905Y-106762381D01*
X104866667Y-107029048D01*
X104866667Y-106914762D01*
X104904762Y-106838572D01*
X104942857Y-106800476D01*
X105019048Y-106762381D01*
X105209524Y-106762381D01*
X105285714Y-106800476D01*
X105323810Y-106838572D01*
X105361905Y-106914762D01*
X105361905Y-107143334D01*
X105323810Y-107219524D01*
X105285714Y-107257619D01*
X104638095Y-106457619D02*
X104600000Y-106419524D01*
X104561905Y-106343333D01*
X104561905Y-106152857D01*
X104600000Y-106076667D01*
X104638095Y-106038571D01*
X104714286Y-106000476D01*
X104790476Y-106000476D01*
X104904762Y-106038571D01*
X105361905Y-106495714D01*
X105361905Y-106000476D01*
X132215714Y-115224286D02*
X132253810Y-115262381D01*
X132291905Y-115376667D01*
X132291905Y-115452857D01*
X132253810Y-115567143D01*
X132177619Y-115643334D01*
X132101429Y-115681429D01*
X131949048Y-115719524D01*
X131834762Y-115719524D01*
X131682381Y-115681429D01*
X131606190Y-115643334D01*
X131530000Y-115567143D01*
X131491905Y-115452857D01*
X131491905Y-115376667D01*
X131530000Y-115262381D01*
X131568095Y-115224286D01*
X131491905Y-114957619D02*
X131491905Y-114462381D01*
X131796667Y-114729048D01*
X131796667Y-114614762D01*
X131834762Y-114538572D01*
X131872857Y-114500476D01*
X131949048Y-114462381D01*
X132139524Y-114462381D01*
X132215714Y-114500476D01*
X132253810Y-114538572D01*
X132291905Y-114614762D01*
X132291905Y-114843334D01*
X132253810Y-114919524D01*
X132215714Y-114957619D01*
X131491905Y-113967143D02*
X131491905Y-113890952D01*
X131530000Y-113814762D01*
X131568095Y-113776667D01*
X131644286Y-113738571D01*
X131796667Y-113700476D01*
X131987143Y-113700476D01*
X132139524Y-113738571D01*
X132215714Y-113776667D01*
X132253810Y-113814762D01*
X132291905Y-113890952D01*
X132291905Y-113967143D01*
X132253810Y-114043333D01*
X132215714Y-114081429D01*
X132139524Y-114119524D01*
X131987143Y-114157619D01*
X131796667Y-114157619D01*
X131644286Y-114119524D01*
X131568095Y-114081429D01*
X131530000Y-114043333D01*
X131491905Y-113967143D01*
X128425714Y-132044286D02*
X128463810Y-132082381D01*
X128501905Y-132196667D01*
X128501905Y-132272857D01*
X128463810Y-132387143D01*
X128387619Y-132463334D01*
X128311429Y-132501429D01*
X128159048Y-132539524D01*
X128044762Y-132539524D01*
X127892381Y-132501429D01*
X127816190Y-132463334D01*
X127740000Y-132387143D01*
X127701905Y-132272857D01*
X127701905Y-132196667D01*
X127740000Y-132082381D01*
X127778095Y-132044286D01*
X127778095Y-131739524D02*
X127740000Y-131701429D01*
X127701905Y-131625238D01*
X127701905Y-131434762D01*
X127740000Y-131358572D01*
X127778095Y-131320476D01*
X127854286Y-131282381D01*
X127930476Y-131282381D01*
X128044762Y-131320476D01*
X128501905Y-131777619D01*
X128501905Y-131282381D01*
X128501905Y-130901429D02*
X128501905Y-130749048D01*
X128463810Y-130672857D01*
X128425714Y-130634762D01*
X128311429Y-130558571D01*
X128159048Y-130520476D01*
X127854286Y-130520476D01*
X127778095Y-130558571D01*
X127740000Y-130596667D01*
X127701905Y-130672857D01*
X127701905Y-130825238D01*
X127740000Y-130901429D01*
X127778095Y-130939524D01*
X127854286Y-130977619D01*
X128044762Y-130977619D01*
X128120952Y-130939524D01*
X128159048Y-130901429D01*
X128197143Y-130825238D01*
X128197143Y-130672857D01*
X128159048Y-130596667D01*
X128120952Y-130558571D01*
X128044762Y-130520476D01*
X133935714Y-120474286D02*
X133973810Y-120512381D01*
X134011905Y-120626667D01*
X134011905Y-120702857D01*
X133973810Y-120817143D01*
X133897619Y-120893334D01*
X133821429Y-120931429D01*
X133669048Y-120969524D01*
X133554762Y-120969524D01*
X133402381Y-120931429D01*
X133326190Y-120893334D01*
X133250000Y-120817143D01*
X133211905Y-120702857D01*
X133211905Y-120626667D01*
X133250000Y-120512381D01*
X133288095Y-120474286D01*
X133288095Y-120169524D02*
X133250000Y-120131429D01*
X133211905Y-120055238D01*
X133211905Y-119864762D01*
X133250000Y-119788572D01*
X133288095Y-119750476D01*
X133364286Y-119712381D01*
X133440476Y-119712381D01*
X133554762Y-119750476D01*
X134011905Y-120207619D01*
X134011905Y-119712381D01*
X133554762Y-119255238D02*
X133516667Y-119331429D01*
X133478571Y-119369524D01*
X133402381Y-119407619D01*
X133364286Y-119407619D01*
X133288095Y-119369524D01*
X133250000Y-119331429D01*
X133211905Y-119255238D01*
X133211905Y-119102857D01*
X133250000Y-119026667D01*
X133288095Y-118988571D01*
X133364286Y-118950476D01*
X133402381Y-118950476D01*
X133478571Y-118988571D01*
X133516667Y-119026667D01*
X133554762Y-119102857D01*
X133554762Y-119255238D01*
X133592857Y-119331429D01*
X133630952Y-119369524D01*
X133707143Y-119407619D01*
X133859524Y-119407619D01*
X133935714Y-119369524D01*
X133973810Y-119331429D01*
X134011905Y-119255238D01*
X134011905Y-119102857D01*
X133973810Y-119026667D01*
X133935714Y-118988571D01*
X133859524Y-118950476D01*
X133707143Y-118950476D01*
X133630952Y-118988571D01*
X133592857Y-119026667D01*
X133554762Y-119102857D01*
X117675714Y-133694286D02*
X117713810Y-133732381D01*
X117751905Y-133846667D01*
X117751905Y-133922857D01*
X117713810Y-134037143D01*
X117637619Y-134113334D01*
X117561429Y-134151429D01*
X117409048Y-134189524D01*
X117294762Y-134189524D01*
X117142381Y-134151429D01*
X117066190Y-134113334D01*
X116990000Y-134037143D01*
X116951905Y-133922857D01*
X116951905Y-133846667D01*
X116990000Y-133732381D01*
X117028095Y-133694286D01*
X117028095Y-133389524D02*
X116990000Y-133351429D01*
X116951905Y-133275238D01*
X116951905Y-133084762D01*
X116990000Y-133008572D01*
X117028095Y-132970476D01*
X117104286Y-132932381D01*
X117180476Y-132932381D01*
X117294762Y-132970476D01*
X117751905Y-133427619D01*
X117751905Y-132932381D01*
X116951905Y-132665714D02*
X116951905Y-132132381D01*
X117751905Y-132475238D01*
X117955714Y-136955714D02*
X117917619Y-136993810D01*
X117803333Y-137031905D01*
X117727143Y-137031905D01*
X117612857Y-136993810D01*
X117536666Y-136917619D01*
X117498571Y-136841429D01*
X117460476Y-136689048D01*
X117460476Y-136574762D01*
X117498571Y-136422381D01*
X117536666Y-136346190D01*
X117612857Y-136270000D01*
X117727143Y-136231905D01*
X117803333Y-136231905D01*
X117917619Y-136270000D01*
X117955714Y-136308095D01*
X118260476Y-136308095D02*
X118298571Y-136270000D01*
X118374762Y-136231905D01*
X118565238Y-136231905D01*
X118641428Y-136270000D01*
X118679524Y-136308095D01*
X118717619Y-136384286D01*
X118717619Y-136460476D01*
X118679524Y-136574762D01*
X118222381Y-137031905D01*
X118717619Y-137031905D01*
X119403333Y-136231905D02*
X119250952Y-136231905D01*
X119174762Y-136270000D01*
X119136667Y-136308095D01*
X119060476Y-136422381D01*
X119022381Y-136574762D01*
X119022381Y-136879524D01*
X119060476Y-136955714D01*
X119098571Y-136993810D01*
X119174762Y-137031905D01*
X119327143Y-137031905D01*
X119403333Y-136993810D01*
X119441429Y-136955714D01*
X119479524Y-136879524D01*
X119479524Y-136689048D01*
X119441429Y-136612857D01*
X119403333Y-136574762D01*
X119327143Y-136536667D01*
X119174762Y-136536667D01*
X119098571Y-136574762D01*
X119060476Y-136612857D01*
X119022381Y-136689048D01*
X119015714Y-125834286D02*
X119053810Y-125872381D01*
X119091905Y-125986667D01*
X119091905Y-126062857D01*
X119053810Y-126177143D01*
X118977619Y-126253334D01*
X118901429Y-126291429D01*
X118749048Y-126329524D01*
X118634762Y-126329524D01*
X118482381Y-126291429D01*
X118406190Y-126253334D01*
X118330000Y-126177143D01*
X118291905Y-126062857D01*
X118291905Y-125986667D01*
X118330000Y-125872381D01*
X118368095Y-125834286D01*
X118368095Y-125529524D02*
X118330000Y-125491429D01*
X118291905Y-125415238D01*
X118291905Y-125224762D01*
X118330000Y-125148572D01*
X118368095Y-125110476D01*
X118444286Y-125072381D01*
X118520476Y-125072381D01*
X118634762Y-125110476D01*
X119091905Y-125567619D01*
X119091905Y-125072381D01*
X118558571Y-124386667D02*
X119091905Y-124386667D01*
X118253810Y-124577143D02*
X118825238Y-124767619D01*
X118825238Y-124272381D01*
X117715714Y-125794286D02*
X117753810Y-125832381D01*
X117791905Y-125946667D01*
X117791905Y-126022857D01*
X117753810Y-126137143D01*
X117677619Y-126213334D01*
X117601429Y-126251429D01*
X117449048Y-126289524D01*
X117334762Y-126289524D01*
X117182381Y-126251429D01*
X117106190Y-126213334D01*
X117030000Y-126137143D01*
X116991905Y-126022857D01*
X116991905Y-125946667D01*
X117030000Y-125832381D01*
X117068095Y-125794286D01*
X117068095Y-125489524D02*
X117030000Y-125451429D01*
X116991905Y-125375238D01*
X116991905Y-125184762D01*
X117030000Y-125108572D01*
X117068095Y-125070476D01*
X117144286Y-125032381D01*
X117220476Y-125032381D01*
X117334762Y-125070476D01*
X117791905Y-125527619D01*
X117791905Y-125032381D01*
X116991905Y-124765714D02*
X116991905Y-124270476D01*
X117296667Y-124537143D01*
X117296667Y-124422857D01*
X117334762Y-124346667D01*
X117372857Y-124308571D01*
X117449048Y-124270476D01*
X117639524Y-124270476D01*
X117715714Y-124308571D01*
X117753810Y-124346667D01*
X117791905Y-124422857D01*
X117791905Y-124651429D01*
X117753810Y-124727619D01*
X117715714Y-124765714D01*
X121575714Y-126054286D02*
X121613810Y-126092381D01*
X121651905Y-126206667D01*
X121651905Y-126282857D01*
X121613810Y-126397143D01*
X121537619Y-126473334D01*
X121461429Y-126511429D01*
X121309048Y-126549524D01*
X121194762Y-126549524D01*
X121042381Y-126511429D01*
X120966190Y-126473334D01*
X120890000Y-126397143D01*
X120851905Y-126282857D01*
X120851905Y-126206667D01*
X120890000Y-126092381D01*
X120928095Y-126054286D01*
X120928095Y-125749524D02*
X120890000Y-125711429D01*
X120851905Y-125635238D01*
X120851905Y-125444762D01*
X120890000Y-125368572D01*
X120928095Y-125330476D01*
X121004286Y-125292381D01*
X121080476Y-125292381D01*
X121194762Y-125330476D01*
X121651905Y-125787619D01*
X121651905Y-125292381D01*
X120928095Y-124987619D02*
X120890000Y-124949524D01*
X120851905Y-124873333D01*
X120851905Y-124682857D01*
X120890000Y-124606667D01*
X120928095Y-124568571D01*
X121004286Y-124530476D01*
X121080476Y-124530476D01*
X121194762Y-124568571D01*
X121651905Y-125025714D01*
X121651905Y-124530476D01*
X123965714Y-126814286D02*
X124003810Y-126852381D01*
X124041905Y-126966667D01*
X124041905Y-127042857D01*
X124003810Y-127157143D01*
X123927619Y-127233334D01*
X123851429Y-127271429D01*
X123699048Y-127309524D01*
X123584762Y-127309524D01*
X123432381Y-127271429D01*
X123356190Y-127233334D01*
X123280000Y-127157143D01*
X123241905Y-127042857D01*
X123241905Y-126966667D01*
X123280000Y-126852381D01*
X123318095Y-126814286D01*
X123318095Y-126509524D02*
X123280000Y-126471429D01*
X123241905Y-126395238D01*
X123241905Y-126204762D01*
X123280000Y-126128572D01*
X123318095Y-126090476D01*
X123394286Y-126052381D01*
X123470476Y-126052381D01*
X123584762Y-126090476D01*
X124041905Y-126547619D01*
X124041905Y-126052381D01*
X123241905Y-125557143D02*
X123241905Y-125480952D01*
X123280000Y-125404762D01*
X123318095Y-125366667D01*
X123394286Y-125328571D01*
X123546667Y-125290476D01*
X123737143Y-125290476D01*
X123889524Y-125328571D01*
X123965714Y-125366667D01*
X124003810Y-125404762D01*
X124041905Y-125480952D01*
X124041905Y-125557143D01*
X124003810Y-125633333D01*
X123965714Y-125671429D01*
X123889524Y-125709524D01*
X123737143Y-125747619D01*
X123546667Y-125747619D01*
X123394286Y-125709524D01*
X123318095Y-125671429D01*
X123280000Y-125633333D01*
X123241905Y-125557143D01*
X111615714Y-126074286D02*
X111653810Y-126112381D01*
X111691905Y-126226667D01*
X111691905Y-126302857D01*
X111653810Y-126417143D01*
X111577619Y-126493334D01*
X111501429Y-126531429D01*
X111349048Y-126569524D01*
X111234762Y-126569524D01*
X111082381Y-126531429D01*
X111006190Y-126493334D01*
X110930000Y-126417143D01*
X110891905Y-126302857D01*
X110891905Y-126226667D01*
X110930000Y-126112381D01*
X110968095Y-126074286D01*
X111691905Y-125312381D02*
X111691905Y-125769524D01*
X111691905Y-125540953D02*
X110891905Y-125540953D01*
X111006190Y-125617143D01*
X111082381Y-125693334D01*
X111120476Y-125769524D01*
X110891905Y-125045714D02*
X110891905Y-124512381D01*
X111691905Y-124855238D01*
X111835714Y-128075714D02*
X111797619Y-128113810D01*
X111683333Y-128151905D01*
X111607143Y-128151905D01*
X111492857Y-128113810D01*
X111416666Y-128037619D01*
X111378571Y-127961429D01*
X111340476Y-127809048D01*
X111340476Y-127694762D01*
X111378571Y-127542381D01*
X111416666Y-127466190D01*
X111492857Y-127390000D01*
X111607143Y-127351905D01*
X111683333Y-127351905D01*
X111797619Y-127390000D01*
X111835714Y-127428095D01*
X112597619Y-128151905D02*
X112140476Y-128151905D01*
X112369047Y-128151905D02*
X112369047Y-127351905D01*
X112292857Y-127466190D01*
X112216666Y-127542381D01*
X112140476Y-127580476D01*
X113283333Y-127351905D02*
X113130952Y-127351905D01*
X113054762Y-127390000D01*
X113016667Y-127428095D01*
X112940476Y-127542381D01*
X112902381Y-127694762D01*
X112902381Y-127999524D01*
X112940476Y-128075714D01*
X112978571Y-128113810D01*
X113054762Y-128151905D01*
X113207143Y-128151905D01*
X113283333Y-128113810D01*
X113321429Y-128075714D01*
X113359524Y-127999524D01*
X113359524Y-127809048D01*
X113321429Y-127732857D01*
X113283333Y-127694762D01*
X113207143Y-127656667D01*
X113054762Y-127656667D01*
X112978571Y-127694762D01*
X112940476Y-127732857D01*
X112902381Y-127809048D01*
X125985714Y-122575714D02*
X125947619Y-122613810D01*
X125833333Y-122651905D01*
X125757143Y-122651905D01*
X125642857Y-122613810D01*
X125566666Y-122537619D01*
X125528571Y-122461429D01*
X125490476Y-122309048D01*
X125490476Y-122194762D01*
X125528571Y-122042381D01*
X125566666Y-121966190D01*
X125642857Y-121890000D01*
X125757143Y-121851905D01*
X125833333Y-121851905D01*
X125947619Y-121890000D01*
X125985714Y-121928095D01*
X126747619Y-122651905D02*
X126290476Y-122651905D01*
X126519047Y-122651905D02*
X126519047Y-121851905D01*
X126442857Y-121966190D01*
X126366666Y-122042381D01*
X126290476Y-122080476D01*
X127471429Y-121851905D02*
X127090476Y-121851905D01*
X127052381Y-122232857D01*
X127090476Y-122194762D01*
X127166667Y-122156667D01*
X127357143Y-122156667D01*
X127433333Y-122194762D01*
X127471429Y-122232857D01*
X127509524Y-122309048D01*
X127509524Y-122499524D01*
X127471429Y-122575714D01*
X127433333Y-122613810D01*
X127357143Y-122651905D01*
X127166667Y-122651905D01*
X127090476Y-122613810D01*
X127052381Y-122575714D01*
X126835714Y-114035714D02*
X126797619Y-114073810D01*
X126683333Y-114111905D01*
X126607143Y-114111905D01*
X126492857Y-114073810D01*
X126416666Y-113997619D01*
X126378571Y-113921429D01*
X126340476Y-113769048D01*
X126340476Y-113654762D01*
X126378571Y-113502381D01*
X126416666Y-113426190D01*
X126492857Y-113350000D01*
X126607143Y-113311905D01*
X126683333Y-113311905D01*
X126797619Y-113350000D01*
X126835714Y-113388095D01*
X127597619Y-114111905D02*
X127140476Y-114111905D01*
X127369047Y-114111905D02*
X127369047Y-113311905D01*
X127292857Y-113426190D01*
X127216666Y-113502381D01*
X127140476Y-113540476D01*
X128283333Y-113578571D02*
X128283333Y-114111905D01*
X128092857Y-113273810D02*
X127902381Y-113845238D01*
X128397619Y-113845238D01*
X122955714Y-105474286D02*
X122993810Y-105512381D01*
X123031905Y-105626667D01*
X123031905Y-105702857D01*
X122993810Y-105817143D01*
X122917619Y-105893334D01*
X122841429Y-105931429D01*
X122689048Y-105969524D01*
X122574762Y-105969524D01*
X122422381Y-105931429D01*
X122346190Y-105893334D01*
X122270000Y-105817143D01*
X122231905Y-105702857D01*
X122231905Y-105626667D01*
X122270000Y-105512381D01*
X122308095Y-105474286D01*
X123031905Y-104712381D02*
X123031905Y-105169524D01*
X123031905Y-104940953D02*
X122231905Y-104940953D01*
X122346190Y-105017143D01*
X122422381Y-105093334D01*
X122460476Y-105169524D01*
X122231905Y-104445714D02*
X122231905Y-103950476D01*
X122536667Y-104217143D01*
X122536667Y-104102857D01*
X122574762Y-104026667D01*
X122612857Y-103988571D01*
X122689048Y-103950476D01*
X122879524Y-103950476D01*
X122955714Y-103988571D01*
X122993810Y-104026667D01*
X123031905Y-104102857D01*
X123031905Y-104331429D01*
X122993810Y-104407619D01*
X122955714Y-104445714D01*
X114525714Y-105164286D02*
X114563810Y-105202381D01*
X114601905Y-105316667D01*
X114601905Y-105392857D01*
X114563810Y-105507143D01*
X114487619Y-105583334D01*
X114411429Y-105621429D01*
X114259048Y-105659524D01*
X114144762Y-105659524D01*
X113992381Y-105621429D01*
X113916190Y-105583334D01*
X113840000Y-105507143D01*
X113801905Y-105392857D01*
X113801905Y-105316667D01*
X113840000Y-105202381D01*
X113878095Y-105164286D01*
X114601905Y-104402381D02*
X114601905Y-104859524D01*
X114601905Y-104630953D02*
X113801905Y-104630953D01*
X113916190Y-104707143D01*
X113992381Y-104783334D01*
X114030476Y-104859524D01*
X113878095Y-104097619D02*
X113840000Y-104059524D01*
X113801905Y-103983333D01*
X113801905Y-103792857D01*
X113840000Y-103716667D01*
X113878095Y-103678571D01*
X113954286Y-103640476D01*
X114030476Y-103640476D01*
X114144762Y-103678571D01*
X114601905Y-104135714D01*
X114601905Y-103640476D01*
X104745714Y-111625714D02*
X104707619Y-111663810D01*
X104593333Y-111701905D01*
X104517143Y-111701905D01*
X104402857Y-111663810D01*
X104326666Y-111587619D01*
X104288571Y-111511429D01*
X104250476Y-111359048D01*
X104250476Y-111244762D01*
X104288571Y-111092381D01*
X104326666Y-111016190D01*
X104402857Y-110940000D01*
X104517143Y-110901905D01*
X104593333Y-110901905D01*
X104707619Y-110940000D01*
X104745714Y-110978095D01*
X105507619Y-111701905D02*
X105050476Y-111701905D01*
X105279047Y-111701905D02*
X105279047Y-110901905D01*
X105202857Y-111016190D01*
X105126666Y-111092381D01*
X105050476Y-111130476D01*
X106269524Y-111701905D02*
X105812381Y-111701905D01*
X106040952Y-111701905D02*
X106040952Y-110901905D01*
X105964762Y-111016190D01*
X105888571Y-111092381D01*
X105812381Y-111130476D01*
X105445714Y-115305714D02*
X105407619Y-115343810D01*
X105293333Y-115381905D01*
X105217143Y-115381905D01*
X105102857Y-115343810D01*
X105026666Y-115267619D01*
X104988571Y-115191429D01*
X104950476Y-115039048D01*
X104950476Y-114924762D01*
X104988571Y-114772381D01*
X105026666Y-114696190D01*
X105102857Y-114620000D01*
X105217143Y-114581905D01*
X105293333Y-114581905D01*
X105407619Y-114620000D01*
X105445714Y-114658095D01*
X106207619Y-115381905D02*
X105750476Y-115381905D01*
X105979047Y-115381905D02*
X105979047Y-114581905D01*
X105902857Y-114696190D01*
X105826666Y-114772381D01*
X105750476Y-114810476D01*
X106702857Y-114581905D02*
X106779048Y-114581905D01*
X106855238Y-114620000D01*
X106893333Y-114658095D01*
X106931429Y-114734286D01*
X106969524Y-114886667D01*
X106969524Y-115077143D01*
X106931429Y-115229524D01*
X106893333Y-115305714D01*
X106855238Y-115343810D01*
X106779048Y-115381905D01*
X106702857Y-115381905D01*
X106626667Y-115343810D01*
X106588571Y-115305714D01*
X106550476Y-115229524D01*
X106512381Y-115077143D01*
X106512381Y-114886667D01*
X106550476Y-114734286D01*
X106588571Y-114658095D01*
X106626667Y-114620000D01*
X106702857Y-114581905D01*
X118755714Y-104463333D02*
X118793810Y-104501428D01*
X118831905Y-104615714D01*
X118831905Y-104691904D01*
X118793810Y-104806190D01*
X118717619Y-104882381D01*
X118641429Y-104920476D01*
X118489048Y-104958571D01*
X118374762Y-104958571D01*
X118222381Y-104920476D01*
X118146190Y-104882381D01*
X118070000Y-104806190D01*
X118031905Y-104691904D01*
X118031905Y-104615714D01*
X118070000Y-104501428D01*
X118108095Y-104463333D01*
X118374762Y-104006190D02*
X118336667Y-104082381D01*
X118298571Y-104120476D01*
X118222381Y-104158571D01*
X118184286Y-104158571D01*
X118108095Y-104120476D01*
X118070000Y-104082381D01*
X118031905Y-104006190D01*
X118031905Y-103853809D01*
X118070000Y-103777619D01*
X118108095Y-103739523D01*
X118184286Y-103701428D01*
X118222381Y-103701428D01*
X118298571Y-103739523D01*
X118336667Y-103777619D01*
X118374762Y-103853809D01*
X118374762Y-104006190D01*
X118412857Y-104082381D01*
X118450952Y-104120476D01*
X118527143Y-104158571D01*
X118679524Y-104158571D01*
X118755714Y-104120476D01*
X118793810Y-104082381D01*
X118831905Y-104006190D01*
X118831905Y-103853809D01*
X118793810Y-103777619D01*
X118755714Y-103739523D01*
X118679524Y-103701428D01*
X118527143Y-103701428D01*
X118450952Y-103739523D01*
X118412857Y-103777619D01*
X118374762Y-103853809D01*
X106883689Y-124937751D02*
X106829814Y-124937751D01*
X106722064Y-124883876D01*
X106668190Y-124830002D01*
X106614315Y-124722252D01*
X106614315Y-124614502D01*
X106641252Y-124533690D01*
X106722064Y-124399003D01*
X106802877Y-124318191D01*
X106937563Y-124237378D01*
X107018376Y-124210440D01*
X107126126Y-124210441D01*
X107233875Y-124264316D01*
X107287750Y-124318191D01*
X107341625Y-124425940D01*
X107341625Y-124479815D01*
X107584061Y-124614502D02*
X107961185Y-124991626D01*
X107153063Y-125314875D01*
X125577750Y-124886311D02*
X125577750Y-124940186D01*
X125523875Y-125047936D01*
X125470001Y-125101810D01*
X125362251Y-125155685D01*
X125254501Y-125155685D01*
X125173689Y-125128748D01*
X125039002Y-125047936D01*
X124958190Y-124967123D01*
X124877377Y-124832437D01*
X124850439Y-124751624D01*
X124850440Y-124643874D01*
X124904315Y-124536125D01*
X124958190Y-124482250D01*
X125065939Y-124428375D01*
X125119814Y-124428375D01*
X125550812Y-123889628D02*
X125443063Y-123997377D01*
X125416126Y-124078189D01*
X125416126Y-124132064D01*
X125443063Y-124266751D01*
X125523875Y-124401438D01*
X125739374Y-124616937D01*
X125820186Y-124643874D01*
X125874061Y-124643875D01*
X125954874Y-124616937D01*
X126062623Y-124509188D01*
X126089561Y-124428376D01*
X126089561Y-124374500D01*
X126062623Y-124293688D01*
X125927936Y-124159001D01*
X125847124Y-124132064D01*
X125793249Y-124132064D01*
X125712437Y-124159001D01*
X125604688Y-124266751D01*
X125577750Y-124347563D01*
X125577750Y-124401438D01*
X125604688Y-124482250D01*
X125597750Y-109016311D02*
X125597750Y-109070186D01*
X125543875Y-109177936D01*
X125490001Y-109231810D01*
X125382251Y-109285685D01*
X125274501Y-109285685D01*
X125193689Y-109258748D01*
X125059002Y-109177936D01*
X124978190Y-109097123D01*
X124897377Y-108962437D01*
X124870439Y-108881624D01*
X124870440Y-108773874D01*
X124924315Y-108666125D01*
X124978190Y-108612250D01*
X125085939Y-108558375D01*
X125139814Y-108558375D01*
X125597750Y-107992690D02*
X125328376Y-108262064D01*
X125570812Y-108558375D01*
X125570812Y-108504501D01*
X125597750Y-108423688D01*
X125732437Y-108289001D01*
X125813249Y-108262064D01*
X125867124Y-108262064D01*
X125947936Y-108289001D01*
X126082623Y-108423688D01*
X126109561Y-108504500D01*
X126109561Y-108558376D01*
X126082623Y-108639188D01*
X125947936Y-108773874D01*
X125867124Y-108800812D01*
X125813249Y-108800812D01*
X106393689Y-108547750D02*
X106339814Y-108547750D01*
X106232064Y-108493875D01*
X106178190Y-108440001D01*
X106124315Y-108332251D01*
X106124315Y-108224501D01*
X106151252Y-108143689D01*
X106232064Y-108009002D01*
X106312877Y-107928190D01*
X106447563Y-107847377D01*
X106528376Y-107820439D01*
X106636126Y-107820440D01*
X106743875Y-107874315D01*
X106797750Y-107928190D01*
X106851625Y-108035939D01*
X106851625Y-108089814D01*
X107201811Y-108709374D02*
X106824687Y-109086498D01*
X107282623Y-108359188D02*
X106743875Y-108628562D01*
X107094061Y-108978748D01*
X116235714Y-125653333D02*
X116273810Y-125691428D01*
X116311905Y-125805714D01*
X116311905Y-125881904D01*
X116273810Y-125996190D01*
X116197619Y-126072381D01*
X116121429Y-126110476D01*
X115969048Y-126148571D01*
X115854762Y-126148571D01*
X115702381Y-126110476D01*
X115626190Y-126072381D01*
X115550000Y-125996190D01*
X115511905Y-125881904D01*
X115511905Y-125805714D01*
X115550000Y-125691428D01*
X115588095Y-125653333D01*
X115511905Y-125386666D02*
X115511905Y-124891428D01*
X115816667Y-125158095D01*
X115816667Y-125043809D01*
X115854762Y-124967619D01*
X115892857Y-124929523D01*
X115969048Y-124891428D01*
X116159524Y-124891428D01*
X116235714Y-124929523D01*
X116273810Y-124967619D01*
X116311905Y-125043809D01*
X116311905Y-125272381D01*
X116273810Y-125348571D01*
X116235714Y-125386666D01*
X116745714Y-133533333D02*
X116783810Y-133571428D01*
X116821905Y-133685714D01*
X116821905Y-133761904D01*
X116783810Y-133876190D01*
X116707619Y-133952381D01*
X116631429Y-133990476D01*
X116479048Y-134028571D01*
X116364762Y-134028571D01*
X116212381Y-133990476D01*
X116136190Y-133952381D01*
X116060000Y-133876190D01*
X116021905Y-133761904D01*
X116021905Y-133685714D01*
X116060000Y-133571428D01*
X116098095Y-133533333D01*
X116098095Y-133228571D02*
X116060000Y-133190476D01*
X116021905Y-133114285D01*
X116021905Y-132923809D01*
X116060000Y-132847619D01*
X116098095Y-132809523D01*
X116174286Y-132771428D01*
X116250476Y-132771428D01*
X116364762Y-132809523D01*
X116821905Y-133266666D01*
X116821905Y-132771428D01*
X99036667Y-126195714D02*
X98998572Y-126233810D01*
X98884286Y-126271905D01*
X98808096Y-126271905D01*
X98693810Y-126233810D01*
X98617619Y-126157619D01*
X98579524Y-126081429D01*
X98541429Y-125929048D01*
X98541429Y-125814762D01*
X98579524Y-125662381D01*
X98617619Y-125586190D01*
X98693810Y-125510000D01*
X98808096Y-125471905D01*
X98884286Y-125471905D01*
X98998572Y-125510000D01*
X99036667Y-125548095D01*
X99798572Y-126271905D02*
X99341429Y-126271905D01*
X99570000Y-126271905D02*
X99570000Y-125471905D01*
X99493810Y-125586190D01*
X99417619Y-125662381D01*
X99341429Y-125700476D01*
X110780476Y-93951905D02*
X110780476Y-94599524D01*
X110818571Y-94675714D01*
X110856667Y-94713810D01*
X110932857Y-94751905D01*
X111085238Y-94751905D01*
X111161429Y-94713810D01*
X111199524Y-94675714D01*
X111237619Y-94599524D01*
X111237619Y-93951905D01*
X111999524Y-93951905D02*
X111618571Y-93951905D01*
X111580476Y-94332857D01*
X111618571Y-94294762D01*
X111694762Y-94256667D01*
X111885238Y-94256667D01*
X111961428Y-94294762D01*
X111999524Y-94332857D01*
X112037619Y-94409048D01*
X112037619Y-94599524D01*
X111999524Y-94675714D01*
X111961428Y-94713810D01*
X111885238Y-94751905D01*
X111694762Y-94751905D01*
X111618571Y-94713810D01*
X111580476Y-94675714D01*
X95221905Y-111539524D02*
X95869524Y-111539524D01*
X95945714Y-111501429D01*
X95983810Y-111463333D01*
X96021905Y-111387143D01*
X96021905Y-111234762D01*
X95983810Y-111158571D01*
X95945714Y-111120476D01*
X95869524Y-111082381D01*
X95221905Y-111082381D01*
X95488571Y-110358572D02*
X96021905Y-110358572D01*
X95183810Y-110549048D02*
X95755238Y-110739524D01*
X95755238Y-110244286D01*
X131341905Y-117739524D02*
X131989524Y-117739524D01*
X132065714Y-117701429D01*
X132103810Y-117663333D01*
X132141905Y-117587143D01*
X132141905Y-117434762D01*
X132103810Y-117358571D01*
X132065714Y-117320476D01*
X131989524Y-117282381D01*
X131341905Y-117282381D01*
X131341905Y-116977619D02*
X131341905Y-116482381D01*
X131646667Y-116749048D01*
X131646667Y-116634762D01*
X131684762Y-116558572D01*
X131722857Y-116520476D01*
X131799048Y-116482381D01*
X131989524Y-116482381D01*
X132065714Y-116520476D01*
X132103810Y-116558572D01*
X132141905Y-116634762D01*
X132141905Y-116863334D01*
X132103810Y-116939524D01*
X132065714Y-116977619D01*
D20*
X116729619Y-94989904D02*
X115713619Y-94989904D01*
X115713619Y-94602857D01*
X115762000Y-94506095D01*
X115810381Y-94457714D01*
X115907143Y-94409333D01*
X116052286Y-94409333D01*
X116149048Y-94457714D01*
X116197429Y-94506095D01*
X116245810Y-94602857D01*
X116245810Y-94989904D01*
X115713619Y-94070666D02*
X115713619Y-93393333D01*
X116729619Y-93828761D01*
X128704219Y-95123604D02*
X127688219Y-95123604D01*
X127688219Y-94736557D01*
X127736600Y-94639795D01*
X127784981Y-94591414D01*
X127881743Y-94543033D01*
X128026886Y-94543033D01*
X128123648Y-94591414D01*
X128172029Y-94639795D01*
X128220410Y-94736557D01*
X128220410Y-95123604D01*
X127688219Y-93672176D02*
X127688219Y-93865699D01*
X127736600Y-93962461D01*
X127784981Y-94010842D01*
X127930124Y-94107604D01*
X128123648Y-94155985D01*
X128510695Y-94155985D01*
X128607457Y-94107604D01*
X128655838Y-94059223D01*
X128704219Y-93962461D01*
X128704219Y-93768938D01*
X128655838Y-93672176D01*
X128607457Y-93623795D01*
X128510695Y-93575414D01*
X128268790Y-93575414D01*
X128172029Y-93623795D01*
X128123648Y-93672176D01*
X128075267Y-93768938D01*
X128075267Y-93962461D01*
X128123648Y-94059223D01*
X128172029Y-94107604D01*
X128268790Y-94155985D01*
X138746896Y-111762419D02*
X138746896Y-110746419D01*
X139133943Y-110746419D01*
X139230705Y-110794800D01*
X139279086Y-110843181D01*
X139327467Y-110939943D01*
X139327467Y-111085086D01*
X139279086Y-111181848D01*
X139230705Y-111230229D01*
X139133943Y-111278610D01*
X138746896Y-111278610D01*
X140246705Y-110746419D02*
X139762896Y-110746419D01*
X139714515Y-111230229D01*
X139762896Y-111181848D01*
X139859658Y-111133467D01*
X140101562Y-111133467D01*
X140198324Y-111181848D01*
X140246705Y-111230229D01*
X140295086Y-111326990D01*
X140295086Y-111568895D01*
X140246705Y-111665657D01*
X140198324Y-111714038D01*
X140101562Y-111762419D01*
X139859658Y-111762419D01*
X139762896Y-111714038D01*
X139714515Y-111665657D01*
X136867296Y-123763919D02*
X136867296Y-122747919D01*
X137254343Y-122747919D01*
X137351105Y-122796300D01*
X137399486Y-122844681D01*
X137447867Y-122941443D01*
X137447867Y-123086586D01*
X137399486Y-123183348D01*
X137351105Y-123231729D01*
X137254343Y-123280110D01*
X136867296Y-123280110D01*
X138318724Y-123086586D02*
X138318724Y-123763919D01*
X138076820Y-122699538D02*
X137834915Y-123425252D01*
X138463867Y-123425252D01*
X99259619Y-121279904D02*
X98243619Y-121279904D01*
X98243619Y-120892857D01*
X98292000Y-120796095D01*
X98340381Y-120747714D01*
X98437143Y-120699333D01*
X98582286Y-120699333D01*
X98679048Y-120747714D01*
X98727429Y-120796095D01*
X98775810Y-120892857D01*
X98775810Y-121279904D01*
X98243619Y-120360666D02*
X98243619Y-119731714D01*
X98630667Y-120070380D01*
X98630667Y-119925238D01*
X98679048Y-119828476D01*
X98727429Y-119780095D01*
X98824190Y-119731714D01*
X99066095Y-119731714D01*
X99162857Y-119780095D01*
X99211238Y-119828476D01*
X99259619Y-119925238D01*
X99259619Y-120215523D01*
X99211238Y-120312285D01*
X99162857Y-120360666D01*
X99357319Y-132499704D02*
X98341319Y-132499704D01*
X98341319Y-132112657D01*
X98389700Y-132015895D01*
X98438081Y-131967514D01*
X98534843Y-131919133D01*
X98679986Y-131919133D01*
X98776748Y-131967514D01*
X98825129Y-132015895D01*
X98873510Y-132112657D01*
X98873510Y-132499704D01*
X98438081Y-131532085D02*
X98389700Y-131483704D01*
X98341319Y-131386942D01*
X98341319Y-131145038D01*
X98389700Y-131048276D01*
X98438081Y-130999895D01*
X98534843Y-130951514D01*
X98631605Y-130951514D01*
X98776748Y-130999895D01*
X99357319Y-131580466D01*
X99357319Y-130951514D01*
D17*
X100326667Y-104181905D02*
X99945714Y-104181905D01*
X99945714Y-103381905D01*
X100517143Y-103381905D02*
X101012381Y-103381905D01*
X100745714Y-103686667D01*
X100860000Y-103686667D01*
X100936190Y-103724762D01*
X100974286Y-103762857D01*
X101012381Y-103839048D01*
X101012381Y-104029524D01*
X100974286Y-104105714D01*
X100936190Y-104143810D01*
X100860000Y-104181905D01*
X100631428Y-104181905D01*
X100555238Y-104143810D01*
X100517143Y-104105714D01*
X121491905Y-133173333D02*
X121491905Y-133554286D01*
X120691905Y-133554286D01*
X120768095Y-132944762D02*
X120730000Y-132906667D01*
X120691905Y-132830476D01*
X120691905Y-132640000D01*
X120730000Y-132563810D01*
X120768095Y-132525714D01*
X120844286Y-132487619D01*
X120920476Y-132487619D01*
X121034762Y-132525714D01*
X121491905Y-132982857D01*
X121491905Y-132487619D01*
X109826667Y-133601905D02*
X109445714Y-133601905D01*
X109445714Y-132801905D01*
X110512381Y-133601905D02*
X110055238Y-133601905D01*
X110283809Y-133601905D02*
X110283809Y-132801905D01*
X110207619Y-132916190D01*
X110131428Y-132992381D01*
X110055238Y-133030476D01*
D21*
X104207571Y-92829000D02*
X105279000Y-92829000D01*
X105493286Y-92900428D01*
X105636143Y-93043285D01*
X105707571Y-93257571D01*
X105707571Y-93400428D01*
X105707571Y-91329000D02*
X105707571Y-92186143D01*
X105707571Y-91757571D02*
X104207571Y-91757571D01*
X104421857Y-91900428D01*
X104564714Y-92043286D01*
X104636143Y-92186143D01*
D17*
X95549524Y-104321905D02*
X95549524Y-103521905D01*
X95740000Y-103521905D01*
X95854286Y-103560000D01*
X95930477Y-103636190D01*
X95968572Y-103712381D01*
X96006667Y-103864762D01*
X96006667Y-103979048D01*
X95968572Y-104131429D01*
X95930477Y-104207619D01*
X95854286Y-104283810D01*
X95740000Y-104321905D01*
X95549524Y-104321905D01*
X96768572Y-104321905D02*
X96311429Y-104321905D01*
X96540000Y-104321905D02*
X96540000Y-103521905D01*
X96463810Y-103636190D01*
X96387619Y-103712381D01*
X96311429Y-103750476D01*
X110885714Y-92884286D02*
X110923810Y-92922381D01*
X110961905Y-93036667D01*
X110961905Y-93112857D01*
X110923810Y-93227143D01*
X110847619Y-93303334D01*
X110771429Y-93341429D01*
X110619048Y-93379524D01*
X110504762Y-93379524D01*
X110352381Y-93341429D01*
X110276190Y-93303334D01*
X110200000Y-93227143D01*
X110161905Y-93112857D01*
X110161905Y-93036667D01*
X110200000Y-92922381D01*
X110238095Y-92884286D01*
X110161905Y-92617619D02*
X110161905Y-92122381D01*
X110466667Y-92389048D01*
X110466667Y-92274762D01*
X110504762Y-92198572D01*
X110542857Y-92160476D01*
X110619048Y-92122381D01*
X110809524Y-92122381D01*
X110885714Y-92160476D01*
X110923810Y-92198572D01*
X110961905Y-92274762D01*
X110961905Y-92503334D01*
X110923810Y-92579524D01*
X110885714Y-92617619D01*
X110428571Y-91436667D02*
X110961905Y-91436667D01*
X110123810Y-91627143D02*
X110695238Y-91817619D01*
X110695238Y-91322381D01*
X102595714Y-113184286D02*
X102633810Y-113222381D01*
X102671905Y-113336667D01*
X102671905Y-113412857D01*
X102633810Y-113527143D01*
X102557619Y-113603334D01*
X102481429Y-113641429D01*
X102329048Y-113679524D01*
X102214762Y-113679524D01*
X102062381Y-113641429D01*
X101986190Y-113603334D01*
X101910000Y-113527143D01*
X101871905Y-113412857D01*
X101871905Y-113336667D01*
X101910000Y-113222381D01*
X101948095Y-113184286D01*
X101871905Y-112917619D02*
X101871905Y-112422381D01*
X102176667Y-112689048D01*
X102176667Y-112574762D01*
X102214762Y-112498572D01*
X102252857Y-112460476D01*
X102329048Y-112422381D01*
X102519524Y-112422381D01*
X102595714Y-112460476D01*
X102633810Y-112498572D01*
X102671905Y-112574762D01*
X102671905Y-112803334D01*
X102633810Y-112879524D01*
X102595714Y-112917619D01*
X101871905Y-112155714D02*
X101871905Y-111660476D01*
X102176667Y-111927143D01*
X102176667Y-111812857D01*
X102214762Y-111736667D01*
X102252857Y-111698571D01*
X102329048Y-111660476D01*
X102519524Y-111660476D01*
X102595714Y-111698571D01*
X102633810Y-111736667D01*
X102671905Y-111812857D01*
X102671905Y-112041429D01*
X102633810Y-112117619D01*
X102595714Y-112155714D01*
X110395714Y-105824286D02*
X110433810Y-105862381D01*
X110471905Y-105976667D01*
X110471905Y-106052857D01*
X110433810Y-106167143D01*
X110357619Y-106243334D01*
X110281429Y-106281429D01*
X110129048Y-106319524D01*
X110014762Y-106319524D01*
X109862381Y-106281429D01*
X109786190Y-106243334D01*
X109710000Y-106167143D01*
X109671905Y-106052857D01*
X109671905Y-105976667D01*
X109710000Y-105862381D01*
X109748095Y-105824286D01*
X109671905Y-105557619D02*
X109671905Y-105062381D01*
X109976667Y-105329048D01*
X109976667Y-105214762D01*
X110014762Y-105138572D01*
X110052857Y-105100476D01*
X110129048Y-105062381D01*
X110319524Y-105062381D01*
X110395714Y-105100476D01*
X110433810Y-105138572D01*
X110471905Y-105214762D01*
X110471905Y-105443334D01*
X110433810Y-105519524D01*
X110395714Y-105557619D01*
X110471905Y-104300476D02*
X110471905Y-104757619D01*
X110471905Y-104529048D02*
X109671905Y-104529048D01*
X109786190Y-104605238D01*
X109862381Y-104681429D01*
X109900476Y-104757619D01*
X126305714Y-135464286D02*
X126343810Y-135502381D01*
X126381905Y-135616667D01*
X126381905Y-135692857D01*
X126343810Y-135807143D01*
X126267619Y-135883334D01*
X126191429Y-135921429D01*
X126039048Y-135959524D01*
X125924762Y-135959524D01*
X125772381Y-135921429D01*
X125696190Y-135883334D01*
X125620000Y-135807143D01*
X125581905Y-135692857D01*
X125581905Y-135616667D01*
X125620000Y-135502381D01*
X125658095Y-135464286D01*
X125658095Y-135159524D02*
X125620000Y-135121429D01*
X125581905Y-135045238D01*
X125581905Y-134854762D01*
X125620000Y-134778572D01*
X125658095Y-134740476D01*
X125734286Y-134702381D01*
X125810476Y-134702381D01*
X125924762Y-134740476D01*
X126381905Y-135197619D01*
X126381905Y-134702381D01*
X125581905Y-133978571D02*
X125581905Y-134359524D01*
X125962857Y-134397619D01*
X125924762Y-134359524D01*
X125886667Y-134283333D01*
X125886667Y-134092857D01*
X125924762Y-134016667D01*
X125962857Y-133978571D01*
X126039048Y-133940476D01*
X126229524Y-133940476D01*
X126305714Y-133978571D01*
X126343810Y-134016667D01*
X126381905Y-134092857D01*
X126381905Y-134283333D01*
X126343810Y-134359524D01*
X126305714Y-134397619D01*
X126422114Y-131171886D02*
X126460210Y-131209981D01*
X126498305Y-131324267D01*
X126498305Y-131400457D01*
X126460210Y-131514743D01*
X126384019Y-131590934D01*
X126307829Y-131629029D01*
X126155448Y-131667124D01*
X126041162Y-131667124D01*
X125888781Y-131629029D01*
X125812590Y-131590934D01*
X125736400Y-131514743D01*
X125698305Y-131400457D01*
X125698305Y-131324267D01*
X125736400Y-131209981D01*
X125774495Y-131171886D01*
X125774495Y-130867124D02*
X125736400Y-130829029D01*
X125698305Y-130752838D01*
X125698305Y-130562362D01*
X125736400Y-130486172D01*
X125774495Y-130448076D01*
X125850686Y-130409981D01*
X125926876Y-130409981D01*
X126041162Y-130448076D01*
X126498305Y-130905219D01*
X126498305Y-130409981D01*
X126498305Y-129648076D02*
X126498305Y-130105219D01*
X126498305Y-129876648D02*
X125698305Y-129876648D01*
X125812590Y-129952838D01*
X125888781Y-130029029D01*
X125926876Y-130105219D01*
X113201514Y-103333514D02*
X113163419Y-103371610D01*
X113049133Y-103409705D01*
X112972943Y-103409705D01*
X112858657Y-103371610D01*
X112782466Y-103295419D01*
X112744371Y-103219229D01*
X112706276Y-103066848D01*
X112706276Y-102952562D01*
X112744371Y-102800181D01*
X112782466Y-102723990D01*
X112858657Y-102647800D01*
X112972943Y-102609705D01*
X113049133Y-102609705D01*
X113163419Y-102647800D01*
X113201514Y-102685895D01*
X113963419Y-103409705D02*
X113506276Y-103409705D01*
X113734847Y-103409705D02*
X113734847Y-102609705D01*
X113658657Y-102723990D01*
X113582466Y-102800181D01*
X113506276Y-102838276D01*
X114344371Y-103409705D02*
X114496752Y-103409705D01*
X114572943Y-103371610D01*
X114611038Y-103333514D01*
X114687229Y-103219229D01*
X114725324Y-103066848D01*
X114725324Y-102762086D01*
X114687229Y-102685895D01*
X114649133Y-102647800D01*
X114572943Y-102609705D01*
X114420562Y-102609705D01*
X114344371Y-102647800D01*
X114306276Y-102685895D01*
X114268181Y-102762086D01*
X114268181Y-102952562D01*
X114306276Y-103028752D01*
X114344371Y-103066848D01*
X114420562Y-103104943D01*
X114572943Y-103104943D01*
X114649133Y-103066848D01*
X114687229Y-103028752D01*
X114725324Y-102952562D01*
X107181714Y-138817314D02*
X107143619Y-138855410D01*
X107029333Y-138893505D01*
X106953143Y-138893505D01*
X106838857Y-138855410D01*
X106762666Y-138779219D01*
X106724571Y-138703029D01*
X106686476Y-138550648D01*
X106686476Y-138436362D01*
X106724571Y-138283981D01*
X106762666Y-138207790D01*
X106838857Y-138131600D01*
X106953143Y-138093505D01*
X107029333Y-138093505D01*
X107143619Y-138131600D01*
X107181714Y-138169695D01*
X107943619Y-138893505D02*
X107486476Y-138893505D01*
X107715047Y-138893505D02*
X107715047Y-138093505D01*
X107638857Y-138207790D01*
X107562666Y-138283981D01*
X107486476Y-138322076D01*
X108400762Y-138436362D02*
X108324571Y-138398267D01*
X108286476Y-138360171D01*
X108248381Y-138283981D01*
X108248381Y-138245886D01*
X108286476Y-138169695D01*
X108324571Y-138131600D01*
X108400762Y-138093505D01*
X108553143Y-138093505D01*
X108629333Y-138131600D01*
X108667429Y-138169695D01*
X108705524Y-138245886D01*
X108705524Y-138283981D01*
X108667429Y-138360171D01*
X108629333Y-138398267D01*
X108553143Y-138436362D01*
X108400762Y-138436362D01*
X108324571Y-138474457D01*
X108286476Y-138512552D01*
X108248381Y-138588743D01*
X108248381Y-138741124D01*
X108286476Y-138817314D01*
X108324571Y-138855410D01*
X108400762Y-138893505D01*
X108553143Y-138893505D01*
X108629333Y-138855410D01*
X108667429Y-138817314D01*
X108705524Y-138741124D01*
X108705524Y-138588743D01*
X108667429Y-138512552D01*
X108629333Y-138474457D01*
X108553143Y-138436362D01*
X104476514Y-129978133D02*
X104514610Y-130016228D01*
X104552705Y-130130514D01*
X104552705Y-130206704D01*
X104514610Y-130320990D01*
X104438419Y-130397181D01*
X104362229Y-130435276D01*
X104209848Y-130473371D01*
X104095562Y-130473371D01*
X103943181Y-130435276D01*
X103866990Y-130397181D01*
X103790800Y-130320990D01*
X103752705Y-130206704D01*
X103752705Y-130130514D01*
X103790800Y-130016228D01*
X103828895Y-129978133D01*
X104552705Y-129597181D02*
X104552705Y-129444800D01*
X104514610Y-129368609D01*
X104476514Y-129330514D01*
X104362229Y-129254323D01*
X104209848Y-129216228D01*
X103905086Y-129216228D01*
X103828895Y-129254323D01*
X103790800Y-129292419D01*
X103752705Y-129368609D01*
X103752705Y-129520990D01*
X103790800Y-129597181D01*
X103828895Y-129635276D01*
X103905086Y-129673371D01*
X104095562Y-129673371D01*
X104171752Y-129635276D01*
X104209848Y-129597181D01*
X104247943Y-129520990D01*
X104247943Y-129368609D01*
X104209848Y-129292419D01*
X104171752Y-129254323D01*
X104095562Y-129216228D01*
X105822705Y-125342552D02*
X105022705Y-125342552D01*
X105746514Y-124504457D02*
X105784610Y-124542552D01*
X105822705Y-124656838D01*
X105822705Y-124733028D01*
X105784610Y-124847314D01*
X105708419Y-124923505D01*
X105632229Y-124961600D01*
X105479848Y-124999695D01*
X105365562Y-124999695D01*
X105213181Y-124961600D01*
X105136990Y-124923505D01*
X105060800Y-124847314D01*
X105022705Y-124733028D01*
X105022705Y-124656838D01*
X105060800Y-124542552D01*
X105098895Y-124504457D01*
X105822705Y-123742552D02*
X105822705Y-124199695D01*
X105822705Y-123971124D02*
X105022705Y-123971124D01*
X105136990Y-124047314D01*
X105213181Y-124123505D01*
X105251276Y-124199695D01*
X110391905Y-128923333D02*
X110010952Y-129190000D01*
X110391905Y-129380476D02*
X109591905Y-129380476D01*
X109591905Y-129075714D01*
X109630000Y-128999523D01*
X109668095Y-128961428D01*
X109744286Y-128923333D01*
X109858571Y-128923333D01*
X109934762Y-128961428D01*
X109972857Y-128999523D01*
X110010952Y-129075714D01*
X110010952Y-129380476D01*
X109591905Y-128199523D02*
X109591905Y-128580476D01*
X109972857Y-128618571D01*
X109934762Y-128580476D01*
X109896667Y-128504285D01*
X109896667Y-128313809D01*
X109934762Y-128237619D01*
X109972857Y-128199523D01*
X110049048Y-128161428D01*
X110239524Y-128161428D01*
X110315714Y-128199523D01*
X110353810Y-128237619D01*
X110391905Y-128313809D01*
X110391905Y-128504285D01*
X110353810Y-128580476D01*
X110315714Y-128618571D01*
X126061905Y-118484286D02*
X125680952Y-118750953D01*
X126061905Y-118941429D02*
X125261905Y-118941429D01*
X125261905Y-118636667D01*
X125300000Y-118560476D01*
X125338095Y-118522381D01*
X125414286Y-118484286D01*
X125528571Y-118484286D01*
X125604762Y-118522381D01*
X125642857Y-118560476D01*
X125680952Y-118636667D01*
X125680952Y-118941429D01*
X125338095Y-118179524D02*
X125300000Y-118141429D01*
X125261905Y-118065238D01*
X125261905Y-117874762D01*
X125300000Y-117798572D01*
X125338095Y-117760476D01*
X125414286Y-117722381D01*
X125490476Y-117722381D01*
X125604762Y-117760476D01*
X126061905Y-118217619D01*
X126061905Y-117722381D01*
X125261905Y-117455714D02*
X125261905Y-116922381D01*
X126061905Y-117265238D01*
X125801905Y-126934286D02*
X125420952Y-127200953D01*
X125801905Y-127391429D02*
X125001905Y-127391429D01*
X125001905Y-127086667D01*
X125040000Y-127010476D01*
X125078095Y-126972381D01*
X125154286Y-126934286D01*
X125268571Y-126934286D01*
X125344762Y-126972381D01*
X125382857Y-127010476D01*
X125420952Y-127086667D01*
X125420952Y-127391429D01*
X125801905Y-126172381D02*
X125801905Y-126629524D01*
X125801905Y-126400953D02*
X125001905Y-126400953D01*
X125116190Y-126477143D01*
X125192381Y-126553334D01*
X125230476Y-126629524D01*
X125001905Y-125486667D02*
X125001905Y-125639048D01*
X125040000Y-125715238D01*
X125078095Y-125753333D01*
X125192381Y-125829524D01*
X125344762Y-125867619D01*
X125649524Y-125867619D01*
X125725714Y-125829524D01*
X125763810Y-125791429D01*
X125801905Y-125715238D01*
X125801905Y-125562857D01*
X125763810Y-125486667D01*
X125725714Y-125448571D01*
X125649524Y-125410476D01*
X125459048Y-125410476D01*
X125382857Y-125448571D01*
X125344762Y-125486667D01*
X125306667Y-125562857D01*
X125306667Y-125715238D01*
X125344762Y-125791429D01*
X125382857Y-125829524D01*
X125459048Y-125867619D01*
D22*
X135929975Y-120055096D02*
X135834422Y-120121983D01*
X135929975Y-120169759D02*
X135729315Y-120169759D01*
X135729315Y-120093317D01*
X135738870Y-120074206D01*
X135748425Y-120064651D01*
X135767536Y-120055096D01*
X135796201Y-120055096D01*
X135815312Y-120064651D01*
X135824867Y-120074206D01*
X135834422Y-120093317D01*
X135834422Y-120169759D01*
X135929975Y-119863991D02*
X135929975Y-119978654D01*
X135929975Y-119921323D02*
X135729315Y-119921323D01*
X135757980Y-119940433D01*
X135777091Y-119959544D01*
X135786646Y-119978654D01*
X135929975Y-119672886D02*
X135929975Y-119787549D01*
X135929975Y-119730218D02*
X135729315Y-119730218D01*
X135757980Y-119749328D01*
X135777091Y-119768439D01*
X135786646Y-119787549D01*
D17*
X113991905Y-126094286D02*
X113610952Y-126360953D01*
X113991905Y-126551429D02*
X113191905Y-126551429D01*
X113191905Y-126246667D01*
X113230000Y-126170476D01*
X113268095Y-126132381D01*
X113344286Y-126094286D01*
X113458571Y-126094286D01*
X113534762Y-126132381D01*
X113572857Y-126170476D01*
X113610952Y-126246667D01*
X113610952Y-126551429D01*
X113991905Y-125332381D02*
X113991905Y-125789524D01*
X113991905Y-125560953D02*
X113191905Y-125560953D01*
X113306190Y-125637143D01*
X113382381Y-125713334D01*
X113420476Y-125789524D01*
X113191905Y-124837143D02*
X113191905Y-124760952D01*
X113230000Y-124684762D01*
X113268095Y-124646667D01*
X113344286Y-124608571D01*
X113496667Y-124570476D01*
X113687143Y-124570476D01*
X113839524Y-124608571D01*
X113915714Y-124646667D01*
X113953810Y-124684762D01*
X113991905Y-124760952D01*
X113991905Y-124837143D01*
X113953810Y-124913333D01*
X113915714Y-124951429D01*
X113839524Y-124989524D01*
X113687143Y-125027619D01*
X113496667Y-125027619D01*
X113344286Y-124989524D01*
X113268095Y-124951429D01*
X113230000Y-124913333D01*
X113191905Y-124837143D01*
X130596667Y-119961905D02*
X130330000Y-119580952D01*
X130139524Y-119961905D02*
X130139524Y-119161905D01*
X130444286Y-119161905D01*
X130520477Y-119200000D01*
X130558572Y-119238095D01*
X130596667Y-119314286D01*
X130596667Y-119428571D01*
X130558572Y-119504762D01*
X130520477Y-119542857D01*
X130444286Y-119580952D01*
X130139524Y-119580952D01*
X130977619Y-119961905D02*
X131130000Y-119961905D01*
X131206191Y-119923810D01*
X131244286Y-119885714D01*
X131320477Y-119771429D01*
X131358572Y-119619048D01*
X131358572Y-119314286D01*
X131320477Y-119238095D01*
X131282381Y-119200000D01*
X131206191Y-119161905D01*
X131053810Y-119161905D01*
X130977619Y-119200000D01*
X130939524Y-119238095D01*
X130901429Y-119314286D01*
X130901429Y-119504762D01*
X130939524Y-119580952D01*
X130977619Y-119619048D01*
X131053810Y-119657143D01*
X131206191Y-119657143D01*
X131282381Y-119619048D01*
X131320477Y-119580952D01*
X131358572Y-119504762D01*
X117926667Y-127201905D02*
X117660000Y-126820952D01*
X117469524Y-127201905D02*
X117469524Y-126401905D01*
X117774286Y-126401905D01*
X117850477Y-126440000D01*
X117888572Y-126478095D01*
X117926667Y-126554286D01*
X117926667Y-126668571D01*
X117888572Y-126744762D01*
X117850477Y-126782857D01*
X117774286Y-126820952D01*
X117469524Y-126820952D01*
X118383810Y-126744762D02*
X118307619Y-126706667D01*
X118269524Y-126668571D01*
X118231429Y-126592381D01*
X118231429Y-126554286D01*
X118269524Y-126478095D01*
X118307619Y-126440000D01*
X118383810Y-126401905D01*
X118536191Y-126401905D01*
X118612381Y-126440000D01*
X118650477Y-126478095D01*
X118688572Y-126554286D01*
X118688572Y-126592381D01*
X118650477Y-126668571D01*
X118612381Y-126706667D01*
X118536191Y-126744762D01*
X118383810Y-126744762D01*
X118307619Y-126782857D01*
X118269524Y-126820952D01*
X118231429Y-126897143D01*
X118231429Y-127049524D01*
X118269524Y-127125714D01*
X118307619Y-127163810D01*
X118383810Y-127201905D01*
X118536191Y-127201905D01*
X118612381Y-127163810D01*
X118650477Y-127125714D01*
X118688572Y-127049524D01*
X118688572Y-126897143D01*
X118650477Y-126820952D01*
X118612381Y-126782857D01*
X118536191Y-126744762D01*
X112001905Y-128943333D02*
X111620952Y-129210000D01*
X112001905Y-129400476D02*
X111201905Y-129400476D01*
X111201905Y-129095714D01*
X111240000Y-129019523D01*
X111278095Y-128981428D01*
X111354286Y-128943333D01*
X111468571Y-128943333D01*
X111544762Y-128981428D01*
X111582857Y-129019523D01*
X111620952Y-129095714D01*
X111620952Y-129400476D01*
X111201905Y-128676666D02*
X111201905Y-128143333D01*
X112001905Y-128486190D01*
X106406667Y-118111905D02*
X106140000Y-117730952D01*
X105949524Y-118111905D02*
X105949524Y-117311905D01*
X106254286Y-117311905D01*
X106330477Y-117350000D01*
X106368572Y-117388095D01*
X106406667Y-117464286D01*
X106406667Y-117578571D01*
X106368572Y-117654762D01*
X106330477Y-117692857D01*
X106254286Y-117730952D01*
X105949524Y-117730952D01*
X107092381Y-117311905D02*
X106940000Y-117311905D01*
X106863810Y-117350000D01*
X106825715Y-117388095D01*
X106749524Y-117502381D01*
X106711429Y-117654762D01*
X106711429Y-117959524D01*
X106749524Y-118035714D01*
X106787619Y-118073810D01*
X106863810Y-118111905D01*
X107016191Y-118111905D01*
X107092381Y-118073810D01*
X107130477Y-118035714D01*
X107168572Y-117959524D01*
X107168572Y-117769048D01*
X107130477Y-117692857D01*
X107092381Y-117654762D01*
X107016191Y-117616667D01*
X106863810Y-117616667D01*
X106787619Y-117654762D01*
X106749524Y-117692857D01*
X106711429Y-117769048D01*
X112356667Y-137891905D02*
X112090000Y-137510952D01*
X111899524Y-137891905D02*
X111899524Y-137091905D01*
X112204286Y-137091905D01*
X112280477Y-137130000D01*
X112318572Y-137168095D01*
X112356667Y-137244286D01*
X112356667Y-137358571D01*
X112318572Y-137434762D01*
X112280477Y-137472857D01*
X112204286Y-137510952D01*
X111899524Y-137510952D01*
X113042381Y-137358571D02*
X113042381Y-137891905D01*
X112851905Y-137053810D02*
X112661429Y-137625238D01*
X113156667Y-137625238D01*
X107451905Y-121213333D02*
X107070952Y-121480000D01*
X107451905Y-121670476D02*
X106651905Y-121670476D01*
X106651905Y-121365714D01*
X106690000Y-121289523D01*
X106728095Y-121251428D01*
X106804286Y-121213333D01*
X106918571Y-121213333D01*
X106994762Y-121251428D01*
X107032857Y-121289523D01*
X107070952Y-121365714D01*
X107070952Y-121670476D01*
X106651905Y-120946666D02*
X106651905Y-120451428D01*
X106956667Y-120718095D01*
X106956667Y-120603809D01*
X106994762Y-120527619D01*
X107032857Y-120489523D01*
X107109048Y-120451428D01*
X107299524Y-120451428D01*
X107375714Y-120489523D01*
X107413810Y-120527619D01*
X107451905Y-120603809D01*
X107451905Y-120832381D01*
X107413810Y-120908571D01*
X107375714Y-120946666D01*
X102241905Y-118443333D02*
X101860952Y-118710000D01*
X102241905Y-118900476D02*
X101441905Y-118900476D01*
X101441905Y-118595714D01*
X101480000Y-118519523D01*
X101518095Y-118481428D01*
X101594286Y-118443333D01*
X101708571Y-118443333D01*
X101784762Y-118481428D01*
X101822857Y-118519523D01*
X101860952Y-118595714D01*
X101860952Y-118900476D01*
X101518095Y-118138571D02*
X101480000Y-118100476D01*
X101441905Y-118024285D01*
X101441905Y-117833809D01*
X101480000Y-117757619D01*
X101518095Y-117719523D01*
X101594286Y-117681428D01*
X101670476Y-117681428D01*
X101784762Y-117719523D01*
X102241905Y-118176666D01*
X102241905Y-117681428D01*
X117241905Y-128763333D02*
X116860952Y-129030000D01*
X117241905Y-129220476D02*
X116441905Y-129220476D01*
X116441905Y-128915714D01*
X116480000Y-128839523D01*
X116518095Y-128801428D01*
X116594286Y-128763333D01*
X116708571Y-128763333D01*
X116784762Y-128801428D01*
X116822857Y-128839523D01*
X116860952Y-128915714D01*
X116860952Y-129220476D01*
X117241905Y-128001428D02*
X117241905Y-128458571D01*
X117241905Y-128230000D02*
X116441905Y-128230000D01*
X116556190Y-128306190D01*
X116632381Y-128382381D01*
X116670476Y-128458571D01*
%LPC*%
D23*
X126794260Y-108386880D03*
X132793740Y-112085120D03*
X126794260Y-112085120D03*
X132793740Y-108386880D03*
D24*
X108592620Y-110815120D03*
X108592620Y-111315500D03*
X108592620Y-111815880D03*
X108592620Y-112316260D03*
X108592620Y-112816640D03*
X108592620Y-109316520D03*
X108592620Y-109816900D03*
X108592620Y-110314740D03*
X108592620Y-117314980D03*
X108592620Y-117815360D03*
X108592620Y-118315740D03*
X108592620Y-118816120D03*
X108592620Y-119316500D03*
X108592620Y-119816880D03*
X108592620Y-120317260D03*
X108592620Y-120815100D03*
D25*
X113769140Y-122991880D03*
X114269520Y-122991880D03*
X114767360Y-122991880D03*
X115267740Y-122991880D03*
X115768120Y-122991880D03*
X116268500Y-122991880D03*
X116768880Y-122991880D03*
X117269260Y-122991880D03*
X121767600Y-122991880D03*
X122267980Y-122991880D03*
D24*
X123944380Y-121315480D03*
X123944380Y-120815100D03*
X123944380Y-120317260D03*
X123944380Y-119816880D03*
X123944380Y-119316500D03*
X123944380Y-118816120D03*
X108592620Y-113317020D03*
X108592620Y-113814860D03*
X108592620Y-114315240D03*
X108592620Y-121315480D03*
D25*
X110269020Y-122991880D03*
X110769400Y-122991880D03*
X117769640Y-122991880D03*
X118267480Y-122991880D03*
X118767860Y-122991880D03*
D24*
X123944380Y-118315740D03*
X123944380Y-117815360D03*
X123944380Y-117314980D03*
X108592620Y-114815620D03*
X108592620Y-115316000D03*
X108592620Y-115816380D03*
X108592620Y-116316760D03*
X108592620Y-116817140D03*
D25*
X111267240Y-122991880D03*
X111767620Y-122991880D03*
X112268000Y-122991880D03*
X112768380Y-122991880D03*
X113268760Y-122991880D03*
X119268240Y-122991880D03*
X119768620Y-122991880D03*
X120269000Y-122991880D03*
X120769380Y-122991880D03*
X121269760Y-122991880D03*
D24*
X123944380Y-116817140D03*
X123944380Y-116316760D03*
X123944380Y-115816380D03*
X123944380Y-115316000D03*
X123944380Y-114815620D03*
X123944380Y-114315240D03*
X123944380Y-113814860D03*
X123944380Y-113317020D03*
X123944380Y-112816640D03*
X123944380Y-112316260D03*
X123944380Y-111815880D03*
X123944380Y-111315500D03*
X123944380Y-110815120D03*
X123944380Y-110314740D03*
X123944380Y-109816900D03*
X123944380Y-109316520D03*
D25*
X122267980Y-107640120D03*
X121767600Y-107640120D03*
X121269760Y-107640120D03*
X120769380Y-107640120D03*
X120269000Y-107640120D03*
X119768620Y-107640120D03*
X119268240Y-107640120D03*
X118767860Y-107640120D03*
X118267480Y-107640120D03*
X117769640Y-107640120D03*
X117269260Y-107640120D03*
X116768880Y-107640120D03*
X116268500Y-107640120D03*
X115768120Y-107640120D03*
X115267740Y-107640120D03*
X114767360Y-107640120D03*
X114269520Y-107640120D03*
X113769140Y-107640120D03*
X113268760Y-107640120D03*
X112768380Y-107640120D03*
X112268000Y-107640120D03*
X111767620Y-107640120D03*
X111267240Y-107640120D03*
X110769400Y-107640120D03*
X110269020Y-107640120D03*
D26*
X139242800Y-118211600D03*
D27*
X139242800Y-115671600D03*
D28*
X128092200Y-129133600D03*
X129362200Y-129133600D03*
X130632200Y-129133600D03*
X131902200Y-129133600D03*
X131902200Y-123545600D03*
X130632200Y-123545600D03*
X129362200Y-123545600D03*
X128092200Y-123545600D03*
D29*
X113141760Y-129959100D03*
X115255040Y-130911600D03*
X113141760Y-131864100D03*
D30*
X102971600Y-132334000D03*
D31*
X102971600Y-134874000D03*
D32*
X114123100Y-136222500D03*
X115823100Y-134922500D03*
D33*
X115823100Y-136222500D03*
X114123100Y-134922500D03*
D34*
X103632000Y-105864660D03*
X103632000Y-107368340D03*
D35*
X129232660Y-114935000D03*
X130736340Y-114935000D03*
X130749040Y-131165600D03*
X129245360Y-131165600D03*
D34*
X134797800Y-120677940D03*
X134797800Y-119174260D03*
X118402100Y-132433060D03*
X118402100Y-133936740D03*
D35*
X119979440Y-135407400D03*
X118475760Y-135407400D03*
D34*
X120091200Y-127924560D03*
X120091200Y-129428240D03*
X118465600Y-127924560D03*
X118465600Y-129428240D03*
X120142000Y-126329440D03*
X120142000Y-124825760D03*
X122428000Y-126329440D03*
X122428000Y-124825760D03*
X110083600Y-126380240D03*
X110083600Y-124876560D03*
D35*
X115559840Y-127812800D03*
X114056160Y-127812800D03*
X125803660Y-121094500D03*
X127307340Y-121094500D03*
X125803660Y-114935000D03*
X127307340Y-114935000D03*
D34*
X121412000Y-105590340D03*
X121412000Y-104086660D03*
X115443000Y-105590340D03*
X115443000Y-104086660D03*
D35*
X106733340Y-110172500D03*
X105229660Y-110172500D03*
X106733340Y-116141500D03*
X105229660Y-116141500D03*
D34*
X117094000Y-105590340D03*
X117094000Y-104086660D03*
D10*
G36*
X108309435Y-123193948D02*
X107318948Y-124184435D01*
X106400303Y-123265790D01*
X107390790Y-122275303D01*
X108309435Y-123193948D01*
X108309435Y-123193948D01*
G37*
G36*
X109372697Y-124257210D02*
X108382210Y-125247697D01*
X107463565Y-124329052D01*
X108454052Y-123338565D01*
X109372697Y-124257210D01*
X109372697Y-124257210D01*
G37*
G36*
X124082948Y-123275065D02*
X125073435Y-124265552D01*
X124154790Y-125184197D01*
X123164303Y-124193710D01*
X124082948Y-123275065D01*
X124082948Y-123275065D01*
G37*
G36*
X125146210Y-122211803D02*
X126136697Y-123202290D01*
X125218052Y-124120935D01*
X124227565Y-123130448D01*
X125146210Y-122211803D01*
X125146210Y-122211803D01*
G37*
G36*
X124100565Y-107501552D02*
X125091052Y-106511065D01*
X126009697Y-107429710D01*
X125019210Y-108420197D01*
X124100565Y-107501552D01*
X124100565Y-107501552D01*
G37*
G36*
X123037303Y-106438290D02*
X124027790Y-105447803D01*
X124946435Y-106366448D01*
X123955948Y-107356935D01*
X123037303Y-106438290D01*
X123037303Y-106438290D01*
G37*
G36*
X108581052Y-107483935D02*
X107590565Y-106493448D01*
X108509210Y-105574803D01*
X109499697Y-106565290D01*
X108581052Y-107483935D01*
X108581052Y-107483935D01*
G37*
G36*
X107517790Y-108547197D02*
X106527303Y-107556710D01*
X107445948Y-106638065D01*
X108436435Y-107628552D01*
X107517790Y-108547197D01*
X107517790Y-108547197D01*
G37*
D34*
X114757200Y-124774960D03*
X114757200Y-126278640D03*
D35*
X113840260Y-133413500D03*
X115343940Y-133413500D03*
D34*
X99212400Y-124754640D03*
X99212400Y-123250960D03*
D36*
X111354000Y-97282000D03*
D37*
X105054000Y-97282000D03*
X105054000Y-99582000D03*
X105054000Y-94982000D03*
D36*
X94894000Y-107823000D03*
D37*
X101194000Y-107823000D03*
X101194000Y-105523000D03*
X101194000Y-110123000D03*
D23*
X128483360Y-116469160D03*
D29*
X130596640Y-118173500D03*
X128483360Y-118173500D03*
X130596640Y-116268500D03*
D38*
X125742200Y-92120400D03*
D39*
X125742200Y-94620400D03*
X123742200Y-92120400D03*
X123742200Y-94620400D03*
X121742200Y-92120400D03*
X121742200Y-94620400D03*
X119742200Y-92120400D03*
X119742200Y-94620400D03*
X117742200Y-92120400D03*
X117742200Y-94620400D03*
D38*
X138086600Y-92107700D03*
D39*
X138086600Y-94607700D03*
X136086600Y-92107700D03*
X136086600Y-94607700D03*
X134086600Y-92107700D03*
X134086600Y-94607700D03*
X132086600Y-92107700D03*
X132086600Y-94607700D03*
X130086600Y-92107700D03*
X130086600Y-94607700D03*
D40*
X137230800Y-101460800D03*
D41*
X139730800Y-101460800D03*
X137230800Y-103460800D03*
X139730800Y-103460800D03*
X137230800Y-105460800D03*
X139730800Y-105460800D03*
X137230800Y-107460800D03*
X139730800Y-107460800D03*
X137230800Y-109460800D03*
X139730800Y-109460800D03*
D40*
X139883200Y-133146300D03*
D41*
X137383200Y-133146300D03*
X139883200Y-131146300D03*
X137383200Y-131146300D03*
X139883200Y-129146300D03*
X137383200Y-129146300D03*
X139883200Y-127146300D03*
X137383200Y-127146300D03*
X139883200Y-125146300D03*
X137383200Y-125146300D03*
D40*
X94609600Y-116510300D03*
D41*
X97109600Y-116510300D03*
X94609600Y-118510300D03*
X97109600Y-118510300D03*
X94609600Y-120510300D03*
X97109600Y-120510300D03*
X94609600Y-122510300D03*
X97109600Y-122510300D03*
X94609600Y-124510300D03*
X97109600Y-124510300D03*
D40*
X94647700Y-127749800D03*
D41*
X97147700Y-127749800D03*
X94647700Y-129749800D03*
X97147700Y-129749800D03*
X94647700Y-131749800D03*
X97147700Y-131749800D03*
X94647700Y-133749800D03*
X97147700Y-133749800D03*
X94647700Y-135749800D03*
X97147700Y-135749800D03*
D42*
X99692460Y-102616000D03*
X100967540Y-102616000D03*
D43*
X119926100Y-133822440D03*
X119926100Y-132547360D03*
D42*
X111122460Y-133350000D03*
X112397540Y-133350000D03*
D44*
X98425000Y-93893000D03*
X98425000Y-98893000D03*
D45*
X94274640Y-102616000D03*
X97622360Y-102616000D03*
D46*
X109156500Y-92329000D03*
X107251500Y-92329000D03*
X98996500Y-112649000D03*
X100901500Y-112649000D03*
D47*
X105260140Y-103378000D03*
X108861860Y-103378000D03*
X124838460Y-137058400D03*
X121236740Y-137058400D03*
D48*
X123342400Y-132458460D03*
X123342400Y-128856740D03*
D47*
X113159540Y-100253800D03*
X116761260Y-100253800D03*
X109750860Y-135737600D03*
X106149140Y-135737600D03*
D48*
X106984800Y-128043940D03*
X106984800Y-131645660D03*
D28*
X100558600Y-126796800D03*
X101828600Y-126796800D03*
X103098600Y-126796800D03*
X104368600Y-126796800D03*
X104368600Y-121208800D03*
X103098600Y-121208800D03*
X101828600Y-121208800D03*
X100558600Y-121208800D03*
D34*
X110032800Y-131663440D03*
X110032800Y-130159760D03*
X126873000Y-118163340D03*
X126873000Y-116659660D03*
X126593600Y-125638560D03*
X126593600Y-127142240D03*
X136448800Y-119174260D03*
X136448800Y-120677940D03*
X112471200Y-124774960D03*
X112471200Y-126278640D03*
D35*
X129326640Y-119583200D03*
X127822960Y-119583200D03*
X118488460Y-130898900D03*
X119992140Y-130898900D03*
D34*
X111607600Y-131663440D03*
X111607600Y-130159760D03*
D35*
X106733340Y-118935500D03*
X105229660Y-118935500D03*
D34*
X112433100Y-134820660D03*
X112433100Y-136324340D03*
X105791000Y-122163840D03*
X105791000Y-120660160D03*
X103124000Y-117561360D03*
X103124000Y-119065040D03*
X116890800Y-131511040D03*
X116890800Y-130007360D03*
D49*
G36*
X119356600Y-118391400D02*
X113205800Y-118391400D01*
X113205800Y-112393000D01*
X119356600Y-112393000D01*
X119356600Y-118391400D01*
X119356600Y-118391400D01*
G37*
X119356600Y-118391400D02*
X113205800Y-118391400D01*
X113205800Y-112393000D01*
X119356600Y-112393000D01*
X119356600Y-118391400D01*
M02*
