G04 #@! TF.FileFunction,Legend,Bot*
%FSLAX46Y46*%
G04 Gerber Fmt 4.6, Leading zero omitted, Abs format (unit mm)*
G04 Created by KiCad (PCBNEW 4.0.5) date 08/31/17 21:58:28*
%MOMM*%
%LPD*%
G01*
G04 APERTURE LIST*
%ADD10C,0.100000*%
%ADD11C,0.200000*%
%ADD12C,0.127000*%
%ADD13C,0.150000*%
%ADD14R,2.100000X2.100000*%
%ADD15O,2.100000X2.100000*%
%ADD16R,2.599640X1.924000*%
%ADD17O,2.599640X1.924000*%
%ADD18R,1.700000X2.200000*%
%ADD19O,1.700000X2.200000*%
%ADD20R,2.200000X1.700000*%
%ADD21O,2.200000X1.700000*%
%ADD22C,2.900000*%
%ADD23R,1.400760X1.299160*%
%ADD24R,1.299160X1.400760*%
%ADD25C,0.250000*%
G04 APERTURE END LIST*
D10*
D11*
X121052382Y-136086667D02*
X120576191Y-136086667D01*
X121147620Y-136372381D02*
X120814287Y-135372381D01*
X120480953Y-136372381D01*
X120147620Y-136372381D02*
X120147620Y-135372381D01*
X119909525Y-135372381D01*
X119766667Y-135420000D01*
X119671429Y-135515238D01*
X119623810Y-135610476D01*
X119576191Y-135800952D01*
X119576191Y-135943810D01*
X119623810Y-136134286D01*
X119671429Y-136229524D01*
X119766667Y-136324762D01*
X119909525Y-136372381D01*
X120147620Y-136372381D01*
X119195239Y-136086667D02*
X118719048Y-136086667D01*
X119290477Y-136372381D02*
X118957144Y-135372381D01*
X118623810Y-136372381D01*
X118290477Y-135372381D02*
X118290477Y-136181905D01*
X118242858Y-136277143D01*
X118195239Y-136324762D01*
X118100001Y-136372381D01*
X117909524Y-136372381D01*
X117814286Y-136324762D01*
X117766667Y-136277143D01*
X117719048Y-136181905D01*
X117719048Y-135372381D01*
X116719048Y-136372381D02*
X117290477Y-136372381D01*
X117004763Y-136372381D02*
X117004763Y-135372381D01*
X117100001Y-135515238D01*
X117195239Y-135610476D01*
X117290477Y-135658095D01*
X115861905Y-135705714D02*
X115861905Y-136372381D01*
X116100001Y-135324762D02*
X116338096Y-136039048D01*
X115719048Y-136039048D01*
X114909524Y-135705714D02*
X114909524Y-136372381D01*
X115147620Y-135324762D02*
X115385715Y-136039048D01*
X114766667Y-136039048D01*
X114480953Y-136372381D02*
X113957143Y-135705714D01*
X114480953Y-135705714D02*
X113957143Y-136372381D01*
X112814286Y-136372381D02*
X112814286Y-135372381D01*
X112576191Y-135372381D01*
X112433333Y-135420000D01*
X112338095Y-135515238D01*
X112290476Y-135610476D01*
X112242857Y-135800952D01*
X112242857Y-135943810D01*
X112290476Y-136134286D01*
X112338095Y-136229524D01*
X112433333Y-136324762D01*
X112576191Y-136372381D01*
X112814286Y-136372381D01*
X111861905Y-136324762D02*
X111719048Y-136372381D01*
X111480952Y-136372381D01*
X111385714Y-136324762D01*
X111338095Y-136277143D01*
X111290476Y-136181905D01*
X111290476Y-136086667D01*
X111338095Y-135991429D01*
X111385714Y-135943810D01*
X111480952Y-135896190D01*
X111671429Y-135848571D01*
X111766667Y-135800952D01*
X111814286Y-135753333D01*
X111861905Y-135658095D01*
X111861905Y-135562857D01*
X111814286Y-135467619D01*
X111766667Y-135420000D01*
X111671429Y-135372381D01*
X111433333Y-135372381D01*
X111290476Y-135420000D01*
X110861905Y-136372381D02*
X110861905Y-135372381D01*
X110480952Y-135372381D01*
X110385714Y-135420000D01*
X110338095Y-135467619D01*
X110290476Y-135562857D01*
X110290476Y-135705714D01*
X110338095Y-135800952D01*
X110385714Y-135848571D01*
X110480952Y-135896190D01*
X110861905Y-135896190D01*
X108528571Y-136277143D02*
X108576190Y-136324762D01*
X108719047Y-136372381D01*
X108814285Y-136372381D01*
X108957143Y-136324762D01*
X109052381Y-136229524D01*
X109100000Y-136134286D01*
X109147619Y-135943810D01*
X109147619Y-135800952D01*
X109100000Y-135610476D01*
X109052381Y-135515238D01*
X108957143Y-135420000D01*
X108814285Y-135372381D01*
X108719047Y-135372381D01*
X108576190Y-135420000D01*
X108528571Y-135467619D01*
X107957143Y-136372381D02*
X108052381Y-136324762D01*
X108100000Y-136277143D01*
X108147619Y-136181905D01*
X108147619Y-135896190D01*
X108100000Y-135800952D01*
X108052381Y-135753333D01*
X107957143Y-135705714D01*
X107814285Y-135705714D01*
X107719047Y-135753333D01*
X107671428Y-135800952D01*
X107623809Y-135896190D01*
X107623809Y-136181905D01*
X107671428Y-136277143D01*
X107719047Y-136324762D01*
X107814285Y-136372381D01*
X107957143Y-136372381D01*
X107195238Y-136372381D02*
X107195238Y-135705714D01*
X107195238Y-135896190D02*
X107147619Y-135800952D01*
X107100000Y-135753333D01*
X107004762Y-135705714D01*
X106909523Y-135705714D01*
X106195237Y-136324762D02*
X106290475Y-136372381D01*
X106480952Y-136372381D01*
X106576190Y-136324762D01*
X106623809Y-136229524D01*
X106623809Y-135848571D01*
X106576190Y-135753333D01*
X106480952Y-135705714D01*
X106290475Y-135705714D01*
X106195237Y-135753333D01*
X106147618Y-135848571D01*
X106147618Y-135943810D01*
X106623809Y-136039048D01*
X121052382Y-138072381D02*
X121052382Y-137072381D01*
X121052382Y-137453333D02*
X120957144Y-137405714D01*
X120766667Y-137405714D01*
X120671429Y-137453333D01*
X120623810Y-137500952D01*
X120576191Y-137596190D01*
X120576191Y-137881905D01*
X120623810Y-137977143D01*
X120671429Y-138024762D01*
X120766667Y-138072381D01*
X120957144Y-138072381D01*
X121052382Y-138024762D01*
X120242858Y-137405714D02*
X120004763Y-138072381D01*
X119766667Y-137405714D02*
X120004763Y-138072381D01*
X120100001Y-138310476D01*
X120147620Y-138358095D01*
X120242858Y-138405714D01*
X118290476Y-137548571D02*
X118147619Y-137596190D01*
X118100000Y-137643810D01*
X118052381Y-137739048D01*
X118052381Y-137881905D01*
X118100000Y-137977143D01*
X118147619Y-138024762D01*
X118242857Y-138072381D01*
X118623810Y-138072381D01*
X118623810Y-137072381D01*
X118290476Y-137072381D01*
X118195238Y-137120000D01*
X118147619Y-137167619D01*
X118100000Y-137262857D01*
X118100000Y-137358095D01*
X118147619Y-137453333D01*
X118195238Y-137500952D01*
X118290476Y-137548571D01*
X118623810Y-137548571D01*
X117480953Y-138072381D02*
X117576191Y-138024762D01*
X117623810Y-137977143D01*
X117671429Y-137881905D01*
X117671429Y-137596190D01*
X117623810Y-137500952D01*
X117576191Y-137453333D01*
X117480953Y-137405714D01*
X117338095Y-137405714D01*
X117242857Y-137453333D01*
X117195238Y-137500952D01*
X117147619Y-137596190D01*
X117147619Y-137881905D01*
X117195238Y-137977143D01*
X117242857Y-138024762D01*
X117338095Y-138072381D01*
X117480953Y-138072381D01*
X116290476Y-137405714D02*
X116290476Y-138215238D01*
X116338095Y-138310476D01*
X116385714Y-138358095D01*
X116480953Y-138405714D01*
X116623810Y-138405714D01*
X116719048Y-138358095D01*
X116290476Y-138024762D02*
X116385714Y-138072381D01*
X116576191Y-138072381D01*
X116671429Y-138024762D01*
X116719048Y-137977143D01*
X116766667Y-137881905D01*
X116766667Y-137596190D01*
X116719048Y-137500952D01*
X116671429Y-137453333D01*
X116576191Y-137405714D01*
X116385714Y-137405714D01*
X116290476Y-137453333D01*
X115385714Y-138072381D02*
X115385714Y-137072381D01*
X115385714Y-138024762D02*
X115480952Y-138072381D01*
X115671429Y-138072381D01*
X115766667Y-138024762D01*
X115814286Y-137977143D01*
X115861905Y-137881905D01*
X115861905Y-137596190D01*
X115814286Y-137500952D01*
X115766667Y-137453333D01*
X115671429Y-137405714D01*
X115480952Y-137405714D01*
X115385714Y-137453333D01*
X114480952Y-138072381D02*
X114480952Y-137548571D01*
X114528571Y-137453333D01*
X114623809Y-137405714D01*
X114814286Y-137405714D01*
X114909524Y-137453333D01*
X114480952Y-138024762D02*
X114576190Y-138072381D01*
X114814286Y-138072381D01*
X114909524Y-138024762D01*
X114957143Y-137929524D01*
X114957143Y-137834286D01*
X114909524Y-137739048D01*
X114814286Y-137691429D01*
X114576190Y-137691429D01*
X114480952Y-137643810D01*
X114004762Y-137405714D02*
X114004762Y-138072381D01*
X114004762Y-137500952D02*
X113957143Y-137453333D01*
X113861905Y-137405714D01*
X113719047Y-137405714D01*
X113623809Y-137453333D01*
X113576190Y-137548571D01*
X113576190Y-138072381D01*
X112480952Y-137072381D02*
X111909523Y-137072381D01*
X112195238Y-138072381D02*
X112195238Y-137072381D01*
X111576190Y-137977143D02*
X111528571Y-138024762D01*
X111576190Y-138072381D01*
X111623809Y-138024762D01*
X111576190Y-137977143D01*
X111576190Y-138072381D01*
X108909523Y-137405714D02*
X108671428Y-138072381D01*
X108433332Y-137405714D01*
X107861904Y-137072381D02*
X107766665Y-137072381D01*
X107671427Y-137120000D01*
X107623808Y-137167619D01*
X107576189Y-137262857D01*
X107528570Y-137453333D01*
X107528570Y-137691429D01*
X107576189Y-137881905D01*
X107623808Y-137977143D01*
X107671427Y-138024762D01*
X107766665Y-138072381D01*
X107861904Y-138072381D01*
X107957142Y-138024762D01*
X108004761Y-137977143D01*
X108052380Y-137881905D01*
X108099999Y-137691429D01*
X108099999Y-137453333D01*
X108052380Y-137262857D01*
X108004761Y-137167619D01*
X107957142Y-137120000D01*
X107861904Y-137072381D01*
X107099999Y-137977143D02*
X107052380Y-138024762D01*
X107099999Y-138072381D01*
X107147618Y-138024762D01*
X107099999Y-137977143D01*
X107099999Y-138072381D01*
X106671428Y-137167619D02*
X106623809Y-137120000D01*
X106528571Y-137072381D01*
X106290475Y-137072381D01*
X106195237Y-137120000D01*
X106147618Y-137167619D01*
X106099999Y-137262857D01*
X106099999Y-137358095D01*
X106147618Y-137500952D01*
X106719047Y-138072381D01*
X106099999Y-138072381D01*
D12*
X125333600Y-96961200D02*
X126146400Y-96961200D01*
X126121000Y-98078800D02*
X125333600Y-98078800D01*
X126146400Y-98332800D02*
X126146400Y-96707200D01*
X126146400Y-96707200D02*
X125333600Y-96707200D01*
X125333600Y-96707200D02*
X125333600Y-98332800D01*
X125333600Y-98332800D02*
X126146400Y-98332800D01*
X137663600Y-97181200D02*
X138476400Y-97181200D01*
X138451000Y-98298800D02*
X137663600Y-98298800D01*
X138476400Y-98552800D02*
X138476400Y-96927200D01*
X138476400Y-96927200D02*
X137663600Y-96927200D01*
X137663600Y-96927200D02*
X137663600Y-98552800D01*
X137663600Y-98552800D02*
X138476400Y-98552800D01*
X99263200Y-116890800D02*
X99263200Y-116078000D01*
X100380800Y-116103400D02*
X100380800Y-116890800D01*
X100634800Y-116078000D02*
X99009200Y-116078000D01*
X99009200Y-116078000D02*
X99009200Y-116890800D01*
X99009200Y-116890800D02*
X100634800Y-116890800D01*
X100634800Y-116890800D02*
X100634800Y-116078000D01*
X99263200Y-128168400D02*
X99263200Y-127355600D01*
X100380800Y-127381000D02*
X100380800Y-128168400D01*
X100634800Y-127355600D02*
X99009200Y-127355600D01*
X99009200Y-127355600D02*
X99009200Y-128168400D01*
X99009200Y-128168400D02*
X100634800Y-128168400D01*
X100634800Y-128168400D02*
X100634800Y-127355600D01*
X131679200Y-97187200D02*
X132492000Y-97187200D01*
X132466600Y-98304800D02*
X131679200Y-98304800D01*
X132492000Y-98558800D02*
X132492000Y-96933200D01*
X132492000Y-96933200D02*
X131679200Y-96933200D01*
X131679200Y-96933200D02*
X131679200Y-98558800D01*
X131679200Y-98558800D02*
X132492000Y-98558800D01*
X133711200Y-97187200D02*
X134524000Y-97187200D01*
X134498600Y-98304800D02*
X133711200Y-98304800D01*
X134524000Y-98558800D02*
X134524000Y-96933200D01*
X134524000Y-96933200D02*
X133711200Y-96933200D01*
X133711200Y-96933200D02*
X133711200Y-98558800D01*
X133711200Y-98558800D02*
X134524000Y-98558800D01*
X135692400Y-97187200D02*
X136505200Y-97187200D01*
X136479800Y-98304800D02*
X135692400Y-98304800D01*
X136505200Y-98558800D02*
X136505200Y-96933200D01*
X136505200Y-96933200D02*
X135692400Y-96933200D01*
X135692400Y-96933200D02*
X135692400Y-98558800D01*
X135692400Y-98558800D02*
X136505200Y-98558800D01*
X119228200Y-96962900D02*
X120041000Y-96962900D01*
X120015600Y-98080500D02*
X119228200Y-98080500D01*
X120041000Y-98334500D02*
X120041000Y-96708900D01*
X120041000Y-96708900D02*
X119228200Y-96708900D01*
X119228200Y-96708900D02*
X119228200Y-98334500D01*
X119228200Y-98334500D02*
X120041000Y-98334500D01*
X121260200Y-96962900D02*
X122073000Y-96962900D01*
X122047600Y-98080500D02*
X121260200Y-98080500D01*
X122073000Y-98334500D02*
X122073000Y-96708900D01*
X122073000Y-96708900D02*
X121260200Y-96708900D01*
X121260200Y-96708900D02*
X121260200Y-98334500D01*
X121260200Y-98334500D02*
X122073000Y-98334500D01*
X123292200Y-96962900D02*
X124105000Y-96962900D01*
X124079600Y-98080500D02*
X123292200Y-98080500D01*
X124105000Y-98334500D02*
X124105000Y-96708900D01*
X124105000Y-96708900D02*
X123292200Y-96708900D01*
X123292200Y-96708900D02*
X123292200Y-98334500D01*
X123292200Y-98334500D02*
X124105000Y-98334500D01*
X134112000Y-133553200D02*
X134112000Y-132740400D01*
X135229600Y-132765800D02*
X135229600Y-133553200D01*
X135483600Y-132740400D02*
X133858000Y-132740400D01*
X133858000Y-132740400D02*
X133858000Y-133553200D01*
X133858000Y-133553200D02*
X135483600Y-133553200D01*
X135483600Y-133553200D02*
X135483600Y-132740400D01*
X134112000Y-131572000D02*
X134112000Y-130759200D01*
X135229600Y-130784600D02*
X135229600Y-131572000D01*
X135483600Y-130759200D02*
X133858000Y-130759200D01*
X133858000Y-130759200D02*
X133858000Y-131572000D01*
X133858000Y-131572000D02*
X135483600Y-131572000D01*
X135483600Y-131572000D02*
X135483600Y-130759200D01*
X134112000Y-129590800D02*
X134112000Y-128778000D01*
X135229600Y-128803400D02*
X135229600Y-129590800D01*
X135483600Y-128778000D02*
X133858000Y-128778000D01*
X133858000Y-128778000D02*
X133858000Y-129590800D01*
X133858000Y-129590800D02*
X135483600Y-129590800D01*
X135483600Y-129590800D02*
X135483600Y-128778000D01*
X134112000Y-127558800D02*
X134112000Y-126746000D01*
X135229600Y-126771400D02*
X135229600Y-127558800D01*
X135483600Y-126746000D02*
X133858000Y-126746000D01*
X133858000Y-126746000D02*
X133858000Y-127558800D01*
X133858000Y-127558800D02*
X135483600Y-127558800D01*
X135483600Y-127558800D02*
X135483600Y-126746000D01*
D13*
X127491905Y-96989714D02*
X127110952Y-96723047D01*
X127491905Y-96532571D02*
X126691905Y-96532571D01*
X126691905Y-96837333D01*
X126730000Y-96913524D01*
X126768095Y-96951619D01*
X126844286Y-96989714D01*
X126958571Y-96989714D01*
X127034762Y-96951619D01*
X127072857Y-96913524D01*
X127110952Y-96837333D01*
X127110952Y-96532571D01*
X126768095Y-97294476D02*
X126730000Y-97332571D01*
X126691905Y-97408762D01*
X126691905Y-97599238D01*
X126730000Y-97675428D01*
X126768095Y-97713524D01*
X126844286Y-97751619D01*
X126920476Y-97751619D01*
X127034762Y-97713524D01*
X127491905Y-97256381D01*
X127491905Y-97751619D01*
X126691905Y-98437333D02*
X126691905Y-98284952D01*
X126730000Y-98208762D01*
X126768095Y-98170667D01*
X126882381Y-98094476D01*
X127034762Y-98056381D01*
X127339524Y-98056381D01*
X127415714Y-98094476D01*
X127453810Y-98132571D01*
X127491905Y-98208762D01*
X127491905Y-98361143D01*
X127453810Y-98437333D01*
X127415714Y-98475429D01*
X127339524Y-98513524D01*
X127149048Y-98513524D01*
X127072857Y-98475429D01*
X127034762Y-98437333D01*
X126996667Y-98361143D01*
X126996667Y-98208762D01*
X127034762Y-98132571D01*
X127072857Y-98094476D01*
X127149048Y-98056381D01*
X139761305Y-97234014D02*
X139380352Y-96967347D01*
X139761305Y-96776871D02*
X138961305Y-96776871D01*
X138961305Y-97081633D01*
X138999400Y-97157824D01*
X139037495Y-97195919D01*
X139113686Y-97234014D01*
X139227971Y-97234014D01*
X139304162Y-97195919D01*
X139342257Y-97157824D01*
X139380352Y-97081633D01*
X139380352Y-96776871D01*
X139037495Y-97538776D02*
X138999400Y-97576871D01*
X138961305Y-97653062D01*
X138961305Y-97843538D01*
X138999400Y-97919728D01*
X139037495Y-97957824D01*
X139113686Y-97995919D01*
X139189876Y-97995919D01*
X139304162Y-97957824D01*
X139761305Y-97500681D01*
X139761305Y-97995919D01*
X138961305Y-98719729D02*
X138961305Y-98338776D01*
X139342257Y-98300681D01*
X139304162Y-98338776D01*
X139266067Y-98414967D01*
X139266067Y-98605443D01*
X139304162Y-98681633D01*
X139342257Y-98719729D01*
X139418448Y-98757824D01*
X139608924Y-98757824D01*
X139685114Y-98719729D01*
X139723210Y-98681633D01*
X139761305Y-98605443D01*
X139761305Y-98414967D01*
X139723210Y-98338776D01*
X139685114Y-98300681D01*
X100334286Y-115601905D02*
X100600953Y-115220952D01*
X100791429Y-115601905D02*
X100791429Y-114801905D01*
X100486667Y-114801905D01*
X100410476Y-114840000D01*
X100372381Y-114878095D01*
X100334286Y-114954286D01*
X100334286Y-115068571D01*
X100372381Y-115144762D01*
X100410476Y-115182857D01*
X100486667Y-115220952D01*
X100791429Y-115220952D01*
X100029524Y-114878095D02*
X99991429Y-114840000D01*
X99915238Y-114801905D01*
X99724762Y-114801905D01*
X99648572Y-114840000D01*
X99610476Y-114878095D01*
X99572381Y-114954286D01*
X99572381Y-115030476D01*
X99610476Y-115144762D01*
X100067619Y-115601905D01*
X99572381Y-115601905D01*
X98886667Y-115068571D02*
X98886667Y-115601905D01*
X99077143Y-114763810D02*
X99267619Y-115335238D01*
X98772381Y-115335238D01*
X100334286Y-126871905D02*
X100600953Y-126490952D01*
X100791429Y-126871905D02*
X100791429Y-126071905D01*
X100486667Y-126071905D01*
X100410476Y-126110000D01*
X100372381Y-126148095D01*
X100334286Y-126224286D01*
X100334286Y-126338571D01*
X100372381Y-126414762D01*
X100410476Y-126452857D01*
X100486667Y-126490952D01*
X100791429Y-126490952D01*
X100029524Y-126148095D02*
X99991429Y-126110000D01*
X99915238Y-126071905D01*
X99724762Y-126071905D01*
X99648572Y-126110000D01*
X99610476Y-126148095D01*
X99572381Y-126224286D01*
X99572381Y-126300476D01*
X99610476Y-126414762D01*
X100067619Y-126871905D01*
X99572381Y-126871905D01*
X99305714Y-126071905D02*
X98810476Y-126071905D01*
X99077143Y-126376667D01*
X98962857Y-126376667D01*
X98886667Y-126414762D01*
X98848571Y-126452857D01*
X98810476Y-126529048D01*
X98810476Y-126719524D01*
X98848571Y-126795714D01*
X98886667Y-126833810D01*
X98962857Y-126871905D01*
X99191429Y-126871905D01*
X99267619Y-126833810D01*
X99305714Y-126795714D01*
X132481905Y-99765714D02*
X132100952Y-99499047D01*
X132481905Y-99308571D02*
X131681905Y-99308571D01*
X131681905Y-99613333D01*
X131720000Y-99689524D01*
X131758095Y-99727619D01*
X131834286Y-99765714D01*
X131948571Y-99765714D01*
X132024762Y-99727619D01*
X132062857Y-99689524D01*
X132100952Y-99613333D01*
X132100952Y-99308571D01*
X131758095Y-100070476D02*
X131720000Y-100108571D01*
X131681905Y-100184762D01*
X131681905Y-100375238D01*
X131720000Y-100451428D01*
X131758095Y-100489524D01*
X131834286Y-100527619D01*
X131910476Y-100527619D01*
X132024762Y-100489524D01*
X132481905Y-100032381D01*
X132481905Y-100527619D01*
X131758095Y-100832381D02*
X131720000Y-100870476D01*
X131681905Y-100946667D01*
X131681905Y-101137143D01*
X131720000Y-101213333D01*
X131758095Y-101251429D01*
X131834286Y-101289524D01*
X131910476Y-101289524D01*
X132024762Y-101251429D01*
X132481905Y-100794286D01*
X132481905Y-101289524D01*
X134481905Y-99775714D02*
X134100952Y-99509047D01*
X134481905Y-99318571D02*
X133681905Y-99318571D01*
X133681905Y-99623333D01*
X133720000Y-99699524D01*
X133758095Y-99737619D01*
X133834286Y-99775714D01*
X133948571Y-99775714D01*
X134024762Y-99737619D01*
X134062857Y-99699524D01*
X134100952Y-99623333D01*
X134100952Y-99318571D01*
X133758095Y-100080476D02*
X133720000Y-100118571D01*
X133681905Y-100194762D01*
X133681905Y-100385238D01*
X133720000Y-100461428D01*
X133758095Y-100499524D01*
X133834286Y-100537619D01*
X133910476Y-100537619D01*
X134024762Y-100499524D01*
X134481905Y-100042381D01*
X134481905Y-100537619D01*
X134481905Y-101299524D02*
X134481905Y-100842381D01*
X134481905Y-101070952D02*
X133681905Y-101070952D01*
X133796190Y-100994762D01*
X133872381Y-100918571D01*
X133910476Y-100842381D01*
X136461905Y-99775714D02*
X136080952Y-99509047D01*
X136461905Y-99318571D02*
X135661905Y-99318571D01*
X135661905Y-99623333D01*
X135700000Y-99699524D01*
X135738095Y-99737619D01*
X135814286Y-99775714D01*
X135928571Y-99775714D01*
X136004762Y-99737619D01*
X136042857Y-99699524D01*
X136080952Y-99623333D01*
X136080952Y-99318571D01*
X135738095Y-100080476D02*
X135700000Y-100118571D01*
X135661905Y-100194762D01*
X135661905Y-100385238D01*
X135700000Y-100461428D01*
X135738095Y-100499524D01*
X135814286Y-100537619D01*
X135890476Y-100537619D01*
X136004762Y-100499524D01*
X136461905Y-100042381D01*
X136461905Y-100537619D01*
X135661905Y-101032857D02*
X135661905Y-101109048D01*
X135700000Y-101185238D01*
X135738095Y-101223333D01*
X135814286Y-101261429D01*
X135966667Y-101299524D01*
X136157143Y-101299524D01*
X136309524Y-101261429D01*
X136385714Y-101223333D01*
X136423810Y-101185238D01*
X136461905Y-101109048D01*
X136461905Y-101032857D01*
X136423810Y-100956667D01*
X136385714Y-100918571D01*
X136309524Y-100880476D01*
X136157143Y-100842381D01*
X135966667Y-100842381D01*
X135814286Y-100880476D01*
X135738095Y-100918571D01*
X135700000Y-100956667D01*
X135661905Y-101032857D01*
X119991905Y-99555714D02*
X119610952Y-99289047D01*
X119991905Y-99098571D02*
X119191905Y-99098571D01*
X119191905Y-99403333D01*
X119230000Y-99479524D01*
X119268095Y-99517619D01*
X119344286Y-99555714D01*
X119458571Y-99555714D01*
X119534762Y-99517619D01*
X119572857Y-99479524D01*
X119610952Y-99403333D01*
X119610952Y-99098571D01*
X119991905Y-100317619D02*
X119991905Y-99860476D01*
X119991905Y-100089047D02*
X119191905Y-100089047D01*
X119306190Y-100012857D01*
X119382381Y-99936666D01*
X119420476Y-99860476D01*
X119991905Y-100698571D02*
X119991905Y-100850952D01*
X119953810Y-100927143D01*
X119915714Y-100965238D01*
X119801429Y-101041429D01*
X119649048Y-101079524D01*
X119344286Y-101079524D01*
X119268095Y-101041429D01*
X119230000Y-101003333D01*
X119191905Y-100927143D01*
X119191905Y-100774762D01*
X119230000Y-100698571D01*
X119268095Y-100660476D01*
X119344286Y-100622381D01*
X119534762Y-100622381D01*
X119610952Y-100660476D01*
X119649048Y-100698571D01*
X119687143Y-100774762D01*
X119687143Y-100927143D01*
X119649048Y-101003333D01*
X119610952Y-101041429D01*
X119534762Y-101079524D01*
X122021905Y-99525714D02*
X121640952Y-99259047D01*
X122021905Y-99068571D02*
X121221905Y-99068571D01*
X121221905Y-99373333D01*
X121260000Y-99449524D01*
X121298095Y-99487619D01*
X121374286Y-99525714D01*
X121488571Y-99525714D01*
X121564762Y-99487619D01*
X121602857Y-99449524D01*
X121640952Y-99373333D01*
X121640952Y-99068571D01*
X122021905Y-100287619D02*
X122021905Y-99830476D01*
X122021905Y-100059047D02*
X121221905Y-100059047D01*
X121336190Y-99982857D01*
X121412381Y-99906666D01*
X121450476Y-99830476D01*
X121564762Y-100744762D02*
X121526667Y-100668571D01*
X121488571Y-100630476D01*
X121412381Y-100592381D01*
X121374286Y-100592381D01*
X121298095Y-100630476D01*
X121260000Y-100668571D01*
X121221905Y-100744762D01*
X121221905Y-100897143D01*
X121260000Y-100973333D01*
X121298095Y-101011429D01*
X121374286Y-101049524D01*
X121412381Y-101049524D01*
X121488571Y-101011429D01*
X121526667Y-100973333D01*
X121564762Y-100897143D01*
X121564762Y-100744762D01*
X121602857Y-100668571D01*
X121640952Y-100630476D01*
X121717143Y-100592381D01*
X121869524Y-100592381D01*
X121945714Y-100630476D01*
X121983810Y-100668571D01*
X122021905Y-100744762D01*
X122021905Y-100897143D01*
X121983810Y-100973333D01*
X121945714Y-101011429D01*
X121869524Y-101049524D01*
X121717143Y-101049524D01*
X121640952Y-101011429D01*
X121602857Y-100973333D01*
X121564762Y-100897143D01*
X124061905Y-99405714D02*
X123680952Y-99139047D01*
X124061905Y-98948571D02*
X123261905Y-98948571D01*
X123261905Y-99253333D01*
X123300000Y-99329524D01*
X123338095Y-99367619D01*
X123414286Y-99405714D01*
X123528571Y-99405714D01*
X123604762Y-99367619D01*
X123642857Y-99329524D01*
X123680952Y-99253333D01*
X123680952Y-98948571D01*
X124061905Y-100167619D02*
X124061905Y-99710476D01*
X124061905Y-99939047D02*
X123261905Y-99939047D01*
X123376190Y-99862857D01*
X123452381Y-99786666D01*
X123490476Y-99710476D01*
X123261905Y-100434286D02*
X123261905Y-100967619D01*
X124061905Y-100624762D01*
X132574286Y-133481905D02*
X132840953Y-133100952D01*
X133031429Y-133481905D02*
X133031429Y-132681905D01*
X132726667Y-132681905D01*
X132650476Y-132720000D01*
X132612381Y-132758095D01*
X132574286Y-132834286D01*
X132574286Y-132948571D01*
X132612381Y-133024762D01*
X132650476Y-133062857D01*
X132726667Y-133100952D01*
X133031429Y-133100952D01*
X131812381Y-133481905D02*
X132269524Y-133481905D01*
X132040953Y-133481905D02*
X132040953Y-132681905D01*
X132117143Y-132796190D01*
X132193334Y-132872381D01*
X132269524Y-132910476D01*
X131088571Y-132681905D02*
X131469524Y-132681905D01*
X131507619Y-133062857D01*
X131469524Y-133024762D01*
X131393333Y-132986667D01*
X131202857Y-132986667D01*
X131126667Y-133024762D01*
X131088571Y-133062857D01*
X131050476Y-133139048D01*
X131050476Y-133329524D01*
X131088571Y-133405714D01*
X131126667Y-133443810D01*
X131202857Y-133481905D01*
X131393333Y-133481905D01*
X131469524Y-133443810D01*
X131507619Y-133405714D01*
X132594286Y-131531905D02*
X132860953Y-131150952D01*
X133051429Y-131531905D02*
X133051429Y-130731905D01*
X132746667Y-130731905D01*
X132670476Y-130770000D01*
X132632381Y-130808095D01*
X132594286Y-130884286D01*
X132594286Y-130998571D01*
X132632381Y-131074762D01*
X132670476Y-131112857D01*
X132746667Y-131150952D01*
X133051429Y-131150952D01*
X131832381Y-131531905D02*
X132289524Y-131531905D01*
X132060953Y-131531905D02*
X132060953Y-130731905D01*
X132137143Y-130846190D01*
X132213334Y-130922381D01*
X132289524Y-130960476D01*
X131146667Y-130998571D02*
X131146667Y-131531905D01*
X131337143Y-130693810D02*
X131527619Y-131265238D01*
X131032381Y-131265238D01*
X132554286Y-129551905D02*
X132820953Y-129170952D01*
X133011429Y-129551905D02*
X133011429Y-128751905D01*
X132706667Y-128751905D01*
X132630476Y-128790000D01*
X132592381Y-128828095D01*
X132554286Y-128904286D01*
X132554286Y-129018571D01*
X132592381Y-129094762D01*
X132630476Y-129132857D01*
X132706667Y-129170952D01*
X133011429Y-129170952D01*
X131792381Y-129551905D02*
X132249524Y-129551905D01*
X132020953Y-129551905D02*
X132020953Y-128751905D01*
X132097143Y-128866190D01*
X132173334Y-128942381D01*
X132249524Y-128980476D01*
X131525714Y-128751905D02*
X131030476Y-128751905D01*
X131297143Y-129056667D01*
X131182857Y-129056667D01*
X131106667Y-129094762D01*
X131068571Y-129132857D01*
X131030476Y-129209048D01*
X131030476Y-129399524D01*
X131068571Y-129475714D01*
X131106667Y-129513810D01*
X131182857Y-129551905D01*
X131411429Y-129551905D01*
X131487619Y-129513810D01*
X131525714Y-129475714D01*
X132524286Y-127531905D02*
X132790953Y-127150952D01*
X132981429Y-127531905D02*
X132981429Y-126731905D01*
X132676667Y-126731905D01*
X132600476Y-126770000D01*
X132562381Y-126808095D01*
X132524286Y-126884286D01*
X132524286Y-126998571D01*
X132562381Y-127074762D01*
X132600476Y-127112857D01*
X132676667Y-127150952D01*
X132981429Y-127150952D01*
X131762381Y-127531905D02*
X132219524Y-127531905D01*
X131990953Y-127531905D02*
X131990953Y-126731905D01*
X132067143Y-126846190D01*
X132143334Y-126922381D01*
X132219524Y-126960476D01*
X131457619Y-126808095D02*
X131419524Y-126770000D01*
X131343333Y-126731905D01*
X131152857Y-126731905D01*
X131076667Y-126770000D01*
X131038571Y-126808095D01*
X131000476Y-126884286D01*
X131000476Y-126960476D01*
X131038571Y-127074762D01*
X131495714Y-127531905D01*
X131000476Y-127531905D01*
%LPC*%
D14*
X139242800Y-118211600D03*
D15*
X139242800Y-115671600D03*
D16*
X102971600Y-132334000D03*
D17*
X102971600Y-134874000D03*
D18*
X137982200Y-92260400D03*
D19*
X137982200Y-94760400D03*
X135982200Y-92260400D03*
X135982200Y-94760400D03*
X133982200Y-92260400D03*
X133982200Y-94760400D03*
X131982200Y-92260400D03*
X131982200Y-94760400D03*
X129982200Y-92260400D03*
X129982200Y-94760400D03*
D18*
X125666600Y-92207700D03*
D19*
X125666600Y-94707700D03*
X123666600Y-92207700D03*
X123666600Y-94707700D03*
X121666600Y-92207700D03*
X121666600Y-94707700D03*
X119666600Y-92207700D03*
X119666600Y-94707700D03*
X117666600Y-92207700D03*
X117666600Y-94707700D03*
D20*
X137230800Y-101460800D03*
D21*
X139730800Y-101460800D03*
X137230800Y-103460800D03*
X139730800Y-103460800D03*
X137230800Y-105460800D03*
X139730800Y-105460800D03*
X137230800Y-107460800D03*
X139730800Y-107460800D03*
X137230800Y-109460800D03*
X139730800Y-109460800D03*
D20*
X139883200Y-133146300D03*
D21*
X137383200Y-133146300D03*
X139883200Y-131146300D03*
X137383200Y-131146300D03*
X139883200Y-129146300D03*
X137383200Y-129146300D03*
X139883200Y-127146300D03*
X137383200Y-127146300D03*
X139883200Y-125146300D03*
X137383200Y-125146300D03*
D20*
X94609600Y-116510300D03*
D21*
X97109600Y-116510300D03*
X94609600Y-118510300D03*
X97109600Y-118510300D03*
X94609600Y-120510300D03*
X97109600Y-120510300D03*
X94609600Y-122510300D03*
X97109600Y-122510300D03*
X94609600Y-124510300D03*
X97109600Y-124510300D03*
D20*
X94647700Y-127749800D03*
D21*
X97147700Y-127749800D03*
X94647700Y-129749800D03*
X97147700Y-129749800D03*
X94647700Y-131749800D03*
X97147700Y-131749800D03*
X94647700Y-133749800D03*
X97147700Y-133749800D03*
X94647700Y-135749800D03*
X97147700Y-135749800D03*
D22*
X98425000Y-93893000D03*
X98425000Y-98893000D03*
D23*
X125740000Y-96768160D03*
X125740000Y-98271840D03*
X138070000Y-96988160D03*
X138070000Y-98491840D03*
D24*
X99070160Y-116484400D03*
X100573840Y-116484400D03*
X99070160Y-127762000D03*
X100573840Y-127762000D03*
D23*
X132085600Y-96994160D03*
X132085600Y-98497840D03*
X134117600Y-96994160D03*
X134117600Y-98497840D03*
X136098800Y-96994160D03*
X136098800Y-98497840D03*
X119634600Y-96769860D03*
X119634600Y-98273540D03*
X121666600Y-96769860D03*
X121666600Y-98273540D03*
X123698600Y-96769860D03*
X123698600Y-98273540D03*
D24*
X133918960Y-133146800D03*
X135422640Y-133146800D03*
X133918960Y-131165600D03*
X135422640Y-131165600D03*
X133918960Y-129184400D03*
X135422640Y-129184400D03*
X133918960Y-127152400D03*
X135422640Y-127152400D03*
D25*
G36*
X119356600Y-118391400D02*
X113205800Y-118391400D01*
X113205800Y-112393000D01*
X119356600Y-112393000D01*
X119356600Y-118391400D01*
X119356600Y-118391400D01*
G37*
X119356600Y-118391400D02*
X113205800Y-118391400D01*
X113205800Y-112393000D01*
X119356600Y-112393000D01*
X119356600Y-118391400D01*
M02*
