G04 #@! TF.FileFunction,Copper,L2,Inr,Plane*
%FSLAX46Y46*%
G04 Gerber Fmt 4.6, Leading zero omitted, Abs format (unit mm)*
G04 Created by KiCad (PCBNEW 4.0.5) date 03/05/17 17:01:49*
%MOMM*%
%LPD*%
G01*
G04 APERTURE LIST*
%ADD10C,0.100000*%
%ADD11C,2.501900*%
%ADD12C,2.500000*%
%ADD13R,1.800000X1.300000*%
%ADD14O,1.800000X1.300000*%
%ADD15R,1.300000X1.800000*%
%ADD16O,1.300000X1.800000*%
%ADD17R,2.199640X1.524000*%
%ADD18O,2.199640X1.524000*%
%ADD19R,1.700000X1.700000*%
%ADD20O,1.700000X1.700000*%
%ADD21C,0.800000*%
%ADD22C,1.200000*%
%ADD23C,0.500000*%
%ADD24C,0.300000*%
G04 APERTURE END LIST*
D10*
D11*
X132029200Y-136499600D03*
X129200000Y-97890000D03*
D12*
X98425000Y-93893000D03*
X98425000Y-98893000D03*
D13*
X94647700Y-127749800D03*
D14*
X97147700Y-127749800D03*
X94647700Y-129749800D03*
X97147700Y-129749800D03*
X94647700Y-131749800D03*
X97147700Y-131749800D03*
X94647700Y-133749800D03*
X97147700Y-133749800D03*
X94647700Y-135749800D03*
X97147700Y-135749800D03*
D13*
X94609600Y-116510300D03*
D14*
X97109600Y-116510300D03*
X94609600Y-118510300D03*
X97109600Y-118510300D03*
X94609600Y-120510300D03*
X97109600Y-120510300D03*
X94609600Y-122510300D03*
X97109600Y-122510300D03*
X94609600Y-124510300D03*
X97109600Y-124510300D03*
D13*
X139883200Y-133146300D03*
D14*
X137383200Y-133146300D03*
X139883200Y-131146300D03*
X137383200Y-131146300D03*
X139883200Y-129146300D03*
X137383200Y-129146300D03*
X139883200Y-127146300D03*
X137383200Y-127146300D03*
X139883200Y-125146300D03*
X137383200Y-125146300D03*
D13*
X137230800Y-101460800D03*
D14*
X139730800Y-101460800D03*
X137230800Y-103460800D03*
X139730800Y-103460800D03*
X137230800Y-105460800D03*
X139730800Y-105460800D03*
X137230800Y-107460800D03*
X139730800Y-107460800D03*
X137230800Y-109460800D03*
X139730800Y-109460800D03*
D15*
X138086600Y-92107700D03*
D16*
X138086600Y-94607700D03*
X136086600Y-92107700D03*
X136086600Y-94607700D03*
X134086600Y-92107700D03*
X134086600Y-94607700D03*
X132086600Y-92107700D03*
X132086600Y-94607700D03*
X130086600Y-92107700D03*
X130086600Y-94607700D03*
D15*
X125742200Y-92120400D03*
D16*
X125742200Y-94620400D03*
X123742200Y-92120400D03*
X123742200Y-94620400D03*
X121742200Y-92120400D03*
X121742200Y-94620400D03*
X119742200Y-92120400D03*
X119742200Y-94620400D03*
X117742200Y-92120400D03*
X117742200Y-94620400D03*
D17*
X102971600Y-132334000D03*
D18*
X102971600Y-134874000D03*
D19*
X139242800Y-118211600D03*
D20*
X139242800Y-115671600D03*
D11*
X99870000Y-136710000D03*
D21*
X112110000Y-127610000D03*
X129540000Y-108407200D03*
X130860800Y-108407200D03*
X125933200Y-123901200D03*
X107188000Y-121005600D03*
X104241600Y-118719600D03*
X105613200Y-117348000D03*
X128473200Y-120802400D03*
X115671600Y-117500400D03*
X115671600Y-116027200D03*
X117195600Y-113030000D03*
X117195600Y-114503200D03*
X114046000Y-113080800D03*
X115671600Y-113030000D03*
X118567200Y-113030000D03*
X118567200Y-114452400D03*
X118516400Y-116027200D03*
X118465600Y-117500400D03*
X117094000Y-117500400D03*
X114096800Y-117500400D03*
X114096800Y-116027200D03*
X114096800Y-114452400D03*
X115722400Y-114452400D03*
X117144800Y-116027200D03*
X105359200Y-132384800D03*
X104292400Y-135737600D03*
X123545600Y-125120400D03*
X99161600Y-125831600D03*
X108000800Y-125374400D03*
D22*
X116789200Y-98552000D03*
X111099600Y-102920800D03*
D21*
X130759200Y-132435600D03*
X119024400Y-136804400D03*
X103632000Y-108356400D03*
D22*
X100533200Y-114198400D03*
D21*
X136448800Y-121818400D03*
X112720000Y-128410000D03*
X113639600Y-126288800D03*
X108966000Y-125323600D03*
X124917200Y-128879600D03*
X121869200Y-127558800D03*
X115354100Y-132270500D03*
X115443000Y-102997000D03*
X117094000Y-102997000D03*
X121412000Y-102997000D03*
X125603000Y-116522500D03*
X128270000Y-114935000D03*
X110109000Y-118808500D03*
X113728500Y-121539000D03*
X111250000Y-121540000D03*
X104140000Y-110172500D03*
X106680000Y-106807000D03*
X124841000Y-105600500D03*
X113639600Y-124815600D03*
X108661200Y-128016000D03*
X118237000Y-105600500D03*
X125920500Y-106680000D03*
X114401600Y-131724400D03*
X124968000Y-125095000D03*
X107696000Y-105727500D03*
X107035600Y-122123200D03*
X127457200Y-105664000D03*
X110642400Y-119837200D03*
X110134400Y-120650000D03*
X127558800Y-106781600D03*
X129235200Y-132435600D03*
X98298000Y-123494800D03*
X122123200Y-135432800D03*
X126542800Y-119888000D03*
X96266000Y-104902000D03*
X97586800Y-110744000D03*
X97586800Y-104902000D03*
X94894400Y-104851200D03*
X97586800Y-112064800D03*
X96266000Y-110744000D03*
X97637600Y-113334800D03*
X96316800Y-113334800D03*
X94945200Y-113334800D03*
X94945200Y-112115600D03*
X96266000Y-112064800D03*
X94894400Y-110744000D03*
X110134400Y-132689600D03*
X109016800Y-126390400D03*
X104292400Y-117348000D03*
X114808000Y-128981200D03*
X105791000Y-123317000D03*
X125349000Y-117602000D03*
X130746500Y-113855500D03*
X125793500Y-113792000D03*
X106743500Y-117284500D03*
X106743500Y-111315500D03*
X112560000Y-121560000D03*
X114300000Y-105600500D03*
X120269000Y-105537000D03*
X123494800Y-127000000D03*
X113538000Y-97586800D03*
X113538000Y-92354400D03*
X112318800Y-92354400D03*
X111150400Y-92354400D03*
X113538000Y-96266000D03*
X113538000Y-94945200D03*
X113538000Y-93675200D03*
X107188000Y-124815600D03*
X110185200Y-116332000D03*
X106324400Y-124409200D03*
X110185200Y-114808000D03*
X103047800Y-116408200D03*
X99263200Y-122123200D03*
X98094800Y-125730000D03*
X115824000Y-121361200D03*
X134772400Y-125272800D03*
X131165600Y-125272800D03*
X135483600Y-125933200D03*
X114757200Y-121361200D03*
X131064000Y-126238000D03*
X122377200Y-117195600D03*
X121767600Y-117957600D03*
X121818400Y-118973600D03*
X122580400Y-119684800D03*
X110185200Y-112776000D03*
X110185200Y-111810800D03*
X122529600Y-103530400D03*
X124460000Y-103378000D03*
X111302800Y-109016800D03*
X110185200Y-110845600D03*
X110185200Y-109829600D03*
X113284000Y-109067600D03*
X129311400Y-127482600D03*
X130149600Y-126771400D03*
X130556000Y-121564400D03*
X127355600Y-100177600D03*
X128270000Y-103225600D03*
X129336800Y-121564400D03*
X132740400Y-121920000D03*
X128371600Y-121767600D03*
X127000000Y-124358400D03*
X119684800Y-121361200D03*
D23*
X110109000Y-118808500D02*
X113499900Y-118808500D01*
X113499900Y-118808500D02*
X114096800Y-118211600D01*
X114096800Y-118211600D02*
X114096800Y-117500400D01*
D24*
G36*
X141328000Y-139359500D02*
X92669500Y-139359500D01*
X92669500Y-136140470D01*
X93369411Y-136140470D01*
X93520411Y-136418089D01*
X93842934Y-136702942D01*
X94249915Y-136842688D01*
X94422700Y-136739851D01*
X94422700Y-135974800D01*
X94872700Y-135974800D01*
X94872700Y-136739851D01*
X95045485Y-136842688D01*
X95452466Y-136702942D01*
X95774989Y-136418089D01*
X95897700Y-136192480D01*
X96020411Y-136418089D01*
X96342934Y-136702942D01*
X96749915Y-136842688D01*
X96922700Y-136739851D01*
X96922700Y-135974800D01*
X95936175Y-135974800D01*
X95897700Y-136070273D01*
X95859225Y-135974800D01*
X94872700Y-135974800D01*
X94422700Y-135974800D01*
X93436175Y-135974800D01*
X93369411Y-136140470D01*
X92669500Y-136140470D01*
X92669500Y-134140470D01*
X93369411Y-134140470D01*
X93520411Y-134418089D01*
X93842934Y-134702942D01*
X93979398Y-134749800D01*
X93842934Y-134796658D01*
X93520411Y-135081511D01*
X93369411Y-135359130D01*
X93436175Y-135524800D01*
X94422700Y-135524800D01*
X94422700Y-134759749D01*
X94405984Y-134749800D01*
X94422700Y-134739851D01*
X94422700Y-133974800D01*
X93436175Y-133974800D01*
X93369411Y-134140470D01*
X92669500Y-134140470D01*
X92669500Y-132140470D01*
X93369411Y-132140470D01*
X93520411Y-132418089D01*
X93842934Y-132702942D01*
X93979398Y-132749800D01*
X93842934Y-132796658D01*
X93520411Y-133081511D01*
X93369411Y-133359130D01*
X93436175Y-133524800D01*
X94422700Y-133524800D01*
X94422700Y-132759749D01*
X94405984Y-132749800D01*
X94422700Y-132739851D01*
X94422700Y-131974800D01*
X93436175Y-131974800D01*
X93369411Y-132140470D01*
X92669500Y-132140470D01*
X92669500Y-130140470D01*
X93369411Y-130140470D01*
X93520411Y-130418089D01*
X93842934Y-130702942D01*
X93979398Y-130749800D01*
X93842934Y-130796658D01*
X93520411Y-131081511D01*
X93369411Y-131359130D01*
X93436175Y-131524800D01*
X94422700Y-131524800D01*
X94422700Y-130759749D01*
X94405984Y-130749800D01*
X94422700Y-130739851D01*
X94422700Y-129974800D01*
X93436175Y-129974800D01*
X93369411Y-130140470D01*
X92669500Y-130140470D01*
X92669500Y-128087300D01*
X93297700Y-128087300D01*
X93297700Y-128489311D01*
X93366209Y-128654705D01*
X93492796Y-128781292D01*
X93658190Y-128849800D01*
X93782764Y-128849800D01*
X93520411Y-129081511D01*
X93369411Y-129359130D01*
X93436175Y-129524800D01*
X94422700Y-129524800D01*
X94422700Y-128759749D01*
X94408627Y-128751373D01*
X94422700Y-128737300D01*
X94422700Y-127974800D01*
X93410200Y-127974800D01*
X93297700Y-128087300D01*
X92669500Y-128087300D01*
X92669500Y-127010289D01*
X93297700Y-127010289D01*
X93297700Y-127412300D01*
X93410200Y-127524800D01*
X94422700Y-127524800D01*
X94422700Y-126762300D01*
X94872700Y-126762300D01*
X94872700Y-127524800D01*
X94892700Y-127524800D01*
X94892700Y-127974800D01*
X94872700Y-127974800D01*
X94872700Y-128737300D01*
X94886773Y-128751373D01*
X94872700Y-128759749D01*
X94872700Y-129524800D01*
X94892700Y-129524800D01*
X94892700Y-129974800D01*
X94872700Y-129974800D01*
X94872700Y-130739851D01*
X94889416Y-130749800D01*
X94872700Y-130759749D01*
X94872700Y-131524800D01*
X94892700Y-131524800D01*
X94892700Y-131974800D01*
X94872700Y-131974800D01*
X94872700Y-132739851D01*
X94889416Y-132749800D01*
X94872700Y-132759749D01*
X94872700Y-133524800D01*
X94892700Y-133524800D01*
X94892700Y-133974800D01*
X94872700Y-133974800D01*
X94872700Y-134739851D01*
X94889416Y-134749800D01*
X94872700Y-134759749D01*
X94872700Y-135524800D01*
X95859225Y-135524800D01*
X95897700Y-135429327D01*
X95936175Y-135524800D01*
X96922700Y-135524800D01*
X96922700Y-135504800D01*
X97372700Y-135504800D01*
X97372700Y-135524800D01*
X97392700Y-135524800D01*
X97392700Y-135974800D01*
X97372700Y-135974800D01*
X97372700Y-136739851D01*
X97545485Y-136842688D01*
X97952466Y-136702942D01*
X98169222Y-136511503D01*
X98168755Y-137046856D01*
X98427164Y-137672252D01*
X98905231Y-138151155D01*
X99530176Y-138410655D01*
X100206856Y-138411245D01*
X100832252Y-138152836D01*
X101311155Y-137674769D01*
X101570655Y-137049824D01*
X101570841Y-136836456D01*
X130327955Y-136836456D01*
X130586364Y-137461852D01*
X131064431Y-137940755D01*
X131689376Y-138200255D01*
X132366056Y-138200845D01*
X132991452Y-137942436D01*
X133470355Y-137464369D01*
X133729855Y-136839424D01*
X133730445Y-136162744D01*
X133472036Y-135537348D01*
X132993969Y-135058445D01*
X132369024Y-134798945D01*
X131692344Y-134798355D01*
X131066948Y-135056764D01*
X130588045Y-135534831D01*
X130328545Y-136159776D01*
X130327955Y-136836456D01*
X101570841Y-136836456D01*
X101571245Y-136373144D01*
X101312836Y-135747748D01*
X100848434Y-135282533D01*
X101492708Y-135282533D01*
X101711138Y-135683792D01*
X102091264Y-135975230D01*
X102553983Y-136099016D01*
X102746600Y-135983917D01*
X102746600Y-135099000D01*
X103196600Y-135099000D01*
X103196600Y-135983917D01*
X103389217Y-136099016D01*
X103851936Y-135975230D01*
X104232062Y-135683792D01*
X104277057Y-135601134D01*
X121273053Y-135601134D01*
X121402185Y-135913657D01*
X121641085Y-136152974D01*
X121953383Y-136282652D01*
X122291534Y-136282947D01*
X122604057Y-136153815D01*
X122843374Y-135914915D01*
X122973052Y-135602617D01*
X122973347Y-135264466D01*
X122844215Y-134951943D01*
X122605315Y-134712626D01*
X122293017Y-134582948D01*
X121954866Y-134582653D01*
X121642343Y-134711785D01*
X121403026Y-134950685D01*
X121273348Y-135262983D01*
X121273053Y-135601134D01*
X104277057Y-135601134D01*
X104450492Y-135282533D01*
X104385652Y-135099000D01*
X103196600Y-135099000D01*
X102746600Y-135099000D01*
X101557548Y-135099000D01*
X101492708Y-135282533D01*
X100848434Y-135282533D01*
X100834769Y-135268845D01*
X100209824Y-135009345D01*
X99533144Y-135008755D01*
X98907748Y-135267164D01*
X98497700Y-135676496D01*
X98497700Y-135524798D01*
X98359226Y-135524798D01*
X98425989Y-135359130D01*
X98274989Y-135081511D01*
X97952466Y-134796658D01*
X97851304Y-134761922D01*
X98201965Y-134527617D01*
X98243492Y-134465467D01*
X101492708Y-134465467D01*
X101557548Y-134649000D01*
X102746600Y-134649000D01*
X102746600Y-133764083D01*
X103196600Y-133764083D01*
X103196600Y-134649000D01*
X104385652Y-134649000D01*
X104450492Y-134465467D01*
X104232062Y-134064208D01*
X103851936Y-133772770D01*
X103389217Y-133648984D01*
X103196600Y-133764083D01*
X102746600Y-133764083D01*
X102553983Y-133648984D01*
X102091264Y-133772770D01*
X101711138Y-134064208D01*
X101492708Y-134465467D01*
X98243492Y-134465467D01*
X98440415Y-134170752D01*
X98524148Y-133749800D01*
X98440415Y-133328848D01*
X98201965Y-132971983D01*
X97869445Y-132749800D01*
X98201965Y-132527617D01*
X98440415Y-132170752D01*
X98524148Y-131749800D01*
X98488782Y-131572000D01*
X101412964Y-131572000D01*
X101412964Y-133096000D01*
X101444342Y-133262760D01*
X101542897Y-133415919D01*
X101693275Y-133518668D01*
X101871780Y-133554816D01*
X104071420Y-133554816D01*
X104238180Y-133523438D01*
X104391339Y-133424883D01*
X104494088Y-133274505D01*
X104530236Y-133096000D01*
X104530236Y-132857934D01*
X109284253Y-132857934D01*
X109413385Y-133170457D01*
X109652285Y-133409774D01*
X109964583Y-133539452D01*
X110302734Y-133539747D01*
X110615257Y-133410615D01*
X110854574Y-133171715D01*
X110984252Y-132859417D01*
X110984474Y-132603934D01*
X128385053Y-132603934D01*
X128514185Y-132916457D01*
X128753085Y-133155774D01*
X129065383Y-133285452D01*
X129403534Y-133285747D01*
X129716057Y-133156615D01*
X129955374Y-132917715D01*
X130085052Y-132605417D01*
X130085347Y-132267266D01*
X129956215Y-131954743D01*
X129717315Y-131715426D01*
X129405017Y-131585748D01*
X129066866Y-131585453D01*
X128754343Y-131714585D01*
X128515026Y-131953485D01*
X128385348Y-132265783D01*
X128385053Y-132603934D01*
X110984474Y-132603934D01*
X110984547Y-132521266D01*
X110855415Y-132208743D01*
X110616515Y-131969426D01*
X110431821Y-131892734D01*
X113551453Y-131892734D01*
X113680585Y-132205257D01*
X113919485Y-132444574D01*
X114231783Y-132574252D01*
X114569934Y-132574547D01*
X114882457Y-132445415D01*
X115121774Y-132206515D01*
X115251452Y-131894217D01*
X115251747Y-131556066D01*
X115122615Y-131243543D01*
X114883715Y-131004226D01*
X114571417Y-130874548D01*
X114233266Y-130874253D01*
X113920743Y-131003385D01*
X113681426Y-131242285D01*
X113551748Y-131554583D01*
X113551453Y-131892734D01*
X110431821Y-131892734D01*
X110304217Y-131839748D01*
X109966066Y-131839453D01*
X109653543Y-131968585D01*
X109414226Y-132207485D01*
X109284548Y-132519783D01*
X109284253Y-132857934D01*
X104530236Y-132857934D01*
X104530236Y-131572000D01*
X104498858Y-131405240D01*
X104400303Y-131252081D01*
X104249925Y-131149332D01*
X104071420Y-131113184D01*
X101871780Y-131113184D01*
X101705020Y-131144562D01*
X101551861Y-131243117D01*
X101449112Y-131393495D01*
X101412964Y-131572000D01*
X98488782Y-131572000D01*
X98440415Y-131328848D01*
X98201965Y-130971983D01*
X97869445Y-130749800D01*
X98201965Y-130527617D01*
X98440415Y-130170752D01*
X98524148Y-129749800D01*
X98440415Y-129328848D01*
X98320601Y-129149534D01*
X113957853Y-129149534D01*
X114086985Y-129462057D01*
X114325885Y-129701374D01*
X114638183Y-129831052D01*
X114976334Y-129831347D01*
X115288857Y-129702215D01*
X115528174Y-129463315D01*
X115657852Y-129151017D01*
X115658147Y-128812866D01*
X115529015Y-128500343D01*
X115290115Y-128261026D01*
X114977817Y-128131348D01*
X114639666Y-128131053D01*
X114327143Y-128260185D01*
X114087826Y-128499085D01*
X113958148Y-128811383D01*
X113957853Y-129149534D01*
X98320601Y-129149534D01*
X98201965Y-128971983D01*
X97869445Y-128749800D01*
X98201965Y-128527617D01*
X98431339Y-128184334D01*
X107811053Y-128184334D01*
X107940185Y-128496857D01*
X108179085Y-128736174D01*
X108491383Y-128865852D01*
X108829534Y-128866147D01*
X109142057Y-128737015D01*
X109381374Y-128498115D01*
X109511052Y-128185817D01*
X109511347Y-127847666D01*
X109382215Y-127535143D01*
X109143315Y-127295826D01*
X109009821Y-127240394D01*
X109185134Y-127240547D01*
X109359902Y-127168334D01*
X122644653Y-127168334D01*
X122773785Y-127480857D01*
X123012685Y-127720174D01*
X123324983Y-127849852D01*
X123663134Y-127850147D01*
X123975657Y-127721015D01*
X124045860Y-127650934D01*
X128461253Y-127650934D01*
X128590385Y-127963457D01*
X128829285Y-128202774D01*
X129141583Y-128332452D01*
X129479734Y-128332747D01*
X129792257Y-128203615D01*
X130031574Y-127964715D01*
X130161252Y-127652417D01*
X130161279Y-127621410D01*
X130317934Y-127621547D01*
X130630457Y-127492415D01*
X130869774Y-127253515D01*
X130938548Y-127087891D01*
X131232334Y-127088147D01*
X131544857Y-126959015D01*
X131784174Y-126720115D01*
X131913852Y-126407817D01*
X131914147Y-126069666D01*
X131813787Y-125826777D01*
X131885774Y-125754915D01*
X132015452Y-125442617D01*
X132015453Y-125441134D01*
X133922253Y-125441134D01*
X134051385Y-125753657D01*
X134290285Y-125992974D01*
X134602583Y-126122652D01*
X134642193Y-126122687D01*
X134762585Y-126414057D01*
X135001485Y-126653374D01*
X135313783Y-126783052D01*
X135651934Y-126783347D01*
X135964457Y-126654215D01*
X136203774Y-126415315D01*
X136333452Y-126103017D01*
X136333605Y-125927238D01*
X136661455Y-126146300D01*
X136328935Y-126368483D01*
X136090485Y-126725348D01*
X136006752Y-127146300D01*
X136090485Y-127567252D01*
X136328935Y-127924117D01*
X136661455Y-128146300D01*
X136328935Y-128368483D01*
X136090485Y-128725348D01*
X136006752Y-129146300D01*
X136090485Y-129567252D01*
X136328935Y-129924117D01*
X136661455Y-130146300D01*
X136328935Y-130368483D01*
X136090485Y-130725348D01*
X136006752Y-131146300D01*
X136090485Y-131567252D01*
X136328935Y-131924117D01*
X136661455Y-132146300D01*
X136328935Y-132368483D01*
X136090485Y-132725348D01*
X136006752Y-133146300D01*
X136090485Y-133567252D01*
X136328935Y-133924117D01*
X136685800Y-134162567D01*
X137106752Y-134246300D01*
X137659648Y-134246300D01*
X138080600Y-134162567D01*
X138437465Y-133924117D01*
X138533200Y-133780840D01*
X138533200Y-133885811D01*
X138601709Y-134051205D01*
X138728296Y-134177792D01*
X138893690Y-134246300D01*
X139545700Y-134246300D01*
X139658200Y-134133800D01*
X139658200Y-133371300D01*
X140108200Y-133371300D01*
X140108200Y-134133800D01*
X140220700Y-134246300D01*
X140872710Y-134246300D01*
X141038104Y-134177792D01*
X141164691Y-134051205D01*
X141233200Y-133885811D01*
X141233200Y-133483800D01*
X141120700Y-133371300D01*
X140108200Y-133371300D01*
X139658200Y-133371300D01*
X139638200Y-133371300D01*
X139638200Y-132921300D01*
X139658200Y-132921300D01*
X139658200Y-132158800D01*
X139644127Y-132144727D01*
X139658200Y-132136351D01*
X139658200Y-131371300D01*
X140108200Y-131371300D01*
X140108200Y-132136351D01*
X140122273Y-132144727D01*
X140108200Y-132158800D01*
X140108200Y-132921300D01*
X141120700Y-132921300D01*
X141233200Y-132808800D01*
X141233200Y-132406789D01*
X141164691Y-132241395D01*
X141038104Y-132114808D01*
X140872710Y-132046300D01*
X140748136Y-132046300D01*
X141010489Y-131814589D01*
X141161489Y-131536970D01*
X141094725Y-131371300D01*
X140108200Y-131371300D01*
X139658200Y-131371300D01*
X139638200Y-131371300D01*
X139638200Y-130921300D01*
X139658200Y-130921300D01*
X139658200Y-130156249D01*
X139641484Y-130146300D01*
X139658200Y-130136351D01*
X139658200Y-129371300D01*
X140108200Y-129371300D01*
X140108200Y-130136351D01*
X140124916Y-130146300D01*
X140108200Y-130156249D01*
X140108200Y-130921300D01*
X141094725Y-130921300D01*
X141161489Y-130755630D01*
X141010489Y-130478011D01*
X140687966Y-130193158D01*
X140551502Y-130146300D01*
X140687966Y-130099442D01*
X141010489Y-129814589D01*
X141161489Y-129536970D01*
X141094725Y-129371300D01*
X140108200Y-129371300D01*
X139658200Y-129371300D01*
X139638200Y-129371300D01*
X139638200Y-128921300D01*
X139658200Y-128921300D01*
X139658200Y-128156249D01*
X139641484Y-128146300D01*
X139658200Y-128136351D01*
X139658200Y-127371300D01*
X140108200Y-127371300D01*
X140108200Y-128136351D01*
X140124916Y-128146300D01*
X140108200Y-128156249D01*
X140108200Y-128921300D01*
X141094725Y-128921300D01*
X141161489Y-128755630D01*
X141010489Y-128478011D01*
X140687966Y-128193158D01*
X140551502Y-128146300D01*
X140687966Y-128099442D01*
X141010489Y-127814589D01*
X141161489Y-127536970D01*
X141094725Y-127371300D01*
X140108200Y-127371300D01*
X139658200Y-127371300D01*
X139638200Y-127371300D01*
X139638200Y-126921300D01*
X139658200Y-126921300D01*
X139658200Y-126901300D01*
X140108200Y-126901300D01*
X140108200Y-126921300D01*
X141094725Y-126921300D01*
X141161489Y-126755630D01*
X141010489Y-126478011D01*
X140687966Y-126193158D01*
X140586804Y-126158422D01*
X140937465Y-125924117D01*
X141175915Y-125567252D01*
X141259648Y-125146300D01*
X141175915Y-124725348D01*
X140937465Y-124368483D01*
X140580600Y-124130033D01*
X140159648Y-124046300D01*
X139606752Y-124046300D01*
X139185800Y-124130033D01*
X138828935Y-124368483D01*
X138633200Y-124661421D01*
X138437465Y-124368483D01*
X138080600Y-124130033D01*
X137659648Y-124046300D01*
X137106752Y-124046300D01*
X136685800Y-124130033D01*
X136328935Y-124368483D01*
X136090485Y-124725348D01*
X136006752Y-125146300D01*
X136033539Y-125280969D01*
X135965715Y-125213026D01*
X135653417Y-125083348D01*
X135613807Y-125083313D01*
X135493415Y-124791943D01*
X135254515Y-124552626D01*
X134942217Y-124422948D01*
X134604066Y-124422653D01*
X134291543Y-124551785D01*
X134052226Y-124790685D01*
X133922548Y-125102983D01*
X133922253Y-125441134D01*
X132015453Y-125441134D01*
X132015747Y-125104466D01*
X131886615Y-124791943D01*
X131647715Y-124552626D01*
X131335417Y-124422948D01*
X130997266Y-124422653D01*
X130684743Y-124551785D01*
X130445426Y-124790685D01*
X130315748Y-125102983D01*
X130315453Y-125441134D01*
X130415813Y-125684023D01*
X130343826Y-125755885D01*
X130275052Y-125921509D01*
X129981266Y-125921253D01*
X129668743Y-126050385D01*
X129429426Y-126289285D01*
X129299748Y-126601583D01*
X129299721Y-126632590D01*
X129143066Y-126632453D01*
X128830543Y-126761585D01*
X128591226Y-127000485D01*
X128461548Y-127312783D01*
X128461253Y-127650934D01*
X124045860Y-127650934D01*
X124214974Y-127482115D01*
X124344652Y-127169817D01*
X124344947Y-126831666D01*
X124215815Y-126519143D01*
X123976915Y-126279826D01*
X123664617Y-126150148D01*
X123326466Y-126149853D01*
X123013943Y-126278985D01*
X122774626Y-126517885D01*
X122644948Y-126830183D01*
X122644653Y-127168334D01*
X109359902Y-127168334D01*
X109497657Y-127111415D01*
X109736974Y-126872515D01*
X109866652Y-126560217D01*
X109866947Y-126222066D01*
X109737815Y-125909543D01*
X109498915Y-125670226D01*
X109186617Y-125540548D01*
X108848466Y-125540253D01*
X108535943Y-125669385D01*
X108296626Y-125908285D01*
X108166948Y-126220583D01*
X108166653Y-126558734D01*
X108295785Y-126871257D01*
X108534685Y-127110574D01*
X108668179Y-127166006D01*
X108492866Y-127165853D01*
X108180343Y-127294985D01*
X107941026Y-127533885D01*
X107811348Y-127846183D01*
X107811053Y-128184334D01*
X98431339Y-128184334D01*
X98440415Y-128170752D01*
X98524148Y-127749800D01*
X98440415Y-127328848D01*
X98201965Y-126971983D01*
X97845100Y-126733533D01*
X97424148Y-126649800D01*
X96871252Y-126649800D01*
X96450300Y-126733533D01*
X96093435Y-126971983D01*
X95997700Y-127115260D01*
X95997700Y-127010289D01*
X95929191Y-126844895D01*
X95802604Y-126718308D01*
X95637210Y-126649800D01*
X94985200Y-126649800D01*
X94872700Y-126762300D01*
X94422700Y-126762300D01*
X94310200Y-126649800D01*
X93658190Y-126649800D01*
X93492796Y-126718308D01*
X93366209Y-126844895D01*
X93297700Y-127010289D01*
X92669500Y-127010289D01*
X92669500Y-125898334D01*
X97244653Y-125898334D01*
X97373785Y-126210857D01*
X97612685Y-126450174D01*
X97924983Y-126579852D01*
X98263134Y-126580147D01*
X98575657Y-126451015D01*
X98814974Y-126212115D01*
X98944652Y-125899817D01*
X98944947Y-125561666D01*
X98815815Y-125249143D01*
X98576915Y-125009826D01*
X98374416Y-124925741D01*
X98387889Y-124900970D01*
X98321125Y-124735300D01*
X97334600Y-124735300D01*
X97334600Y-125344278D01*
X97244948Y-125560183D01*
X97244653Y-125898334D01*
X92669500Y-125898334D01*
X92669500Y-124900970D01*
X93331311Y-124900970D01*
X93482311Y-125178589D01*
X93804834Y-125463442D01*
X94211815Y-125603188D01*
X94384600Y-125500351D01*
X94384600Y-124735300D01*
X94834600Y-124735300D01*
X94834600Y-125500351D01*
X95007385Y-125603188D01*
X95414366Y-125463442D01*
X95736889Y-125178589D01*
X95859600Y-124952980D01*
X95982311Y-125178589D01*
X96304834Y-125463442D01*
X96711815Y-125603188D01*
X96884600Y-125500351D01*
X96884600Y-124735300D01*
X95898075Y-124735300D01*
X95859600Y-124830773D01*
X95821125Y-124735300D01*
X94834600Y-124735300D01*
X94384600Y-124735300D01*
X93398075Y-124735300D01*
X93331311Y-124900970D01*
X92669500Y-124900970D01*
X92669500Y-122900970D01*
X93331311Y-122900970D01*
X93482311Y-123178589D01*
X93804834Y-123463442D01*
X93941298Y-123510300D01*
X93804834Y-123557158D01*
X93482311Y-123842011D01*
X93331311Y-124119630D01*
X93398075Y-124285300D01*
X94384600Y-124285300D01*
X94384600Y-123520249D01*
X94367884Y-123510300D01*
X94384600Y-123500351D01*
X94384600Y-122735300D01*
X93398075Y-122735300D01*
X93331311Y-122900970D01*
X92669500Y-122900970D01*
X92669500Y-120900970D01*
X93331311Y-120900970D01*
X93482311Y-121178589D01*
X93804834Y-121463442D01*
X93941298Y-121510300D01*
X93804834Y-121557158D01*
X93482311Y-121842011D01*
X93331311Y-122119630D01*
X93398075Y-122285300D01*
X94384600Y-122285300D01*
X94384600Y-121520249D01*
X94367884Y-121510300D01*
X94384600Y-121500351D01*
X94384600Y-120735300D01*
X93398075Y-120735300D01*
X93331311Y-120900970D01*
X92669500Y-120900970D01*
X92669500Y-118900970D01*
X93331311Y-118900970D01*
X93482311Y-119178589D01*
X93804834Y-119463442D01*
X93941298Y-119510300D01*
X93804834Y-119557158D01*
X93482311Y-119842011D01*
X93331311Y-120119630D01*
X93398075Y-120285300D01*
X94384600Y-120285300D01*
X94384600Y-119520249D01*
X94367884Y-119510300D01*
X94384600Y-119500351D01*
X94384600Y-118735300D01*
X93398075Y-118735300D01*
X93331311Y-118900970D01*
X92669500Y-118900970D01*
X92669500Y-116847800D01*
X93259600Y-116847800D01*
X93259600Y-117249811D01*
X93328109Y-117415205D01*
X93454696Y-117541792D01*
X93620090Y-117610300D01*
X93744664Y-117610300D01*
X93482311Y-117842011D01*
X93331311Y-118119630D01*
X93398075Y-118285300D01*
X94384600Y-118285300D01*
X94384600Y-117520249D01*
X94370527Y-117511873D01*
X94384600Y-117497800D01*
X94384600Y-116735300D01*
X93372100Y-116735300D01*
X93259600Y-116847800D01*
X92669500Y-116847800D01*
X92669500Y-115770789D01*
X93259600Y-115770789D01*
X93259600Y-116172800D01*
X93372100Y-116285300D01*
X94384600Y-116285300D01*
X94384600Y-115522800D01*
X94834600Y-115522800D01*
X94834600Y-116285300D01*
X94854600Y-116285300D01*
X94854600Y-116735300D01*
X94834600Y-116735300D01*
X94834600Y-117497800D01*
X94848673Y-117511873D01*
X94834600Y-117520249D01*
X94834600Y-118285300D01*
X94854600Y-118285300D01*
X94854600Y-118735300D01*
X94834600Y-118735300D01*
X94834600Y-119500351D01*
X94851316Y-119510300D01*
X94834600Y-119520249D01*
X94834600Y-120285300D01*
X94854600Y-120285300D01*
X94854600Y-120735300D01*
X94834600Y-120735300D01*
X94834600Y-121500351D01*
X94851316Y-121510300D01*
X94834600Y-121520249D01*
X94834600Y-122285300D01*
X94854600Y-122285300D01*
X94854600Y-122735300D01*
X94834600Y-122735300D01*
X94834600Y-123500351D01*
X94851316Y-123510300D01*
X94834600Y-123520249D01*
X94834600Y-124285300D01*
X95821125Y-124285300D01*
X95859600Y-124189827D01*
X95898075Y-124285300D01*
X96884600Y-124285300D01*
X96884600Y-124265300D01*
X97334600Y-124265300D01*
X97334600Y-124285300D01*
X97985248Y-124285300D01*
X98128183Y-124344652D01*
X98466334Y-124344947D01*
X98778857Y-124215815D01*
X99018174Y-123976915D01*
X99147852Y-123664617D01*
X99148008Y-123485334D01*
X104940853Y-123485334D01*
X105069985Y-123797857D01*
X105308885Y-124037174D01*
X105521801Y-124125585D01*
X105474548Y-124239383D01*
X105474253Y-124577534D01*
X105603385Y-124890057D01*
X105842285Y-125129374D01*
X106154583Y-125259052D01*
X106451637Y-125259311D01*
X106466985Y-125296457D01*
X106705885Y-125535774D01*
X107018183Y-125665452D01*
X107356334Y-125665747D01*
X107668857Y-125536615D01*
X107908174Y-125297715D01*
X108037852Y-124985417D01*
X108037853Y-124983934D01*
X112789453Y-124983934D01*
X112918585Y-125296457D01*
X113157485Y-125535774D01*
X113469783Y-125665452D01*
X113807934Y-125665747D01*
X114120457Y-125536615D01*
X114359774Y-125297715D01*
X114374050Y-125263334D01*
X124117853Y-125263334D01*
X124246985Y-125575857D01*
X124485885Y-125815174D01*
X124798183Y-125944852D01*
X125136334Y-125945147D01*
X125448857Y-125816015D01*
X125688174Y-125577115D01*
X125817852Y-125264817D01*
X125818147Y-124926666D01*
X125689015Y-124614143D01*
X125601759Y-124526734D01*
X126149853Y-124526734D01*
X126278985Y-124839257D01*
X126517885Y-125078574D01*
X126830183Y-125208252D01*
X127168334Y-125208547D01*
X127480857Y-125079415D01*
X127720174Y-124840515D01*
X127849852Y-124528217D01*
X127850147Y-124190066D01*
X127721015Y-123877543D01*
X127482115Y-123638226D01*
X127169817Y-123508548D01*
X126831666Y-123508253D01*
X126519143Y-123637385D01*
X126279826Y-123876285D01*
X126150148Y-124188583D01*
X126149853Y-124526734D01*
X125601759Y-124526734D01*
X125450115Y-124374826D01*
X125137817Y-124245148D01*
X124799666Y-124244853D01*
X124487143Y-124373985D01*
X124247826Y-124612885D01*
X124118148Y-124925183D01*
X124117853Y-125263334D01*
X114374050Y-125263334D01*
X114489452Y-124985417D01*
X114489747Y-124647266D01*
X114360615Y-124334743D01*
X114121715Y-124095426D01*
X113809417Y-123965748D01*
X113471266Y-123965453D01*
X113158743Y-124094585D01*
X112919426Y-124333485D01*
X112789748Y-124645783D01*
X112789453Y-124983934D01*
X108037853Y-124983934D01*
X108038147Y-124647266D01*
X107909015Y-124334743D01*
X107670115Y-124095426D01*
X107357817Y-123965748D01*
X107060763Y-123965489D01*
X107045415Y-123928343D01*
X106806515Y-123689026D01*
X106593599Y-123600615D01*
X106640852Y-123486817D01*
X106641147Y-123148666D01*
X106512015Y-122836143D01*
X106273115Y-122596826D01*
X105960817Y-122467148D01*
X105622666Y-122466853D01*
X105310143Y-122595985D01*
X105070826Y-122834885D01*
X104941148Y-123147183D01*
X104940853Y-123485334D01*
X99148008Y-123485334D01*
X99148147Y-123326466D01*
X99019015Y-123013943D01*
X98896644Y-122891359D01*
X99093383Y-122973052D01*
X99431534Y-122973347D01*
X99744057Y-122844215D01*
X99983374Y-122605315D01*
X100113052Y-122293017D01*
X100113053Y-122291534D01*
X106185453Y-122291534D01*
X106314585Y-122604057D01*
X106553485Y-122843374D01*
X106865783Y-122973052D01*
X107203934Y-122973347D01*
X107516457Y-122844215D01*
X107755774Y-122605315D01*
X107885452Y-122293017D01*
X107885747Y-121954866D01*
X107792146Y-121728334D01*
X111709853Y-121728334D01*
X111838985Y-122040857D01*
X112077885Y-122280174D01*
X112390183Y-122409852D01*
X112728334Y-122410147D01*
X113040857Y-122281015D01*
X113280174Y-122042115D01*
X113409852Y-121729817D01*
X113410026Y-121529534D01*
X113907053Y-121529534D01*
X114036185Y-121842057D01*
X114275085Y-122081374D01*
X114587383Y-122211052D01*
X114925534Y-122211347D01*
X115238057Y-122082215D01*
X115290482Y-122029881D01*
X115341885Y-122081374D01*
X115654183Y-122211052D01*
X115992334Y-122211347D01*
X116304857Y-122082215D01*
X116544174Y-121843315D01*
X116673852Y-121531017D01*
X116673853Y-121529534D01*
X118834653Y-121529534D01*
X118963785Y-121842057D01*
X119202685Y-122081374D01*
X119514983Y-122211052D01*
X119853134Y-122211347D01*
X120165657Y-122082215D01*
X120312193Y-121935934D01*
X127521453Y-121935934D01*
X127650585Y-122248457D01*
X127889485Y-122487774D01*
X128201783Y-122617452D01*
X128539934Y-122617747D01*
X128852457Y-122488615D01*
X128997464Y-122343861D01*
X129166983Y-122414252D01*
X129505134Y-122414547D01*
X129817657Y-122285415D01*
X129946415Y-122156881D01*
X130073885Y-122284574D01*
X130386183Y-122414252D01*
X130724334Y-122414547D01*
X131036857Y-122285415D01*
X131234282Y-122088334D01*
X131890253Y-122088334D01*
X132019385Y-122400857D01*
X132258285Y-122640174D01*
X132570583Y-122769852D01*
X132908734Y-122770147D01*
X133221257Y-122641015D01*
X133460574Y-122402115D01*
X133590252Y-122089817D01*
X133590547Y-121751666D01*
X133461415Y-121439143D01*
X133222515Y-121199826D01*
X132910217Y-121070148D01*
X132572066Y-121069853D01*
X132259543Y-121198985D01*
X132020226Y-121437885D01*
X131890548Y-121750183D01*
X131890253Y-122088334D01*
X131234282Y-122088334D01*
X131276174Y-122046515D01*
X131405852Y-121734217D01*
X131406147Y-121396066D01*
X131277015Y-121083543D01*
X131038115Y-120844226D01*
X130725817Y-120714548D01*
X130387666Y-120714253D01*
X130075143Y-120843385D01*
X129946385Y-120971919D01*
X129818915Y-120844226D01*
X129506617Y-120714548D01*
X129168466Y-120714253D01*
X128855943Y-120843385D01*
X128710936Y-120988139D01*
X128541417Y-120917748D01*
X128203266Y-120917453D01*
X127890743Y-121046585D01*
X127651426Y-121285485D01*
X127521748Y-121597783D01*
X127521453Y-121935934D01*
X120312193Y-121935934D01*
X120404974Y-121843315D01*
X120534652Y-121531017D01*
X120534947Y-121192866D01*
X120405815Y-120880343D01*
X120166915Y-120641026D01*
X119854617Y-120511348D01*
X119516466Y-120511053D01*
X119203943Y-120640185D01*
X118964626Y-120879085D01*
X118834948Y-121191383D01*
X118834653Y-121529534D01*
X116673853Y-121529534D01*
X116674147Y-121192866D01*
X116545015Y-120880343D01*
X116306115Y-120641026D01*
X115993817Y-120511348D01*
X115655666Y-120511053D01*
X115343143Y-120640185D01*
X115290718Y-120692519D01*
X115239315Y-120641026D01*
X114927017Y-120511348D01*
X114588866Y-120511053D01*
X114276343Y-120640185D01*
X114037026Y-120879085D01*
X113907348Y-121191383D01*
X113907053Y-121529534D01*
X113410026Y-121529534D01*
X113410147Y-121391666D01*
X113281015Y-121079143D01*
X113042115Y-120839826D01*
X112729817Y-120710148D01*
X112391666Y-120709853D01*
X112079143Y-120838985D01*
X111839826Y-121077885D01*
X111710148Y-121390183D01*
X111709853Y-121728334D01*
X107792146Y-121728334D01*
X107756615Y-121642343D01*
X107517715Y-121403026D01*
X107205417Y-121273348D01*
X106867266Y-121273053D01*
X106554743Y-121402185D01*
X106315426Y-121641085D01*
X106185748Y-121953383D01*
X106185453Y-122291534D01*
X100113053Y-122291534D01*
X100113347Y-121954866D01*
X99984215Y-121642343D01*
X99745315Y-121403026D01*
X99433017Y-121273348D01*
X99094866Y-121273053D01*
X98782343Y-121402185D01*
X98543026Y-121641085D01*
X98413348Y-121953383D01*
X98413182Y-122143978D01*
X98402315Y-122089348D01*
X98163865Y-121732483D01*
X97831345Y-121510300D01*
X98163865Y-121288117D01*
X98402315Y-120931252D01*
X98424775Y-120818334D01*
X109284253Y-120818334D01*
X109413385Y-121130857D01*
X109652285Y-121370174D01*
X109964583Y-121499852D01*
X110302734Y-121500147D01*
X110615257Y-121371015D01*
X110854574Y-121132115D01*
X110984252Y-120819817D01*
X110984430Y-120615577D01*
X111123257Y-120558215D01*
X111362574Y-120319315D01*
X111492252Y-120007017D01*
X111492547Y-119668866D01*
X111363415Y-119356343D01*
X111124515Y-119117026D01*
X110812217Y-118987348D01*
X110474066Y-118987053D01*
X110161543Y-119116185D01*
X109922226Y-119355085D01*
X109792548Y-119667383D01*
X109792370Y-119871623D01*
X109653543Y-119928985D01*
X109414226Y-120167885D01*
X109284548Y-120480183D01*
X109284253Y-120818334D01*
X98424775Y-120818334D01*
X98486048Y-120510300D01*
X98402315Y-120089348D01*
X98163865Y-119732483D01*
X97831345Y-119510300D01*
X98163865Y-119288117D01*
X98402315Y-118931252D01*
X98486048Y-118510300D01*
X98402315Y-118089348D01*
X98163865Y-117732483D01*
X97831345Y-117510300D01*
X98163865Y-117288117D01*
X98402315Y-116931252D01*
X98472873Y-116576534D01*
X102197653Y-116576534D01*
X102326785Y-116889057D01*
X102565685Y-117128374D01*
X102877983Y-117258052D01*
X103216134Y-117258347D01*
X103449259Y-117162022D01*
X103442548Y-117178183D01*
X103442253Y-117516334D01*
X103571385Y-117828857D01*
X103810285Y-118068174D01*
X104122583Y-118197852D01*
X104460734Y-118198147D01*
X104773257Y-118069015D01*
X105012574Y-117830115D01*
X105142252Y-117517817D01*
X105142308Y-117452834D01*
X105893353Y-117452834D01*
X106022485Y-117765357D01*
X106261385Y-118004674D01*
X106573683Y-118134352D01*
X106911834Y-118134647D01*
X106932921Y-118125934D01*
X120917453Y-118125934D01*
X121046585Y-118438457D01*
X121098874Y-118490838D01*
X121098226Y-118491485D01*
X120968548Y-118803783D01*
X120968253Y-119141934D01*
X121097385Y-119454457D01*
X121336285Y-119693774D01*
X121648583Y-119823452D01*
X121730279Y-119823523D01*
X121730253Y-119853134D01*
X121859385Y-120165657D01*
X122098285Y-120404974D01*
X122410583Y-120534652D01*
X122748734Y-120534947D01*
X123061257Y-120405815D01*
X123300574Y-120166915D01*
X123346491Y-120056334D01*
X125692653Y-120056334D01*
X125821785Y-120368857D01*
X126060685Y-120608174D01*
X126372983Y-120737852D01*
X126711134Y-120738147D01*
X127023657Y-120609015D01*
X127262974Y-120370115D01*
X127392652Y-120057817D01*
X127392947Y-119719666D01*
X127263815Y-119407143D01*
X127024915Y-119167826D01*
X126712617Y-119038148D01*
X126374466Y-119037853D01*
X126061943Y-119166985D01*
X125822626Y-119405885D01*
X125692948Y-119718183D01*
X125692653Y-120056334D01*
X123346491Y-120056334D01*
X123430252Y-119854617D01*
X123430547Y-119516466D01*
X123301415Y-119203943D01*
X123062515Y-118964626D01*
X122750217Y-118834948D01*
X122668521Y-118834877D01*
X122668547Y-118805266D01*
X122539415Y-118492743D01*
X122487126Y-118440362D01*
X122487774Y-118439715D01*
X122617452Y-118127417D01*
X122617549Y-118015991D01*
X122858057Y-117916615D01*
X123004593Y-117770334D01*
X124498853Y-117770334D01*
X124627985Y-118082857D01*
X124866885Y-118322174D01*
X125179183Y-118451852D01*
X125517334Y-118452147D01*
X125829857Y-118323015D01*
X126069174Y-118084115D01*
X126198852Y-117771817D01*
X126199147Y-117433666D01*
X126169370Y-117361600D01*
X137933984Y-117361600D01*
X137933984Y-119061600D01*
X137965362Y-119228360D01*
X138063917Y-119381519D01*
X138214295Y-119484268D01*
X138392800Y-119520416D01*
X140092800Y-119520416D01*
X140259560Y-119489038D01*
X140412719Y-119390483D01*
X140515468Y-119240105D01*
X140551616Y-119061600D01*
X140551616Y-117361600D01*
X140520238Y-117194840D01*
X140421683Y-117041681D01*
X140271305Y-116938932D01*
X140092800Y-116902784D01*
X139467802Y-116902784D01*
X139467802Y-116839502D01*
X139665329Y-116901039D01*
X140103652Y-116645759D01*
X140410918Y-116242172D01*
X140472220Y-116094126D01*
X140408789Y-115896600D01*
X139467800Y-115896600D01*
X139467800Y-115916600D01*
X139017800Y-115916600D01*
X139017800Y-115896600D01*
X138076811Y-115896600D01*
X138013380Y-116094126D01*
X138074682Y-116242172D01*
X138381948Y-116645759D01*
X138820271Y-116901039D01*
X139017798Y-116839502D01*
X139017798Y-116902784D01*
X138392800Y-116902784D01*
X138226040Y-116934162D01*
X138072881Y-117032717D01*
X137970132Y-117183095D01*
X137933984Y-117361600D01*
X126169370Y-117361600D01*
X126070015Y-117121143D01*
X125831115Y-116881826D01*
X125518817Y-116752148D01*
X125180666Y-116751853D01*
X124868143Y-116880985D01*
X124628826Y-117119885D01*
X124499148Y-117432183D01*
X124498853Y-117770334D01*
X123004593Y-117770334D01*
X123097374Y-117677715D01*
X123227052Y-117365417D01*
X123227347Y-117027266D01*
X123098215Y-116714743D01*
X122859315Y-116475426D01*
X122547017Y-116345748D01*
X122208866Y-116345453D01*
X121896343Y-116474585D01*
X121657026Y-116713485D01*
X121527348Y-117025783D01*
X121527251Y-117137209D01*
X121286743Y-117236585D01*
X121047426Y-117475485D01*
X120917748Y-117787783D01*
X120917453Y-118125934D01*
X106932921Y-118125934D01*
X107224357Y-118005515D01*
X107463674Y-117766615D01*
X107593352Y-117454317D01*
X107593647Y-117116166D01*
X107464515Y-116803643D01*
X107225615Y-116564326D01*
X106913317Y-116434648D01*
X106575166Y-116434353D01*
X106262643Y-116563485D01*
X106023326Y-116802385D01*
X105893648Y-117114683D01*
X105893353Y-117452834D01*
X105142308Y-117452834D01*
X105142547Y-117179666D01*
X105013415Y-116867143D01*
X104774515Y-116627826D01*
X104462217Y-116498148D01*
X104124066Y-116497853D01*
X103890941Y-116594178D01*
X103897652Y-116578017D01*
X103897947Y-116239866D01*
X103768815Y-115927343D01*
X103529915Y-115688026D01*
X103217617Y-115558348D01*
X102879466Y-115558053D01*
X102566943Y-115687185D01*
X102327626Y-115926085D01*
X102197948Y-116238383D01*
X102197653Y-116576534D01*
X98472873Y-116576534D01*
X98486048Y-116510300D01*
X98402315Y-116089348D01*
X98163865Y-115732483D01*
X97807000Y-115494033D01*
X97386048Y-115410300D01*
X96833152Y-115410300D01*
X96412200Y-115494033D01*
X96055335Y-115732483D01*
X95959600Y-115875760D01*
X95959600Y-115770789D01*
X95891091Y-115605395D01*
X95764504Y-115478808D01*
X95599110Y-115410300D01*
X94947100Y-115410300D01*
X94834600Y-115522800D01*
X94384600Y-115522800D01*
X94272100Y-115410300D01*
X93620090Y-115410300D01*
X93454696Y-115478808D01*
X93328109Y-115605395D01*
X93259600Y-115770789D01*
X92669500Y-115770789D01*
X92669500Y-114976334D01*
X109335053Y-114976334D01*
X109464185Y-115288857D01*
X109703085Y-115528174D01*
X109803674Y-115569942D01*
X109704343Y-115610985D01*
X109465026Y-115849885D01*
X109335348Y-116162183D01*
X109335053Y-116500334D01*
X109464185Y-116812857D01*
X109703085Y-117052174D01*
X110015383Y-117181852D01*
X110353534Y-117182147D01*
X110666057Y-117053015D01*
X110905374Y-116814115D01*
X111035052Y-116501817D01*
X111035347Y-116163666D01*
X110906215Y-115851143D01*
X110667315Y-115611826D01*
X110566726Y-115570058D01*
X110666057Y-115529015D01*
X110905374Y-115290115D01*
X110922415Y-115249074D01*
X138013380Y-115249074D01*
X138076811Y-115446600D01*
X139017800Y-115446600D01*
X139017800Y-114503699D01*
X139467800Y-114503699D01*
X139467800Y-115446600D01*
X140408789Y-115446600D01*
X140472220Y-115249074D01*
X140410918Y-115101028D01*
X140103652Y-114697441D01*
X139665329Y-114442161D01*
X139467800Y-114503699D01*
X139017800Y-114503699D01*
X138820271Y-114442161D01*
X138381948Y-114697441D01*
X138074682Y-115101028D01*
X138013380Y-115249074D01*
X110922415Y-115249074D01*
X111035052Y-114977817D01*
X111035347Y-114639666D01*
X110906215Y-114327143D01*
X110667315Y-114087826D01*
X110360282Y-113960334D01*
X124943353Y-113960334D01*
X125072485Y-114272857D01*
X125311385Y-114512174D01*
X125623683Y-114641852D01*
X125961834Y-114642147D01*
X126274357Y-114513015D01*
X126513674Y-114274115D01*
X126617600Y-114023834D01*
X129896353Y-114023834D01*
X130025485Y-114336357D01*
X130264385Y-114575674D01*
X130576683Y-114705352D01*
X130914834Y-114705647D01*
X131227357Y-114576515D01*
X131466674Y-114337615D01*
X131596352Y-114025317D01*
X131596647Y-113687166D01*
X131467515Y-113374643D01*
X131228615Y-113135326D01*
X130916317Y-113005648D01*
X130578166Y-113005353D01*
X130265643Y-113134485D01*
X130026326Y-113373385D01*
X129896648Y-113685683D01*
X129896353Y-114023834D01*
X126617600Y-114023834D01*
X126643352Y-113961817D01*
X126643647Y-113623666D01*
X126514515Y-113311143D01*
X126275615Y-113071826D01*
X125963317Y-112942148D01*
X125625166Y-112941853D01*
X125312643Y-113070985D01*
X125073326Y-113309885D01*
X124943648Y-113622183D01*
X124943353Y-113960334D01*
X110360282Y-113960334D01*
X110355017Y-113958148D01*
X110016866Y-113957853D01*
X109704343Y-114086985D01*
X109465026Y-114325885D01*
X109335348Y-114638183D01*
X109335053Y-114976334D01*
X92669500Y-114976334D01*
X92669500Y-110912334D01*
X94044253Y-110912334D01*
X94173385Y-111224857D01*
X94403474Y-111455348D01*
X94225026Y-111633485D01*
X94095348Y-111945783D01*
X94095053Y-112283934D01*
X94224185Y-112596457D01*
X94352719Y-112725215D01*
X94225026Y-112852685D01*
X94095348Y-113164983D01*
X94095053Y-113503134D01*
X94224185Y-113815657D01*
X94463085Y-114054974D01*
X94775383Y-114184652D01*
X95113534Y-114184947D01*
X95426057Y-114055815D01*
X95631148Y-113851082D01*
X95834685Y-114054974D01*
X96146983Y-114184652D01*
X96485134Y-114184947D01*
X96797657Y-114055815D01*
X96977304Y-113876482D01*
X97155485Y-114054974D01*
X97467783Y-114184652D01*
X97805934Y-114184947D01*
X98118457Y-114055815D01*
X98357774Y-113816915D01*
X98487452Y-113504617D01*
X98487747Y-113166466D01*
X98358615Y-112853943D01*
X98179326Y-112674341D01*
X98306974Y-112546915D01*
X98436652Y-112234617D01*
X98436947Y-111896466D01*
X98307815Y-111583943D01*
X98207881Y-111483834D01*
X105893353Y-111483834D01*
X106022485Y-111796357D01*
X106261385Y-112035674D01*
X106573683Y-112165352D01*
X106911834Y-112165647D01*
X107224357Y-112036515D01*
X107463674Y-111797615D01*
X107593352Y-111485317D01*
X107593647Y-111147166D01*
X107464515Y-110834643D01*
X107225615Y-110595326D01*
X106913317Y-110465648D01*
X106575166Y-110465353D01*
X106262643Y-110594485D01*
X106023326Y-110833385D01*
X105893648Y-111145683D01*
X105893353Y-111483834D01*
X98207881Y-111483834D01*
X98128482Y-111404296D01*
X98306974Y-111226115D01*
X98436652Y-110913817D01*
X98436947Y-110575666D01*
X98307815Y-110263143D01*
X98068915Y-110023826D01*
X98006561Y-109997934D01*
X109335053Y-109997934D01*
X109464185Y-110310457D01*
X109491119Y-110337438D01*
X109465026Y-110363485D01*
X109335348Y-110675783D01*
X109335053Y-111013934D01*
X109464185Y-111326457D01*
X109465719Y-111327993D01*
X109465026Y-111328685D01*
X109335348Y-111640983D01*
X109335053Y-111979134D01*
X109464185Y-112291657D01*
X109465719Y-112293193D01*
X109465026Y-112293885D01*
X109335348Y-112606183D01*
X109335053Y-112944334D01*
X109464185Y-113256857D01*
X109703085Y-113496174D01*
X110015383Y-113625852D01*
X110353534Y-113626147D01*
X110666057Y-113497015D01*
X110905374Y-113258115D01*
X111035052Y-112945817D01*
X111035347Y-112607666D01*
X110906215Y-112295143D01*
X110904681Y-112293607D01*
X110905374Y-112292915D01*
X111035052Y-111980617D01*
X111035347Y-111642466D01*
X110906215Y-111329943D01*
X110904681Y-111328407D01*
X110905374Y-111327715D01*
X111035052Y-111015417D01*
X111035347Y-110677266D01*
X110906215Y-110364743D01*
X110879281Y-110337762D01*
X110905374Y-110311715D01*
X111035052Y-109999417D01*
X111035203Y-109826050D01*
X111132983Y-109866652D01*
X111471134Y-109866947D01*
X111783657Y-109737815D01*
X112022974Y-109498915D01*
X112132173Y-109235934D01*
X112433853Y-109235934D01*
X112562985Y-109548457D01*
X112801885Y-109787774D01*
X113114183Y-109917452D01*
X113452334Y-109917747D01*
X113764857Y-109788615D01*
X114004174Y-109549715D01*
X114133852Y-109237417D01*
X114134147Y-108899266D01*
X114005015Y-108586743D01*
X113766115Y-108347426D01*
X113453817Y-108217748D01*
X113115666Y-108217453D01*
X112803143Y-108346585D01*
X112563826Y-108585485D01*
X112434148Y-108897783D01*
X112433853Y-109235934D01*
X112132173Y-109235934D01*
X112152652Y-109186617D01*
X112152947Y-108848466D01*
X112023815Y-108535943D01*
X111784915Y-108296626D01*
X111472617Y-108166948D01*
X111134466Y-108166653D01*
X110821943Y-108295785D01*
X110582626Y-108534685D01*
X110452948Y-108846983D01*
X110452797Y-109020350D01*
X110355017Y-108979748D01*
X110016866Y-108979453D01*
X109704343Y-109108585D01*
X109465026Y-109347485D01*
X109335348Y-109659783D01*
X109335053Y-109997934D01*
X98006561Y-109997934D01*
X97756617Y-109894148D01*
X97418466Y-109893853D01*
X97105943Y-110022985D01*
X96926296Y-110202318D01*
X96748115Y-110023826D01*
X96435817Y-109894148D01*
X96097666Y-109893853D01*
X95785143Y-110022985D01*
X95580052Y-110227718D01*
X95376515Y-110023826D01*
X95064217Y-109894148D01*
X94726066Y-109893853D01*
X94413543Y-110022985D01*
X94174226Y-110261885D01*
X94044548Y-110574183D01*
X94044253Y-110912334D01*
X92669500Y-110912334D01*
X92669500Y-106848334D01*
X125070353Y-106848334D01*
X125199485Y-107160857D01*
X125438385Y-107400174D01*
X125750683Y-107529852D01*
X126088834Y-107530147D01*
X126401357Y-107401015D01*
X126640674Y-107162115D01*
X126718691Y-106974229D01*
X126837785Y-107262457D01*
X127076685Y-107501774D01*
X127388983Y-107631452D01*
X127727134Y-107631747D01*
X128039657Y-107502615D01*
X128278974Y-107263715D01*
X128408652Y-106951417D01*
X128408947Y-106613266D01*
X128279815Y-106300743D01*
X128151370Y-106172074D01*
X128177374Y-106146115D01*
X128307052Y-105833817D01*
X128307347Y-105495666D01*
X128178215Y-105183143D01*
X127939315Y-104943826D01*
X127627017Y-104814148D01*
X127288866Y-104813853D01*
X126976343Y-104942985D01*
X126737026Y-105181885D01*
X126607348Y-105494183D01*
X126607053Y-105832334D01*
X126736185Y-106144857D01*
X126864630Y-106273526D01*
X126838626Y-106299485D01*
X126760609Y-106487371D01*
X126641515Y-106199143D01*
X126402615Y-105959826D01*
X126090317Y-105830148D01*
X125752166Y-105829853D01*
X125439643Y-105958985D01*
X125200326Y-106197885D01*
X125070648Y-106510183D01*
X125070353Y-106848334D01*
X92669500Y-106848334D01*
X92669500Y-105895834D01*
X106845853Y-105895834D01*
X106974985Y-106208357D01*
X107213885Y-106447674D01*
X107526183Y-106577352D01*
X107864334Y-106577647D01*
X108176857Y-106448515D01*
X108416174Y-106209615D01*
X108545852Y-105897317D01*
X108545964Y-105768834D01*
X113449853Y-105768834D01*
X113578985Y-106081357D01*
X113817885Y-106320674D01*
X114130183Y-106450352D01*
X114468334Y-106450647D01*
X114780857Y-106321515D01*
X115020174Y-106082615D01*
X115149852Y-105770317D01*
X115149853Y-105768834D01*
X117386853Y-105768834D01*
X117515985Y-106081357D01*
X117754885Y-106320674D01*
X118067183Y-106450352D01*
X118405334Y-106450647D01*
X118717857Y-106321515D01*
X118957174Y-106082615D01*
X119086852Y-105770317D01*
X119086908Y-105705334D01*
X119418853Y-105705334D01*
X119547985Y-106017857D01*
X119786885Y-106257174D01*
X120099183Y-106386852D01*
X120437334Y-106387147D01*
X120749857Y-106258015D01*
X120989174Y-106019115D01*
X121118852Y-105706817D01*
X121119147Y-105368666D01*
X120990015Y-105056143D01*
X120751115Y-104816826D01*
X120438817Y-104687148D01*
X120100666Y-104686853D01*
X119788143Y-104815985D01*
X119548826Y-105054885D01*
X119419148Y-105367183D01*
X119418853Y-105705334D01*
X119086908Y-105705334D01*
X119087147Y-105432166D01*
X118958015Y-105119643D01*
X118719115Y-104880326D01*
X118406817Y-104750648D01*
X118068666Y-104750353D01*
X117756143Y-104879485D01*
X117516826Y-105118385D01*
X117387148Y-105430683D01*
X117386853Y-105768834D01*
X115149853Y-105768834D01*
X115150147Y-105432166D01*
X115021015Y-105119643D01*
X114782115Y-104880326D01*
X114469817Y-104750648D01*
X114131666Y-104750353D01*
X113819143Y-104879485D01*
X113579826Y-105118385D01*
X113450148Y-105430683D01*
X113449853Y-105768834D01*
X108545964Y-105768834D01*
X108546147Y-105559166D01*
X108417015Y-105246643D01*
X108178115Y-105007326D01*
X107865817Y-104877648D01*
X107527666Y-104877353D01*
X107215143Y-105006485D01*
X106975826Y-105245385D01*
X106846148Y-105557683D01*
X106845853Y-105895834D01*
X92669500Y-105895834D01*
X92669500Y-105019534D01*
X94044253Y-105019534D01*
X94173385Y-105332057D01*
X94412285Y-105571374D01*
X94724583Y-105701052D01*
X95062734Y-105701347D01*
X95375257Y-105572215D01*
X95554948Y-105392837D01*
X95783885Y-105622174D01*
X96096183Y-105751852D01*
X96434334Y-105752147D01*
X96746857Y-105623015D01*
X96926504Y-105443682D01*
X97104685Y-105622174D01*
X97416983Y-105751852D01*
X97755134Y-105752147D01*
X98067657Y-105623015D01*
X98306974Y-105384115D01*
X98436652Y-105071817D01*
X98436947Y-104733666D01*
X98307815Y-104421143D01*
X98068915Y-104181826D01*
X97756617Y-104052148D01*
X97418466Y-104051853D01*
X97105943Y-104180985D01*
X96926296Y-104360318D01*
X96748115Y-104181826D01*
X96435817Y-104052148D01*
X96097666Y-104051853D01*
X95785143Y-104180985D01*
X95605452Y-104360363D01*
X95376515Y-104131026D01*
X95064217Y-104001348D01*
X94726066Y-104001053D01*
X94413543Y-104130185D01*
X94174226Y-104369085D01*
X94044548Y-104681383D01*
X94044253Y-105019534D01*
X92669500Y-105019534D01*
X92669500Y-103698734D01*
X121679453Y-103698734D01*
X121808585Y-104011257D01*
X122047485Y-104250574D01*
X122359783Y-104380252D01*
X122697934Y-104380547D01*
X123010457Y-104251415D01*
X123249774Y-104012515D01*
X123379452Y-103700217D01*
X123379586Y-103546334D01*
X123609853Y-103546334D01*
X123738985Y-103858857D01*
X123977885Y-104098174D01*
X124290183Y-104227852D01*
X124628334Y-104228147D01*
X124940857Y-104099015D01*
X125180174Y-103860115D01*
X125309852Y-103547817D01*
X125309986Y-103393934D01*
X127419853Y-103393934D01*
X127548985Y-103706457D01*
X127787885Y-103945774D01*
X128100183Y-104075452D01*
X128438334Y-104075747D01*
X128750857Y-103946615D01*
X128990174Y-103707715D01*
X129092702Y-103460800D01*
X135854352Y-103460800D01*
X135938085Y-103881752D01*
X136176535Y-104238617D01*
X136509055Y-104460800D01*
X136176535Y-104682983D01*
X135938085Y-105039848D01*
X135854352Y-105460800D01*
X135938085Y-105881752D01*
X136176535Y-106238617D01*
X136509055Y-106460800D01*
X136176535Y-106682983D01*
X135938085Y-107039848D01*
X135854352Y-107460800D01*
X135938085Y-107881752D01*
X136176535Y-108238617D01*
X136509055Y-108460800D01*
X136176535Y-108682983D01*
X135938085Y-109039848D01*
X135854352Y-109460800D01*
X135938085Y-109881752D01*
X136176535Y-110238617D01*
X136533400Y-110477067D01*
X136954352Y-110560800D01*
X137507248Y-110560800D01*
X137928200Y-110477067D01*
X138285065Y-110238617D01*
X138493453Y-109926743D01*
X138603511Y-110129089D01*
X138926034Y-110413942D01*
X139333015Y-110553688D01*
X139505800Y-110450851D01*
X139505800Y-109685800D01*
X139955800Y-109685800D01*
X139955800Y-110450851D01*
X140128585Y-110553688D01*
X140535566Y-110413942D01*
X140858089Y-110129089D01*
X141009089Y-109851470D01*
X140942325Y-109685800D01*
X139955800Y-109685800D01*
X139505800Y-109685800D01*
X139485800Y-109685800D01*
X139485800Y-109235800D01*
X139505800Y-109235800D01*
X139505800Y-109215800D01*
X139955800Y-109215800D01*
X139955800Y-109235800D01*
X140942325Y-109235800D01*
X141009089Y-109070130D01*
X140858089Y-108792511D01*
X140535566Y-108507658D01*
X140434404Y-108472922D01*
X140785065Y-108238617D01*
X141023515Y-107881752D01*
X141107248Y-107460800D01*
X141023515Y-107039848D01*
X140785065Y-106682983D01*
X140452545Y-106460800D01*
X140785065Y-106238617D01*
X141023515Y-105881752D01*
X141107248Y-105460800D01*
X141023515Y-105039848D01*
X140785065Y-104682983D01*
X140452545Y-104460800D01*
X140785065Y-104238617D01*
X141023515Y-103881752D01*
X141107248Y-103460800D01*
X141023515Y-103039848D01*
X140785065Y-102682983D01*
X140452545Y-102460800D01*
X140785065Y-102238617D01*
X141023515Y-101881752D01*
X141107248Y-101460800D01*
X141023515Y-101039848D01*
X140785065Y-100682983D01*
X140428200Y-100444533D01*
X140007248Y-100360800D01*
X139454352Y-100360800D01*
X139033400Y-100444533D01*
X138676535Y-100682983D01*
X138589616Y-100813066D01*
X138589616Y-100810800D01*
X138558238Y-100644040D01*
X138459683Y-100490881D01*
X138309305Y-100388132D01*
X138130800Y-100351984D01*
X136330800Y-100351984D01*
X136164040Y-100383362D01*
X136010881Y-100481917D01*
X135908132Y-100632295D01*
X135871984Y-100810800D01*
X135871984Y-102110800D01*
X135903362Y-102277560D01*
X136001917Y-102430719D01*
X136152295Y-102533468D01*
X136330800Y-102569616D01*
X136346200Y-102569616D01*
X136176535Y-102682983D01*
X135938085Y-103039848D01*
X135854352Y-103460800D01*
X129092702Y-103460800D01*
X129119852Y-103395417D01*
X129120147Y-103057266D01*
X128991015Y-102744743D01*
X128752115Y-102505426D01*
X128439817Y-102375748D01*
X128101666Y-102375453D01*
X127789143Y-102504585D01*
X127549826Y-102743485D01*
X127420148Y-103055783D01*
X127419853Y-103393934D01*
X125309986Y-103393934D01*
X125310147Y-103209666D01*
X125181015Y-102897143D01*
X124942115Y-102657826D01*
X124629817Y-102528148D01*
X124291666Y-102527853D01*
X123979143Y-102656985D01*
X123739826Y-102895885D01*
X123610148Y-103208183D01*
X123609853Y-103546334D01*
X123379586Y-103546334D01*
X123379747Y-103362066D01*
X123250615Y-103049543D01*
X123011715Y-102810226D01*
X122699417Y-102680548D01*
X122361266Y-102680253D01*
X122048743Y-102809385D01*
X121809426Y-103048285D01*
X121679748Y-103360583D01*
X121679453Y-103698734D01*
X92669500Y-103698734D01*
X92669500Y-99229667D01*
X96724706Y-99229667D01*
X96982970Y-99854715D01*
X97460770Y-100333350D01*
X98085366Y-100592704D01*
X98761667Y-100593294D01*
X99360325Y-100345934D01*
X126505453Y-100345934D01*
X126634585Y-100658457D01*
X126873485Y-100897774D01*
X127185783Y-101027452D01*
X127523934Y-101027747D01*
X127836457Y-100898615D01*
X128075774Y-100659715D01*
X128205452Y-100347417D01*
X128205747Y-100009266D01*
X128076615Y-99696743D01*
X127837715Y-99457426D01*
X127525417Y-99327748D01*
X127187266Y-99327453D01*
X126874743Y-99456585D01*
X126635426Y-99695485D01*
X126505748Y-100007783D01*
X126505453Y-100345934D01*
X99360325Y-100345934D01*
X99386715Y-100335030D01*
X99865350Y-99857230D01*
X100124704Y-99232634D01*
X100125294Y-98556333D01*
X99867030Y-97931285D01*
X99389230Y-97452650D01*
X98764634Y-97193296D01*
X98088333Y-97192706D01*
X97463285Y-97450970D01*
X96984650Y-97928770D01*
X96725296Y-98553366D01*
X96724706Y-99229667D01*
X92669500Y-99229667D01*
X92669500Y-95187085D01*
X97449113Y-95187085D01*
X97596838Y-95415660D01*
X98242574Y-95616678D01*
X98916084Y-95555283D01*
X99253162Y-95415660D01*
X99400887Y-95187085D01*
X98425000Y-94211198D01*
X97449113Y-95187085D01*
X92669500Y-95187085D01*
X92669500Y-93710574D01*
X96701322Y-93710574D01*
X96762717Y-94384084D01*
X96902340Y-94721162D01*
X97130915Y-94868887D01*
X98106802Y-93893000D01*
X98743198Y-93893000D01*
X99719085Y-94868887D01*
X99947660Y-94721162D01*
X100148678Y-94075426D01*
X100087283Y-93401916D01*
X99947660Y-93064838D01*
X99719085Y-92917113D01*
X98743198Y-93893000D01*
X98106802Y-93893000D01*
X97130915Y-92917113D01*
X96902340Y-93064838D01*
X96701322Y-93710574D01*
X92669500Y-93710574D01*
X92669500Y-92598915D01*
X97449113Y-92598915D01*
X98425000Y-93574802D01*
X99400887Y-92598915D01*
X99351653Y-92522734D01*
X110300253Y-92522734D01*
X110429385Y-92835257D01*
X110668285Y-93074574D01*
X110980583Y-93204252D01*
X111318734Y-93204547D01*
X111631257Y-93075415D01*
X111734571Y-92972281D01*
X111836685Y-93074574D01*
X112148983Y-93204252D01*
X112487134Y-93204547D01*
X112799657Y-93075415D01*
X112928415Y-92946881D01*
X112996318Y-93014904D01*
X112817826Y-93193085D01*
X112688148Y-93505383D01*
X112687853Y-93843534D01*
X112816985Y-94156057D01*
X112970919Y-94310259D01*
X112817826Y-94463085D01*
X112688148Y-94775383D01*
X112687853Y-95113534D01*
X112816985Y-95426057D01*
X112996318Y-95605704D01*
X112817826Y-95783885D01*
X112688148Y-96096183D01*
X112687853Y-96434334D01*
X112816985Y-96746857D01*
X112996318Y-96926504D01*
X112817826Y-97104685D01*
X112688148Y-97416983D01*
X112687853Y-97755134D01*
X112816985Y-98067657D01*
X113055885Y-98306974D01*
X113368183Y-98436652D01*
X113706334Y-98436947D01*
X114018857Y-98307815D01*
X114099957Y-98226856D01*
X127498755Y-98226856D01*
X127757164Y-98852252D01*
X128235231Y-99331155D01*
X128860176Y-99590655D01*
X129536856Y-99591245D01*
X130162252Y-99332836D01*
X130641155Y-98854769D01*
X130900655Y-98229824D01*
X130901245Y-97553144D01*
X130642836Y-96927748D01*
X130164769Y-96448845D01*
X129539824Y-96189345D01*
X128863144Y-96188755D01*
X128237748Y-96447164D01*
X127758845Y-96925231D01*
X127499345Y-97550176D01*
X127498755Y-98226856D01*
X114099957Y-98226856D01*
X114258174Y-98068915D01*
X114387852Y-97756617D01*
X114388147Y-97418466D01*
X114259015Y-97105943D01*
X114079682Y-96926296D01*
X114258174Y-96748115D01*
X114387852Y-96435817D01*
X114388147Y-96097666D01*
X114259015Y-95785143D01*
X114079682Y-95605496D01*
X114258174Y-95427315D01*
X114387852Y-95115017D01*
X114387936Y-95018185D01*
X116649312Y-95018185D01*
X116789058Y-95425166D01*
X117073911Y-95747689D01*
X117351530Y-95898689D01*
X117517200Y-95831925D01*
X117517200Y-94845400D01*
X116752149Y-94845400D01*
X116649312Y-95018185D01*
X114387936Y-95018185D01*
X114388147Y-94776866D01*
X114259015Y-94464343D01*
X114105081Y-94310141D01*
X114258174Y-94157315D01*
X114387852Y-93845017D01*
X114388147Y-93506866D01*
X114259015Y-93194343D01*
X114079682Y-93014696D01*
X114258174Y-92836515D01*
X114387852Y-92524217D01*
X114387857Y-92518185D01*
X116649312Y-92518185D01*
X116789058Y-92925166D01*
X117073911Y-93247689D01*
X117299520Y-93370400D01*
X117073911Y-93493111D01*
X116789058Y-93815634D01*
X116649312Y-94222615D01*
X116752149Y-94395400D01*
X117517200Y-94395400D01*
X117517200Y-93408875D01*
X117421727Y-93370400D01*
X117517200Y-93331925D01*
X117517200Y-92345400D01*
X117967200Y-92345400D01*
X117967200Y-93331925D01*
X118062673Y-93370400D01*
X117967200Y-93408875D01*
X117967200Y-94395400D01*
X117987200Y-94395400D01*
X117987200Y-94845400D01*
X117967200Y-94845400D01*
X117967200Y-95831925D01*
X118132870Y-95898689D01*
X118410489Y-95747689D01*
X118695342Y-95425166D01*
X118730078Y-95324004D01*
X118964383Y-95674665D01*
X119321248Y-95913115D01*
X119742200Y-95996848D01*
X120163152Y-95913115D01*
X120520017Y-95674665D01*
X120742200Y-95342145D01*
X120964383Y-95674665D01*
X121321248Y-95913115D01*
X121742200Y-95996848D01*
X122163152Y-95913115D01*
X122520017Y-95674665D01*
X122742200Y-95342145D01*
X122964383Y-95674665D01*
X123321248Y-95913115D01*
X123742200Y-95996848D01*
X124163152Y-95913115D01*
X124520017Y-95674665D01*
X124742200Y-95342145D01*
X124964383Y-95674665D01*
X125321248Y-95913115D01*
X125742200Y-95996848D01*
X126163152Y-95913115D01*
X126520017Y-95674665D01*
X126758467Y-95317800D01*
X126820590Y-95005485D01*
X128993712Y-95005485D01*
X129133458Y-95412466D01*
X129418311Y-95734989D01*
X129695930Y-95885989D01*
X129861600Y-95819225D01*
X129861600Y-94832700D01*
X129096549Y-94832700D01*
X128993712Y-95005485D01*
X126820590Y-95005485D01*
X126842200Y-94896848D01*
X126842200Y-94343952D01*
X126758467Y-93923000D01*
X126520017Y-93566135D01*
X126376740Y-93470400D01*
X126481711Y-93470400D01*
X126647105Y-93401891D01*
X126773692Y-93275304D01*
X126842200Y-93109910D01*
X126842200Y-92505485D01*
X128993712Y-92505485D01*
X129133458Y-92912466D01*
X129418311Y-93234989D01*
X129643920Y-93357700D01*
X129418311Y-93480411D01*
X129133458Y-93802934D01*
X128993712Y-94209915D01*
X129096549Y-94382700D01*
X129861600Y-94382700D01*
X129861600Y-93396175D01*
X129766127Y-93357700D01*
X129861600Y-93319225D01*
X129861600Y-92332700D01*
X130311600Y-92332700D01*
X130311600Y-93319225D01*
X130407073Y-93357700D01*
X130311600Y-93396175D01*
X130311600Y-94382700D01*
X130331600Y-94382700D01*
X130331600Y-94832700D01*
X130311600Y-94832700D01*
X130311600Y-95819225D01*
X130477270Y-95885989D01*
X130754889Y-95734989D01*
X131039742Y-95412466D01*
X131074478Y-95311304D01*
X131308783Y-95661965D01*
X131665648Y-95900415D01*
X132086600Y-95984148D01*
X132507552Y-95900415D01*
X132864417Y-95661965D01*
X133086600Y-95329445D01*
X133308783Y-95661965D01*
X133665648Y-95900415D01*
X134086600Y-95984148D01*
X134507552Y-95900415D01*
X134864417Y-95661965D01*
X135086600Y-95329445D01*
X135308783Y-95661965D01*
X135665648Y-95900415D01*
X136086600Y-95984148D01*
X136507552Y-95900415D01*
X136864417Y-95661965D01*
X137086600Y-95329445D01*
X137308783Y-95661965D01*
X137665648Y-95900415D01*
X138086600Y-95984148D01*
X138507552Y-95900415D01*
X138864417Y-95661965D01*
X139102867Y-95305100D01*
X139186600Y-94884148D01*
X139186600Y-94331252D01*
X139102867Y-93910300D01*
X138864417Y-93553435D01*
X138721140Y-93457700D01*
X138826111Y-93457700D01*
X138991505Y-93389191D01*
X139118092Y-93262604D01*
X139186600Y-93097210D01*
X139186600Y-92445200D01*
X139074100Y-92332700D01*
X138311600Y-92332700D01*
X138311600Y-92352700D01*
X137861600Y-92352700D01*
X137861600Y-92332700D01*
X137099100Y-92332700D01*
X137085027Y-92346773D01*
X137076651Y-92332700D01*
X136311600Y-92332700D01*
X136311600Y-92352700D01*
X135861600Y-92352700D01*
X135861600Y-92332700D01*
X135096549Y-92332700D01*
X135086600Y-92349416D01*
X135076651Y-92332700D01*
X134311600Y-92332700D01*
X134311600Y-92352700D01*
X133861600Y-92352700D01*
X133861600Y-92332700D01*
X133096549Y-92332700D01*
X133086600Y-92349416D01*
X133076651Y-92332700D01*
X132311600Y-92332700D01*
X132311600Y-92352700D01*
X131861600Y-92352700D01*
X131861600Y-92332700D01*
X131096549Y-92332700D01*
X131086600Y-92349416D01*
X131076651Y-92332700D01*
X130311600Y-92332700D01*
X129861600Y-92332700D01*
X129096549Y-92332700D01*
X128993712Y-92505485D01*
X126842200Y-92505485D01*
X126842200Y-92457900D01*
X126729700Y-92345400D01*
X125967200Y-92345400D01*
X125967200Y-92365400D01*
X125517200Y-92365400D01*
X125517200Y-92345400D01*
X124754700Y-92345400D01*
X124740627Y-92359473D01*
X124732251Y-92345400D01*
X123967200Y-92345400D01*
X123967200Y-92365400D01*
X123517200Y-92365400D01*
X123517200Y-92345400D01*
X122752149Y-92345400D01*
X122742200Y-92362116D01*
X122732251Y-92345400D01*
X121967200Y-92345400D01*
X121967200Y-92365400D01*
X121517200Y-92365400D01*
X121517200Y-92345400D01*
X120752149Y-92345400D01*
X120742200Y-92362116D01*
X120732251Y-92345400D01*
X119967200Y-92345400D01*
X119967200Y-92365400D01*
X119517200Y-92365400D01*
X119517200Y-92345400D01*
X118752149Y-92345400D01*
X118742200Y-92362116D01*
X118732251Y-92345400D01*
X117967200Y-92345400D01*
X117517200Y-92345400D01*
X116752149Y-92345400D01*
X116649312Y-92518185D01*
X114387857Y-92518185D01*
X114388147Y-92186066D01*
X114259015Y-91873543D01*
X114108350Y-91722615D01*
X116649312Y-91722615D01*
X116752149Y-91895400D01*
X117517200Y-91895400D01*
X117517200Y-90908875D01*
X117967200Y-90908875D01*
X117967200Y-91895400D01*
X118732251Y-91895400D01*
X118742200Y-91878684D01*
X118752149Y-91895400D01*
X119517200Y-91895400D01*
X119517200Y-90908875D01*
X119967200Y-90908875D01*
X119967200Y-91895400D01*
X120732251Y-91895400D01*
X120742200Y-91878684D01*
X120752149Y-91895400D01*
X121517200Y-91895400D01*
X121517200Y-90908875D01*
X121967200Y-90908875D01*
X121967200Y-91895400D01*
X122732251Y-91895400D01*
X122742200Y-91878684D01*
X122752149Y-91895400D01*
X123517200Y-91895400D01*
X123517200Y-90908875D01*
X123967200Y-90908875D01*
X123967200Y-91895400D01*
X124732251Y-91895400D01*
X124740627Y-91881327D01*
X124754700Y-91895400D01*
X125517200Y-91895400D01*
X125517200Y-90882900D01*
X125967200Y-90882900D01*
X125967200Y-91895400D01*
X126729700Y-91895400D01*
X126842200Y-91782900D01*
X126842200Y-91709915D01*
X128993712Y-91709915D01*
X129096549Y-91882700D01*
X129861600Y-91882700D01*
X129861600Y-90896175D01*
X130311600Y-90896175D01*
X130311600Y-91882700D01*
X131076651Y-91882700D01*
X131086600Y-91865984D01*
X131096549Y-91882700D01*
X131861600Y-91882700D01*
X131861600Y-90896175D01*
X132311600Y-90896175D01*
X132311600Y-91882700D01*
X133076651Y-91882700D01*
X133086600Y-91865984D01*
X133096549Y-91882700D01*
X133861600Y-91882700D01*
X133861600Y-90896175D01*
X134311600Y-90896175D01*
X134311600Y-91882700D01*
X135076651Y-91882700D01*
X135086600Y-91865984D01*
X135096549Y-91882700D01*
X135861600Y-91882700D01*
X135861600Y-90896175D01*
X136311600Y-90896175D01*
X136311600Y-91882700D01*
X137076651Y-91882700D01*
X137085027Y-91868627D01*
X137099100Y-91882700D01*
X137861600Y-91882700D01*
X137861600Y-90870200D01*
X138311600Y-90870200D01*
X138311600Y-91882700D01*
X139074100Y-91882700D01*
X139186600Y-91770200D01*
X139186600Y-91118190D01*
X139118092Y-90952796D01*
X138991505Y-90826209D01*
X138826111Y-90757700D01*
X138424100Y-90757700D01*
X138311600Y-90870200D01*
X137861600Y-90870200D01*
X137749100Y-90757700D01*
X137347089Y-90757700D01*
X137181695Y-90826209D01*
X137055108Y-90952796D01*
X136986600Y-91118190D01*
X136986600Y-91242764D01*
X136754889Y-90980411D01*
X136477270Y-90829411D01*
X136311600Y-90896175D01*
X135861600Y-90896175D01*
X135695930Y-90829411D01*
X135418311Y-90980411D01*
X135133458Y-91302934D01*
X135086600Y-91439398D01*
X135039742Y-91302934D01*
X134754889Y-90980411D01*
X134477270Y-90829411D01*
X134311600Y-90896175D01*
X133861600Y-90896175D01*
X133695930Y-90829411D01*
X133418311Y-90980411D01*
X133133458Y-91302934D01*
X133086600Y-91439398D01*
X133039742Y-91302934D01*
X132754889Y-90980411D01*
X132477270Y-90829411D01*
X132311600Y-90896175D01*
X131861600Y-90896175D01*
X131695930Y-90829411D01*
X131418311Y-90980411D01*
X131133458Y-91302934D01*
X131086600Y-91439398D01*
X131039742Y-91302934D01*
X130754889Y-90980411D01*
X130477270Y-90829411D01*
X130311600Y-90896175D01*
X129861600Y-90896175D01*
X129695930Y-90829411D01*
X129418311Y-90980411D01*
X129133458Y-91302934D01*
X128993712Y-91709915D01*
X126842200Y-91709915D01*
X126842200Y-91130890D01*
X126773692Y-90965496D01*
X126647105Y-90838909D01*
X126481711Y-90770400D01*
X126079700Y-90770400D01*
X125967200Y-90882900D01*
X125517200Y-90882900D01*
X125404700Y-90770400D01*
X125002689Y-90770400D01*
X124837295Y-90838909D01*
X124710708Y-90965496D01*
X124642200Y-91130890D01*
X124642200Y-91255464D01*
X124410489Y-90993111D01*
X124132870Y-90842111D01*
X123967200Y-90908875D01*
X123517200Y-90908875D01*
X123351530Y-90842111D01*
X123073911Y-90993111D01*
X122789058Y-91315634D01*
X122742200Y-91452098D01*
X122695342Y-91315634D01*
X122410489Y-90993111D01*
X122132870Y-90842111D01*
X121967200Y-90908875D01*
X121517200Y-90908875D01*
X121351530Y-90842111D01*
X121073911Y-90993111D01*
X120789058Y-91315634D01*
X120742200Y-91452098D01*
X120695342Y-91315634D01*
X120410489Y-90993111D01*
X120132870Y-90842111D01*
X119967200Y-90908875D01*
X119517200Y-90908875D01*
X119351530Y-90842111D01*
X119073911Y-90993111D01*
X118789058Y-91315634D01*
X118742200Y-91452098D01*
X118695342Y-91315634D01*
X118410489Y-90993111D01*
X118132870Y-90842111D01*
X117967200Y-90908875D01*
X117517200Y-90908875D01*
X117351530Y-90842111D01*
X117073911Y-90993111D01*
X116789058Y-91315634D01*
X116649312Y-91722615D01*
X114108350Y-91722615D01*
X114020115Y-91634226D01*
X113707817Y-91504548D01*
X113369666Y-91504253D01*
X113057143Y-91633385D01*
X112928385Y-91761919D01*
X112800915Y-91634226D01*
X112488617Y-91504548D01*
X112150466Y-91504253D01*
X111837943Y-91633385D01*
X111734629Y-91736519D01*
X111632515Y-91634226D01*
X111320217Y-91504548D01*
X110982066Y-91504253D01*
X110669543Y-91633385D01*
X110430226Y-91872285D01*
X110300548Y-92184583D01*
X110300253Y-92522734D01*
X99351653Y-92522734D01*
X99253162Y-92370340D01*
X98607426Y-92169322D01*
X97933916Y-92230717D01*
X97596838Y-92370340D01*
X97449113Y-92598915D01*
X92669500Y-92598915D01*
X92669500Y-90701000D01*
X141328000Y-90701000D01*
X141328000Y-139359500D01*
X141328000Y-139359500D01*
G37*
X141328000Y-139359500D02*
X92669500Y-139359500D01*
X92669500Y-136140470D01*
X93369411Y-136140470D01*
X93520411Y-136418089D01*
X93842934Y-136702942D01*
X94249915Y-136842688D01*
X94422700Y-136739851D01*
X94422700Y-135974800D01*
X94872700Y-135974800D01*
X94872700Y-136739851D01*
X95045485Y-136842688D01*
X95452466Y-136702942D01*
X95774989Y-136418089D01*
X95897700Y-136192480D01*
X96020411Y-136418089D01*
X96342934Y-136702942D01*
X96749915Y-136842688D01*
X96922700Y-136739851D01*
X96922700Y-135974800D01*
X95936175Y-135974800D01*
X95897700Y-136070273D01*
X95859225Y-135974800D01*
X94872700Y-135974800D01*
X94422700Y-135974800D01*
X93436175Y-135974800D01*
X93369411Y-136140470D01*
X92669500Y-136140470D01*
X92669500Y-134140470D01*
X93369411Y-134140470D01*
X93520411Y-134418089D01*
X93842934Y-134702942D01*
X93979398Y-134749800D01*
X93842934Y-134796658D01*
X93520411Y-135081511D01*
X93369411Y-135359130D01*
X93436175Y-135524800D01*
X94422700Y-135524800D01*
X94422700Y-134759749D01*
X94405984Y-134749800D01*
X94422700Y-134739851D01*
X94422700Y-133974800D01*
X93436175Y-133974800D01*
X93369411Y-134140470D01*
X92669500Y-134140470D01*
X92669500Y-132140470D01*
X93369411Y-132140470D01*
X93520411Y-132418089D01*
X93842934Y-132702942D01*
X93979398Y-132749800D01*
X93842934Y-132796658D01*
X93520411Y-133081511D01*
X93369411Y-133359130D01*
X93436175Y-133524800D01*
X94422700Y-133524800D01*
X94422700Y-132759749D01*
X94405984Y-132749800D01*
X94422700Y-132739851D01*
X94422700Y-131974800D01*
X93436175Y-131974800D01*
X93369411Y-132140470D01*
X92669500Y-132140470D01*
X92669500Y-130140470D01*
X93369411Y-130140470D01*
X93520411Y-130418089D01*
X93842934Y-130702942D01*
X93979398Y-130749800D01*
X93842934Y-130796658D01*
X93520411Y-131081511D01*
X93369411Y-131359130D01*
X93436175Y-131524800D01*
X94422700Y-131524800D01*
X94422700Y-130759749D01*
X94405984Y-130749800D01*
X94422700Y-130739851D01*
X94422700Y-129974800D01*
X93436175Y-129974800D01*
X93369411Y-130140470D01*
X92669500Y-130140470D01*
X92669500Y-128087300D01*
X93297700Y-128087300D01*
X93297700Y-128489311D01*
X93366209Y-128654705D01*
X93492796Y-128781292D01*
X93658190Y-128849800D01*
X93782764Y-128849800D01*
X93520411Y-129081511D01*
X93369411Y-129359130D01*
X93436175Y-129524800D01*
X94422700Y-129524800D01*
X94422700Y-128759749D01*
X94408627Y-128751373D01*
X94422700Y-128737300D01*
X94422700Y-127974800D01*
X93410200Y-127974800D01*
X93297700Y-128087300D01*
X92669500Y-128087300D01*
X92669500Y-127010289D01*
X93297700Y-127010289D01*
X93297700Y-127412300D01*
X93410200Y-127524800D01*
X94422700Y-127524800D01*
X94422700Y-126762300D01*
X94872700Y-126762300D01*
X94872700Y-127524800D01*
X94892700Y-127524800D01*
X94892700Y-127974800D01*
X94872700Y-127974800D01*
X94872700Y-128737300D01*
X94886773Y-128751373D01*
X94872700Y-128759749D01*
X94872700Y-129524800D01*
X94892700Y-129524800D01*
X94892700Y-129974800D01*
X94872700Y-129974800D01*
X94872700Y-130739851D01*
X94889416Y-130749800D01*
X94872700Y-130759749D01*
X94872700Y-131524800D01*
X94892700Y-131524800D01*
X94892700Y-131974800D01*
X94872700Y-131974800D01*
X94872700Y-132739851D01*
X94889416Y-132749800D01*
X94872700Y-132759749D01*
X94872700Y-133524800D01*
X94892700Y-133524800D01*
X94892700Y-133974800D01*
X94872700Y-133974800D01*
X94872700Y-134739851D01*
X94889416Y-134749800D01*
X94872700Y-134759749D01*
X94872700Y-135524800D01*
X95859225Y-135524800D01*
X95897700Y-135429327D01*
X95936175Y-135524800D01*
X96922700Y-135524800D01*
X96922700Y-135504800D01*
X97372700Y-135504800D01*
X97372700Y-135524800D01*
X97392700Y-135524800D01*
X97392700Y-135974800D01*
X97372700Y-135974800D01*
X97372700Y-136739851D01*
X97545485Y-136842688D01*
X97952466Y-136702942D01*
X98169222Y-136511503D01*
X98168755Y-137046856D01*
X98427164Y-137672252D01*
X98905231Y-138151155D01*
X99530176Y-138410655D01*
X100206856Y-138411245D01*
X100832252Y-138152836D01*
X101311155Y-137674769D01*
X101570655Y-137049824D01*
X101570841Y-136836456D01*
X130327955Y-136836456D01*
X130586364Y-137461852D01*
X131064431Y-137940755D01*
X131689376Y-138200255D01*
X132366056Y-138200845D01*
X132991452Y-137942436D01*
X133470355Y-137464369D01*
X133729855Y-136839424D01*
X133730445Y-136162744D01*
X133472036Y-135537348D01*
X132993969Y-135058445D01*
X132369024Y-134798945D01*
X131692344Y-134798355D01*
X131066948Y-135056764D01*
X130588045Y-135534831D01*
X130328545Y-136159776D01*
X130327955Y-136836456D01*
X101570841Y-136836456D01*
X101571245Y-136373144D01*
X101312836Y-135747748D01*
X100848434Y-135282533D01*
X101492708Y-135282533D01*
X101711138Y-135683792D01*
X102091264Y-135975230D01*
X102553983Y-136099016D01*
X102746600Y-135983917D01*
X102746600Y-135099000D01*
X103196600Y-135099000D01*
X103196600Y-135983917D01*
X103389217Y-136099016D01*
X103851936Y-135975230D01*
X104232062Y-135683792D01*
X104277057Y-135601134D01*
X121273053Y-135601134D01*
X121402185Y-135913657D01*
X121641085Y-136152974D01*
X121953383Y-136282652D01*
X122291534Y-136282947D01*
X122604057Y-136153815D01*
X122843374Y-135914915D01*
X122973052Y-135602617D01*
X122973347Y-135264466D01*
X122844215Y-134951943D01*
X122605315Y-134712626D01*
X122293017Y-134582948D01*
X121954866Y-134582653D01*
X121642343Y-134711785D01*
X121403026Y-134950685D01*
X121273348Y-135262983D01*
X121273053Y-135601134D01*
X104277057Y-135601134D01*
X104450492Y-135282533D01*
X104385652Y-135099000D01*
X103196600Y-135099000D01*
X102746600Y-135099000D01*
X101557548Y-135099000D01*
X101492708Y-135282533D01*
X100848434Y-135282533D01*
X100834769Y-135268845D01*
X100209824Y-135009345D01*
X99533144Y-135008755D01*
X98907748Y-135267164D01*
X98497700Y-135676496D01*
X98497700Y-135524798D01*
X98359226Y-135524798D01*
X98425989Y-135359130D01*
X98274989Y-135081511D01*
X97952466Y-134796658D01*
X97851304Y-134761922D01*
X98201965Y-134527617D01*
X98243492Y-134465467D01*
X101492708Y-134465467D01*
X101557548Y-134649000D01*
X102746600Y-134649000D01*
X102746600Y-133764083D01*
X103196600Y-133764083D01*
X103196600Y-134649000D01*
X104385652Y-134649000D01*
X104450492Y-134465467D01*
X104232062Y-134064208D01*
X103851936Y-133772770D01*
X103389217Y-133648984D01*
X103196600Y-133764083D01*
X102746600Y-133764083D01*
X102553983Y-133648984D01*
X102091264Y-133772770D01*
X101711138Y-134064208D01*
X101492708Y-134465467D01*
X98243492Y-134465467D01*
X98440415Y-134170752D01*
X98524148Y-133749800D01*
X98440415Y-133328848D01*
X98201965Y-132971983D01*
X97869445Y-132749800D01*
X98201965Y-132527617D01*
X98440415Y-132170752D01*
X98524148Y-131749800D01*
X98488782Y-131572000D01*
X101412964Y-131572000D01*
X101412964Y-133096000D01*
X101444342Y-133262760D01*
X101542897Y-133415919D01*
X101693275Y-133518668D01*
X101871780Y-133554816D01*
X104071420Y-133554816D01*
X104238180Y-133523438D01*
X104391339Y-133424883D01*
X104494088Y-133274505D01*
X104530236Y-133096000D01*
X104530236Y-132857934D01*
X109284253Y-132857934D01*
X109413385Y-133170457D01*
X109652285Y-133409774D01*
X109964583Y-133539452D01*
X110302734Y-133539747D01*
X110615257Y-133410615D01*
X110854574Y-133171715D01*
X110984252Y-132859417D01*
X110984474Y-132603934D01*
X128385053Y-132603934D01*
X128514185Y-132916457D01*
X128753085Y-133155774D01*
X129065383Y-133285452D01*
X129403534Y-133285747D01*
X129716057Y-133156615D01*
X129955374Y-132917715D01*
X130085052Y-132605417D01*
X130085347Y-132267266D01*
X129956215Y-131954743D01*
X129717315Y-131715426D01*
X129405017Y-131585748D01*
X129066866Y-131585453D01*
X128754343Y-131714585D01*
X128515026Y-131953485D01*
X128385348Y-132265783D01*
X128385053Y-132603934D01*
X110984474Y-132603934D01*
X110984547Y-132521266D01*
X110855415Y-132208743D01*
X110616515Y-131969426D01*
X110431821Y-131892734D01*
X113551453Y-131892734D01*
X113680585Y-132205257D01*
X113919485Y-132444574D01*
X114231783Y-132574252D01*
X114569934Y-132574547D01*
X114882457Y-132445415D01*
X115121774Y-132206515D01*
X115251452Y-131894217D01*
X115251747Y-131556066D01*
X115122615Y-131243543D01*
X114883715Y-131004226D01*
X114571417Y-130874548D01*
X114233266Y-130874253D01*
X113920743Y-131003385D01*
X113681426Y-131242285D01*
X113551748Y-131554583D01*
X113551453Y-131892734D01*
X110431821Y-131892734D01*
X110304217Y-131839748D01*
X109966066Y-131839453D01*
X109653543Y-131968585D01*
X109414226Y-132207485D01*
X109284548Y-132519783D01*
X109284253Y-132857934D01*
X104530236Y-132857934D01*
X104530236Y-131572000D01*
X104498858Y-131405240D01*
X104400303Y-131252081D01*
X104249925Y-131149332D01*
X104071420Y-131113184D01*
X101871780Y-131113184D01*
X101705020Y-131144562D01*
X101551861Y-131243117D01*
X101449112Y-131393495D01*
X101412964Y-131572000D01*
X98488782Y-131572000D01*
X98440415Y-131328848D01*
X98201965Y-130971983D01*
X97869445Y-130749800D01*
X98201965Y-130527617D01*
X98440415Y-130170752D01*
X98524148Y-129749800D01*
X98440415Y-129328848D01*
X98320601Y-129149534D01*
X113957853Y-129149534D01*
X114086985Y-129462057D01*
X114325885Y-129701374D01*
X114638183Y-129831052D01*
X114976334Y-129831347D01*
X115288857Y-129702215D01*
X115528174Y-129463315D01*
X115657852Y-129151017D01*
X115658147Y-128812866D01*
X115529015Y-128500343D01*
X115290115Y-128261026D01*
X114977817Y-128131348D01*
X114639666Y-128131053D01*
X114327143Y-128260185D01*
X114087826Y-128499085D01*
X113958148Y-128811383D01*
X113957853Y-129149534D01*
X98320601Y-129149534D01*
X98201965Y-128971983D01*
X97869445Y-128749800D01*
X98201965Y-128527617D01*
X98431339Y-128184334D01*
X107811053Y-128184334D01*
X107940185Y-128496857D01*
X108179085Y-128736174D01*
X108491383Y-128865852D01*
X108829534Y-128866147D01*
X109142057Y-128737015D01*
X109381374Y-128498115D01*
X109511052Y-128185817D01*
X109511347Y-127847666D01*
X109382215Y-127535143D01*
X109143315Y-127295826D01*
X109009821Y-127240394D01*
X109185134Y-127240547D01*
X109359902Y-127168334D01*
X122644653Y-127168334D01*
X122773785Y-127480857D01*
X123012685Y-127720174D01*
X123324983Y-127849852D01*
X123663134Y-127850147D01*
X123975657Y-127721015D01*
X124045860Y-127650934D01*
X128461253Y-127650934D01*
X128590385Y-127963457D01*
X128829285Y-128202774D01*
X129141583Y-128332452D01*
X129479734Y-128332747D01*
X129792257Y-128203615D01*
X130031574Y-127964715D01*
X130161252Y-127652417D01*
X130161279Y-127621410D01*
X130317934Y-127621547D01*
X130630457Y-127492415D01*
X130869774Y-127253515D01*
X130938548Y-127087891D01*
X131232334Y-127088147D01*
X131544857Y-126959015D01*
X131784174Y-126720115D01*
X131913852Y-126407817D01*
X131914147Y-126069666D01*
X131813787Y-125826777D01*
X131885774Y-125754915D01*
X132015452Y-125442617D01*
X132015453Y-125441134D01*
X133922253Y-125441134D01*
X134051385Y-125753657D01*
X134290285Y-125992974D01*
X134602583Y-126122652D01*
X134642193Y-126122687D01*
X134762585Y-126414057D01*
X135001485Y-126653374D01*
X135313783Y-126783052D01*
X135651934Y-126783347D01*
X135964457Y-126654215D01*
X136203774Y-126415315D01*
X136333452Y-126103017D01*
X136333605Y-125927238D01*
X136661455Y-126146300D01*
X136328935Y-126368483D01*
X136090485Y-126725348D01*
X136006752Y-127146300D01*
X136090485Y-127567252D01*
X136328935Y-127924117D01*
X136661455Y-128146300D01*
X136328935Y-128368483D01*
X136090485Y-128725348D01*
X136006752Y-129146300D01*
X136090485Y-129567252D01*
X136328935Y-129924117D01*
X136661455Y-130146300D01*
X136328935Y-130368483D01*
X136090485Y-130725348D01*
X136006752Y-131146300D01*
X136090485Y-131567252D01*
X136328935Y-131924117D01*
X136661455Y-132146300D01*
X136328935Y-132368483D01*
X136090485Y-132725348D01*
X136006752Y-133146300D01*
X136090485Y-133567252D01*
X136328935Y-133924117D01*
X136685800Y-134162567D01*
X137106752Y-134246300D01*
X137659648Y-134246300D01*
X138080600Y-134162567D01*
X138437465Y-133924117D01*
X138533200Y-133780840D01*
X138533200Y-133885811D01*
X138601709Y-134051205D01*
X138728296Y-134177792D01*
X138893690Y-134246300D01*
X139545700Y-134246300D01*
X139658200Y-134133800D01*
X139658200Y-133371300D01*
X140108200Y-133371300D01*
X140108200Y-134133800D01*
X140220700Y-134246300D01*
X140872710Y-134246300D01*
X141038104Y-134177792D01*
X141164691Y-134051205D01*
X141233200Y-133885811D01*
X141233200Y-133483800D01*
X141120700Y-133371300D01*
X140108200Y-133371300D01*
X139658200Y-133371300D01*
X139638200Y-133371300D01*
X139638200Y-132921300D01*
X139658200Y-132921300D01*
X139658200Y-132158800D01*
X139644127Y-132144727D01*
X139658200Y-132136351D01*
X139658200Y-131371300D01*
X140108200Y-131371300D01*
X140108200Y-132136351D01*
X140122273Y-132144727D01*
X140108200Y-132158800D01*
X140108200Y-132921300D01*
X141120700Y-132921300D01*
X141233200Y-132808800D01*
X141233200Y-132406789D01*
X141164691Y-132241395D01*
X141038104Y-132114808D01*
X140872710Y-132046300D01*
X140748136Y-132046300D01*
X141010489Y-131814589D01*
X141161489Y-131536970D01*
X141094725Y-131371300D01*
X140108200Y-131371300D01*
X139658200Y-131371300D01*
X139638200Y-131371300D01*
X139638200Y-130921300D01*
X139658200Y-130921300D01*
X139658200Y-130156249D01*
X139641484Y-130146300D01*
X139658200Y-130136351D01*
X139658200Y-129371300D01*
X140108200Y-129371300D01*
X140108200Y-130136351D01*
X140124916Y-130146300D01*
X140108200Y-130156249D01*
X140108200Y-130921300D01*
X141094725Y-130921300D01*
X141161489Y-130755630D01*
X141010489Y-130478011D01*
X140687966Y-130193158D01*
X140551502Y-130146300D01*
X140687966Y-130099442D01*
X141010489Y-129814589D01*
X141161489Y-129536970D01*
X141094725Y-129371300D01*
X140108200Y-129371300D01*
X139658200Y-129371300D01*
X139638200Y-129371300D01*
X139638200Y-128921300D01*
X139658200Y-128921300D01*
X139658200Y-128156249D01*
X139641484Y-128146300D01*
X139658200Y-128136351D01*
X139658200Y-127371300D01*
X140108200Y-127371300D01*
X140108200Y-128136351D01*
X140124916Y-128146300D01*
X140108200Y-128156249D01*
X140108200Y-128921300D01*
X141094725Y-128921300D01*
X141161489Y-128755630D01*
X141010489Y-128478011D01*
X140687966Y-128193158D01*
X140551502Y-128146300D01*
X140687966Y-128099442D01*
X141010489Y-127814589D01*
X141161489Y-127536970D01*
X141094725Y-127371300D01*
X140108200Y-127371300D01*
X139658200Y-127371300D01*
X139638200Y-127371300D01*
X139638200Y-126921300D01*
X139658200Y-126921300D01*
X139658200Y-126901300D01*
X140108200Y-126901300D01*
X140108200Y-126921300D01*
X141094725Y-126921300D01*
X141161489Y-126755630D01*
X141010489Y-126478011D01*
X140687966Y-126193158D01*
X140586804Y-126158422D01*
X140937465Y-125924117D01*
X141175915Y-125567252D01*
X141259648Y-125146300D01*
X141175915Y-124725348D01*
X140937465Y-124368483D01*
X140580600Y-124130033D01*
X140159648Y-124046300D01*
X139606752Y-124046300D01*
X139185800Y-124130033D01*
X138828935Y-124368483D01*
X138633200Y-124661421D01*
X138437465Y-124368483D01*
X138080600Y-124130033D01*
X137659648Y-124046300D01*
X137106752Y-124046300D01*
X136685800Y-124130033D01*
X136328935Y-124368483D01*
X136090485Y-124725348D01*
X136006752Y-125146300D01*
X136033539Y-125280969D01*
X135965715Y-125213026D01*
X135653417Y-125083348D01*
X135613807Y-125083313D01*
X135493415Y-124791943D01*
X135254515Y-124552626D01*
X134942217Y-124422948D01*
X134604066Y-124422653D01*
X134291543Y-124551785D01*
X134052226Y-124790685D01*
X133922548Y-125102983D01*
X133922253Y-125441134D01*
X132015453Y-125441134D01*
X132015747Y-125104466D01*
X131886615Y-124791943D01*
X131647715Y-124552626D01*
X131335417Y-124422948D01*
X130997266Y-124422653D01*
X130684743Y-124551785D01*
X130445426Y-124790685D01*
X130315748Y-125102983D01*
X130315453Y-125441134D01*
X130415813Y-125684023D01*
X130343826Y-125755885D01*
X130275052Y-125921509D01*
X129981266Y-125921253D01*
X129668743Y-126050385D01*
X129429426Y-126289285D01*
X129299748Y-126601583D01*
X129299721Y-126632590D01*
X129143066Y-126632453D01*
X128830543Y-126761585D01*
X128591226Y-127000485D01*
X128461548Y-127312783D01*
X128461253Y-127650934D01*
X124045860Y-127650934D01*
X124214974Y-127482115D01*
X124344652Y-127169817D01*
X124344947Y-126831666D01*
X124215815Y-126519143D01*
X123976915Y-126279826D01*
X123664617Y-126150148D01*
X123326466Y-126149853D01*
X123013943Y-126278985D01*
X122774626Y-126517885D01*
X122644948Y-126830183D01*
X122644653Y-127168334D01*
X109359902Y-127168334D01*
X109497657Y-127111415D01*
X109736974Y-126872515D01*
X109866652Y-126560217D01*
X109866947Y-126222066D01*
X109737815Y-125909543D01*
X109498915Y-125670226D01*
X109186617Y-125540548D01*
X108848466Y-125540253D01*
X108535943Y-125669385D01*
X108296626Y-125908285D01*
X108166948Y-126220583D01*
X108166653Y-126558734D01*
X108295785Y-126871257D01*
X108534685Y-127110574D01*
X108668179Y-127166006D01*
X108492866Y-127165853D01*
X108180343Y-127294985D01*
X107941026Y-127533885D01*
X107811348Y-127846183D01*
X107811053Y-128184334D01*
X98431339Y-128184334D01*
X98440415Y-128170752D01*
X98524148Y-127749800D01*
X98440415Y-127328848D01*
X98201965Y-126971983D01*
X97845100Y-126733533D01*
X97424148Y-126649800D01*
X96871252Y-126649800D01*
X96450300Y-126733533D01*
X96093435Y-126971983D01*
X95997700Y-127115260D01*
X95997700Y-127010289D01*
X95929191Y-126844895D01*
X95802604Y-126718308D01*
X95637210Y-126649800D01*
X94985200Y-126649800D01*
X94872700Y-126762300D01*
X94422700Y-126762300D01*
X94310200Y-126649800D01*
X93658190Y-126649800D01*
X93492796Y-126718308D01*
X93366209Y-126844895D01*
X93297700Y-127010289D01*
X92669500Y-127010289D01*
X92669500Y-125898334D01*
X97244653Y-125898334D01*
X97373785Y-126210857D01*
X97612685Y-126450174D01*
X97924983Y-126579852D01*
X98263134Y-126580147D01*
X98575657Y-126451015D01*
X98814974Y-126212115D01*
X98944652Y-125899817D01*
X98944947Y-125561666D01*
X98815815Y-125249143D01*
X98576915Y-125009826D01*
X98374416Y-124925741D01*
X98387889Y-124900970D01*
X98321125Y-124735300D01*
X97334600Y-124735300D01*
X97334600Y-125344278D01*
X97244948Y-125560183D01*
X97244653Y-125898334D01*
X92669500Y-125898334D01*
X92669500Y-124900970D01*
X93331311Y-124900970D01*
X93482311Y-125178589D01*
X93804834Y-125463442D01*
X94211815Y-125603188D01*
X94384600Y-125500351D01*
X94384600Y-124735300D01*
X94834600Y-124735300D01*
X94834600Y-125500351D01*
X95007385Y-125603188D01*
X95414366Y-125463442D01*
X95736889Y-125178589D01*
X95859600Y-124952980D01*
X95982311Y-125178589D01*
X96304834Y-125463442D01*
X96711815Y-125603188D01*
X96884600Y-125500351D01*
X96884600Y-124735300D01*
X95898075Y-124735300D01*
X95859600Y-124830773D01*
X95821125Y-124735300D01*
X94834600Y-124735300D01*
X94384600Y-124735300D01*
X93398075Y-124735300D01*
X93331311Y-124900970D01*
X92669500Y-124900970D01*
X92669500Y-122900970D01*
X93331311Y-122900970D01*
X93482311Y-123178589D01*
X93804834Y-123463442D01*
X93941298Y-123510300D01*
X93804834Y-123557158D01*
X93482311Y-123842011D01*
X93331311Y-124119630D01*
X93398075Y-124285300D01*
X94384600Y-124285300D01*
X94384600Y-123520249D01*
X94367884Y-123510300D01*
X94384600Y-123500351D01*
X94384600Y-122735300D01*
X93398075Y-122735300D01*
X93331311Y-122900970D01*
X92669500Y-122900970D01*
X92669500Y-120900970D01*
X93331311Y-120900970D01*
X93482311Y-121178589D01*
X93804834Y-121463442D01*
X93941298Y-121510300D01*
X93804834Y-121557158D01*
X93482311Y-121842011D01*
X93331311Y-122119630D01*
X93398075Y-122285300D01*
X94384600Y-122285300D01*
X94384600Y-121520249D01*
X94367884Y-121510300D01*
X94384600Y-121500351D01*
X94384600Y-120735300D01*
X93398075Y-120735300D01*
X93331311Y-120900970D01*
X92669500Y-120900970D01*
X92669500Y-118900970D01*
X93331311Y-118900970D01*
X93482311Y-119178589D01*
X93804834Y-119463442D01*
X93941298Y-119510300D01*
X93804834Y-119557158D01*
X93482311Y-119842011D01*
X93331311Y-120119630D01*
X93398075Y-120285300D01*
X94384600Y-120285300D01*
X94384600Y-119520249D01*
X94367884Y-119510300D01*
X94384600Y-119500351D01*
X94384600Y-118735300D01*
X93398075Y-118735300D01*
X93331311Y-118900970D01*
X92669500Y-118900970D01*
X92669500Y-116847800D01*
X93259600Y-116847800D01*
X93259600Y-117249811D01*
X93328109Y-117415205D01*
X93454696Y-117541792D01*
X93620090Y-117610300D01*
X93744664Y-117610300D01*
X93482311Y-117842011D01*
X93331311Y-118119630D01*
X93398075Y-118285300D01*
X94384600Y-118285300D01*
X94384600Y-117520249D01*
X94370527Y-117511873D01*
X94384600Y-117497800D01*
X94384600Y-116735300D01*
X93372100Y-116735300D01*
X93259600Y-116847800D01*
X92669500Y-116847800D01*
X92669500Y-115770789D01*
X93259600Y-115770789D01*
X93259600Y-116172800D01*
X93372100Y-116285300D01*
X94384600Y-116285300D01*
X94384600Y-115522800D01*
X94834600Y-115522800D01*
X94834600Y-116285300D01*
X94854600Y-116285300D01*
X94854600Y-116735300D01*
X94834600Y-116735300D01*
X94834600Y-117497800D01*
X94848673Y-117511873D01*
X94834600Y-117520249D01*
X94834600Y-118285300D01*
X94854600Y-118285300D01*
X94854600Y-118735300D01*
X94834600Y-118735300D01*
X94834600Y-119500351D01*
X94851316Y-119510300D01*
X94834600Y-119520249D01*
X94834600Y-120285300D01*
X94854600Y-120285300D01*
X94854600Y-120735300D01*
X94834600Y-120735300D01*
X94834600Y-121500351D01*
X94851316Y-121510300D01*
X94834600Y-121520249D01*
X94834600Y-122285300D01*
X94854600Y-122285300D01*
X94854600Y-122735300D01*
X94834600Y-122735300D01*
X94834600Y-123500351D01*
X94851316Y-123510300D01*
X94834600Y-123520249D01*
X94834600Y-124285300D01*
X95821125Y-124285300D01*
X95859600Y-124189827D01*
X95898075Y-124285300D01*
X96884600Y-124285300D01*
X96884600Y-124265300D01*
X97334600Y-124265300D01*
X97334600Y-124285300D01*
X97985248Y-124285300D01*
X98128183Y-124344652D01*
X98466334Y-124344947D01*
X98778857Y-124215815D01*
X99018174Y-123976915D01*
X99147852Y-123664617D01*
X99148008Y-123485334D01*
X104940853Y-123485334D01*
X105069985Y-123797857D01*
X105308885Y-124037174D01*
X105521801Y-124125585D01*
X105474548Y-124239383D01*
X105474253Y-124577534D01*
X105603385Y-124890057D01*
X105842285Y-125129374D01*
X106154583Y-125259052D01*
X106451637Y-125259311D01*
X106466985Y-125296457D01*
X106705885Y-125535774D01*
X107018183Y-125665452D01*
X107356334Y-125665747D01*
X107668857Y-125536615D01*
X107908174Y-125297715D01*
X108037852Y-124985417D01*
X108037853Y-124983934D01*
X112789453Y-124983934D01*
X112918585Y-125296457D01*
X113157485Y-125535774D01*
X113469783Y-125665452D01*
X113807934Y-125665747D01*
X114120457Y-125536615D01*
X114359774Y-125297715D01*
X114374050Y-125263334D01*
X124117853Y-125263334D01*
X124246985Y-125575857D01*
X124485885Y-125815174D01*
X124798183Y-125944852D01*
X125136334Y-125945147D01*
X125448857Y-125816015D01*
X125688174Y-125577115D01*
X125817852Y-125264817D01*
X125818147Y-124926666D01*
X125689015Y-124614143D01*
X125601759Y-124526734D01*
X126149853Y-124526734D01*
X126278985Y-124839257D01*
X126517885Y-125078574D01*
X126830183Y-125208252D01*
X127168334Y-125208547D01*
X127480857Y-125079415D01*
X127720174Y-124840515D01*
X127849852Y-124528217D01*
X127850147Y-124190066D01*
X127721015Y-123877543D01*
X127482115Y-123638226D01*
X127169817Y-123508548D01*
X126831666Y-123508253D01*
X126519143Y-123637385D01*
X126279826Y-123876285D01*
X126150148Y-124188583D01*
X126149853Y-124526734D01*
X125601759Y-124526734D01*
X125450115Y-124374826D01*
X125137817Y-124245148D01*
X124799666Y-124244853D01*
X124487143Y-124373985D01*
X124247826Y-124612885D01*
X124118148Y-124925183D01*
X124117853Y-125263334D01*
X114374050Y-125263334D01*
X114489452Y-124985417D01*
X114489747Y-124647266D01*
X114360615Y-124334743D01*
X114121715Y-124095426D01*
X113809417Y-123965748D01*
X113471266Y-123965453D01*
X113158743Y-124094585D01*
X112919426Y-124333485D01*
X112789748Y-124645783D01*
X112789453Y-124983934D01*
X108037853Y-124983934D01*
X108038147Y-124647266D01*
X107909015Y-124334743D01*
X107670115Y-124095426D01*
X107357817Y-123965748D01*
X107060763Y-123965489D01*
X107045415Y-123928343D01*
X106806515Y-123689026D01*
X106593599Y-123600615D01*
X106640852Y-123486817D01*
X106641147Y-123148666D01*
X106512015Y-122836143D01*
X106273115Y-122596826D01*
X105960817Y-122467148D01*
X105622666Y-122466853D01*
X105310143Y-122595985D01*
X105070826Y-122834885D01*
X104941148Y-123147183D01*
X104940853Y-123485334D01*
X99148008Y-123485334D01*
X99148147Y-123326466D01*
X99019015Y-123013943D01*
X98896644Y-122891359D01*
X99093383Y-122973052D01*
X99431534Y-122973347D01*
X99744057Y-122844215D01*
X99983374Y-122605315D01*
X100113052Y-122293017D01*
X100113053Y-122291534D01*
X106185453Y-122291534D01*
X106314585Y-122604057D01*
X106553485Y-122843374D01*
X106865783Y-122973052D01*
X107203934Y-122973347D01*
X107516457Y-122844215D01*
X107755774Y-122605315D01*
X107885452Y-122293017D01*
X107885747Y-121954866D01*
X107792146Y-121728334D01*
X111709853Y-121728334D01*
X111838985Y-122040857D01*
X112077885Y-122280174D01*
X112390183Y-122409852D01*
X112728334Y-122410147D01*
X113040857Y-122281015D01*
X113280174Y-122042115D01*
X113409852Y-121729817D01*
X113410026Y-121529534D01*
X113907053Y-121529534D01*
X114036185Y-121842057D01*
X114275085Y-122081374D01*
X114587383Y-122211052D01*
X114925534Y-122211347D01*
X115238057Y-122082215D01*
X115290482Y-122029881D01*
X115341885Y-122081374D01*
X115654183Y-122211052D01*
X115992334Y-122211347D01*
X116304857Y-122082215D01*
X116544174Y-121843315D01*
X116673852Y-121531017D01*
X116673853Y-121529534D01*
X118834653Y-121529534D01*
X118963785Y-121842057D01*
X119202685Y-122081374D01*
X119514983Y-122211052D01*
X119853134Y-122211347D01*
X120165657Y-122082215D01*
X120312193Y-121935934D01*
X127521453Y-121935934D01*
X127650585Y-122248457D01*
X127889485Y-122487774D01*
X128201783Y-122617452D01*
X128539934Y-122617747D01*
X128852457Y-122488615D01*
X128997464Y-122343861D01*
X129166983Y-122414252D01*
X129505134Y-122414547D01*
X129817657Y-122285415D01*
X129946415Y-122156881D01*
X130073885Y-122284574D01*
X130386183Y-122414252D01*
X130724334Y-122414547D01*
X131036857Y-122285415D01*
X131234282Y-122088334D01*
X131890253Y-122088334D01*
X132019385Y-122400857D01*
X132258285Y-122640174D01*
X132570583Y-122769852D01*
X132908734Y-122770147D01*
X133221257Y-122641015D01*
X133460574Y-122402115D01*
X133590252Y-122089817D01*
X133590547Y-121751666D01*
X133461415Y-121439143D01*
X133222515Y-121199826D01*
X132910217Y-121070148D01*
X132572066Y-121069853D01*
X132259543Y-121198985D01*
X132020226Y-121437885D01*
X131890548Y-121750183D01*
X131890253Y-122088334D01*
X131234282Y-122088334D01*
X131276174Y-122046515D01*
X131405852Y-121734217D01*
X131406147Y-121396066D01*
X131277015Y-121083543D01*
X131038115Y-120844226D01*
X130725817Y-120714548D01*
X130387666Y-120714253D01*
X130075143Y-120843385D01*
X129946385Y-120971919D01*
X129818915Y-120844226D01*
X129506617Y-120714548D01*
X129168466Y-120714253D01*
X128855943Y-120843385D01*
X128710936Y-120988139D01*
X128541417Y-120917748D01*
X128203266Y-120917453D01*
X127890743Y-121046585D01*
X127651426Y-121285485D01*
X127521748Y-121597783D01*
X127521453Y-121935934D01*
X120312193Y-121935934D01*
X120404974Y-121843315D01*
X120534652Y-121531017D01*
X120534947Y-121192866D01*
X120405815Y-120880343D01*
X120166915Y-120641026D01*
X119854617Y-120511348D01*
X119516466Y-120511053D01*
X119203943Y-120640185D01*
X118964626Y-120879085D01*
X118834948Y-121191383D01*
X118834653Y-121529534D01*
X116673853Y-121529534D01*
X116674147Y-121192866D01*
X116545015Y-120880343D01*
X116306115Y-120641026D01*
X115993817Y-120511348D01*
X115655666Y-120511053D01*
X115343143Y-120640185D01*
X115290718Y-120692519D01*
X115239315Y-120641026D01*
X114927017Y-120511348D01*
X114588866Y-120511053D01*
X114276343Y-120640185D01*
X114037026Y-120879085D01*
X113907348Y-121191383D01*
X113907053Y-121529534D01*
X113410026Y-121529534D01*
X113410147Y-121391666D01*
X113281015Y-121079143D01*
X113042115Y-120839826D01*
X112729817Y-120710148D01*
X112391666Y-120709853D01*
X112079143Y-120838985D01*
X111839826Y-121077885D01*
X111710148Y-121390183D01*
X111709853Y-121728334D01*
X107792146Y-121728334D01*
X107756615Y-121642343D01*
X107517715Y-121403026D01*
X107205417Y-121273348D01*
X106867266Y-121273053D01*
X106554743Y-121402185D01*
X106315426Y-121641085D01*
X106185748Y-121953383D01*
X106185453Y-122291534D01*
X100113053Y-122291534D01*
X100113347Y-121954866D01*
X99984215Y-121642343D01*
X99745315Y-121403026D01*
X99433017Y-121273348D01*
X99094866Y-121273053D01*
X98782343Y-121402185D01*
X98543026Y-121641085D01*
X98413348Y-121953383D01*
X98413182Y-122143978D01*
X98402315Y-122089348D01*
X98163865Y-121732483D01*
X97831345Y-121510300D01*
X98163865Y-121288117D01*
X98402315Y-120931252D01*
X98424775Y-120818334D01*
X109284253Y-120818334D01*
X109413385Y-121130857D01*
X109652285Y-121370174D01*
X109964583Y-121499852D01*
X110302734Y-121500147D01*
X110615257Y-121371015D01*
X110854574Y-121132115D01*
X110984252Y-120819817D01*
X110984430Y-120615577D01*
X111123257Y-120558215D01*
X111362574Y-120319315D01*
X111492252Y-120007017D01*
X111492547Y-119668866D01*
X111363415Y-119356343D01*
X111124515Y-119117026D01*
X110812217Y-118987348D01*
X110474066Y-118987053D01*
X110161543Y-119116185D01*
X109922226Y-119355085D01*
X109792548Y-119667383D01*
X109792370Y-119871623D01*
X109653543Y-119928985D01*
X109414226Y-120167885D01*
X109284548Y-120480183D01*
X109284253Y-120818334D01*
X98424775Y-120818334D01*
X98486048Y-120510300D01*
X98402315Y-120089348D01*
X98163865Y-119732483D01*
X97831345Y-119510300D01*
X98163865Y-119288117D01*
X98402315Y-118931252D01*
X98486048Y-118510300D01*
X98402315Y-118089348D01*
X98163865Y-117732483D01*
X97831345Y-117510300D01*
X98163865Y-117288117D01*
X98402315Y-116931252D01*
X98472873Y-116576534D01*
X102197653Y-116576534D01*
X102326785Y-116889057D01*
X102565685Y-117128374D01*
X102877983Y-117258052D01*
X103216134Y-117258347D01*
X103449259Y-117162022D01*
X103442548Y-117178183D01*
X103442253Y-117516334D01*
X103571385Y-117828857D01*
X103810285Y-118068174D01*
X104122583Y-118197852D01*
X104460734Y-118198147D01*
X104773257Y-118069015D01*
X105012574Y-117830115D01*
X105142252Y-117517817D01*
X105142308Y-117452834D01*
X105893353Y-117452834D01*
X106022485Y-117765357D01*
X106261385Y-118004674D01*
X106573683Y-118134352D01*
X106911834Y-118134647D01*
X106932921Y-118125934D01*
X120917453Y-118125934D01*
X121046585Y-118438457D01*
X121098874Y-118490838D01*
X121098226Y-118491485D01*
X120968548Y-118803783D01*
X120968253Y-119141934D01*
X121097385Y-119454457D01*
X121336285Y-119693774D01*
X121648583Y-119823452D01*
X121730279Y-119823523D01*
X121730253Y-119853134D01*
X121859385Y-120165657D01*
X122098285Y-120404974D01*
X122410583Y-120534652D01*
X122748734Y-120534947D01*
X123061257Y-120405815D01*
X123300574Y-120166915D01*
X123346491Y-120056334D01*
X125692653Y-120056334D01*
X125821785Y-120368857D01*
X126060685Y-120608174D01*
X126372983Y-120737852D01*
X126711134Y-120738147D01*
X127023657Y-120609015D01*
X127262974Y-120370115D01*
X127392652Y-120057817D01*
X127392947Y-119719666D01*
X127263815Y-119407143D01*
X127024915Y-119167826D01*
X126712617Y-119038148D01*
X126374466Y-119037853D01*
X126061943Y-119166985D01*
X125822626Y-119405885D01*
X125692948Y-119718183D01*
X125692653Y-120056334D01*
X123346491Y-120056334D01*
X123430252Y-119854617D01*
X123430547Y-119516466D01*
X123301415Y-119203943D01*
X123062515Y-118964626D01*
X122750217Y-118834948D01*
X122668521Y-118834877D01*
X122668547Y-118805266D01*
X122539415Y-118492743D01*
X122487126Y-118440362D01*
X122487774Y-118439715D01*
X122617452Y-118127417D01*
X122617549Y-118015991D01*
X122858057Y-117916615D01*
X123004593Y-117770334D01*
X124498853Y-117770334D01*
X124627985Y-118082857D01*
X124866885Y-118322174D01*
X125179183Y-118451852D01*
X125517334Y-118452147D01*
X125829857Y-118323015D01*
X126069174Y-118084115D01*
X126198852Y-117771817D01*
X126199147Y-117433666D01*
X126169370Y-117361600D01*
X137933984Y-117361600D01*
X137933984Y-119061600D01*
X137965362Y-119228360D01*
X138063917Y-119381519D01*
X138214295Y-119484268D01*
X138392800Y-119520416D01*
X140092800Y-119520416D01*
X140259560Y-119489038D01*
X140412719Y-119390483D01*
X140515468Y-119240105D01*
X140551616Y-119061600D01*
X140551616Y-117361600D01*
X140520238Y-117194840D01*
X140421683Y-117041681D01*
X140271305Y-116938932D01*
X140092800Y-116902784D01*
X139467802Y-116902784D01*
X139467802Y-116839502D01*
X139665329Y-116901039D01*
X140103652Y-116645759D01*
X140410918Y-116242172D01*
X140472220Y-116094126D01*
X140408789Y-115896600D01*
X139467800Y-115896600D01*
X139467800Y-115916600D01*
X139017800Y-115916600D01*
X139017800Y-115896600D01*
X138076811Y-115896600D01*
X138013380Y-116094126D01*
X138074682Y-116242172D01*
X138381948Y-116645759D01*
X138820271Y-116901039D01*
X139017798Y-116839502D01*
X139017798Y-116902784D01*
X138392800Y-116902784D01*
X138226040Y-116934162D01*
X138072881Y-117032717D01*
X137970132Y-117183095D01*
X137933984Y-117361600D01*
X126169370Y-117361600D01*
X126070015Y-117121143D01*
X125831115Y-116881826D01*
X125518817Y-116752148D01*
X125180666Y-116751853D01*
X124868143Y-116880985D01*
X124628826Y-117119885D01*
X124499148Y-117432183D01*
X124498853Y-117770334D01*
X123004593Y-117770334D01*
X123097374Y-117677715D01*
X123227052Y-117365417D01*
X123227347Y-117027266D01*
X123098215Y-116714743D01*
X122859315Y-116475426D01*
X122547017Y-116345748D01*
X122208866Y-116345453D01*
X121896343Y-116474585D01*
X121657026Y-116713485D01*
X121527348Y-117025783D01*
X121527251Y-117137209D01*
X121286743Y-117236585D01*
X121047426Y-117475485D01*
X120917748Y-117787783D01*
X120917453Y-118125934D01*
X106932921Y-118125934D01*
X107224357Y-118005515D01*
X107463674Y-117766615D01*
X107593352Y-117454317D01*
X107593647Y-117116166D01*
X107464515Y-116803643D01*
X107225615Y-116564326D01*
X106913317Y-116434648D01*
X106575166Y-116434353D01*
X106262643Y-116563485D01*
X106023326Y-116802385D01*
X105893648Y-117114683D01*
X105893353Y-117452834D01*
X105142308Y-117452834D01*
X105142547Y-117179666D01*
X105013415Y-116867143D01*
X104774515Y-116627826D01*
X104462217Y-116498148D01*
X104124066Y-116497853D01*
X103890941Y-116594178D01*
X103897652Y-116578017D01*
X103897947Y-116239866D01*
X103768815Y-115927343D01*
X103529915Y-115688026D01*
X103217617Y-115558348D01*
X102879466Y-115558053D01*
X102566943Y-115687185D01*
X102327626Y-115926085D01*
X102197948Y-116238383D01*
X102197653Y-116576534D01*
X98472873Y-116576534D01*
X98486048Y-116510300D01*
X98402315Y-116089348D01*
X98163865Y-115732483D01*
X97807000Y-115494033D01*
X97386048Y-115410300D01*
X96833152Y-115410300D01*
X96412200Y-115494033D01*
X96055335Y-115732483D01*
X95959600Y-115875760D01*
X95959600Y-115770789D01*
X95891091Y-115605395D01*
X95764504Y-115478808D01*
X95599110Y-115410300D01*
X94947100Y-115410300D01*
X94834600Y-115522800D01*
X94384600Y-115522800D01*
X94272100Y-115410300D01*
X93620090Y-115410300D01*
X93454696Y-115478808D01*
X93328109Y-115605395D01*
X93259600Y-115770789D01*
X92669500Y-115770789D01*
X92669500Y-114976334D01*
X109335053Y-114976334D01*
X109464185Y-115288857D01*
X109703085Y-115528174D01*
X109803674Y-115569942D01*
X109704343Y-115610985D01*
X109465026Y-115849885D01*
X109335348Y-116162183D01*
X109335053Y-116500334D01*
X109464185Y-116812857D01*
X109703085Y-117052174D01*
X110015383Y-117181852D01*
X110353534Y-117182147D01*
X110666057Y-117053015D01*
X110905374Y-116814115D01*
X111035052Y-116501817D01*
X111035347Y-116163666D01*
X110906215Y-115851143D01*
X110667315Y-115611826D01*
X110566726Y-115570058D01*
X110666057Y-115529015D01*
X110905374Y-115290115D01*
X110922415Y-115249074D01*
X138013380Y-115249074D01*
X138076811Y-115446600D01*
X139017800Y-115446600D01*
X139017800Y-114503699D01*
X139467800Y-114503699D01*
X139467800Y-115446600D01*
X140408789Y-115446600D01*
X140472220Y-115249074D01*
X140410918Y-115101028D01*
X140103652Y-114697441D01*
X139665329Y-114442161D01*
X139467800Y-114503699D01*
X139017800Y-114503699D01*
X138820271Y-114442161D01*
X138381948Y-114697441D01*
X138074682Y-115101028D01*
X138013380Y-115249074D01*
X110922415Y-115249074D01*
X111035052Y-114977817D01*
X111035347Y-114639666D01*
X110906215Y-114327143D01*
X110667315Y-114087826D01*
X110360282Y-113960334D01*
X124943353Y-113960334D01*
X125072485Y-114272857D01*
X125311385Y-114512174D01*
X125623683Y-114641852D01*
X125961834Y-114642147D01*
X126274357Y-114513015D01*
X126513674Y-114274115D01*
X126617600Y-114023834D01*
X129896353Y-114023834D01*
X130025485Y-114336357D01*
X130264385Y-114575674D01*
X130576683Y-114705352D01*
X130914834Y-114705647D01*
X131227357Y-114576515D01*
X131466674Y-114337615D01*
X131596352Y-114025317D01*
X131596647Y-113687166D01*
X131467515Y-113374643D01*
X131228615Y-113135326D01*
X130916317Y-113005648D01*
X130578166Y-113005353D01*
X130265643Y-113134485D01*
X130026326Y-113373385D01*
X129896648Y-113685683D01*
X129896353Y-114023834D01*
X126617600Y-114023834D01*
X126643352Y-113961817D01*
X126643647Y-113623666D01*
X126514515Y-113311143D01*
X126275615Y-113071826D01*
X125963317Y-112942148D01*
X125625166Y-112941853D01*
X125312643Y-113070985D01*
X125073326Y-113309885D01*
X124943648Y-113622183D01*
X124943353Y-113960334D01*
X110360282Y-113960334D01*
X110355017Y-113958148D01*
X110016866Y-113957853D01*
X109704343Y-114086985D01*
X109465026Y-114325885D01*
X109335348Y-114638183D01*
X109335053Y-114976334D01*
X92669500Y-114976334D01*
X92669500Y-110912334D01*
X94044253Y-110912334D01*
X94173385Y-111224857D01*
X94403474Y-111455348D01*
X94225026Y-111633485D01*
X94095348Y-111945783D01*
X94095053Y-112283934D01*
X94224185Y-112596457D01*
X94352719Y-112725215D01*
X94225026Y-112852685D01*
X94095348Y-113164983D01*
X94095053Y-113503134D01*
X94224185Y-113815657D01*
X94463085Y-114054974D01*
X94775383Y-114184652D01*
X95113534Y-114184947D01*
X95426057Y-114055815D01*
X95631148Y-113851082D01*
X95834685Y-114054974D01*
X96146983Y-114184652D01*
X96485134Y-114184947D01*
X96797657Y-114055815D01*
X96977304Y-113876482D01*
X97155485Y-114054974D01*
X97467783Y-114184652D01*
X97805934Y-114184947D01*
X98118457Y-114055815D01*
X98357774Y-113816915D01*
X98487452Y-113504617D01*
X98487747Y-113166466D01*
X98358615Y-112853943D01*
X98179326Y-112674341D01*
X98306974Y-112546915D01*
X98436652Y-112234617D01*
X98436947Y-111896466D01*
X98307815Y-111583943D01*
X98207881Y-111483834D01*
X105893353Y-111483834D01*
X106022485Y-111796357D01*
X106261385Y-112035674D01*
X106573683Y-112165352D01*
X106911834Y-112165647D01*
X107224357Y-112036515D01*
X107463674Y-111797615D01*
X107593352Y-111485317D01*
X107593647Y-111147166D01*
X107464515Y-110834643D01*
X107225615Y-110595326D01*
X106913317Y-110465648D01*
X106575166Y-110465353D01*
X106262643Y-110594485D01*
X106023326Y-110833385D01*
X105893648Y-111145683D01*
X105893353Y-111483834D01*
X98207881Y-111483834D01*
X98128482Y-111404296D01*
X98306974Y-111226115D01*
X98436652Y-110913817D01*
X98436947Y-110575666D01*
X98307815Y-110263143D01*
X98068915Y-110023826D01*
X98006561Y-109997934D01*
X109335053Y-109997934D01*
X109464185Y-110310457D01*
X109491119Y-110337438D01*
X109465026Y-110363485D01*
X109335348Y-110675783D01*
X109335053Y-111013934D01*
X109464185Y-111326457D01*
X109465719Y-111327993D01*
X109465026Y-111328685D01*
X109335348Y-111640983D01*
X109335053Y-111979134D01*
X109464185Y-112291657D01*
X109465719Y-112293193D01*
X109465026Y-112293885D01*
X109335348Y-112606183D01*
X109335053Y-112944334D01*
X109464185Y-113256857D01*
X109703085Y-113496174D01*
X110015383Y-113625852D01*
X110353534Y-113626147D01*
X110666057Y-113497015D01*
X110905374Y-113258115D01*
X111035052Y-112945817D01*
X111035347Y-112607666D01*
X110906215Y-112295143D01*
X110904681Y-112293607D01*
X110905374Y-112292915D01*
X111035052Y-111980617D01*
X111035347Y-111642466D01*
X110906215Y-111329943D01*
X110904681Y-111328407D01*
X110905374Y-111327715D01*
X111035052Y-111015417D01*
X111035347Y-110677266D01*
X110906215Y-110364743D01*
X110879281Y-110337762D01*
X110905374Y-110311715D01*
X111035052Y-109999417D01*
X111035203Y-109826050D01*
X111132983Y-109866652D01*
X111471134Y-109866947D01*
X111783657Y-109737815D01*
X112022974Y-109498915D01*
X112132173Y-109235934D01*
X112433853Y-109235934D01*
X112562985Y-109548457D01*
X112801885Y-109787774D01*
X113114183Y-109917452D01*
X113452334Y-109917747D01*
X113764857Y-109788615D01*
X114004174Y-109549715D01*
X114133852Y-109237417D01*
X114134147Y-108899266D01*
X114005015Y-108586743D01*
X113766115Y-108347426D01*
X113453817Y-108217748D01*
X113115666Y-108217453D01*
X112803143Y-108346585D01*
X112563826Y-108585485D01*
X112434148Y-108897783D01*
X112433853Y-109235934D01*
X112132173Y-109235934D01*
X112152652Y-109186617D01*
X112152947Y-108848466D01*
X112023815Y-108535943D01*
X111784915Y-108296626D01*
X111472617Y-108166948D01*
X111134466Y-108166653D01*
X110821943Y-108295785D01*
X110582626Y-108534685D01*
X110452948Y-108846983D01*
X110452797Y-109020350D01*
X110355017Y-108979748D01*
X110016866Y-108979453D01*
X109704343Y-109108585D01*
X109465026Y-109347485D01*
X109335348Y-109659783D01*
X109335053Y-109997934D01*
X98006561Y-109997934D01*
X97756617Y-109894148D01*
X97418466Y-109893853D01*
X97105943Y-110022985D01*
X96926296Y-110202318D01*
X96748115Y-110023826D01*
X96435817Y-109894148D01*
X96097666Y-109893853D01*
X95785143Y-110022985D01*
X95580052Y-110227718D01*
X95376515Y-110023826D01*
X95064217Y-109894148D01*
X94726066Y-109893853D01*
X94413543Y-110022985D01*
X94174226Y-110261885D01*
X94044548Y-110574183D01*
X94044253Y-110912334D01*
X92669500Y-110912334D01*
X92669500Y-106848334D01*
X125070353Y-106848334D01*
X125199485Y-107160857D01*
X125438385Y-107400174D01*
X125750683Y-107529852D01*
X126088834Y-107530147D01*
X126401357Y-107401015D01*
X126640674Y-107162115D01*
X126718691Y-106974229D01*
X126837785Y-107262457D01*
X127076685Y-107501774D01*
X127388983Y-107631452D01*
X127727134Y-107631747D01*
X128039657Y-107502615D01*
X128278974Y-107263715D01*
X128408652Y-106951417D01*
X128408947Y-106613266D01*
X128279815Y-106300743D01*
X128151370Y-106172074D01*
X128177374Y-106146115D01*
X128307052Y-105833817D01*
X128307347Y-105495666D01*
X128178215Y-105183143D01*
X127939315Y-104943826D01*
X127627017Y-104814148D01*
X127288866Y-104813853D01*
X126976343Y-104942985D01*
X126737026Y-105181885D01*
X126607348Y-105494183D01*
X126607053Y-105832334D01*
X126736185Y-106144857D01*
X126864630Y-106273526D01*
X126838626Y-106299485D01*
X126760609Y-106487371D01*
X126641515Y-106199143D01*
X126402615Y-105959826D01*
X126090317Y-105830148D01*
X125752166Y-105829853D01*
X125439643Y-105958985D01*
X125200326Y-106197885D01*
X125070648Y-106510183D01*
X125070353Y-106848334D01*
X92669500Y-106848334D01*
X92669500Y-105895834D01*
X106845853Y-105895834D01*
X106974985Y-106208357D01*
X107213885Y-106447674D01*
X107526183Y-106577352D01*
X107864334Y-106577647D01*
X108176857Y-106448515D01*
X108416174Y-106209615D01*
X108545852Y-105897317D01*
X108545964Y-105768834D01*
X113449853Y-105768834D01*
X113578985Y-106081357D01*
X113817885Y-106320674D01*
X114130183Y-106450352D01*
X114468334Y-106450647D01*
X114780857Y-106321515D01*
X115020174Y-106082615D01*
X115149852Y-105770317D01*
X115149853Y-105768834D01*
X117386853Y-105768834D01*
X117515985Y-106081357D01*
X117754885Y-106320674D01*
X118067183Y-106450352D01*
X118405334Y-106450647D01*
X118717857Y-106321515D01*
X118957174Y-106082615D01*
X119086852Y-105770317D01*
X119086908Y-105705334D01*
X119418853Y-105705334D01*
X119547985Y-106017857D01*
X119786885Y-106257174D01*
X120099183Y-106386852D01*
X120437334Y-106387147D01*
X120749857Y-106258015D01*
X120989174Y-106019115D01*
X121118852Y-105706817D01*
X121119147Y-105368666D01*
X120990015Y-105056143D01*
X120751115Y-104816826D01*
X120438817Y-104687148D01*
X120100666Y-104686853D01*
X119788143Y-104815985D01*
X119548826Y-105054885D01*
X119419148Y-105367183D01*
X119418853Y-105705334D01*
X119086908Y-105705334D01*
X119087147Y-105432166D01*
X118958015Y-105119643D01*
X118719115Y-104880326D01*
X118406817Y-104750648D01*
X118068666Y-104750353D01*
X117756143Y-104879485D01*
X117516826Y-105118385D01*
X117387148Y-105430683D01*
X117386853Y-105768834D01*
X115149853Y-105768834D01*
X115150147Y-105432166D01*
X115021015Y-105119643D01*
X114782115Y-104880326D01*
X114469817Y-104750648D01*
X114131666Y-104750353D01*
X113819143Y-104879485D01*
X113579826Y-105118385D01*
X113450148Y-105430683D01*
X113449853Y-105768834D01*
X108545964Y-105768834D01*
X108546147Y-105559166D01*
X108417015Y-105246643D01*
X108178115Y-105007326D01*
X107865817Y-104877648D01*
X107527666Y-104877353D01*
X107215143Y-105006485D01*
X106975826Y-105245385D01*
X106846148Y-105557683D01*
X106845853Y-105895834D01*
X92669500Y-105895834D01*
X92669500Y-105019534D01*
X94044253Y-105019534D01*
X94173385Y-105332057D01*
X94412285Y-105571374D01*
X94724583Y-105701052D01*
X95062734Y-105701347D01*
X95375257Y-105572215D01*
X95554948Y-105392837D01*
X95783885Y-105622174D01*
X96096183Y-105751852D01*
X96434334Y-105752147D01*
X96746857Y-105623015D01*
X96926504Y-105443682D01*
X97104685Y-105622174D01*
X97416983Y-105751852D01*
X97755134Y-105752147D01*
X98067657Y-105623015D01*
X98306974Y-105384115D01*
X98436652Y-105071817D01*
X98436947Y-104733666D01*
X98307815Y-104421143D01*
X98068915Y-104181826D01*
X97756617Y-104052148D01*
X97418466Y-104051853D01*
X97105943Y-104180985D01*
X96926296Y-104360318D01*
X96748115Y-104181826D01*
X96435817Y-104052148D01*
X96097666Y-104051853D01*
X95785143Y-104180985D01*
X95605452Y-104360363D01*
X95376515Y-104131026D01*
X95064217Y-104001348D01*
X94726066Y-104001053D01*
X94413543Y-104130185D01*
X94174226Y-104369085D01*
X94044548Y-104681383D01*
X94044253Y-105019534D01*
X92669500Y-105019534D01*
X92669500Y-103698734D01*
X121679453Y-103698734D01*
X121808585Y-104011257D01*
X122047485Y-104250574D01*
X122359783Y-104380252D01*
X122697934Y-104380547D01*
X123010457Y-104251415D01*
X123249774Y-104012515D01*
X123379452Y-103700217D01*
X123379586Y-103546334D01*
X123609853Y-103546334D01*
X123738985Y-103858857D01*
X123977885Y-104098174D01*
X124290183Y-104227852D01*
X124628334Y-104228147D01*
X124940857Y-104099015D01*
X125180174Y-103860115D01*
X125309852Y-103547817D01*
X125309986Y-103393934D01*
X127419853Y-103393934D01*
X127548985Y-103706457D01*
X127787885Y-103945774D01*
X128100183Y-104075452D01*
X128438334Y-104075747D01*
X128750857Y-103946615D01*
X128990174Y-103707715D01*
X129092702Y-103460800D01*
X135854352Y-103460800D01*
X135938085Y-103881752D01*
X136176535Y-104238617D01*
X136509055Y-104460800D01*
X136176535Y-104682983D01*
X135938085Y-105039848D01*
X135854352Y-105460800D01*
X135938085Y-105881752D01*
X136176535Y-106238617D01*
X136509055Y-106460800D01*
X136176535Y-106682983D01*
X135938085Y-107039848D01*
X135854352Y-107460800D01*
X135938085Y-107881752D01*
X136176535Y-108238617D01*
X136509055Y-108460800D01*
X136176535Y-108682983D01*
X135938085Y-109039848D01*
X135854352Y-109460800D01*
X135938085Y-109881752D01*
X136176535Y-110238617D01*
X136533400Y-110477067D01*
X136954352Y-110560800D01*
X137507248Y-110560800D01*
X137928200Y-110477067D01*
X138285065Y-110238617D01*
X138493453Y-109926743D01*
X138603511Y-110129089D01*
X138926034Y-110413942D01*
X139333015Y-110553688D01*
X139505800Y-110450851D01*
X139505800Y-109685800D01*
X139955800Y-109685800D01*
X139955800Y-110450851D01*
X140128585Y-110553688D01*
X140535566Y-110413942D01*
X140858089Y-110129089D01*
X141009089Y-109851470D01*
X140942325Y-109685800D01*
X139955800Y-109685800D01*
X139505800Y-109685800D01*
X139485800Y-109685800D01*
X139485800Y-109235800D01*
X139505800Y-109235800D01*
X139505800Y-109215800D01*
X139955800Y-109215800D01*
X139955800Y-109235800D01*
X140942325Y-109235800D01*
X141009089Y-109070130D01*
X140858089Y-108792511D01*
X140535566Y-108507658D01*
X140434404Y-108472922D01*
X140785065Y-108238617D01*
X141023515Y-107881752D01*
X141107248Y-107460800D01*
X141023515Y-107039848D01*
X140785065Y-106682983D01*
X140452545Y-106460800D01*
X140785065Y-106238617D01*
X141023515Y-105881752D01*
X141107248Y-105460800D01*
X141023515Y-105039848D01*
X140785065Y-104682983D01*
X140452545Y-104460800D01*
X140785065Y-104238617D01*
X141023515Y-103881752D01*
X141107248Y-103460800D01*
X141023515Y-103039848D01*
X140785065Y-102682983D01*
X140452545Y-102460800D01*
X140785065Y-102238617D01*
X141023515Y-101881752D01*
X141107248Y-101460800D01*
X141023515Y-101039848D01*
X140785065Y-100682983D01*
X140428200Y-100444533D01*
X140007248Y-100360800D01*
X139454352Y-100360800D01*
X139033400Y-100444533D01*
X138676535Y-100682983D01*
X138589616Y-100813066D01*
X138589616Y-100810800D01*
X138558238Y-100644040D01*
X138459683Y-100490881D01*
X138309305Y-100388132D01*
X138130800Y-100351984D01*
X136330800Y-100351984D01*
X136164040Y-100383362D01*
X136010881Y-100481917D01*
X135908132Y-100632295D01*
X135871984Y-100810800D01*
X135871984Y-102110800D01*
X135903362Y-102277560D01*
X136001917Y-102430719D01*
X136152295Y-102533468D01*
X136330800Y-102569616D01*
X136346200Y-102569616D01*
X136176535Y-102682983D01*
X135938085Y-103039848D01*
X135854352Y-103460800D01*
X129092702Y-103460800D01*
X129119852Y-103395417D01*
X129120147Y-103057266D01*
X128991015Y-102744743D01*
X128752115Y-102505426D01*
X128439817Y-102375748D01*
X128101666Y-102375453D01*
X127789143Y-102504585D01*
X127549826Y-102743485D01*
X127420148Y-103055783D01*
X127419853Y-103393934D01*
X125309986Y-103393934D01*
X125310147Y-103209666D01*
X125181015Y-102897143D01*
X124942115Y-102657826D01*
X124629817Y-102528148D01*
X124291666Y-102527853D01*
X123979143Y-102656985D01*
X123739826Y-102895885D01*
X123610148Y-103208183D01*
X123609853Y-103546334D01*
X123379586Y-103546334D01*
X123379747Y-103362066D01*
X123250615Y-103049543D01*
X123011715Y-102810226D01*
X122699417Y-102680548D01*
X122361266Y-102680253D01*
X122048743Y-102809385D01*
X121809426Y-103048285D01*
X121679748Y-103360583D01*
X121679453Y-103698734D01*
X92669500Y-103698734D01*
X92669500Y-99229667D01*
X96724706Y-99229667D01*
X96982970Y-99854715D01*
X97460770Y-100333350D01*
X98085366Y-100592704D01*
X98761667Y-100593294D01*
X99360325Y-100345934D01*
X126505453Y-100345934D01*
X126634585Y-100658457D01*
X126873485Y-100897774D01*
X127185783Y-101027452D01*
X127523934Y-101027747D01*
X127836457Y-100898615D01*
X128075774Y-100659715D01*
X128205452Y-100347417D01*
X128205747Y-100009266D01*
X128076615Y-99696743D01*
X127837715Y-99457426D01*
X127525417Y-99327748D01*
X127187266Y-99327453D01*
X126874743Y-99456585D01*
X126635426Y-99695485D01*
X126505748Y-100007783D01*
X126505453Y-100345934D01*
X99360325Y-100345934D01*
X99386715Y-100335030D01*
X99865350Y-99857230D01*
X100124704Y-99232634D01*
X100125294Y-98556333D01*
X99867030Y-97931285D01*
X99389230Y-97452650D01*
X98764634Y-97193296D01*
X98088333Y-97192706D01*
X97463285Y-97450970D01*
X96984650Y-97928770D01*
X96725296Y-98553366D01*
X96724706Y-99229667D01*
X92669500Y-99229667D01*
X92669500Y-95187085D01*
X97449113Y-95187085D01*
X97596838Y-95415660D01*
X98242574Y-95616678D01*
X98916084Y-95555283D01*
X99253162Y-95415660D01*
X99400887Y-95187085D01*
X98425000Y-94211198D01*
X97449113Y-95187085D01*
X92669500Y-95187085D01*
X92669500Y-93710574D01*
X96701322Y-93710574D01*
X96762717Y-94384084D01*
X96902340Y-94721162D01*
X97130915Y-94868887D01*
X98106802Y-93893000D01*
X98743198Y-93893000D01*
X99719085Y-94868887D01*
X99947660Y-94721162D01*
X100148678Y-94075426D01*
X100087283Y-93401916D01*
X99947660Y-93064838D01*
X99719085Y-92917113D01*
X98743198Y-93893000D01*
X98106802Y-93893000D01*
X97130915Y-92917113D01*
X96902340Y-93064838D01*
X96701322Y-93710574D01*
X92669500Y-93710574D01*
X92669500Y-92598915D01*
X97449113Y-92598915D01*
X98425000Y-93574802D01*
X99400887Y-92598915D01*
X99351653Y-92522734D01*
X110300253Y-92522734D01*
X110429385Y-92835257D01*
X110668285Y-93074574D01*
X110980583Y-93204252D01*
X111318734Y-93204547D01*
X111631257Y-93075415D01*
X111734571Y-92972281D01*
X111836685Y-93074574D01*
X112148983Y-93204252D01*
X112487134Y-93204547D01*
X112799657Y-93075415D01*
X112928415Y-92946881D01*
X112996318Y-93014904D01*
X112817826Y-93193085D01*
X112688148Y-93505383D01*
X112687853Y-93843534D01*
X112816985Y-94156057D01*
X112970919Y-94310259D01*
X112817826Y-94463085D01*
X112688148Y-94775383D01*
X112687853Y-95113534D01*
X112816985Y-95426057D01*
X112996318Y-95605704D01*
X112817826Y-95783885D01*
X112688148Y-96096183D01*
X112687853Y-96434334D01*
X112816985Y-96746857D01*
X112996318Y-96926504D01*
X112817826Y-97104685D01*
X112688148Y-97416983D01*
X112687853Y-97755134D01*
X112816985Y-98067657D01*
X113055885Y-98306974D01*
X113368183Y-98436652D01*
X113706334Y-98436947D01*
X114018857Y-98307815D01*
X114099957Y-98226856D01*
X127498755Y-98226856D01*
X127757164Y-98852252D01*
X128235231Y-99331155D01*
X128860176Y-99590655D01*
X129536856Y-99591245D01*
X130162252Y-99332836D01*
X130641155Y-98854769D01*
X130900655Y-98229824D01*
X130901245Y-97553144D01*
X130642836Y-96927748D01*
X130164769Y-96448845D01*
X129539824Y-96189345D01*
X128863144Y-96188755D01*
X128237748Y-96447164D01*
X127758845Y-96925231D01*
X127499345Y-97550176D01*
X127498755Y-98226856D01*
X114099957Y-98226856D01*
X114258174Y-98068915D01*
X114387852Y-97756617D01*
X114388147Y-97418466D01*
X114259015Y-97105943D01*
X114079682Y-96926296D01*
X114258174Y-96748115D01*
X114387852Y-96435817D01*
X114388147Y-96097666D01*
X114259015Y-95785143D01*
X114079682Y-95605496D01*
X114258174Y-95427315D01*
X114387852Y-95115017D01*
X114387936Y-95018185D01*
X116649312Y-95018185D01*
X116789058Y-95425166D01*
X117073911Y-95747689D01*
X117351530Y-95898689D01*
X117517200Y-95831925D01*
X117517200Y-94845400D01*
X116752149Y-94845400D01*
X116649312Y-95018185D01*
X114387936Y-95018185D01*
X114388147Y-94776866D01*
X114259015Y-94464343D01*
X114105081Y-94310141D01*
X114258174Y-94157315D01*
X114387852Y-93845017D01*
X114388147Y-93506866D01*
X114259015Y-93194343D01*
X114079682Y-93014696D01*
X114258174Y-92836515D01*
X114387852Y-92524217D01*
X114387857Y-92518185D01*
X116649312Y-92518185D01*
X116789058Y-92925166D01*
X117073911Y-93247689D01*
X117299520Y-93370400D01*
X117073911Y-93493111D01*
X116789058Y-93815634D01*
X116649312Y-94222615D01*
X116752149Y-94395400D01*
X117517200Y-94395400D01*
X117517200Y-93408875D01*
X117421727Y-93370400D01*
X117517200Y-93331925D01*
X117517200Y-92345400D01*
X117967200Y-92345400D01*
X117967200Y-93331925D01*
X118062673Y-93370400D01*
X117967200Y-93408875D01*
X117967200Y-94395400D01*
X117987200Y-94395400D01*
X117987200Y-94845400D01*
X117967200Y-94845400D01*
X117967200Y-95831925D01*
X118132870Y-95898689D01*
X118410489Y-95747689D01*
X118695342Y-95425166D01*
X118730078Y-95324004D01*
X118964383Y-95674665D01*
X119321248Y-95913115D01*
X119742200Y-95996848D01*
X120163152Y-95913115D01*
X120520017Y-95674665D01*
X120742200Y-95342145D01*
X120964383Y-95674665D01*
X121321248Y-95913115D01*
X121742200Y-95996848D01*
X122163152Y-95913115D01*
X122520017Y-95674665D01*
X122742200Y-95342145D01*
X122964383Y-95674665D01*
X123321248Y-95913115D01*
X123742200Y-95996848D01*
X124163152Y-95913115D01*
X124520017Y-95674665D01*
X124742200Y-95342145D01*
X124964383Y-95674665D01*
X125321248Y-95913115D01*
X125742200Y-95996848D01*
X126163152Y-95913115D01*
X126520017Y-95674665D01*
X126758467Y-95317800D01*
X126820590Y-95005485D01*
X128993712Y-95005485D01*
X129133458Y-95412466D01*
X129418311Y-95734989D01*
X129695930Y-95885989D01*
X129861600Y-95819225D01*
X129861600Y-94832700D01*
X129096549Y-94832700D01*
X128993712Y-95005485D01*
X126820590Y-95005485D01*
X126842200Y-94896848D01*
X126842200Y-94343952D01*
X126758467Y-93923000D01*
X126520017Y-93566135D01*
X126376740Y-93470400D01*
X126481711Y-93470400D01*
X126647105Y-93401891D01*
X126773692Y-93275304D01*
X126842200Y-93109910D01*
X126842200Y-92505485D01*
X128993712Y-92505485D01*
X129133458Y-92912466D01*
X129418311Y-93234989D01*
X129643920Y-93357700D01*
X129418311Y-93480411D01*
X129133458Y-93802934D01*
X128993712Y-94209915D01*
X129096549Y-94382700D01*
X129861600Y-94382700D01*
X129861600Y-93396175D01*
X129766127Y-93357700D01*
X129861600Y-93319225D01*
X129861600Y-92332700D01*
X130311600Y-92332700D01*
X130311600Y-93319225D01*
X130407073Y-93357700D01*
X130311600Y-93396175D01*
X130311600Y-94382700D01*
X130331600Y-94382700D01*
X130331600Y-94832700D01*
X130311600Y-94832700D01*
X130311600Y-95819225D01*
X130477270Y-95885989D01*
X130754889Y-95734989D01*
X131039742Y-95412466D01*
X131074478Y-95311304D01*
X131308783Y-95661965D01*
X131665648Y-95900415D01*
X132086600Y-95984148D01*
X132507552Y-95900415D01*
X132864417Y-95661965D01*
X133086600Y-95329445D01*
X133308783Y-95661965D01*
X133665648Y-95900415D01*
X134086600Y-95984148D01*
X134507552Y-95900415D01*
X134864417Y-95661965D01*
X135086600Y-95329445D01*
X135308783Y-95661965D01*
X135665648Y-95900415D01*
X136086600Y-95984148D01*
X136507552Y-95900415D01*
X136864417Y-95661965D01*
X137086600Y-95329445D01*
X137308783Y-95661965D01*
X137665648Y-95900415D01*
X138086600Y-95984148D01*
X138507552Y-95900415D01*
X138864417Y-95661965D01*
X139102867Y-95305100D01*
X139186600Y-94884148D01*
X139186600Y-94331252D01*
X139102867Y-93910300D01*
X138864417Y-93553435D01*
X138721140Y-93457700D01*
X138826111Y-93457700D01*
X138991505Y-93389191D01*
X139118092Y-93262604D01*
X139186600Y-93097210D01*
X139186600Y-92445200D01*
X139074100Y-92332700D01*
X138311600Y-92332700D01*
X138311600Y-92352700D01*
X137861600Y-92352700D01*
X137861600Y-92332700D01*
X137099100Y-92332700D01*
X137085027Y-92346773D01*
X137076651Y-92332700D01*
X136311600Y-92332700D01*
X136311600Y-92352700D01*
X135861600Y-92352700D01*
X135861600Y-92332700D01*
X135096549Y-92332700D01*
X135086600Y-92349416D01*
X135076651Y-92332700D01*
X134311600Y-92332700D01*
X134311600Y-92352700D01*
X133861600Y-92352700D01*
X133861600Y-92332700D01*
X133096549Y-92332700D01*
X133086600Y-92349416D01*
X133076651Y-92332700D01*
X132311600Y-92332700D01*
X132311600Y-92352700D01*
X131861600Y-92352700D01*
X131861600Y-92332700D01*
X131096549Y-92332700D01*
X131086600Y-92349416D01*
X131076651Y-92332700D01*
X130311600Y-92332700D01*
X129861600Y-92332700D01*
X129096549Y-92332700D01*
X128993712Y-92505485D01*
X126842200Y-92505485D01*
X126842200Y-92457900D01*
X126729700Y-92345400D01*
X125967200Y-92345400D01*
X125967200Y-92365400D01*
X125517200Y-92365400D01*
X125517200Y-92345400D01*
X124754700Y-92345400D01*
X124740627Y-92359473D01*
X124732251Y-92345400D01*
X123967200Y-92345400D01*
X123967200Y-92365400D01*
X123517200Y-92365400D01*
X123517200Y-92345400D01*
X122752149Y-92345400D01*
X122742200Y-92362116D01*
X122732251Y-92345400D01*
X121967200Y-92345400D01*
X121967200Y-92365400D01*
X121517200Y-92365400D01*
X121517200Y-92345400D01*
X120752149Y-92345400D01*
X120742200Y-92362116D01*
X120732251Y-92345400D01*
X119967200Y-92345400D01*
X119967200Y-92365400D01*
X119517200Y-92365400D01*
X119517200Y-92345400D01*
X118752149Y-92345400D01*
X118742200Y-92362116D01*
X118732251Y-92345400D01*
X117967200Y-92345400D01*
X117517200Y-92345400D01*
X116752149Y-92345400D01*
X116649312Y-92518185D01*
X114387857Y-92518185D01*
X114388147Y-92186066D01*
X114259015Y-91873543D01*
X114108350Y-91722615D01*
X116649312Y-91722615D01*
X116752149Y-91895400D01*
X117517200Y-91895400D01*
X117517200Y-90908875D01*
X117967200Y-90908875D01*
X117967200Y-91895400D01*
X118732251Y-91895400D01*
X118742200Y-91878684D01*
X118752149Y-91895400D01*
X119517200Y-91895400D01*
X119517200Y-90908875D01*
X119967200Y-90908875D01*
X119967200Y-91895400D01*
X120732251Y-91895400D01*
X120742200Y-91878684D01*
X120752149Y-91895400D01*
X121517200Y-91895400D01*
X121517200Y-90908875D01*
X121967200Y-90908875D01*
X121967200Y-91895400D01*
X122732251Y-91895400D01*
X122742200Y-91878684D01*
X122752149Y-91895400D01*
X123517200Y-91895400D01*
X123517200Y-90908875D01*
X123967200Y-90908875D01*
X123967200Y-91895400D01*
X124732251Y-91895400D01*
X124740627Y-91881327D01*
X124754700Y-91895400D01*
X125517200Y-91895400D01*
X125517200Y-90882900D01*
X125967200Y-90882900D01*
X125967200Y-91895400D01*
X126729700Y-91895400D01*
X126842200Y-91782900D01*
X126842200Y-91709915D01*
X128993712Y-91709915D01*
X129096549Y-91882700D01*
X129861600Y-91882700D01*
X129861600Y-90896175D01*
X130311600Y-90896175D01*
X130311600Y-91882700D01*
X131076651Y-91882700D01*
X131086600Y-91865984D01*
X131096549Y-91882700D01*
X131861600Y-91882700D01*
X131861600Y-90896175D01*
X132311600Y-90896175D01*
X132311600Y-91882700D01*
X133076651Y-91882700D01*
X133086600Y-91865984D01*
X133096549Y-91882700D01*
X133861600Y-91882700D01*
X133861600Y-90896175D01*
X134311600Y-90896175D01*
X134311600Y-91882700D01*
X135076651Y-91882700D01*
X135086600Y-91865984D01*
X135096549Y-91882700D01*
X135861600Y-91882700D01*
X135861600Y-90896175D01*
X136311600Y-90896175D01*
X136311600Y-91882700D01*
X137076651Y-91882700D01*
X137085027Y-91868627D01*
X137099100Y-91882700D01*
X137861600Y-91882700D01*
X137861600Y-90870200D01*
X138311600Y-90870200D01*
X138311600Y-91882700D01*
X139074100Y-91882700D01*
X139186600Y-91770200D01*
X139186600Y-91118190D01*
X139118092Y-90952796D01*
X138991505Y-90826209D01*
X138826111Y-90757700D01*
X138424100Y-90757700D01*
X138311600Y-90870200D01*
X137861600Y-90870200D01*
X137749100Y-90757700D01*
X137347089Y-90757700D01*
X137181695Y-90826209D01*
X137055108Y-90952796D01*
X136986600Y-91118190D01*
X136986600Y-91242764D01*
X136754889Y-90980411D01*
X136477270Y-90829411D01*
X136311600Y-90896175D01*
X135861600Y-90896175D01*
X135695930Y-90829411D01*
X135418311Y-90980411D01*
X135133458Y-91302934D01*
X135086600Y-91439398D01*
X135039742Y-91302934D01*
X134754889Y-90980411D01*
X134477270Y-90829411D01*
X134311600Y-90896175D01*
X133861600Y-90896175D01*
X133695930Y-90829411D01*
X133418311Y-90980411D01*
X133133458Y-91302934D01*
X133086600Y-91439398D01*
X133039742Y-91302934D01*
X132754889Y-90980411D01*
X132477270Y-90829411D01*
X132311600Y-90896175D01*
X131861600Y-90896175D01*
X131695930Y-90829411D01*
X131418311Y-90980411D01*
X131133458Y-91302934D01*
X131086600Y-91439398D01*
X131039742Y-91302934D01*
X130754889Y-90980411D01*
X130477270Y-90829411D01*
X130311600Y-90896175D01*
X129861600Y-90896175D01*
X129695930Y-90829411D01*
X129418311Y-90980411D01*
X129133458Y-91302934D01*
X128993712Y-91709915D01*
X126842200Y-91709915D01*
X126842200Y-91130890D01*
X126773692Y-90965496D01*
X126647105Y-90838909D01*
X126481711Y-90770400D01*
X126079700Y-90770400D01*
X125967200Y-90882900D01*
X125517200Y-90882900D01*
X125404700Y-90770400D01*
X125002689Y-90770400D01*
X124837295Y-90838909D01*
X124710708Y-90965496D01*
X124642200Y-91130890D01*
X124642200Y-91255464D01*
X124410489Y-90993111D01*
X124132870Y-90842111D01*
X123967200Y-90908875D01*
X123517200Y-90908875D01*
X123351530Y-90842111D01*
X123073911Y-90993111D01*
X122789058Y-91315634D01*
X122742200Y-91452098D01*
X122695342Y-91315634D01*
X122410489Y-90993111D01*
X122132870Y-90842111D01*
X121967200Y-90908875D01*
X121517200Y-90908875D01*
X121351530Y-90842111D01*
X121073911Y-90993111D01*
X120789058Y-91315634D01*
X120742200Y-91452098D01*
X120695342Y-91315634D01*
X120410489Y-90993111D01*
X120132870Y-90842111D01*
X119967200Y-90908875D01*
X119517200Y-90908875D01*
X119351530Y-90842111D01*
X119073911Y-90993111D01*
X118789058Y-91315634D01*
X118742200Y-91452098D01*
X118695342Y-91315634D01*
X118410489Y-90993111D01*
X118132870Y-90842111D01*
X117967200Y-90908875D01*
X117517200Y-90908875D01*
X117351530Y-90842111D01*
X117073911Y-90993111D01*
X116789058Y-91315634D01*
X116649312Y-91722615D01*
X114108350Y-91722615D01*
X114020115Y-91634226D01*
X113707817Y-91504548D01*
X113369666Y-91504253D01*
X113057143Y-91633385D01*
X112928385Y-91761919D01*
X112800915Y-91634226D01*
X112488617Y-91504548D01*
X112150466Y-91504253D01*
X111837943Y-91633385D01*
X111734629Y-91736519D01*
X111632515Y-91634226D01*
X111320217Y-91504548D01*
X110982066Y-91504253D01*
X110669543Y-91633385D01*
X110430226Y-91872285D01*
X110300548Y-92184583D01*
X110300253Y-92522734D01*
X99351653Y-92522734D01*
X99253162Y-92370340D01*
X98607426Y-92169322D01*
X97933916Y-92230717D01*
X97596838Y-92370340D01*
X97449113Y-92598915D01*
X92669500Y-92598915D01*
X92669500Y-90701000D01*
X141328000Y-90701000D01*
X141328000Y-139359500D01*
M02*
